<?xml version="1.0" encoding="UTF-8" standalone="no"?>
<!-- Created with Inkscape (http://www.inkscape.org/) -->

<svg
   xmlns:dc="http://purl.org/dc/elements/1.1/"
   xmlns:cc="http://creativecommons.org/ns#"
   xmlns:rdf="http://www.w3.org/1999/02/22-rdf-syntax-ns#"
   xmlns:svg="http://www.w3.org/2000/svg"
   xmlns="http://www.w3.org/2000/svg"
   xmlns:xlink="http://www.w3.org/1999/xlink"
   xmlns:sodipodi="http://sodipodi.sourceforge.net/DTD/sodipodi-0.dtd"
   xmlns:inkscape="http://www.inkscape.org/namespaces/inkscape"
   width="16.860537mm"
   height="42.186123mm"
   id="svg2"
   version="1.1"
   inkscape:version="0.91 r13725"
   sodipodi:docname="brachypodium_distachyon_whole_plant.svg">
  <defs
     id="defs4" />
  <sodipodi:namedview
     id="base"
     pagecolor="#ffffff"
     bordercolor="#666666"
     borderopacity="1.0"
     inkscape:pageopacity="0.0"
     inkscape:pageshadow="2"
     inkscape:zoom="3.959798"
     inkscape:cx="23.403067"
     inkscape:cy="74.953037"
     inkscape:document-units="px"
     inkscape:current-layer="LAYER_EFO"
     showgrid="false"
     inkscape:window-width="1080"
     inkscape:window-height="935"
     inkscape:window-x="91"
     inkscape:window-y="82"
     inkscape:window-maximized="0"
     fit-margin-top="0"
     fit-margin-left="0"
     fit-margin-right="0"
     fit-margin-bottom="0" />
  <metadata
     id="metadata7">
    <rdf:RDF>
      <cc:Work
         rdf:about="">
        <dc:format>image/svg+xml</dc:format>
        <dc:type
           rdf:resource="http://purl.org/dc/dcmitype/StillImage" />
        <dc:title></dc:title>
      </cc:Work>
    </rdf:RDF>
  </metadata>
  <g
     id="group_all"
     transform="translate(-38.955494,-9.9676364)"
     style="display:inline">
    <g
       inkscape:label="outline"
       inkscape:groupmode="layer"
       id="outline"
       style="display:inline"
       sodipodi:insensitive="true">
      <path
         style="fill:#a0a1a2;fill-opacity:1"
         d="m 69.167966,159.37733 c -0.097,-0.38804 -0.122226,-1.98775 -0.03881,-2.46129 0.029,-0.16474 0.139382,-0.61511 0.24524,-1.00082 0.160712,-0.58556 0.183285,-0.8528 0.136798,-1.61966 -0.03066,-0.5051 -0.143537,-1.249 -0.25093,-1.6531 -0.107388,-0.40409 -0.222025,-0.89458 -0.254748,-1.08996 l -0.05951,-0.35525 -0.216181,0.44709 c -0.606284,1.25385 -1.097975,1.65436 -3.9625,3.22777 -0.527622,0.28981 -1.377588,0.92094 -1.377588,1.02291 0,0.043 -0.113649,0.10103 -0.25256,0.1291 -0.28597,0.0578 -0.499489,-0.13622 -0.421599,-0.38285 0.280868,-0.88932 1.019075,-1.62226 2.373188,-2.35626 1.994729,-1.08124 2.579017,-1.879 3.59056,-4.90227 0.249085,-0.74446 1.047311,-3.9471 1.047311,-4.20201 0,-0.13195 -0.04372,-0.11792 -0.252554,0.0809 -0.289201,0.27545 -1.500377,1.07141 -1.895673,1.24581 -0.347289,0.15323 -1.409872,0.85539 -1.734067,1.1459 -0.263282,0.23592 -0.481691,0.5177 -1.01217,1.30587 -0.517351,0.76867 -1.080178,1.25376 -1.612801,1.39006 -0.565185,0.14465 -0.965922,0.0453 -0.866109,-0.21491 0.03412,-0.089 0.194885,-0.28662 0.357192,-0.43917 0.162307,-0.15255 0.538596,-0.62867 0.836194,-1.05801 0.297598,-0.42935 0.704328,-0.94867 0.903845,-1.15407 0.651625,-0.67082 2.084898,-1.82535 3.240115,-2.60997 1.161464,-0.78885 1.946669,-1.5453 2.194065,-2.11366 0.07695,-0.17679 0.172991,-0.38808 0.213432,-0.46954 0.187838,-0.37836 0.291611,-1.34386 0.25495,-2.37203 -0.02157,-0.60612 -0.07091,-1.13369 -0.109631,-1.17239 -0.07595,-0.0759 -0.189511,-0.0175 -1.834521,0.94412 -1.412634,0.82578 -1.724421,1.0006 -2.469985,1.38489 -0.340601,0.17556 -0.671225,0.36819 -0.734716,0.42807 -0.150879,0.14231 -0.775913,0.43032 -0.933863,0.43032 -0.06788,0 -0.174845,0.062 -0.23773,0.13776 -0.06291,0.0757 -0.182456,0.13776 -0.265719,0.13776 -0.203838,0 -1.446372,0.73819 -1.846582,1.09707 -0.315237,0.28266 -0.966622,0.85445 -1.147988,1.00769 -0.0505,0.0427 -0.381137,0.4005 -0.734716,0.79517 -0.64894,0.72434 -1.868708,1.92867 -2.401077,2.37067 -0.350657,0.29114 -0.942023,0.33953 -0.965605,0.079 -0.03671,-0.40578 0.0974,-0.59132 1.337926,-1.85074 0.726325,-0.73737 1.541922,-1.59248 1.812431,-1.90026 0.95451,-1.08595 2.922266,-2.62973 3.361821,-2.63747 0.06312,-7.2e-4 0.114796,-0.0364 0.114796,-0.0785 0,-0.042 0.04032,-0.0766 0.08968,-0.0766 0.125486,0 2.598466,-1.22652 2.91262,-1.44456 0.141892,-0.0985 0.6506,-0.39725 1.130459,-0.66388 1.586519,-0.88161 2.447348,-1.52789 2.714713,-2.03811 0.07019,-0.13388 0.252366,-0.58542 0.404928,-1.00343 0.246053,-0.67421 0.358923,-0.84378 0.999467,-1.50155 0.7427,-0.76269 1.023885,-1.18202 1.023885,-1.527 0,-0.26408 -0.518272,-1.80002 -0.690211,-2.04551 -0.174895,-0.2497 -0.174267,-0.77527 0.0014,-1.19577 0.233856,-0.55969 0.211665,-0.73182 -0.456758,-3.54375 -0.185299,-0.7795 -0.385631,-1.48532 -0.44519,-1.56849 -0.171974,-0.24011 -1.99164,-1.89349 -3.424718,-3.11173 -0.81632,-0.69393 -1.534283,-1.57168 -2.111423,-2.58131 -0.245434,-0.42933 -0.488379,-0.81098 -0.539887,-0.84809 -0.05151,-0.0371 -0.06702,-0.0681 -0.03448,-0.0689 0.116621,-0.003 -1.30099,-2.68347 -1.850847,-3.49992 -0.703463,-1.04455 -1.592585,-2.14591 -1.939362,-2.4023 -0.459147,-0.33944 -1.040817,-1.08797 -0.908845,-1.16954 0.125732,-0.0777 1.136801,0.65099 2.470685,1.78068 0.423295,0.35848 1.043206,0.86009 1.377589,1.11468 0.706535,0.53794 1.550232,1.19102 2.343524,1.81404 0.308231,0.24208 0.72574,0.56418 0.927782,0.71579 0.916809,0.68795 3.025648,2.94108 3.193973,3.41254 0.02266,0.0634 0.06441,0.0943 0.09286,0.0686 0.02843,-0.0258 -0.04818,-0.25301 -0.170265,-0.5051 -0.311094,-0.6425 -0.295354,-0.99173 0.05598,-1.24191 0.237355,-0.16901 0.272083,-0.24278 0.229881,-0.48841 -0.188019,-1.09423 -0.330076,-2.3346 -0.417069,-3.64145 -0.05548,-0.83344 -0.119637,-1.74264 -0.142577,-2.02046 -0.07938,-0.96138 -0.335046,-6.01998 -0.359711,-7.11755 -0.02482,-1.104 -0.200317,-4.464036 -0.278236,-5.32667 -0.250087,-2.768883 -0.248629,-2.720421 -0.0874,-2.898576 0.145607,-0.160893 0.137989,-0.190778 -0.137181,-0.538196 -0.632982,-0.799216 -1.505961,-1.39495 -2.898625,-1.978084 -0.353579,-0.148059 -0.656652,-0.302432 -0.673489,-0.343061 -0.01681,-0.04061 -0.07192,-0.07386 -0.122457,-0.07386 -0.185334,0 -3.156641,-2.688584 -6.238177,-5.644611 -0.68654,-0.658577 -1.48478,-1.421269 -1.773874,-1.694866 -0.53063,-0.5022 -1.137795,-1.200094 -1.484816,-1.706688 -0.163345,-0.238466 -1.237579,-3.095416 -1.234224,-3.282453 0.0021,-0.122082 -0.742267,-0.79195 -1.378359,-1.240263 -0.226209,-0.159428 -0.700579,-0.559349 -1.054158,-0.888717 -0.353577,-0.32937 -0.673871,-0.600023 -0.711751,-0.601445 -0.03788,-0.0014 -0.145586,-0.07492 -0.239338,-0.163309 -0.09375,-0.08839 -0.305815,-0.264039 -0.47126,-0.390312 -0.165446,-0.126281 -0.55368,-0.435025 -0.862742,-0.686093 -0.30906,-0.251075 -0.603253,-0.489518 -0.653766,-0.52988 -0.885536,-0.707604 -1.771059,-1.504966 -1.913376,-1.722885 -0.08248,-0.126281 -0.42157,-0.539555 -0.753551,-0.91839 -0.331987,-0.378841 -0.669059,-0.812776 -0.749055,-0.964314 -0.08001,-0.151535 -0.17525,-0.296183 -0.211666,-0.321439 -0.03643,-0.02524 -0.139734,-0.190565 -0.229592,-0.367358 -0.08987,-0.176786 -0.19443,-0.3421 -0.232361,-0.36735 -0.119053,-0.07926 -1.374825,-2.648653 -1.374825,-2.812988 0,-0.06767 -0.303926,-0.763238 -0.465778,-1.065973 -0.04689,-0.08772 -0.08526,-0.205446 -0.08526,-0.261643 0,-0.0562 -0.05792,-0.232391 -0.128661,-0.391561 -0.07077,-0.159168 -0.202575,-0.547692 -0.292902,-0.863389 -0.09033,-0.315699 -0.190853,-0.573994 -0.22338,-0.573994 -0.03254,0 -0.05965,-0.05165 -0.06031,-0.114804 -6.12e-4,-0.06312 -0.09244,-0.321433 -0.204004,-0.573995 -0.377305,-0.854138 -1.018822,-2.509978 -1.293578,-3.338886 -0.106415,-0.321041 -0.258313,-0.682657 -0.337553,-0.803593 -0.07924,-0.120935 -0.113593,-0.219881 -0.07634,-0.219881 0.03726,0 0.02169,-0.05545 -0.03457,-0.12325 -0.05625,-0.06778 -0.0751,-0.150442 -0.04185,-0.183679 0.03325,-0.03324 0.01626,-0.06042 -0.03772,-0.06042 -0.05399,0 -0.141544,-0.113652 -0.194569,-0.252558 -0.09324,-0.244159 -0.378087,-0.755572 -0.473209,-0.849523 -0.285448,-0.281941 -1.009659,-1.196663 -1.009659,-1.275262 0,-0.174383 0.132164,-0.114824 0.486194,0.21911 0.187431,0.176791 0.365978,0.321438 0.396765,0.321438 0.0308,0 0.481061,0.332863 1.000599,0.739691 1.577468,1.235255 3.028993,2.803963 4.453348,4.812874 0.277811,0.391829 0.598103,0.827556 0.711752,0.968272 0.113649,0.140723 0.206638,0.287967 0.206638,0.327211 0,0.03924 0.05663,0.136589 0.125854,0.216341 0.266716,0.307264 0.527334,0.813728 2.874661,5.586241 0.478179,0.97222 1.03789,1.984752 1.243799,2.25006 0.366809,0.472618 0.486545,0.608853 1.271519,1.44669 0.919905,0.981845 1.548069,1.755161 1.973131,2.429062 0.250317,0.396862 0.444792,0.75658 0.432167,0.799358 -0.01262,0.04278 0.01175,0.07779 0.0541,0.07779 0.04242,0 0.127991,0.113649 0.190189,0.252561 0.14925,0.333307 0.851039,1.428021 0.970539,1.513939 0.0609,0.04379 0.0616,0.06897 0.0021,0.07171 -0.0505,0.0021 -0.01955,0.04631 0.0689,0.09781 0.08839,0.05151 0.160712,0.150101 0.160712,0.219153 0,0.06904 0.03131,0.139316 0.06954,0.156154 0.03824,0.01681 0.212553,0.216592 0.387326,0.443891 0.412386,0.536351 1.915346,2.039102 2.619726,2.619364 0.303067,0.249662 1.004799,0.867957 1.559402,1.373988 0.554595,0.506025 1.06352,0.961371 1.130934,1.011883 0.06738,0.0505 0.309646,0.264011 0.538307,0.474434 0.228653,0.210425 0.546285,0.496113 0.705851,0.634866 0.720661,0.626685 1.295652,1.192485 1.275943,1.255563 -0.01182,0.03788 0.03131,0.0689 0.0958,0.0689 0.06449,0 0.657308,0.526923 1.317293,1.170952 2.13551,2.083857 3.164575,3.019032 3.480542,3.163002 0.125305,0.05707 0.22783,0.132882 0.22783,0.168417 0,0.06225 0.656089,0.548933 0.739656,0.548638 0.04025,-1.81e-4 0.03976,-0.848637 -0.0051,-8.035784 -0.02142,-3.459223 0.09154,-8.486844 0.280695,-12.490131 0.05013,-1.060743 0.112936,-2.465887 0.139598,-3.122532 0.098,-2.41368 0.499488,-7.667463 0.677255,-8.862486 0.04884,-0.328325 0.113562,-0.824257 0.143825,-1.10207 0.0303,-0.277813 0.07236,-0.649762 0.09354,-0.826553 0.114386,-0.954522 0.435653,-3.789689 0.55156,-4.867477 0.196408,-1.826272 0.583228,-4.034383 0.780298,-4.454202 0.144417,-0.30765 0.157078,-0.434527 0.07789,-0.780632 -0.06702,-0.292985 -0.06226,-0.724635 0.01645,-1.482968 0.127643,-1.22998 0.06528,-4.119738 -0.102793,-4.762099 -0.05944,-0.227304 -0.110243,-0.779882 -0.112842,-1.227951 l -0.0051,-0.814675 -0.329094,-0.135428 c -0.181,-0.07448 -0.453074,-0.190095 -0.60461,-0.256909 -0.151538,-0.06681 -0.469616,-0.204222 -0.706847,-0.305348 -0.366666,-0.156307 -0.549265,-0.342467 -1.218051,-1.24181 -0.812235,-1.092233 -1.082862,-1.695537 -0.71774,-1.600057 0.199545,0.05219 -0.10469,-0.378557 -1.172235,-1.659661 -0.866751,-1.040142 -1.3383,-1.692347 -1.603328,-2.2176 -0.170603,-0.338094 -0.527968,-0.763239 -1.080789,-1.285749 -0.724579,-0.684864 -1.516753,-1.613964 -2.521227,-2.95703 -0.162524,-0.217306 -0.606796,-0.719699 -0.987268,-1.11643 -0.38048,-0.396733 -0.691778,-0.779013 -0.691778,-0.849513 0,-0.0705 0.01442,-0.128183 0.03204,-0.128183 0.147417,0 3.71462,3.788655 4.113264,4.36861 0.168215,0.244726 0.179209,0.248904 0.120661,0.04581 -0.03542,-0.122902 -0.16256,-0.408021 -0.2825,-0.633594 -0.119933,-0.225574 -0.218568,-0.455639 -0.219182,-0.511254 -6.06e-4,-0.05561 -0.424218,-0.519356 -0.941352,-1.030532 -0.517125,-0.511177 -1.208867,-1.232132 -1.537189,-1.602122 -0.32833,-0.369994 -0.858485,-0.933932 -1.178129,-1.253198 -0.319645,-0.319266 -0.567609,-0.617197 -0.551039,-0.662071 0.04084,-0.110557 1.60032,1.204906 1.930337,1.628295 0.352655,0.452433 1.476888,1.584336 1.525409,1.535817 0.04141,-0.04141 -0.746278,-1.372207 -0.928093,-1.568056 -0.06031,-0.06499 -0.213014,-0.255144 -0.339295,-0.422565 -0.463316,-0.614268 -1.53488,-1.796754 -2.264762,-2.499211 -0.639265,-0.615248 -0.975314,-1.0695 -0.791192,-1.0695 0.09435,0 2.93041,2.895853 3.313472,3.38334 0.211947,0.26972 0.385364,0.463648 0.385364,0.430949 0,-0.136742 -1.185812,-2.082472 -1.373087,-2.253022 -0.0277,-0.02525 -0.102373,-0.128575 -0.165856,-0.229597 -0.06348,-0.101023 -0.238349,-0.369654 -0.388574,-0.596956 -0.150231,-0.227301 -0.273922,-0.464934 -0.274882,-0.528075 -0.0028,-0.211299 0.158412,-0.117783 0.272509,0.157675 0.06211,0.14986 0.175912,0.3248 0.252979,0.388758 0.201545,0.167266 1.815859,2.63603 2.036404,3.114265 0.102265,0.221754 0.341763,0.816463 0.532204,1.321579 0.315086,0.83566 0.403225,0.974599 0.97841,1.542321 0.347669,0.343162 0.653398,0.602665 0.67939,0.576674 0.02597,-0.02599 0.279202,0.232396 0.562698,0.574194 0.636986,0.767979 0.95109,1.099317 2.3882,2.519269 0.62592,0.618448 1.256401,1.285951 1.40107,1.483342 0.144661,0.197392 0.59635,0.603551 1.003738,0.902574 0.766635,0.562708 1.296978,1.242917 1.829745,2.346799 0.12628,0.261646 0.254546,0.476364 0.285024,0.477149 0.08367,0.0021 0.266016,-1.966709 0.266016,-2.872195 0,-0.438061 -0.04589,-1.311431 -0.10193,-1.940823 -0.09908,-1.112458 -0.09632,-1.152205 0.09889,-1.426363 0.225784,-0.317088 0.200607,-0.623539 -0.100017,-1.217468 -0.228516,-0.451458 -0.217869,-0.78296 0.06326,-1.970058 0.129656,-0.547479 0.273885,-1.460504 0.320494,-2.028949 0.07832,-0.955043 0.215143,-1.714008 0.475928,-2.640034 0.09273,-0.329293 0.458175,-1.233438 1.150708,-2.847016 0.449958,-1.048368 0.724976,-2.446229 0.939578,-4.775638 0.148549,-1.612454 0.191769,-1.918954 0.284216,-2.015871 0.05043,-0.05288 0.09018,0.07375 0.100869,0.321438 0.02454,0.567817 0.02121,0.667526 -0.0528,1.602594 -0.117645,1.486625 -0.149552,1.738677 -0.284252,2.245789 -0.218093,0.82104 -0.07914,0.639157 0.182484,-0.23888 0.133242,-0.44715 0.32113,-1.061682 0.417531,-1.365626 0.259846,-0.819297 0.620842,-2.503347 0.826498,-3.855658 0.09985,-0.656649 0.20435,-1.266232 0.232203,-1.354626 0.07231,-0.229489 0.2217,-0.198761 0.223251,0.04592 0.0014,0.262196 -0.43159,2.973275 -0.587065,3.67357 -0.06449,0.29044 -0.09284,0.528075 -0.06298,0.528075 0.09101,0 0.819978,-1.957791 1.496071,-4.017967 0.352251,-1.07337 0.682479,-1.9515827 0.733835,-1.9515827 0.05533,0 0.06623,0.084127 0.02669,0.2066387 -0.03664,0.11365 -0.222285,0.799592 -0.412488,1.524314 -0.190203,0.724722 -0.429354,1.509947 -0.531447,1.744944 -0.327578,0.754071 -1.294034,3.271747 -1.266492,3.299295 0.01465,0.01463 0.279585,-0.480929 0.588761,-1.101266 0.309177,-0.620337 0.726289,-1.417177 0.926911,-1.770758 0.200627,-0.353581 0.394935,-0.703156 0.431798,-0.776832 0.195665,-0.39102 0.848105,-1.370127 1.067792,-1.602424 0.264355,-0.279528 0.478626,-0.266499 0.22747,0.01383 -0.160533,0.179177 -1.147483,1.865129 -1.761926,3.009792 -0.108903,0.20287 -0.236734,0.430172 -0.284072,0.505118 -0.158268,0.250548 -0.869378,1.945212 -0.909812,2.168195 -0.02193,0.121054 -0.06731,0.601935 -0.100722,1.068625 -0.08225,1.14759 -0.201955,2.350335 -0.267249,2.68531 -0.07248,0.37183 -0.497352,1.393723 -0.746625,1.795736 -0.182557,0.294426 -0.365718,0.95277 -0.452778,1.627454 -0.01774,0.137708 -0.09498,0.539671 -0.171569,0.893252 -0.256392,1.183587 -0.413347,2.01476 -0.520272,2.755175 -0.05837,0.404093 -0.223287,1.106663 -0.366514,1.561267 -0.143226,0.454605 -0.284201,0.984799 -0.313273,1.17821 -0.02907,0.193412 -0.09433,0.42914 -0.145023,0.523842 -0.117667,0.219866 -0.165524,0.828686 -0.230775,2.935829 -0.07041,2.273484 -0.07026,2.271879 -0.427428,4.50012 -0.05259,0.328326 -0.08472,0.679611 -0.07134,0.780633 0.05901,0.44511 0.02575,1.097698 -0.117105,2.29598 -0.189092,1.586247 -0.294228,3.601903 -0.208281,3.993209 l 0.0642,0.292321 0.427291,-0.463258 c 0.270668,-0.293453 0.823547,-0.697047 1.50834,-1.101072 0.94791,-0.559258 1.097572,-0.621294 1.215173,-0.503691 0.117603,0.117604 0.184757,0.104452 0.545197,-0.106782 0.226092,-0.132498 0.563209,-0.259775 0.749149,-0.282837 0.18594,-0.02306 0.368865,-0.06096 0.406493,-0.08422 0.03765,-0.02325 0.356681,-0.08317 0.70901,-0.133135 0.475605,-0.06745 0.791785,-0.181957 1.22756,-0.444554 0.322825,-0.194535 0.834916,-0.448331 1.137983,-0.563991 0.303073,-0.115661 0.614615,-0.241655 0.692332,-0.279989 0.07771,-0.03834 0.314125,-0.0989 0.525365,-0.134589 0.211247,-0.03568 0.478286,-0.137772 0.593421,-0.226852 0.299215,-0.231487 1.8259,-0.790877 2.689002,-0.985267 0.455671,-0.102628 0.944,-0.291777 1.285754,-0.498023 0.751047,-0.453255 1.959035,-1.098484 3.460357,-1.848299 0.690917,-0.345073 1.532666,-0.795347 1.870547,-1.000616 0.373546,-0.226941 0.64741,-0.340131 0.698738,-0.288798 0.05137,0.05134 -0.303853,0.310408 -0.906228,0.661018 -0.544864,0.317128 -1.279945,0.747483 -1.633524,0.956342 -0.353586,0.208857 -0.70487,0.400405 -0.780638,0.425659 -0.238436,0.07948 -1.290596,0.668637 -1.255961,0.703277 0.03341,0.03342 0.731129,-0.268756 1.988727,-0.86128 0.377767,-0.177986 0.729052,-0.331881 0.780631,-0.341989 0.172466,-0.0338 2.47971,-1.173862 2.619366,-1.294293 0.145693,-0.125635 0.826555,-0.284427 0.826555,-0.192771 0,0.02961 -0.175639,0.138102 -0.390319,0.241083 -0.214667,0.102979 -0.658945,0.347655 -0.987269,0.543721 -1.369824,0.818017 -3.007462,1.571812 -4.913394,2.261601 -0.252561,0.09141 -0.507272,0.202491 -0.566038,0.246855 -0.05872,0.04436 -0.224073,0.101675 -0.367357,0.127346 -0.143284,0.02567 -0.27429,0.08557 -0.291127,0.13312 -0.0168,0.04754 -0.07884,0.08792 -0.137765,0.08975 -0.132268,0.004 -0.693948,0.455073 -0.566341,0.454742 0.296754,-7.94e-4 1.320403,-0.203434 1.510571,-0.299068 0.123647,-0.06218 0.493659,-0.288702 0.822249,-0.503376 0.328582,-0.214674 0.682015,-0.389397 0.785406,-0.388274 0.175575,0.0018 0.172826,0.0139 -0.04162,0.181502 -0.126281,0.09871 -0.266932,0.167997 -0.312567,0.153982 -0.07199,-0.02212 -0.513988,0.352841 -0.513988,0.436067 0,0.07307 1.215345,-0.23459 1.94423,-0.49219 0.864877,-0.305657 1.027984,-0.335565 0.975763,-0.178908 -0.04242,0.127251 -1.260166,0.541095 -2.235344,0.759668 -1.041013,0.233328 -1.133395,0.268354 -1.743429,0.660992 -0.821053,0.52846 -1.144584,0.681026 -1.650472,0.778298 -1.283886,0.246864 -3.603271,1.151585 -3.420592,1.334269 0.02071,0.02072 0.323554,-0.0617 0.672977,-0.183134 0.754402,-0.262186 2.714878,-0.84139 3.137927,-0.927072 0.189743,-0.03843 0.298478,-0.02433 0.298478,0.03869 0,0.05451 -0.09998,0.09914 -0.222154,0.09914 -0.122183,0 -0.339158,0.06077 -0.482153,0.135064 -0.143003,0.07429 -0.61129,0.28454 -1.040637,0.467236 -0.429348,0.182694 -0.925279,0.397628 -1.102072,0.477632 -0.176786,0.08001 -0.693386,0.237291 -1.147989,0.349522 -1.010996,0.249594 -1.62067,0.479772 -2.367627,0.89388 -0.979578,0.54307 -1.098147,0.600323 -2.040652,0.985365 -0.505116,0.206355 -1.042376,0.440117 -1.193914,0.51947 -0.971462,0.508728 -1.520589,0.758054 -1.882702,0.854828 -1.068909,0.285666 -1.744945,0.740156 -1.744945,1.173112 0,0.0927 -0.03434,0.207804 -0.07636,0.255791 -0.141285,0.16143 -0.42623,1.34675 -0.528762,2.199549 -0.0243,0.202047 -0.08161,0.594659 -0.127371,0.872473 -0.04574,0.277813 -0.10497,0.69109 -0.131567,0.918392 -0.193516,1.653764 -0.253413,2.126643 -0.325712,2.571497 -0.08601,0.529229 -0.102633,0.721963 -0.324874,3.765408 -0.07561,1.035486 -0.157243,2.02735 -0.181389,2.204141 -0.09536,0.69824 -0.149985,1.68324 -0.18565,3.348405 -0.02048,0.95767 -0.06118,1.887537 -0.09038,2.066378 -0.07976,0.488581 -0.129793,1.453934 -0.285788,5.514081 -0.03008,0.782925 -0.07214,1.609481 -0.09341,1.836779 -0.02128,0.227306 -0.07917,1.322487 -0.128625,2.433742 -0.04949,1.111256 -0.115222,2.330418 -0.146155,2.709252 -0.03095,0.378842 -0.06724,3.478413 -0.08063,6.887946 -0.01342,3.409527 -0.05562,6.455489 -0.09375,6.7688 -0.06968,0.572617 0.100722,1.558202 0.346177,2.001841 0.05894,0.106548 0.08559,0.453661 0.06347,0.826551 -0.07398,1.246344 -0.01883,6.444567 0.08182,7.714497 0.05605,0.70717 0.12426,1.6577 0.151566,2.11231 0.02727,0.4546 0.08766,1.30182 0.134135,1.88269 0.04646,0.58089 0.108664,1.42811 0.138199,1.88271 0.08195,1.26159 0.290196,3.45598 0.498283,5.2509 l 0.05511,0.47525 0.596957,-0.70279 c 0.711752,-0.83797 1.118981,-1.25411 1.590516,-1.62531 0.327651,-0.25793 0.355691,-0.31945 0.439446,-0.96431 0.04919,-0.37883 0.148477,-1.12273 0.220617,-1.6531 0.07214,-0.53037 0.15554,-1.25361 0.185334,-1.60719 0.0298,-0.35357 0.114732,-1.15947 0.188761,-1.79087 0.07402,-0.63139 0.157358,-1.37528 0.185183,-1.6531 0.02784,-0.27782 0.08753,-0.73242 0.132679,-1.01023 0.217783,-1.34009 0.273814,-3.54167 0.137188,-5.390082 -0.08756,-1.184491 -0.01356,-1.573021 0.477565,-2.508087 0.447073,-0.851157 0.879428,-1.607365 1.00368,-1.755452 0.113874,-0.135739 0.275467,-1.051232 0.810866,-4.593849 0.234966,-1.554734 0.38102,-2.437509 0.689295,-4.166294 0.09909,-0.555628 0.223114,-1.361522 0.275639,-1.79087 0.05252,-0.429347 0.114038,-0.925278 0.136704,-1.102071 0.02266,-0.176786 0.06197,-0.486748 0.08739,-0.68879 0.127152,-1.011999 0.324801,-3.45965 0.378214,-4.683804 0.09261,-2.12243 0.09372,-2.132515 0.2557,-2.29449 0.08663,-0.08664 0.152424,-0.298118 0.152503,-0.490204 1.87e-4,-0.539692 0.352885,-3.4402 0.55945,-4.601225 0.132868,-0.746775 0.187312,-1.432342 0.182904,-2.303111 -0.01234,-2.433707 0.04863,-3.704659 0.196075,-4.090596 0.07799,-0.20411 0.168606,-0.596723 0.201357,-0.872472 0.117018,-0.98506 0.137743,-1.095285 0.242887,-1.291748 0.05858,-0.109431 0.118872,-0.348312 0.134022,-0.530845 0.01515,-0.182532 0.05519,-0.68316 0.089,-1.112509 0.08243,-1.0471 0.514059,-3.119925 1.022184,-4.908822 0.460237,-1.620304 0.626468,-2.02921 0.723807,-1.780445 0.09593,0.245182 -0.162712,1.362593 -0.315396,1.362593 -0.04263,0 -0.09917,0.134314 -0.125696,0.298477 -0.02655,0.164162 -0.175155,0.79441 -0.330305,1.400549 -0.155153,0.606139 -0.281368,1.164062 -0.280481,1.239829 0.0042,0.345436 0.224607,-0.293301 1.236706,-3.581729 0.1166,-0.378837 0.343898,-1.040079 0.505102,-1.469428 0.16121,-0.429348 0.331849,-0.913555 0.379201,-1.076011 0.04732,-0.162458 0.141071,-0.350361 0.208269,-0.417561 0.06723,-0.06721 0.154336,-0.223471 0.19363,-0.347273 0.03931,-0.123801 0.240766,-0.576478 0.447727,-1.005948 0.27051,-0.561351 0.384492,-0.724488 0.405456,-0.580335 0.01602,0.110286 -0.134073,0.544227 -0.33359,0.964312 -0.199516,0.420085 -0.425595,0.949766 -0.502388,1.177069 -0.0768,0.227302 -0.345066,0.991863 -0.596163,1.699024 -0.251097,0.707163 -0.484455,1.368404 -0.518576,1.469428 -0.03412,0.101022 0.04746,-0.02296 0.18125,-0.275518 0.133806,-0.252557 0.477075,-0.872472 0.762814,-1.377588 0.357596,-0.632128 0.519536,-1.018588 0.519536,-1.23983 0,-0.27565 0.02857,-0.318471 0.200692,-0.300614 0.166658,0.01728 0.32802,-0.188944 0.951452,-1.216049 0.430753,-0.709678 0.791639,-1.211603 0.846682,-1.177584 0.05642,0.03486 0.06846,0.01487 0.02929,-0.04852 -0.0694,-0.112353 0.41129,-0.843808 0.89845,-1.36704 0.306954,-0.329678 0.450809,-0.384455 0.361796,-0.13776 -0.05691,0.157828 -0.662526,1.126818 -0.760484,1.21687 -0.02749,0.02525 -0.163807,0.221562 -0.302959,0.436236 -0.13915,0.214674 -0.296175,0.390317 -0.348952,0.390317 -0.05281,0 -0.0769,0.03099 -0.0536,0.06888 0.04429,0.0721 -0.02142,0.191841 -0.881014,1.604708 -0.489353,0.804316 -0.632911,1.173427 -0.456377,1.173427 0.03945,0 0.359724,-0.399778 0.711752,-0.888396 0.352035,-0.488617 0.818029,-1.098198 1.035558,-1.354627 0.21753,-0.256428 0.472696,-0.559221 0.567048,-0.672872 0.166781,-0.200903 0.369948,-0.276896 0.368303,-0.137758 -4.13e-4,0.03788 -0.205181,0.316845 -0.454957,0.619914 -0.823058,0.99866 -0.8919,1.093226 -1.559092,2.141634 l -0.661557,1.039562 -0.09071,0.886602 c -0.113389,1.108303 -0.402799,2.053241 -0.990327,3.233419 -0.08801,0.176791 -0.254985,0.631394 -0.371057,1.010231 -0.116067,0.378837 -0.243869,0.77145 -0.284008,0.872472 -0.21256,0.534989 -0.366665,1.151017 -0.499568,1.99695 -0.08139,0.518047 -0.209198,1.326218 -0.284028,1.795936 -0.158708,0.996288 -0.556133,2.069783 -1.017532,2.748482 -0.323805,0.476303 -0.325428,0.483603 -0.212415,0.954711 0.153982,0.641843 0.06081,2.727208 -0.169803,3.800149 -0.184064,0.856429 -0.186156,1.122949 -0.0051,0.602497 0.0575,-0.164862 0.195419,-0.471196 0.306551,-0.680725 0.11113,-0.209537 0.232362,-0.502468 0.269398,-0.650967 0.100258,-0.401949 0.884953,-2.253437 1.111651,-2.622937 0.18201,-0.296667 0.400426,-1.076694 0.552886,-1.974544 0.119846,-0.705804 0.143509,-0.831336 0.285551,-1.515351 0.07868,-0.378836 0.222948,-1.081406 0.320611,-1.561265 0.337485,-1.658117 0.828345,-3.536292 0.959243,-3.670289 0.115344,-0.118078 0.131366,-0.118078 0.131352,0 -2.8e-5,0.219674 -0.310224,1.726926 -0.793147,3.853966 -0.132075,0.58169 -0.167913,0.762929 -0.263369,1.331669 -0.02547,0.151536 -0.06269,0.359622 -0.08274,0.462415 -0.02006,0.102795 -0.06284,0.433416 -0.09509,0.734715 l -0.05858,0.547814 0.237997,-0.642872 c 0.130905,-0.353582 0.334273,-1.035489 0.45194,-1.515348 0.321052,-1.309261 0.876751,-3.030693 0.978352,-3.030693 0.14239,0 0.210411,0.277532 0.09605,0.391897 -0.05721,0.05722 -0.104034,0.199088 -0.104034,0.315264 0,0.116176 -0.04379,0.21123 -0.09725,0.21123 -0.05353,0 -0.07836,0.031 -0.05526,0.06888 0.0749,0.122861 -0.338992,1.755496 -1.08514,4.280492 -0.132232,0.447462 -0.226224,0.856134 -0.208881,0.908161 0.03341,0.100127 0.670279,-1.313781 0.941041,-2.08908 0.342209,-0.979889 0.543119,-1.422634 0.613584,-1.35217 0.14475,0.144747 -0.412812,1.829611 -1.035241,3.128315 -0.348753,0.727681 -0.634093,1.360952 -0.634093,1.407258 0,0.04631 -0.08169,0.244323 -0.181526,0.440023 -0.09983,0.195694 -0.225335,0.555664 -0.278885,0.79993 -0.05353,0.244273 -0.122471,0.526454 -0.15316,0.627082 -0.04934,0.161823 -0.03816,0.168301 0.09708,0.05605 0.197814,-0.164176 1.083748,-1.999648 1.755512,-3.637084 0.568332,-1.385309 0.689592,-1.59958 0.689592,-1.218544 0,0.280504 -0.439626,1.52011 -0.825314,2.327116 -0.146552,0.306637 -0.354632,0.781908 -0.462402,1.056148 -0.220387,0.560829 -0.739685,1.549864 -1.183857,2.254727 -0.163014,0.2587 -0.307935,0.527328 -0.322047,0.596956 -0.01414,0.06961 -0.05151,0.188588 -0.08303,0.264357 -0.03152,0.07576 -0.176251,0.477939 -0.321541,0.893724 l -0.264154,0.755959 0.205807,-0.05165 c 0.408542,-0.102532 0.314205,0.153723 -0.281395,0.764414 -0.41642,0.426974 -0.710548,0.838539 -0.936994,1.311119 -0.181525,0.378834 -0.442923,0.833438 -0.580877,1.010231 -0.30888,0.395845 -0.427247,0.775805 -0.500664,1.607185 -0.03124,0.353579 -0.139908,1.324783 -0.241523,2.158221 -0.101614,0.833444 -0.24239,2.135263 -0.312834,2.892932 -0.07048,0.757678 -0.272689,2.493439 -0.449431,3.857248 -0.17675,1.363817 -0.407085,3.161568 -0.51186,3.995005 -0.104777,0.833446 -0.211968,1.577342 -0.238199,1.653111 -0.08272,0.238912 0.127023,-0.01919 0.728446,-0.896451 0.31152,-0.454386 0.814371,-1.143314 1.117437,-1.530956 1.616695,-2.067808 1.979002,-2.54484 2.411314,-3.174785 0.259985,-0.378842 0.718303,-1.02631 1.018491,-1.438835 0.300188,-0.412524 0.621065,-0.877457 0.713058,-1.033192 0.09199,-0.155735 0.199683,-0.283148 0.239301,-0.283148 0.03961,0 0.07206,-0.04372 0.07206,-0.09711 0,-0.05338 0.177363,-0.353031 0.394144,-0.665828 0.431576,-0.62274 0.816419,-1.261451 1.145059,-1.900399 0.11691,-0.227298 0.292556,-0.557921 0.39032,-0.734714 0.09776,-0.176786 0.327146,-0.672718 0.509739,-1.102066 0.182592,-0.429353 0.384887,-0.904617 0.449532,-1.056154 0.108512,-0.254371 0.543471,-1.398205 0.995296,-2.617417 0.198255,-0.534967 1.205868,-2.607592 1.606705,-3.304939 0.641379,-1.115814 1.66681,-2.474782 1.870965,-2.479522 0.06709,-0.0014 -0.01025,0.166542 -0.991726,2.156813 -0.694807,1.408882 -1.243653,3.066761 -1.733035,5.234834 -0.114016,0.505116 -0.231871,0.980387 -0.261904,1.056148 -0.05158,0.130089 -0.145693,0.621917 -0.799698,4.178688 -0.148607,0.808181 -0.375638,1.799569 -0.504524,2.203082 -0.215885,0.675906 -0.714211,1.775381 -0.853802,1.883764 -0.03254,0.02524 -0.121066,0.167429 -0.196753,0.315951 -0.134325,0.263576 -0.475576,0.78558 -1.984868,3.036181 -0.406486,0.606133 -1.182147,1.771448 -1.723693,2.589578 -0.840745,1.270144 -1.131662,1.625792 -1.99079,2.433742 -0.553392,0.520425 -1.119385,1.111539 -1.257763,1.313583 -0.13838,0.202045 -0.272616,0.38802 -0.298299,0.413276 -0.02568,0.02528 -0.230529,0.293881 -0.455208,0.596947 -0.224679,0.303078 -0.525408,0.675027 -0.668288,0.826561 -0.753644,0.799296 -0.970886,1.180678 -1.203197,2.112299 -0.422667,1.694953 -0.753659,3.947653 -0.937839,6.382843 -0.02864,0.37882 -0.109205,1.35003 -0.178993,2.1582 -0.06975,0.80819 -0.154286,1.87744 -0.187758,2.37611 -0.06767,1.00845 -0.11595,0.97128 0.600852,0.46279 0.402994,-0.28589 1.816904,-1.13986 1.887233,-1.13986 0.0194,0 0.460265,-0.20214 0.979687,-0.44918 1.945875,-0.92553 2.737176,-1.21338 4.239847,-1.54232 1.629717,-0.35674 2.63269,-0.6408 3.834618,-1.086 0.803758,-0.29774 0.861304,-0.33207 1.389858,-0.82913 0.684895,-0.64409 1.461984,-1.14344 2.462296,-1.58223 1.095954,-0.48072 2.029752,-0.79483 2.311508,-0.7775 0.0884,0.006 0.160721,-0.0233 0.160721,-0.0636 0,-0.0695 0.400901,-0.13353 1.561269,-0.24958 0.277811,-0.0277 0.852447,-0.15038 1.276961,-0.27242 0.424521,-0.12204 0.79345,-0.20032 0.819854,-0.17392 0.07364,0.0736 -0.26883,0.30375 -0.627393,0.42155 -0.317025,0.10415 -1.2883,0.61532 -1.377588,0.72498 -0.02524,0.031 -0.190564,0.15551 -0.367357,0.27663 -0.656695,0.44989 -2.066717,1.63149 -2.834919,2.37567 -0.435998,0.42238 -0.965842,0.84342 -1.177436,0.93568 -0.547916,0.23891 -1.590667,0.36275 -3.054123,0.36275 l -1.267321,0 -0.723533,0.47105 c -0.810022,0.52733 -1.87893,1.34566 -1.990891,1.52417 -0.0404,0.0644 -0.112242,0.11709 -0.159667,0.11709 -0.08728,0 -0.354401,0.19946 -0.627666,0.46867 -0.08221,0.0809 -0.356096,0.26389 -0.608651,0.40648 -0.252561,0.1426 -0.748493,0.4292 -1.102071,0.63693 -0.743322,0.43667 -3.577432,1.84369 -5.051161,2.50767 -1.188263,0.53537 -1.065627,0.2655 -1.282601,2.82227 -0.07716,0.90921 -0.200022,2.1077 -0.273027,2.66334 -0.073,0.55562 -0.154855,1.19619 -0.1819,1.4235 -0.368844,3.10048 -0.395802,3.56055 -0.227104,3.87576 0.07498,0.1401 0.07287,0.33777 -0.0081,0.75163 -0.203947,1.04344 -0.433372,2.40461 -0.512596,3.04119 -0.03145,0.25256 -0.116296,0.74532 -0.188581,1.09502 -0.07228,0.34969 -0.153181,1.1969 -0.179758,1.8827 -0.04689,1.20971 -0.153448,1.8467 -0.352762,2.10856 -0.05317,0.0699 -0.395522,0.34801 -0.760815,0.61816 -0.790536,0.58462 -0.934722,0.7836 -1.006393,1.38874 -0.05122,0.43265 -0.03535,0.479 0.287044,0.83582 0.187714,0.20778 0.637066,0.5952 0.998558,0.86095 0.361492,0.26575 0.712011,0.53559 0.778936,0.59962 0.06694,0.064 0.314897,0.24732 0.551039,0.40729 0.236143,0.15998 0.588084,0.43174 0.782105,0.60395 0.54751,0.48594 1.668893,1.18949 2.677942,1.68014 1.137037,0.55286 2.248703,1.16054 2.440971,1.33429 0.07974,0.0721 0.184215,0.13104 0.23216,0.13104 0.110871,0 0.955281,0.93821 1.140233,1.26691 0.07689,0.13664 0.295817,0.5123 0.486511,0.83479 0.190694,0.32249 0.333949,0.65264 0.318345,0.73365 -0.08779,0.45582 -0.813051,-0.006 -1.823584,-1.16151 -0.665475,-0.76086 -0.816507,-0.88093 -1.581506,-1.25731 -0.465179,-0.22887 -1.073079,-0.4751 -1.350888,-0.54721 -0.915692,-0.23763 -1.317265,-0.47588 -2.663342,-1.58011 -1.387139,-1.1379 -3.174993,-2.50884 -3.287185,-2.52063 -0.0357,-0.004 -0.156717,-0.024 -0.268879,-0.045 -0.310252,-0.058 -0.366398,0.15219 -0.430913,1.61302 -0.07278,1.64795 -0.226244,4.32334 -0.277543,4.83826 -0.05851,0.58719 0.258492,1.69181 0.91901,3.20254 0.839635,1.92041 1.38566,2.82872 2.300819,3.82748 0.172586,0.18835 0.337591,0.46144 0.366679,0.60689 0.04429,0.22131 0.01817,0.2735 -0.159885,0.32005 -0.117016,0.0305 -0.441299,-0.009 -0.720625,-0.0893 -0.392468,-0.11203 -0.612191,-0.25211 -0.967055,-0.61661 -0.508188,-0.52199 -0.724975,-0.92881 -1.572697,-2.95133 -0.585348,-1.39651 -0.805274,-1.69059 -0.843666,-1.1281 -0.02287,0.33485 -0.132232,1.2527 -0.298587,2.5057 -0.08967,0.67539 -0.07722,2.92599 0.02489,4.50012 0.01039,0.16045 -0.117408,1.2678 -0.203332,1.76159 -0.179225,1.02998 -1.00754,3.14529 -1.262323,3.22364 -0.06312,0.0194 -0.118245,0.0216 -0.12245,0.005 z m 0.541114,-1.523 c 0.190809,-0.39146 0.422587,-0.95343 0.515063,-1.24881 0.194727,-0.622 0.249221,-1.90171 0.133574,-3.1365 -0.128049,-1.36727 -0.103311,-3.59005 0.05316,-4.77565 0.19907,-1.50846 0.472673,-2.98446 0.571571,-3.08337 0.08089,-0.0809 0.729296,1.32892 0.953485,2.07315 0.0609,0.20204 0.142562,0.40867 0.181554,0.45919 0.03903,0.0505 0.1152,0.25714 0.169361,0.4592 0.118411,0.44173 0.94693,1.90035 1.374371,2.4196 0.280948,0.34129 0.806811,0.62386 1.022797,0.54959 0.04856,-0.0166 -0.10906,-0.23698 -0.350231,-0.48954 -0.64262,-0.67296 -1.394258,-2.01032 -2.132616,-3.79444 -0.202431,-0.48916 -0.465417,-1.07533 -0.584405,-1.30263 -0.354702,-0.67759 -0.472233,-1.60016 -0.34332,-2.69493 0.193032,-1.63929 0.298299,-3.10918 0.29547,-4.12591 -0.0028,-0.955 0.09884,-1.72056 0.263181,-1.98519 0.05092,-0.0821 0.159977,-0.10691 0.306933,-0.0701 0.269247,0.0676 2.445963,1.6 3.878636,2.73058 1.176722,0.92861 1.810036,1.28806 3.286665,1.86538 1.332321,0.52092 1.650687,0.71965 2.226767,1.39006 0.760064,0.88452 1.293227,1.42061 1.41282,1.42061 0.07077,0 0.04091,-0.0951 -0.07932,-0.25255 -0.106003,-0.13891 -0.404192,-0.54185 -0.66264,-0.89543 -0.258448,-0.35358 -0.557135,-0.72597 -0.663758,-0.82752 -0.275112,-0.26203 -1.255678,-0.81169 -2.903112,-1.62735 -1.242406,-0.61511 -1.69641,-0.90981 -3.568544,-2.31637 -1.179767,-0.88638 -2.180568,-1.61159 -2.224011,-1.61159 -0.04343,0 -0.225012,-0.13403 -0.403499,-0.29784 -0.297952,-0.27345 -0.324527,-0.34029 -0.324527,-0.81609 0,-0.45033 0.04725,-0.58881 0.360589,-1.05678 0.198335,-0.2962 0.638415,-0.80717 0.977963,-1.1355 0.728215,-0.70414 0.820973,-0.8962 0.956544,-1.98067 0.05642,-0.45123 0.192188,-1.37835 0.301731,-2.06026 0.259834,-1.61743 0.277204,-3.57162 0.03578,-4.02241 -0.225235,-0.42052 -1.096986,-1.1949 -1.361205,-1.20916 -0.146241,-0.008 0.05115,0.35273 0.251819,0.46014 0.122096,0.0653 0.299826,0.25074 0.394972,0.41199 0.179917,0.30494 0.180212,0.34255 0.01306,1.65018 -0.104508,0.8174 -0.08727,0.99334 0.140507,1.43381 0.136099,0.26318 0.14306,0.37987 0.05215,0.87338 -0.06427,0.34866 -0.07358,0.65291 -0.02402,0.78433 0.08434,0.22379 -0.01443,0.62797 -0.153492,0.62797 -0.101786,0 -0.300555,-1.1286 -0.279339,-1.58612 0.0106,-0.22841 -0.03521,-0.38474 -0.13449,-0.45919 -0.163771,-0.12282 -0.307294,-0.962 -0.561218,-3.28135 -0.211421,-1.93116 -0.429665,-3.74296 -0.514406,-4.27053 -0.533338,-3.32015 -0.571312,-3.64914 -0.462937,-4.01086 0.132752,-0.44309 0.623851,-1.00322 1.138387,-1.29835 0.210684,-0.12086 0.651689,-0.37734 0.980011,-0.56996 0.618001,-0.36257 3.268623,-1.69757 3.37047,-1.69757 0.167652,0 2.972129,-1.34819 3.058278,-1.47022 0.02524,-0.0358 0.314544,-0.2099 0.642874,-0.38697 0.328321,-0.17709 0.762264,-0.41511 0.964314,-0.52897 0.655186,-0.36922 2.192211,-1.40407 2.663334,-1.79319 0.252554,-0.2086 0.645166,-0.50991 0.872472,-0.6696 0.227298,-0.15967 0.537261,-0.39427 0.68879,-0.52131 l 0.275523,-0.23101 -0.465676,0 c -0.567119,-7.3e-4 -1.938351,0.28382 -2.932379,0.60813 -0.730301,0.23828 -3.664281,1.68409 -4.454196,2.19497 -0.227306,0.14698 -0.721131,0.42748 -1.097398,0.6233 -0.742996,0.38667 -1.756595,1.03039 -2.108067,1.33879 -0.121383,0.1065 -0.24682,0.19367 -0.278741,0.19367 -0.07611,0 -1.909122,1.85428 -2.367121,2.3946 -0.347585,0.41004 -0.897094,0.92083 -1.85071,1.72029 -0.465582,0.39031 -0.602236,0.66075 -0.333898,0.66075 0.155115,0 0.147713,-0.0246 0.179786,0.59694 0.103074,1.99775 0.371411,4.72351 0.551516,5.60219 0.07248,0.35359 0.237917,1.09748 0.367667,1.65312 0.672025,2.87793 0.730307,3.3079 0.4623,3.41076 -0.168843,0.0647 -0.176951,0.36838 -0.01803,0.67607 0.636171,1.23201 0.750873,2.42597 0.300534,3.12819 -0.143782,0.2242 -0.480595,0.59361 -0.748493,0.8209 -0.616701,0.52325 -0.876065,0.97659 -1.238316,2.16446 -0.109095,0.35777 -0.905857,1.18081 -1.558529,1.60991 -1.237607,0.81372 -4.038338,2.41966 -4.038338,2.3156 0,-0.0314 -0.07234,0.004 -0.16072,0.0795 -0.0884,0.0751 -0.326029,0.2096 -0.528079,0.29883 -1.71836,0.7589 -1.995824,0.90558 -2.616854,1.38345 -0.654812,0.50388 -1.40156,1.23351 -2.204699,2.15418 -0.83519,0.95739 -1.339634,1.50635 -1.951589,2.12374 -0.290442,0.29303 -0.52807,0.55704 -0.52807,0.5867 0,0.0296 0.123178,-0.0102 0.273727,-0.0876 0.273691,-0.14152 1.000607,-0.84999 3.282806,-3.19953 1.324362,-1.36343 1.589095,-1.56276 2.715686,-2.04475 1.157864,-0.49536 2.805168,-1.30846 3.416812,-1.68649 1.291792,-0.79838 2.443222,-1.47344 2.513255,-1.47344 0.04141,0 0.369602,-0.20663 0.729233,-0.4592 0.359623,-0.25255 0.676063,-0.45918 0.703195,-0.45918 0.152901,0 -0.06486,4.10889 -0.238508,4.50011 -0.251631,0.56696 -0.423633,0.82769 -1.006248,1.52535 -0.56357,0.67484 -1.279896,1.24398 -2.64626,2.10251 -1.149235,0.72211 -2.123324,1.591 -2.62616,2.34255 -0.493516,0.7376 -0.886079,1.23511 -1.134203,1.43737 -0.133863,0.10913 -0.219095,0.22298 -0.189396,0.25298 0.0637,0.0644 1.185841,-0.64392 1.185841,-0.74853 0,-0.0813 0.831894,-1.06447 1.407295,-1.66329 0.210958,-0.21954 0.71419,-0.61803 1.118281,-0.88553 0.672559,-0.44522 1.404532,-0.96364 2.399974,-1.6998 0.20873,-0.15436 0.497909,-0.45519 0.642614,-0.66853 0.144705,-0.21333 0.288033,-0.40855 0.318497,-0.43382 0.03044,-0.0253 0.109068,-0.14769 0.174672,-0.27211 l 0.119282,-0.22619 0.07865,0.21259 c 0.09351,0.25279 0.01739,0.74207 -0.423129,2.71946 -0.868382,3.89802 -1.743712,6.09776 -2.814301,7.07246 -0.392066,0.35693 -0.661334,0.53731 -1.919769,1.28599 -0.328322,0.19533 -0.610727,0.38865 -0.627565,0.42959 -0.01681,0.041 -0.07246,0.0744 -0.123583,0.0744 -0.174707,0 -0.642462,0.39106 -0.910764,0.76144 -0.326901,0.45127 -0.286438,0.53961 0.08601,0.1878 0.28532,-0.26954 0.445932,-0.35938 1.989181,-1.11286 0.505116,-0.24662 1.04483,-0.52391 1.199367,-0.61618 0.579376,-0.34598 1.703565,-2.03571 2.15229,-3.23505 0.386336,-1.03256 0.55839,-0.98242 0.493356,0.1438 -0.04061,0.70341 0.127189,2.14144 0.278524,2.38682 0.02055,0.0334 0.08482,0.45773 0.142729,0.94299 0.110828,0.92872 0.0098,1.94103 -0.324607,3.25048 -0.139799,0.54756 -0.309407,1.69903 -0.250246,1.69903 0.01703,0 0.187044,-0.32028 0.377853,-0.71174 z m 3.982641,-32.0978 c -0.01912,-0.21467 -0.07751,-0.43165 -0.129722,-0.48216 -0.06493,-0.0628 -0.07685,-0.0192 -0.03781,0.13777 0.03145,0.12627 0.05771,0.34324 0.05844,0.48216 7.22e-4,0.1389 0.03334,0.25255 0.07256,0.25255 0.03924,0 0.05562,-0.17565 0.0365,-0.39032 z m 1.511024,-1.70439 c 0.05944,-0.59056 0.196097,-1.81764 0.303701,-2.72685 0.107604,-0.90921 0.235212,-2.06638 0.283574,-2.5715 0.178964,-1.86934 0.364652,-3.57627 0.422689,-3.88565 l 0.05973,-0.31847 -0.397936,0.2373 c -0.64273,0.38327 -0.729347,0.48749 -0.729347,0.87749 0,0.19605 -0.08331,1.3433 -0.185147,2.54944 -0.101828,1.20614 -0.206218,2.4823 -0.23198,2.83588 -0.02576,0.35357 -0.06406,0.82884 -0.08508,1.05615 -0.021,0.22729 -0.06486,0.76456 -0.09739,1.19391 -0.03254,0.42934 -0.07313,0.91489 -0.0902,1.07898 -0.0243,0.23389 0.02943,0.3588 0.248723,0.57811 0.153867,0.15387 0.304697,0.25483 0.335175,0.22436 0.03044,-0.0304 0.10404,-0.5386 0.163469,-1.12915 z m -1.208513,0.0428 c -0.01299,-0.1183 0.0079,-0.38731 0.04638,-0.5978 0.06059,-0.33143 0.03852,-0.42256 -0.165042,-0.68033 -0.12926,-0.1637 -0.37175,-0.41537 -0.538854,-0.55925 l -0.303839,-0.26161 0.0058,0.21569 c 0.0028,0.11863 0.05483,0.52375 0.114796,0.90026 0.103188,0.64786 0.128748,0.6982 0.476389,0.93831 0.202049,0.13954 0.372011,0.25509 0.377688,0.25678 0.0058,0.001 -2.03e-4,-0.0937 -0.01328,-0.21205 z m 0.214224,-1.82834 c 0.0114,-0.16416 0.06017,-0.71175 0.108326,-1.21686 0.04818,-0.50511 0.111535,-1.20769 0.140809,-1.56126 0.02929,-0.3536 0.09214,-1.05617 0.139685,-1.56128 0.04755,-0.50512 0.109818,-1.20768 0.138378,-1.56126 0.02857,-0.35359 0.07185,-0.73845 0.09615,-0.85525 l 0.04422,-0.21238 -0.439425,0.25139 c -0.710532,0.40649 -1.300758,0.85981 -1.557164,1.19598 -0.316168,0.4145 -0.368511,1.14431 -0.17724,2.4711 0.07981,0.55352 0.166895,1.19238 0.193551,1.41968 0.03008,0.25632 0.158836,0.57024 0.33907,0.82655 0.345701,0.49162 0.834318,1.0834 0.903537,1.0943 0.02712,0.004 0.05865,-0.12653 0.07012,-0.29071 z m -3.28789,-0.50034 c 0,-0.38885 -0.04957,-1.05004 -0.110224,-1.46931 -0.10049,-0.69506 -0.143037,-0.79784 -0.482152,-1.16473 -0.204566,-0.22132 -0.516585,-0.60355 -0.693371,-0.84942 -0.369038,-0.5132 -2.744708,-2.90257 -3.647126,-3.66815 -0.334237,-0.28355 -0.775438,-0.62143 -0.980437,-0.75085 -0.522904,-0.33009 -1.998798,-1.48653 -2.189455,-1.71554 -0.08728,-0.10483 -0.159595,-0.14138 -0.160721,-0.0812 -7.21e-4,0.0602 0.03521,0.1324 0.08076,0.16053 0.115785,0.0716 1.118008,1.74611 1.891742,3.16076 1.279182,2.33881 2.041619,3.37199 3.754333,5.08749 1.100837,1.10262 2.201784,1.99742 2.457628,1.99742 0.04343,0 0.07902,-0.31814 0.07902,-0.70699 z m 0.724448,-5.57341 c 0.408773,-0.42175 0.447246,-0.97484 0.195571,-2.81168 -0.328344,-2.39639 -0.464745,-4.34962 -0.602886,-8.6329 -0.0269,-0.83343 -0.088,-2.30055 -0.135832,-3.26029 -0.04783,-0.95971 -0.08753,-2.728525 -0.08821,-3.930678 -0.0014,-2.330941 -0.02496,-2.47386 -0.47468,-2.872758 -0.218958,-0.194214 -1.359198,-0.71622 -1.423656,-0.65176 -0.04205,0.042 0.634701,0.670358 1.023368,0.950197 l 0.274275,0.197487 -0.181445,0.200495 c -0.172422,0.190523 -0.181714,0.345237 -0.186661,3.107848 -0.0051,2.698349 0.0316,4.148779 0.17786,7.086019 0.255893,5.13772 0.254119,5.11078 0.47214,7.16346 0.166513,1.56775 0.510258,3.76541 0.588964,3.76541 0.03296,0 0.195491,-0.13988 0.361195,-0.31085 z m 4.78731,-4.46479 c 0.08785,0 0.155612,-0.43374 0.229598,-1.46942 0.04978,-0.69715 0.244005,-2.61167 0.409906,-4.04094 0.04985,-0.42934 0.113729,-1.00793 0.141978,-1.28574 0.395174,-3.88572 0.479108,-4.50864 0.740982,-5.499477 0.319933,-1.210491 0.64224,-1.763992 1.570549,-2.697173 0.439669,-0.441977 0.767559,-0.8036 0.728632,-0.8036 -0.03896,0 -0.123134,0.05169 -0.187144,0.114798 -0.06399,0.06311 -0.340017,0.309255 -0.613354,0.546914 -0.273338,0.237659 -0.662286,0.663985 -0.864336,0.947394 -0.202041,0.283398 -0.445195,0.605541 -0.540333,0.715873 -0.09514,0.11033 -0.31655,0.499921 -0.492029,0.865754 -0.294994,0.615004 -0.482983,0.776559 -0.482983,0.415059 0,-0.08187 -0.04011,-0.27569 -0.08914,-0.430812 -0.04905,-0.155123 -0.121354,-0.395759 -0.16072,-0.534751 -0.03938,-0.138981 -0.07292,0.770228 -0.07457,2.020461 -0.0028,1.95326 -0.0386,2.53814 -0.256154,4.15587 -0.139229,1.0355 -0.270631,1.98218 -0.291999,2.10375 -0.02135,0.12157 -0.105807,0.80257 -0.187628,1.51336 -0.08182,0.71077 -0.167509,1.32263 -0.190405,1.35969 -0.02287,0.037 -0.08013,0.50559 -0.127191,1.04121 -0.04703,0.53563 -0.112891,1.11957 -0.146306,1.29766 l -0.06073,0.32379 0.43211,-0.32985 c 0.237657,-0.1814 0.467739,-0.32982 0.511284,-0.32982 z m 15.106142,-4.54591 c 0.768835,-0.10725 0.829339,-0.14364 1.653103,-0.99438 0.454603,-0.4695 1.024514,-1.06811 1.266471,-1.33024 0.241957,-0.26213 0.453146,-0.4766 0.469312,-0.4766 0.01616,0 0.184967,-0.14673 0.375113,-0.32606 0.305079,-0.28773 0.320084,-0.32075 0.127643,-0.28081 -0.119939,0.0249 -0.374137,0.0705 -0.564882,0.10104 -1.415382,0.22785 -3.459382,1.24022 -4.592929,2.27484 -0.368317,0.33617 -1.112713,0.72035 -1.375172,0.70973 -0.03838,-10e-4 -0.203722,0.0704 -0.367356,0.15974 l -0.297511,0.16259 1.056147,0.047 c 1.026896,0.0457 1.685523,0.0319 2.250061,-0.0468 z M 77.349443,96.983624 c 0.15531,-0.704801 0.300174,-1.33312 0.321925,-1.396254 0.02171,-0.06311 -4.13e-4,-0.114807 -0.04942,-0.114807 -0.04891,0 -0.08895,0.05638 -0.08895,0.12538 0,0.06893 -0.07798,0.224507 -0.173294,0.345686 -0.09531,0.12116 -0.259811,0.500411 -0.365561,0.842793 -0.164198,0.531611 -0.177811,0.689883 -0.09325,1.084153 0.05446,0.253932 0.114125,0.446575 0.132593,0.4281 0.01847,-0.01846 0.160654,-0.610242 0.315971,-1.315051 z m 1.316883,-1.970249 c 0.227933,-1.136509 0.440521,-2.25236 0.472421,-2.479658 0.03188,-0.227305 0.0967,-0.619919 0.143998,-0.872473 0.04732,-0.252561 0.167206,-0.89314 0.266441,-1.423512 0.299257,-1.599345 0.556471,-3.765204 0.927083,-7.806327 0.09959,-1.086 0.221894,-2.305168 0.271771,-2.709259 0.04985,-0.404091 0.116535,-1.354626 0.148117,-2.112302 0.0316,-0.757669 0.09368,-1.447195 0.137997,-1.53227 0.04429,-0.08508 0.08057,-0.219291 0.08057,-0.298262 0,-0.123236 0.575429,-1.020712 0.740052,-1.154243 0.03116,-0.02524 0.184973,-0.314551 0.341841,-0.642874 0.275783,-0.577182 0.440061,-1.285747 0.298089,-1.285747 -0.198824,0 -0.728769,1.012727 -1.05728,2.020462 -0.09651,0.296039 -0.273712,0.600145 -0.428128,0.734714 -0.271736,0.236792 -0.270481,0.23185 -0.397157,1.561263 -0.120388,1.263426 -0.151798,1.530899 -0.236526,2.014372 -0.04811,0.274463 -0.08745,0.733757 -0.08745,1.020656 0,0.2869 -0.04278,0.744244 -0.09512,1.016325 -0.05231,0.272083 -0.197013,1.445227 -0.321555,2.606995 -0.314161,2.930597 -0.453623,3.984061 -0.765958,5.785867 -0.148854,0.858693 -0.298213,1.850557 -0.331894,2.204142 -0.03369,0.353579 -0.09886,0.790255 -0.144828,0.970396 -0.124217,0.486784 -0.444813,2.299658 -0.591733,3.346044 -0.07091,0.505111 -0.156435,1.063037 -0.190037,1.239826 l -0.06111,0.32144 0.232983,-0.229594 c 0.201954,-0.199016 0.288183,-0.504825 0.647411,-2.295981 z m 1.354892,0.680422 c 1.689397,-1.29411 3.505407,-3.512699 5.894307,-7.201009 0.408954,-0.631396 0.77168,-1.168649 0.806047,-1.193906 0.03441,-0.02524 0.152835,-0.224087 0.263237,-0.441842 0.110411,-0.217753 0.337125,-0.610366 0.503817,-0.872472 0.634181,-0.997195 1.070872,-2.108204 1.522943,-3.874604 0.245613,-0.959718 0.494266,-2.095061 0.552554,-2.522979 0.05829,-0.427926 0.122054,-0.804062 0.141711,-0.83587 0.01962,-0.03181 0.141005,-0.590888 0.269659,-1.242418 0.257972,-1.306329 0.792087,-3.311438 1.069752,-4.015876 0.09818,-0.24909 0.160576,-0.470834 0.138653,-0.492758 -0.08662,-0.08661 -0.61528,1.213189 -1.818866,4.472022 -0.531259,1.438439 -1.088366,2.573442 -1.983446,4.040922 -0.323489,0.530372 -0.68804,1.069898 -0.8101,1.198935 -0.122061,0.129043 -0.221932,0.268756 -0.221932,0.310475 0,0.04169 -0.142288,0.273892 -0.316189,0.515957 -0.173906,0.242057 -0.513028,0.722263 -0.753608,1.06712 -0.240571,0.344851 -0.469998,0.668333 -0.509818,0.718845 -0.924882,1.172991 -1.26422,1.625292 -1.44695,1.928619 -0.121714,0.20205 -0.371974,0.553334 -0.556133,0.780639 -0.18415,0.227297 -0.463202,0.59925 -0.620106,0.826548 -0.156903,0.227305 -0.391308,0.533358 -0.520899,0.680118 -0.129584,0.146769 -0.235615,0.292535 -0.235615,0.32393 0,0.03138 -0.113649,0.182341 -0.252562,0.335422 -0.138904,0.15308 -0.359277,0.441256 -0.489721,0.640384 -0.130443,0.199127 -0.443378,0.672004 -0.695405,1.050838 -0.492656,0.740521 -0.562748,0.980473 -0.952454,3.260297 -0.103607,0.606133 -0.211153,1.177242 -0.238985,1.269108 -0.0427,0.141001 0.01154,0.128062 0.347909,-0.083 0.219181,-0.137502 0.629671,-0.427079 0.9122,-0.643491 z m -9.287754,-5.153625 c -0.01435,-1.908992 -0.02114,-3.801513 -0.01515,-4.205603 0.0339,-2.263652 0.109976,-5.735543 0.144899,-6.612423 0.126187,-3.168551 0.165308,-3.943953 0.240947,-4.775637 0.117776,-1.295067 0.175156,-2.587393 0.234195,-5.274613 0.0282,-1.284657 0.06486,-2.359179 0.08147,-2.387819 0.01659,-0.02864 0.05771,-0.527333 0.09139,-1.10821 0.03369,-0.580883 0.07721,-1.118144 0.09674,-1.193913 0.01947,-0.07576 0.05837,-0.778337 0.08629,-1.561266 0.07157,-2.005115 0.221462,-3.867953 0.436033,-5.418513 0.275899,-1.993726 0.33501,-2.463831 0.398414,-3.168453 0.03181,-0.35358 0.07269,-0.746192 0.09083,-0.872472 0.0181,-0.126279 0.05951,-0.601547 0.09192,-1.05615 0.0324,-0.454604 0.0963,-1.053856 0.141944,-1.331669 0.04566,-0.277814 0.08883,-0.670426 0.09593,-0.872473 0.0073,-0.202045 0.06651,-0.573994 0.131929,-0.826552 0.276518,-1.067007 0.319593,-1.64908 0.360186,-4.867481 0.01847,-1.464833 0.06204,-2.787319 0.09678,-2.938852 0.03477,-0.151536 0.06911,-0.681615 0.07641,-1.177956 0.01126,-0.770496 -0.01009,-0.915509 -0.146516,-0.991834 -0.08786,-0.04917 -0.159746,-0.164808 -0.159746,-0.25697 0,-0.219303 -0.544519,-1.565292 -0.955817,-2.362666 -0.373936,-0.724943 -0.68371,-1.098669 -1.015085,-1.224657 -0.336063,-0.127773 -0.308289,0.06039 0.162452,1.100684 0.371462,0.820878 0.846855,1.588445 1.308262,2.112302 0.388847,0.441478 0.437555,0.622688 0.236191,0.878681 -0.134367,0.170823 -0.171786,0.330866 -0.144337,0.617316 0.142405,1.485893 0.216319,2.484524 0.187528,2.533486 -0.01854,0.03155 -0.06226,0.842586 -0.09716,1.802306 -0.05316,1.462306 -0.03867,1.853448 0.08962,2.414813 0.08419,0.368427 0.123907,0.740376 0.08827,0.826552 -0.07357,0.177944 -0.199156,0.62779 -0.325783,1.166919 -0.07289,0.310351 -0.167371,0.83851 -0.501089,2.801096 -0.02149,0.126279 -0.05822,0.394908 -0.08161,0.596955 -0.08155,0.703617 -0.253188,1.834282 -0.286684,1.88847 -0.01854,0.03001 -0.05879,0.319951 -0.08947,0.644313 -0.03065,0.324362 -0.113209,1.065017 -0.18343,1.6459 -0.137015,1.133372 -0.372587,3.714148 -0.4485,4.913398 -0.02554,0.404091 -0.108829,1.271972 -0.185009,1.928622 -0.132803,1.144681 -0.179715,1.816151 -0.282349,4.040925 -0.02561,0.555629 -0.06789,1.464835 -0.09396,2.020462 -0.02604,0.555629 -0.06731,1.444173 -0.09169,1.974545 -0.103348,2.247038 -0.157719,3.275411 -0.185652,3.511033 -0.142028,1.198076 -0.204082,8.394535 -0.128993,14.959699 0.03824,3.345445 0.0453,3.45773 0.223193,3.540456 0.101022,0.047 0.199113,0.07484 0.217978,0.06179 0.01883,-0.01295 0.02258,-1.585536 0.0083,-3.494528 z m -0.914971,3.127243 c 0,-0.148723 -0.496667,-0.686482 -1.013693,-1.097548 -1.486988,-1.182241 -2.817821,-2.400588 -6.374115,-5.835341 -0.609026,-0.588207 -1.378014,-1.290775 -1.708868,-1.561263 -0.330862,-0.270495 -0.888784,-0.764819 -1.23983,-1.098508 -0.351054,-0.333689 -0.824247,-0.767517 -1.051552,-0.964054 -1.075114,-0.929607 -2.946599,-2.797456 -3.22306,-3.216805 -0.207705,-0.315049 -0.2333,-0.137635 -0.03535,0.245124 0.0768,0.148499 0.143732,0.301428 0.14876,0.339836 0.0051,0.03838 0.04552,0.165517 0.08998,0.282456 0.04443,0.116945 0.08084,0.254249 0.08084,0.305122 0,0.117407 1.021153,2.202369 1.146374,2.340632 0.05144,0.05677 0.258765,0.299971 0.460814,0.54047 0.718173,0.854864 3.902825,3.885664 5.739949,5.462652 0.378836,0.325193 0.757396,0.659372 0.841243,0.742615 0.799713,0.793926 3.739545,2.840106 4.080507,2.840106 0.03065,0 0.185954,0.06132 0.345123,0.13625 0.316657,0.149083 1.533561,0.589526 1.644022,0.59503 0.03788,0.0021 0.0689,-0.02367 0.0689,-0.05677 z M 54.26471,78.603475 c -0.07849,-0.142404 -0.251803,-0.506884 -0.385146,-0.809949 -0.310209,-0.705044 -0.899778,-1.530322 -1.837046,-2.571501 -0.794453,-0.882536 -1.626167,-1.970388 -2.009092,-2.627834 -0.398507,-0.684188 -1.905571,-3.65354 -1.873425,-3.691197 0.01666,-0.01955 -0.02503,-0.102351 -0.09281,-0.183978 -0.06774,-0.08163 -0.280062,-0.449596 -0.471802,-0.817711 -1.652851,-3.173116 -3.654375,-5.882259 -5.824684,-7.883946 -0.523017,-0.482384 -0.539648,-0.490216 -0.476245,-0.22432 0.05998,0.251514 0.733654,2.161988 0.955354,2.709257 0.05115,0.126278 0.227189,0.580882 0.391184,1.01023 0.163996,0.429349 0.327464,0.82196 0.36326,0.872472 0.05858,0.08267 0.303506,0.759379 0.31577,0.872472 0.0042,0.04278 0.154906,0.447325 0.324088,0.872474 0.327637,0.823351 0.516123,1.254798 0.908889,2.080451 0.248622,0.522632 0.578134,1.231216 0.732254,1.57463 0.459364,1.023548 2.237378,3.501115 3.176847,4.42677 0.579318,0.570798 1.931419,1.699028 2.036166,1.699028 0.03282,0 0.105547,0.05785 0.161629,0.128589 0.151493,0.19107 2.481773,2.02994 3.052262,2.408609 0.271707,0.180342 0.518728,0.367905 0.548953,0.416802 0.12983,0.210078 0.133084,-0.02641 0.0035,-0.261348 z m 27.595408,-8.111169 c 0.220964,-1.489218 0.2718,-2.09864 0.243218,-2.915896 -0.01991,-0.568252 -0.0021,-1.033192 0.03946,-1.033192 0.04155,0 0.02777,-0.07648 -0.03058,-0.169948 -0.0825,-0.132103 -0.06254,-0.433849 0.08973,-1.354632 0.107725,-0.651574 0.217912,-1.349984 0.244855,-1.552031 0.07901,-0.592454 0.144627,-0.966622 0.198436,-1.131552 0.163309,-0.500577 -0.359718,0.537943 -0.573418,1.138573 -0.255699,0.718671 -0.258988,0.755022 -0.265113,2.931832 -0.0035,1.212278 -0.03737,2.253255 -0.0755,2.31329 -0.06218,0.09793 -0.422594,2.798618 -0.561492,4.207298 l -0.05432,0.551033 0.232701,-0.551033 c 0.162582,-0.384988 0.316881,-1.118368 0.512048,-2.433742 z m 0.448506,1.88051 c 0.618368,-0.835704 0.685949,-0.859343 0.650232,-0.227407 -0.01197,0.211796 -0.0028,0.21709 0.115223,0.06824 0.07047,-0.08875 0.198911,-0.398702 0.285341,-0.688798 0.08643,-0.290095 0.202265,-0.620365 0.257416,-0.733942 0.165878,-0.341625 0.04725,-0.306804 -0.468425,0.137454 -0.550772,0.474513 -1.06075,1.17608 -1.368686,1.88287 -0.187606,0.430602 0.0021,0.273049 0.528899,-0.43843 z M 83.135361,70.478 c 0.324795,-0.324794 0.979195,-1.537846 1.057489,-1.960239 0.04552,-0.245707 0.0383,-0.25704 -0.06709,-0.104768 -0.065,0.09392 -0.262776,0.362538 -0.439569,0.596957 -0.176786,0.234411 -0.394842,0.558404 -0.48457,0.719982 -0.176317,0.31751 -0.44762,1.037889 -0.390889,1.037889 0.01912,0 0.165199,-0.13042 0.324608,-0.289821 z m 0.94933,-2.504663 c 0.336359,-0.481158 0.703593,-1.350521 0.703593,-1.665613 0,-0.03823 -0.199906,0.319435 -0.444229,0.794763 -0.244324,0.475337 -0.542311,1.027033 -0.662185,1.225994 -0.328668,0.5455 -0.06312,0.311377 0.402821,-0.355144 z m -0.966384,-4.50673 c 0.2043,-0.620987 0.264241,-0.901415 0.333711,-1.561267 0.141178,-1.340796 0.2492,-2.093892 0.331338,-2.309927 0.124816,-0.328292 0.05512,-0.366503 -0.100006,-0.0548 -0.06904,0.138832 -0.218229,0.380779 -0.331461,0.537664 -0.372644,0.516304 -0.737535,1.184049 -0.786236,1.43881 -0.05309,0.277594 0.05439,0.342193 0.14935,0.08976 0.142397,-0.378597 0.406623,-0.762054 0.46264,-0.671416 0.03311,0.05358 0.03795,0.133434 0.01075,0.177452 -0.0272,0.04402 -0.113252,0.653599 -0.191214,1.354628 -0.07796,0.701029 -0.164385,1.377917 -0.192057,1.504195 -0.0916,0.418069 0.123712,0.07081 0.31318,-0.505115 z m -0.02698,-5.09742 c 0.337492,-0.934274 0.816045,-2.121506 1.063462,-2.638292 0.247418,-0.516785 0.447425,-1.012716 0.44446,-1.10207 -0.0051,-0.158099 -0.396321,0.596469 -1.034368,1.995762 -0.558888,1.225689 -1.370554,3.723417 -1.133964,3.489545 0.02576,-0.02545 0.322926,-0.810668 0.66041,-1.744945 z m 0.616469,0.427929 c 0.252346,-0.291203 0.2891,-0.416892 0.393141,-1.344313 0.06651,-0.593172 0.0058,-0.56129 -0.29832,0.156939 -0.436675,1.030812 -0.720481,2.057009 -0.455367,1.646571 0.06017,-0.09315 0.222414,-0.299791 0.360546,-0.459197 z m 1.034225,-1.874052 c 0.09649,-0.290443 0.206623,-0.590067 0.244763,-0.665833 0.09607,-0.190865 0.610728,-1.90557 0.686503,-2.287301 0.182622,-0.919906 -0.697057,0.790551 -0.963801,1.874024 -0.350174,1.422385 -0.327825,2.163903 0.03254,1.07911 z m 1.122755,-4.465026 0.04582,-0.379492 -0.263195,0.413277 c -0.144764,0.227302 -0.31945,0.537259 -0.388191,0.688794 -0.06875,0.151534 -0.161501,0.347279 -0.206118,0.434989 -0.04459,0.08771 -0.08112,0.226831 -0.08112,0.309156 0,0.307942 0.846366,-1.082525 0.89278,-1.466724 z M 75.438635,46.993004 c 0.237159,-0.107367 0.473618,-0.195213 0.525458,-0.195213 0.256817,0 1.098054,-0.471233 1.358486,-0.760978 l 0.294683,-0.327847 -0.454682,0.01632 c -0.250072,0.009 -0.455007,0.0416 -0.455398,0.07249 -4.1e-4,0.03089 -0.09794,0.03755 -0.216779,0.01484 -0.249091,-0.04762 -1.2745,0.415413 -1.62072,0.731842 -0.324608,0.296675 -0.918396,1.006411 -0.918396,1.09773 0,0.04213 0.237635,-0.04276 0.528077,-0.188673 0.290442,-0.145918 0.722111,-0.353152 0.959271,-0.46052 z m 0.141364,-1.78449 c 0.444749,-0.326477 0.837081,-0.706703 0.729203,-0.706703 -0.359731,0 -2.44975,1.867564 -2.44975,2.189011 0,0.07213 0.28791,-0.159035 0.639793,-0.513725 0.35189,-0.354692 0.838228,-0.790553 1.080754,-0.968583 z m 4.492799,-0.11641 c 0.46243,-0.217757 0.867819,-0.439659 0.900851,-0.493116 0.03961,-0.06411 -0.152748,-0.10348 -0.565265,-0.11567 -1.440911,-0.04258 -2.002245,0.0033 -2.553956,0.208917 -0.505959,0.188531 -1.197635,0.617086 -1.12048,0.69424 0.02951,0.02946 1.375602,-0.249642 1.87815,-0.389427 0.274938,-0.07647 0.260633,0.03486 -0.04589,0.357307 l -0.25256,0.265656 0.459198,-0.06599 c 0.252553,-0.0363 0.837551,-0.244158 1.299979,-0.461916 z m -1.116306,-0.920545 c 0.404098,-0.02024 1.168658,-0.05211 1.699028,-0.07077 0.699749,-0.02464 1.076961,-0.08347 1.374912,-0.214466 l 0.410598,-0.180515 -1.540767,-0.02106 c -1.354482,-0.01852 -1.610708,0.0022 -2.119163,0.171417 -0.318115,0.105864 -0.65676,0.256481 -0.752534,0.33471 -0.169744,0.138644 -0.1695,0.140659 0.0095,0.07987 0.101023,-0.0343 0.514299,-0.07894 0.91839,-0.09919 z m 4.541118,-1.521493 c 0.663888,-0.337666 1.075251,-0.594451 0.981288,-0.612547 -0.502827,-0.09683 -2.284204,0.539913 -3.042745,1.087619 l -0.275516,0.198939 0.596956,-0.04631 c 0.501718,-0.03893 0.779318,-0.139065 1.740017,-0.627699 z m 1.979473,-0.30189 c 1.753492,-0.594635 2.683591,-0.957608 2.473562,-0.965317 -0.282123,-0.01035 -1.255657,0.218975 -1.738856,0.409615 -0.757301,0.298784 -2.132804,0.949268 -2.020461,0.95549 0.0505,0.0028 0.629102,-0.177108 1.285755,-0.399788 z m 0.208981,-0.925379 c 0.259558,-0.07708 0.494063,-0.175972 0.521123,-0.219763 0.04717,-0.07639 -1.043537,0.229453 -1.131295,0.317208 -0.07798,0.07798 0.132815,0.04431 0.610172,-0.09745 z M 72.27162,39.094509 c -0.231915,-0.24794 -0.444806,-0.427663 -0.473085,-0.399385 -0.02828,0.02828 -0.05144,-0.02053 -0.05144,-0.108466 0,-0.211616 -0.857618,-1.104861 -1.882704,-1.96091 -0.454609,-0.379639 -0.872435,-0.746563 -0.928517,-0.815385 -0.05605,-0.06882 -0.130284,-0.125131 -0.164905,-0.125131 -0.160257,0 2.336123,2.692677 3.041087,3.280213 0.22929,0.191089 0.501069,0.420022 0.603962,0.508739 0.366196,0.315737 0.270338,0.06374 -0.144423,-0.379675 z m 1.660765,-1.182176 c 0.306789,-2.001426 0.446892,-4.545506 0.294554,-5.348764 C 74.1172,31.984892 74.081,31.93272 73.911515,32.108972 c -0.09656,0.100409 -0.141306,0.61923 -0.185709,2.152753 -0.03217,1.111254 -0.09428,2.495731 -0.138025,3.076613 -0.07005,0.930008 -0.07374,1.278933 -0.01826,1.721985 0.0079,0.06313 0.04919,0.114799 0.09183,0.114799 0.04263,0 0.164564,-0.568254 0.271021,-1.262789 z m -3.481261,0.183678 c -0.229146,-0.239929 -0.530235,-0.577308 -0.669096,-0.749731 -0.291957,-0.362535 -0.687601,-0.692071 -0.752722,-0.626951 -0.05115,0.05115 1.671168,1.812919 1.772294,1.812919 0.03636,0 -0.12134,-0.196306 -0.350476,-0.436237 z m 0.576908,-1.10207 c -0.04544,-0.08839 -0.240643,-0.531745 -0.433726,-0.985223 -0.379151,-0.890495 -0.722184,-1.451876 -1.072379,-1.75499 -0.233322,-0.201949 -0.805498,-0.513939 -0.805498,-0.439212 0,0.02411 0.20334,0.465213 0.451876,0.980233 0.343321,0.71145 0.609913,1.107389 1.109733,1.648157 0.629579,0.681154 0.930755,0.902432 0.749994,0.551035 z m -2.58424,-2.726146 c -0.304653,-0.641723 -0.553918,-1.187669 -0.553918,-1.213212 0,-0.0966 -0.801833,-1.278092 -0.9499,-1.399675 -0.141228,-0.115968 0.0744,0.422501 0.657733,1.642505 0.32691,0.683704 1.302967,2.234185 1.366479,2.170673 0.0184,-0.01844 -0.215741,-0.558566 -0.520394,-1.200291 z m -0.186561,0.590884 c 0,-0.05051 -0.04379,-0.09183 -0.09726,-0.09183 -0.05353,0 -0.07171,0.04133 -0.04047,0.09183 0.03124,0.05051 0.07498,0.09183 0.09727,0.09183 0.02229,0 0.04047,-0.04133 0.04047,-0.09183 z m -0.579282,-0.803592 c -0.215539,-0.340952 -0.437607,-0.723233 -0.493487,-0.849513 -0.743046,-1.679231 -1.14317,-2.374242 -1.672178,-2.904545 -0.308693,-0.309456 -0.560871,-0.516093 -0.560395,-0.459196 4.1e-4,0.05689 0.165791,0.36341 0.367357,0.681137 0.201565,0.317727 0.366485,0.599783 0.366485,0.626791 0,0.027 0.182765,0.33163 0.406139,0.676935 0.223381,0.345306 0.3818,0.652167 0.352049,0.681916 -0.02973,0.02976 -0.0058,0.05409 0.05309,0.05409 0.05894,0 0.108434,0.05166 0.109998,0.114798 0.0021,0.09868 0.990365,1.550038 1.281505,1.882703 0.23729,0.271132 0.154272,0.07193 -0.210532,-0.505115 z m 6.777169,-3.001343 c 0.190924,-0.518095 0.205346,-1.842371 0.03455,-3.174844 -0.05504,-0.429349 -0.10225,-0.833669 -0.104949,-0.898493 -0.0082,-0.1964 -0.117854,-0.0061 -0.385572,0.668896 -0.607605,1.531916 -0.638524,2.026923 -0.185667,2.97189 0.176793,0.368899 0.321441,0.758279 0.321441,0.865287 0,0.270661 0.121476,0.106485 0.320178,-0.432736 z m 0.827414,-3.324399 c 0.03499,-0.24607 0.0541,-1.397936 0.04249,-2.559701 -0.02517,-2.510343 -0.02878,-2.61785 -0.08801,-2.615927 -0.02524,7.94e-4 -0.189611,0.290112 -0.365235,0.642874 -0.175625,0.352762 -0.351271,0.641384 -0.39032,0.641384 -0.03903,0 -0.07098,0.07746 -0.07098,0.172131 0,0.09467 -0.05591,0.332308 -0.124225,0.528076 -0.06831,0.19577 -0.147814,0.686565 -0.176648,1.090658 l -0.05238,0.734713 0.199604,-0.619347 c 0.109775,-0.340641 0.224543,-0.619604 0.255028,-0.619914 0.114514,-0.0012 0.427082,2.245551 0.453499,3.259725 l 0.01435,0.551035 0.119616,-0.379154 c 0.06579,-0.208534 0.14826,-0.580482 0.183263,-0.826553 z m 0.721556,-3.89137 c 0.09249,-0.529276 0.161268,-1.493934 0.174851,-2.452359 0.01984,-1.401593 0.0079,-1.552137 -0.10619,-1.333952 -0.302792,0.579234 -0.374369,1.165311 -0.372658,3.051599 7.21e-4,1.035485 0.03542,1.820711 0.07661,1.744944 0.04119,-0.07576 0.143523,-0.530371 0.227385,-1.010232 z m 0.5623,-1.584061 c 0.113627,-1.0573 0.127031,-1.212685 0.188104,-2.181346 0.06392,-1.013978 0.09442,-1.339932 0.178207,-1.904971 l 0.05115,-0.345088 -0.137297,0.35417 c -0.158275,0.408294 -0.194547,0.69954 -0.321903,2.584683 -0.05122,0.757674 -0.119462,1.559115 -0.151723,1.780983 -0.03903,0.268535 -0.02683,0.383725 0.0365,0.34456 0.05238,-0.03235 0.122963,-0.317201 0.156897,-0.632991 z m 0.592469,-1.951748 c 0.04833,-0.30307 0.10948,-0.757673 0.135919,-1.010231 0.02641,-0.252558 0.09002,-0.748489 0.141314,-1.10207 0.116932,-0.806087 0.114392,-1.115443 -0.0058,-0.734714 -0.146725,0.463852 -0.646249,3.899636 -0.620886,4.270523 0.01276,0.186832 0.241178,-0.74293 0.349691,-1.423508 z"
         id="whole_plant_outline"
         inkscape:connector-curvature="0"
         inkscape:label="whole_plant_outline" />
    </g>
    <!-- outline layer -->
    <g
       inkscape:groupmode="layer"
       id="LAYER_EFO"
       inkscape:label="LAYER_EFO"
       style="display:inline">
      <g
         id="PO_0009049"
         inkscape:label="inflorescence"
         style="fill:none;stroke:none"
         transform="matrix(0.20408712,0,0,0.20408712,-2.224791,-8)">
        <title
           id="title4333">inflorescence</title>
        <path
           inkscape:label="inflorescence1"
           sodipodi:nodetypes="ccsscscssssssssssssscsssssssscssssscssssssssscssssssssssscccscssssscssccssssssssscssssssscssccccsssssssssssssccsssssssssscccsssscsscccsssssssscccsssssscsss"
           inkscape:connector-curvature="0"
           id="inflorescence1"
           d="m 367.41009,277.45538 c -0.92992,-1.12816 -1.17598,-2.151 -1.15049,-4.78245 0.0124,-1.27678 0.12135,-2.72321 0.24218,-3.21428 0.3163,-1.28547 0.44938,-13.78672 0.18915,-17.76786 -0.18525,-2.834 -0.36402,-4.39445 -0.90015,-7.85714 -0.0988,-0.63839 -0.23257,-2.93606 -0.29719,-5.10592 l -0.11747,-3.9452 -1.76285,-0.91681 c -3.16188,-1.64441 -5.03463,-1.35776 -7.379,-3.25848 -1.61109,-1.3062 -2.9156,-2.73809 -4.46281,-4.89859 -1.09231,-1.52529 -4.16966,-4.85895 -4.41774,-7.23214 -0.22763,-2.17755 0.76253,-0.89286 0.76253,-0.89286 0.18911,-0.22143 0.52944,-0.0796 0.52944,-0.1769 0,-0.0973 -1.31071,-1.80488 -2.91269,-3.79464 -6.38897,-7.93551 -10.11779,-13.04593 -11.14971,-15.02891 0,0 -1.44063,-2.91065 -3.79248,-5.01741 -3.03007,-2.7143 -8.86186,-8.48792 -14.11733,-16.07133 -1.16952,-1.68757 -3.3904,-3.90174 -4.59747,-5.17858 -2.13661,-2.26009 -3.32176,-4.02583 -3.39302,-4.29335 -0.6949,-2.60867 6.04874,4.86232 15.04097,14.56112 3.32367,3.58482 5.704,7.16932 5.83527,7.3108 0.80079,0.86305 -0.13557,-1.37279 -1.6377,-4.58154 -0.86737,-1.8528 -0.91246,-1.90898 -4.67647,-5.82683 -6.55174,-6.81952 -15.00802,-15.90597 -16.30168,-17.5165 -0.50781,-0.63219 -0.6097,-0.84476 -0.35984,-0.75069 1.17018,0.44056 7.27248,5.40908 8.00746,6.51971 1.45899,2.20468 8.69754,9.72338 8.69754,9.03415 0,-0.19783 -0.3268,-1.00032 -0.72623,-1.78332 -2.18059,-4.27463 -8.80593,-12.79487 -13.74302,-17.67364 -2.7319,-2.69963 -7.23326,-5.9463 -7.16678,-8.24492 0.32757,-0.32756 13.40398,12.92139 17.66005,18.23281 0.48588,0.60636 0.98123,1.01282 1.03807,0.95598 0.29062,-0.29062 -3.79263,-7.35597 -6.17291,-10.68116 -0.80517,-1.12479 -1.98569,-2.67573 -2.62339,-3.44653 -0.87548,-1.05821 -1.28786,-1.75331 -1.68378,-2.83816 -0.28839,-0.7902 -0.23092,-1.69198 -0.19968,-1.7857 0.0639,-0.19173 3.39766,4.98149 6.55318,9.63789 3.46993,5.12034 5.3608,8.28189 6.08488,10.17396 1.49044,3.89462 3.29242,8.25301 3.94648,9.54525 0.56937,1.12492 0.91541,1.55041 1.92893,2.37182 1.76497,1.43043 3.69907,2.95314 6.96839,6.4378 5.97984,6.37373 19.24225,20.25021 21.10223,21.87239 4.01916,3.5053 6.41639,5.63682 9.01763,9.49755 1.25413,1.86136 2.37216,4.01521 3.19612,5.56533 0.73142,1.37601 1.11998,2.1266 1.40796,-0.96771 0.54864,-5.89509 0.55848,-18.41242 0.0179,-22.75049 -0.0976,-0.78313 -0.17743,-2.16906 -0.17743,-3.07984 0,-1.62787 0.0102,-1.66732 0.60066,-2.32611 0.90903,-1.0142 0.7963,-1.52567 0.7963,-2.63444 0,-1.07133 0.1654,-2.0197 -0.80001,-3.28613 -0.69603,-0.91306 -1.13267,-2.23036 -1.13267,-3.4172 0,-0.45921 -0.0311,-2.1165 0.25828,-3.13723 1.04234,-3.67672 2.0217,-7.83641 2.23974,-12.31917 0.31699,-6.51692 1.35911,-11.39396 3.69764,-17.30456 1.13233,-2.86194 1.93728,-4.9813 2.8324,-6.875 4.78156,-10.11576 5.15903,-16.85949 6.08436,-25 0.52312,-4.60206 0.85418,-9.5067 1.19078,-10.79898 0.14385,-0.55229 0.36575,-1.28148 0.37737,-1.35035 0.0116,-0.0689 0.39817,0.39996 0.47312,0.6946 0.20485,0.80506 0.0143,7.68891 -0.1914,10.31273 -0.23566,3.01018 -0.79695,7.10938 -1.35163,9.87125 -0.24426,1.21626 -0.75949,2.34245 -0.70844,2.39349 0.43378,0.43378 4.02751,-11.55543 5.88362,-20.40845 1.05934,-5.05267 2.2005,-11.21987 2.52234,-13.631485 0.25907,-1.941255 0.51027,-2.892837 0.91848,-2.928007 0.81915,-0.07058 0.4975,1.48243 0.16098,3.735788 -0.3966,2.655604 -1.2363,8.983414 -2.44204,15.214574 -0.32364,1.67253 -0.47934,2.61099 -0.43404,2.6563 0.44161,0.44161 2.1068,-4.42458 3.93862,-9.43122 3.68008,-10.058176 5.41256,-16.504601 6.20061,-18.053653 l 0.73232,-1.749756 c 0.19039,0.08065 0.38969,0.393197 0.38969,0.393197 -0.56492,2.837413 -2.94515,11.821872 -5.02909,17.334112 -1.33681,3.53601 -2.58248,6.24341 -4.54463,11.88775 -1.36642,3.93063 -1.54501,3.64797 -1.33609,3.64797 0.0833,0 0.3971,-0.62562 0.5816,-1.04303 1.05815,-2.39401 5.47716,-10.79937 9.005,-16.97737 3.59692,-6.298976 5.14957,-7.778706 6.23884,-8.597189 0.55551,-0.417411 0.92382,0.02334 0.26378,0.598465 -0.5401,0.470616 -0.60163,0.742438 -1.06155,1.541764 -2.30447,4.00506 -7.38778,12.3679 -9.70045,16.98092 -3.33352,6.64929 -3.94171,8.97476 -4.51361,14.64595 -0.1944,6.22692 -0.95402,12.98892 -2.36173,16.9892 -0.69177,1.96583 -1.24841,3.05106 -2.14248,4.17703 -0.93295,1.17493 -1.61107,3.50272 -1.74617,4.55274 -0.5411,4.20536 -1.6754,8.82965 -2.69226,13.58136 -0.38761,1.8113 -0.86938,4.38273 -1.0706,5.71429 -0.61753,4.08646 -2.15352,10.39188 -5.02674,20.6353 -0.30244,1.07825 -0.37104,2.13328 -0.49927,7.67857 -0.19651,8.49859 -0.95066,16.96486 -2.48144,27.85714 -0.0828,0.58929 -0.11085,2.51786 -0.0623,4.28571 0.0878,3.19626 0.0381,3.89448 -0.64793,9.10715 -0.73864,5.6123 -1.34332,15.29403 -1.2335,19.74983 l 0.6805,2.33913 c 3.6144,-4.44908 8.11761,-8.1359 14.37131,-10.48182 0.12099,0 1.2623,0.11161 1.55411,0.35714 0.72002,0.60587 0.22532,0.38423 1.43718,-0.3923 2.1407,-1.3717 5.85194,-2.32556 9.00972,-2.64677 2.44138,-0.24834 4.23847,-1.04074 5.32411,-1.72883 3.91758,-2.48303 8.74353,-4.21942 13.39286,-5.34427 0.75568,-0.18282 2.44257,-1.26305 5.22117,-2.59512 2.52789,-1.21188 5.84721,-2.02485 5.95761,-2.02485 0.41859,0 5.14281,-1.24987 6.76764,-1.7905 1.87798,-0.62485 2.71549,-1.05221 6.25,-3.18927 1.3259,-0.80167 3.97768,-2.23538 5.89286,-3.18602 1.91518,-0.95064 4.80804,-2.4623 6.42857,-3.35926 8.82929,-4.88692 14.57399,-8.06762 14.93513,-7.70649 0.13072,0.13072 -2.04178,2.08951 -4.71004,3.6806 -3.31829,1.97871 -7.79042,4.40832 -12.29414,6.67915 -3.97888,2.00618 -4.89523,2.61417 -4.89523,3.24791 0,0 4.13078,-2.02667 5.26785,-2.55045 5.14999,-2.33888 12.23305,-4.6526 17.90131,-8.12943 4.15106,-2.5462 8.3228,-3.62856 6.20345,-2.20544 -7.44225,4.9974 -18.02071,10.07978 -32.75826,15.73858 -4.48831,1.72338 -5.81117,2.35205 -6.59181,3.13269 -0.96589,0.96589 -0.19779,1.13703 1.51533,0.64384 3.48236,-1.00255 4.78762,-0.74683 7.99922,-2.75281 3.73888,-2.33533 6.35576,-3.2804 6.35576,-2.73928 0,0.25698 -1.17259,1.00359 -1.96962,1.2541 -0.68004,0.21374 -3.77268,2.58669 -3.11966,2.45624 6.54478,-1.30748 8.83787,-2.49231 10.72074,-3.0418 1.32945,-0.38798 2.64641,-0.66827 3.03571,-0.73198 l 0.70783,0.24128 -0.44588,0.38815 c -1.47573,1.28462 -6.69645,2.97726 -11.25055,3.6476 -2.73561,0.40267 -4.16785,0.88741 -5.80357,1.96422 -4.38171,2.88453 -7.20318,4.34403 -9.46428,4.89573 -6.47114,1.57892 -14.03084,4.08882 -15.88198,5.27298 -1.09617,0.70121 -1.31767,0.97319 -0.97126,1.19261 0.46089,0.29192 1.22651,-0.19591 2.83538,-0.88776 1.85332,-0.79697 5.59777,-1.71326 10.42647,-3.13581 2.5578,-0.75353 4.61879,-1.43702 5.44643,-1.42737 l 0.55567,0.45913 -1.51786,0.31964 c -0.58928,0.17579 -2.31696,0.92811 -3.83928,1.6718 -5.75038,2.80921 -11.69967,5.04141 -15.33994,5.75561 -4.47036,0.87707 -9.01765,3.27085 -12.83158,5.24312 -2.33569,1.20783 -2.92201,1.79743 -6.24355,3.03749 -4.2635,1.59173 -6.21911,2.4386 -8.08493,3.50119 -2.48656,1.41609 -5.29534,2.96688 -7.27566,3.59109 -5.62638,1.77347 -8.29791,2.7938 -10.67077,4.87752 -1.33435,1.17175 -2.54127,1.79853 -3.46321,1.79853 -0.59898,0 -0.79098,-0.10162 -1.25453,-0.66398 l 0,0 z m 61.05703,-30.16084 c 7.92162,-2.75631 13.94941,-4.571 13.33245,-5.18796 -0.15526,-0.15526 -5.07744,0.61923 -7.88602,1.54937 -2.93806,0.97301 -5.50263,2.46848 -8.48215,3.78992 -3.65221,1.61979 -2.92816,1.92379 3.03572,-0.15133 z m 1.96428,-4.91541 c 2.01427,-0.44611 3.41622,-0.90307 2.96751,-1.35178 -0.17117,-0.17118 -2.29743,0.36859 -3.44224,0.76247 -1.27779,0.43962 -3.13803,1.1182 -3.00101,1.3399 0.12365,0.20007 1.83922,-0.38813 3.47574,-0.75059 z"
           style="fill:none;stroke:none" />
        <path
           inkscape:label="inflorescence2"
           inkscape:connector-curvature="0"
           id="inflorescence2"
           d="m 406.8851,410.72209 c -1.43165,-0.38556 -2.72581,-1.09859 -2.72581,-1.50181 0,-0.51285 0.33572,-1.29963 0.73768,-1.72879 0.49066,-0.52388 0.81548,-1.94992 0.95044,-4.17269 0.35228,-5.80193 1.12548,-11.82922 2.76039,-21.51785 0.63126,-3.74094 0.76709,-6.21775 0.82258,-15 0.0623,-9.85515 0.23909,-12.67022 0.98736,-15.71884 0.28989,-1.18107 0.64884,-3.14982 0.79768,-4.375 0.35117,-2.89076 0.75145,-4.89549 1.16865,-5.8529 0.40927,-0.9392 0.77746,-3.37829 1.15097,-7.62469 0.44016,-5.00399 1.28682,-9.78022 2.95285,-16.65775 1.67602,-6.91874 4.68178,-16.96334 5.12729,-17.1343 0.3792,-0.14551 0.48078,0.0886 0.44047,1.01501 -0.0365,0.83801 -0.34817,1.9744 -2.06827,7.54023 -1.11431,3.60567 -3.36673,12.22574 -3.29368,12.60504 0.11023,0.57235 0.58698,0.31789 0.99186,-0.52939 0.2207,-0.46185 1.04847,-2.9931 1.83948,-5.625 2.90691,-9.67201 8.18841,-25.05316 8.84845,-25.76908 0.22722,-0.24645 0.89031,-1.53216 1.47355,-2.85714 1.87517,-4.25993 3.04431,-6.68878 3.25317,-6.75841 0.12504,-0.0417 0.16526,0.0609 0.10416,0.26573 -0.0548,0.1835 -0.1554,0.5747 -0.22367,0.86934 -0.0683,0.29465 -0.82354,2.18304 -1.67838,4.19643 -2.81782,6.63674 -7.95355,20.83565 -7.47903,20.67748 0.18656,-0.0622 0.76893,-1.05284 4.80729,-8.17748 1.8462,-3.25714 2.70129,-5.39274 2.54497,-6.35605 -0.12531,-0.77217 0.17894,-1.14395 0.93616,-1.14395 0.42799,0 0.70053,-0.13749 1.00492,-0.50697 0.22971,-0.27883 3.1498,-4.57021 6.48909,-9.53638 4.81822,-7.16565 6.21886,-9.12656 6.78571,-9.50007 0.58424,-0.38496 0.7248,-0.4206 0.77203,-0.19574 0.0755,0.35966 -0.82172,1.91399 -2.10035,3.63848 -2.25477,3.04101 -5.70522,8.45836 -9.80404,15.39273 -1.60879,2.72176 -2.19645,3.87799 -2.2797,4.48538 -0.11829,0.863 0.0711,1.1826 0.54397,0.91797 0.14286,-0.0799 1.17924,-1.3615 2.30308,-2.84789 4.50042,-5.9523 9.1167,-11.68279 9.70327,-12.04531 1.29213,-0.79858 0.92624,-0.12605 -1.51633,2.78709 -2.80515,3.34558 -10.11392,14.03296 -10.68545,15.625 -0.12341,0.34375 -0.22827,1.14732 -0.23303,1.78571 -0.0112,1.5057 -0.57549,5.29931 -1.1421,7.67857 -0.87798,3.68676 -1.79958,6.22646 -3.51516,9.68687 -0.59164,1.19337 -1.3994,3.21854 -1.79502,4.50038 -0.39562,1.28183 -1.24206,3.93775 -1.88098,5.90204 -1.27376,3.91607 -2.10649,7.74558 -3.18406,14.64286 -0.35292,2.25892 -0.81107,4.87053 -1.01812,5.80357 -0.86881,3.91527 -2.95002,8.97868 -4.88713,11.88998 -1.10668,1.66323 -1.18771,2.16176 -0.72318,4.4493 0.77372,3.81014 0.3605,12.80299 -0.87386,19.01786 -0.67307,3.3888 -0.56126,4.96369 0.17493,2.46389 0.18216,-0.61853 0.46833,-1.3255 0.63593,-1.57103 0.64566,-0.94586 1.75495,-3.36221 2.13143,-4.64286 0.57702,-1.96286 2.25288,-6.07823 3.92676,-9.64286 0.80709,-1.71875 1.69775,-3.65496 1.97925,-4.30269 0.76457,-1.75927 1.77514,-5.8988 3.28721,-13.46516 3.2617,-16.32148 6.39926,-29.01786 7.17095,-29.01786 0.3041,0 -0.99291,6.60253 -2.78876,14.19643 -1.21383,5.13276 -1.88643,8.32819 -2.40559,11.42857 -0.39015,2.32999 -0.99368,7.35941 -0.98448,8.20405 l 0.008,0.72452 0.34333,-0.64979 c 0.53697,-1.01627 1.83564,-4.96234 2.66581,-8.10021 2.09249,-7.90914 2.76235,-10.29822 3.68639,-13.14763 1.19492,-3.6847 1.26394,-3.80425 1.91956,-3.32484 0.28645,0.20946 0.27672,0.31062 -0.15036,1.5625 -0.25115,0.7362 -0.97472,3.38765 -1.60794,5.89211 -1.27198,5.03081 -3.33047,12.415 -4.30161,15.43068 -0.92995,2.88774 -1.52629,5.53129 -1.46454,6.49222 l 0.0543,0.84496 0.9211,-1.78571 c 1.13909,-2.20833 1.88358,-4.00217 3.18679,-7.67858 1.35925,-3.83449 2.73594,-7.16288 3.0801,-7.44667 0.51109,-0.42145 0.13403,1.87195 -0.76925,4.67882 -1.20687,3.75028 -2.52783,7.00611 -4.85418,11.96428 -2.72866,5.81565 -4.13772,9.16228 -4.36074,10.35715 -0.10083,0.54017 -0.41695,1.68646 -0.7025,2.5473 -0.28555,0.86083 -0.51918,1.68449 -0.51918,1.83035 0,0.72259 1.04642,-0.12864 2.08868,-1.69908 1.84268,-2.77646 5.18164,-10.11474 8.99781,-19.77515 0.63011,-1.59508 1.20439,-2.90088 1.27618,-2.90178 0.26166,-0.003 0.33024,0.83431 0.13922,1.70027 -0.24473,1.10939 -0.7104,2.33114 -3.60524,9.4588 -2.92944,7.21285 -4.75149,10.91302 -7.73808,15.71429 -1.60476,2.57983 -2.02313,3.48178 -2.785,6.00415 -0.56066,1.8562 -1.98532,5.92858 -2.58005,7.37506 -0.1187,0.2887 -0.0864,0.3215 0.20227,0.20562 0.59101,-0.23723 1.58233,-0.30343 1.85003,-0.12353 0.40932,0.27506 0.0916,0.72755 -2.04737,2.91633 -2.14332,2.19319 -3.54898,3.94571 -4.14216,5.16432 -0.20869,0.42871 -0.90045,1.86788 -1.53726,3.19816 -0.63681,1.33028 -1.50669,2.84552 -1.93308,3.36721 -0.42638,0.52168 -1.01691,1.36185 -1.31229,1.86703 -0.90805,1.55302 -2.25697,2.00412 -4.32642,1.44679 z m 18.78574,-90.9635 c 0.60873,-1.2031 1.38855,-3.49708 2.88724,-8.49336 1.24676,-4.15641 2.38692,-8.44052 2.38692,-8.96873 0,-0.44179 -0.70168,-0.22039 -1.14544,0.36141 -1.12166,1.47057 -3.27328,6.68111 -4.21793,10.21446 -0.83805,3.13461 -1.36519,7.58692 -0.9477,8.00441 0.19059,0.19058 0.59581,-0.24641 1.03691,-1.11819 z"
           style="fill:none;stroke:none" />
      </g>
      <g
         id="PO_0025034"
         inkscape:label="leaf"
         style="fill:none;stroke:none"
         transform="matrix(0.20408712,0,0,0.20408712,-2.224791,-8)">
        <title
           id="title4252">leaf</title>
        <path
           inkscape:label="leaf1"
           inkscape:connector-curvature="0"
           id="leaf1"
           d="m 385.12066,528.09303 c 3.28299,4.29315 9.34391,1.01016 9.34391,1.01016 2.0203,-9.34392 5.05076,-11.36422 5.05076,-11.36422 l 0,0 3.03046,-3.03046 c 3.53553,-4.04061 5.80838,-8.08122 5.80838,-8.08122 6.06091,-6.31345 10.85914,-11.11168 10.85914,-11.11168 3.28299,-4.04061 24.74873,-36.87056 24.74873,-36.87056 5.55584,-8.5863 8.5863,-33.84011 8.5863,-33.84011 3.78807,-21.46575 10.6066,-36.61803 10.6066,-36.61803 5.55584,-10.60661 5.55584,-10.60661 5.55584,-10.60661 -8.83883,6.31346 -18.94036,31.81981 -18.94036,31.81981 -11.11168,28.03173 -15.15229,32.32488 -15.15229,32.32488 -36.87056,50.00255 -42.17387,59.599 -42.17387,59.599 -11.11167,17.17259 -7.07106,22.98097 -7.07106,22.98097 0,2.77792 -0.25254,3.78807 -0.25254,3.78807 z"
           style="fill:none;stroke:none" />
        <path
           inkscape:label="leaf2"
           sodipodi:nodetypes="cccccccccccccccccc"
           inkscape:connector-curvature="0"
           id="leaf2"
           d="m 361.12954,509.40521 c 0,-12.12183 -6.566,-14.64721 -6.566,-14.64721 -8.33375,-6.31345 -25.25381,-22.47589 -25.25381,-22.47589 -43.94164,-38.13327 -46.46701,-44.19418 -46.46701,-44.19418 -8.08123,-13.38452 -16.66752,-23.99112 -16.66752,-23.99112 -10.10153,-9.09137 -16.66752,-25.75889 -16.66752,-25.75889 -16.16244,-33.0825 -26.76904,-42.17387 -26.76904,-42.17387 -15.40483,-15.9099 -20.96067,-16.92006 -20.96067,-16.92006 6.56599,7.32361 7.82868,11.36422 7.82868,11.36422 12.87945,31.56727 15.15229,39.64849 15.15229,39.64849 11.61676,29.54696 29.54696,40.65864 29.54696,40.65864 18.18275,14.14213 24.24366,19.69797 24.24366,19.69797 2.02031,2.27285 5.55584,14.64721 5.55584,14.64721 2.77792,8.33376 26.26397,28.03174 26.26397,28.03174 23.99112,21.46574 22.47589,19.95051 22.47589,19.95051 3.78808,2.27284 9.84899,4.54569 9.84899,4.54569 6.31345,2.77792 9.34391,8.83883 9.34391,8.83883 3.283,5.05076 9.09138,2.77792 9.09138,2.77792 z"
           style="fill:none;stroke:none" />
        <path
           inkscape:label="leaf3"
           sodipodi:nodetypes="cccccccccccccccccc"
           inkscape:connector-curvature="0"
           id="leaf3"
           d="m 356.33131,619.2593 c -2.52538,-5.80838 0,-7.32361 0,-7.32361 9.34391,-4.04061 13.13198,-12.37436 13.13198,-12.37436 7.07107,-8.33376 22.98097,-17.67767 22.98097,-17.67767 16.66752,-10.35407 26.51651,-12.87945 26.51651,-12.87945 l 7.82868,-2.0203 c 15.65737,-3.78808 21.97082,-6.81853 21.97082,-6.81853 1.26269,-0.75762 5.80838,-4.54569 5.80838,-4.54569 10.35406,-9.84899 29.7995,-11.36422 29.7995,-11.36422 2.52538,0 9.84898,-2.0203 9.84898,-2.0203 1.26269,0.50508 -2.0203,1.76777 -2.0203,1.76777 -11.36422,5.3033 -17.42513,11.36421 -17.42513,11.36421 -11.36422,11.86929 -15.15229,11.11168 -15.15229,11.11168 -5.3033,1.26269 -17.93021,1.01015 -17.93021,1.01015 -11.36422,7.32361 -16.41498,12.37437 -16.41498,12.37437 -3.03046,3.53554 -39.64849,20.20305 -39.64849,20.20305 -19.95051,10.10153 -18.94036,13.8896 -18.94036,13.8896 -3.78807,4.29315 -10.35406,5.3033 -10.35406,5.3033 z"
           style="fill:none;stroke:none" />
        <path
           inkscape:label="leaf4"
           inkscape:connector-curvature="0"
           id="leaf4"
           d="m 380.89285,658.25506 c 1.42858,-8.57142 1.25,-7.5 1.25,-7.5 -0.17857,-1.25 -8.75,-11.60714 -8.75,-11.60714 C 347.14286,609.86221 345,607.36221 345,607.36221 c -8.39286,-7.5 -25,-19.82143 -25,-19.82143 -11.96429,-10.35714 -14.46429,-10.35714 -14.46429,-10.35714 0,2.14285 3.92857,5 3.92857,5 8.03572,7.5 13.75,18.39285 13.75,18.39285 12.85715,25.89286 16.96429,26.60715 16.96429,26.60715 21.25,20.53571 28.75,23.39285 28.75,23.39285 4.10714,2.5 3.39286,5.35715 3.39286,5.35715 2.14285,4.64285 8.57142,2.32142 8.57142,2.32142 z"
           style="fill:none;stroke:none" />
      </g>
      <path
         style="fill:none;stroke:none"
         d="m 70.371907,135.1973 c -0.218663,1.09332 -1.202649,1.63999 -1.202649,1.63999 -4.409744,2.69685 -4.992849,2.80619 -4.992849,2.80619 -2.150206,0.87466 -3.243527,2.07732 -3.243527,2.07732 -2.040876,1.93154 -2.478201,2.55109 -2.478201,2.55109 -2.150205,1.89509 -1.785763,2.22308 -1.785763,2.22308 0,0.54667 1.056877,-0.0729 1.056877,-0.0729 l 0.546668,-0.51021 c 2.951972,-3.20709 4.336846,-4.11818 4.336846,-4.11818 1.603545,-0.83822 2.951981,-1.5671 2.951981,-1.5671 3.571516,-1.93153 4.482626,-2.55109 4.482626,-2.55109 0.364435,-0.10934 0.327991,1.74931 0.327991,1.74931 0,1.93155 -0.765324,2.80621 -0.765324,2.80621 -1.567098,1.67643 -3.462188,2.76976 -3.462188,2.76976 -1.603543,1.27553 -1.967986,1.74931 -1.967986,1.74931 -1.384875,2.07731 -1.785762,2.25953 -1.785762,2.25953 -0.218663,0.40089 0.327998,0.43733 0.327998,0.43733 1.056883,0.0729 1.822207,-1.05687 1.822207,-1.05687 1.129765,-2.00444 2.077314,-2.29599 2.077314,-2.29599 2.259538,-1.27553 2.951972,-1.96798 2.951972,-1.96798 0.364443,-0.21866 -0.03643,1.05688 -0.03643,1.05688 -0.69244,3.35286 -1.384873,4.66484 -1.384873,4.66484 -0.54666,1.60354 -1.421318,2.29599 -1.421318,2.29599 -0.765331,0.9111 -2.223095,1.49421 -2.223095,1.49421 -1.785762,1.05687 -1.785762,2.22309 -1.785762,2.22309 0,0.65598 0.874658,-0.14578 0.874658,-0.14578 1.093322,-1.02044 2.988418,-1.85865 2.988418,-1.85865 1.931541,-1.16621 2.332423,-2.62398 2.332423,-2.62398 0.76533,2.87908 0.619549,4.11819 0.619549,4.11819 -0.182217,1.12976 -0.47377,1.63999 -0.47377,1.63999 0,0.40088 0.03643,2.44176 0.03643,2.44176 0.182218,0.14577 0.692434,-0.94754 0.692434,-0.94754 1.275545,-3.17065 0.91111,-4.48264 0.91111,-4.48264 -0.182225,-5.13862 0.291553,-6.45061 0.291553,-6.45061 0.03643,-1.05688 0.510215,0 0.510215,0 0.728879,2.44176 1.858652,3.86307 1.858652,3.86307 1.056876,1.05689 1.858643,0.72889 1.858643,0.72889 0.437334,-0.0364 -0.473769,-1.09333 -0.473769,-1.09333 -1.275547,-1.42132 -2.150205,-3.6444 -2.150205,-3.6444 -1.166211,-2.8791 -0.911103,-3.27998 -0.911103,-3.27998 0.218663,-2.95198 0.255107,-4.26396 0.255107,-4.26396 0,-2.66042 0.400889,-2.11377 0.400889,-2.11377 0.728885,0.18223 1.457763,0.87467 1.457763,0.87467 4.191075,3.46218 4.373299,3.06131 4.373299,3.06131 2.295977,0.87465 2.660421,1.27553 2.660421,1.27553 1.712871,1.85867 2.223087,2.07733 2.223087,2.07733 1.129772,0.5831 -0.765324,-2.2231 -0.765324,-2.2231 l -0.255107,-0.32799 c -1.129767,-0.98399 -2.405313,-1.49422 -2.405313,-1.49422 -3.535078,-1.67643 -5.357285,-3.53507 -5.357285,-3.53507 -2.004432,-1.312 -1.603543,-1.78577 -1.603543,-1.78577 0,-0.21866 0.07289,-0.43733 0.07289,-0.43733 -1.311992,-0.54665 -2.368875,-0.0364 -2.368875,-0.0364 z"
         id="PO_0009005"
         inkscape:connector-curvature="0"
         sodipodi:nodetypes="ccccccccccccccccccccccccccccccccccccccccccccccccccccc"
         inkscape:label="root">
        <title
           id="title4256">root</title>
      </path>
      <g
         id="PO_0009047"
         inkscape:label="stem"
         style="fill:none"
         transform="matrix(0.20408712,0,0,0.20408712,-2.224791,-8)">
        <title
           id="title4266">stem</title>
        <path
           inkscape:label="stem1"
           sodipodi:nodetypes="cccccccccc"
           inkscape:connector-curvature="0"
           id="stem1"
           d="m 364.41253,668.50424 c -7.57615,-32.57742 -6.06092,-54.54823 -6.06092,-54.54823 -0.75761,-4.04061 -3.28299,-27.27413 -3.28299,-27.27413 -4.04062,-71.97336 -2.02031,-80.30712 -2.02031,-80.30712 -2.0203,-174.50386 14.14214,-228.54701 14.14214,-228.54701 2.77792,-2.02031 5.55584,-0.75762 5.55584,-0.75762 -12.62691,61.61931 -13.38452,226.52671 -13.38452,226.52671 6.56599,97.47972 6.56599,106.82363 6.56599,106.82363 6.56599,51.51777 7.3236,57.07362 7.3236,57.07362 -2.77792,3.78807 -8.83883,1.01015 -8.83883,1.01015 z"
           style="fill:none;stroke:none" />
        <path
           inkscape:label="stem2"
           sodipodi:nodetypes="cccccccccc"
           inkscape:connector-curvature="0"
           id="stem2"
           d="m 372.24121,666.73647 c 3.03046,4.04061 6.56599,3.283 6.56599,3.283 15.65736,-144.70435 14.89975,-149.25004 14.89975,-149.25004 15.9099,-70.96321 15.40483,-110.10663 15.40483,-110.10663 -0.25254,-1.76776 -5.05076,-1.01015 -5.05076,-1.01015 -7.29567,84.16075 -16.69531,112.98725 -14.64722,111.62186 -5.72992,9.88986 -4.14254,24.72947 -4.04061,25.00127 l 0.50508,-11.11168 -2.27284,21.21321 c -10.85914,105.56094 -11.36422,110.35916 -11.36422,110.35916 z"
           style="fill:none;stroke:none" />
      </g>
    </g>
    <!-- LAYER_EFO -->
  </g>
  <!-- group_all -->
  <a
     id="ccLogo"
     xlink:href="https://www.ebi.ac.uk/gxa/licence.html"
  >
    <image
       xlink:href="https://licensebuttons.net/i/l/by/ffffff/33/99/33/80x15.png"
       x="55"
       y="0"
       height="15"
       width="80"
       id="image4229" />
  </a>
</svg>
