<?xml version="1.0" encoding="UTF-8" standalone="no"?>
<!-- Created with Inkscape (http://www.inkscape.org/) -->

<svg
   xmlns:dc="http://purl.org/dc/elements/1.1/"
   xmlns:cc="http://creativecommons.org/ns#"
   xmlns:rdf="http://www.w3.org/1999/02/22-rdf-syntax-ns#"
   xmlns:svg="http://www.w3.org/2000/svg"
   xmlns="http://www.w3.org/2000/svg"
   xmlns:xlink="http://www.w3.org/1999/xlink"
   xmlns:sodipodi="http://sodipodi.sourceforge.net/DTD/sodipodi-0.dtd"
   xmlns:inkscape="http://www.inkscape.org/namespaces/inkscape"
   width="35.968304mm"
   height="44.762516mm"
   viewBox="0 0 127.44675 158.60734"
   id="svg2"
   version="1.1"
   inkscape:version="0.91 r13725"
   sodipodi:docname="brachypodium_distachyon_flower_parts.svg">
  <defs
     id="defs4" />
  <sodipodi:namedview
     id="base"
     pagecolor="#ffffff"
     bordercolor="#666666"
     borderopacity="1.0"
     inkscape:pageopacity="0.0"
     inkscape:pageshadow="2"
     inkscape:zoom="2.8"
     inkscape:cx="165.03538"
     inkscape:cy="21.409068"
     inkscape:document-units="px"
     inkscape:current-layer="group_all"
     showgrid="false"
     inkscape:window-width="2560"
     inkscape:window-height="1351"
     inkscape:window-x="0"
     inkscape:window-y="1"
     inkscape:window-maximized="1"
     fit-margin-top="0"
     fit-margin-left="0"
     fit-margin-right="0"
     fit-margin-bottom="0" />
  <metadata
     id="metadata7">
    <rdf:RDF>
      <cc:Work
         rdf:about="">
        <dc:format>image/svg+xml</dc:format>
        <dc:type
           rdf:resource="http://purl.org/dc/dcmitype/StillImage" />
        <dc:title></dc:title>
      </cc:Work>
    </rdf:RDF>
  </metadata>
  <g
     id="group_all"
     transform="translate(-2.0000514,5.0255725e-6)">
    <g
       inkscape:label="outlines"
       inkscape:groupmode="layer"
       id="outlines"
       transform="translate(-97.932875,-61.781129)">
      <path
         style="fill:#a0a1a2;fill-opacity:1"
         d="m 217.55602,208.25477 c -0.50142,-0.30975 -0.56204,-0.31335 -1.20182,-0.0713 -0.75791,0.28674 -1.57074,0.23517 -2.1365,-0.13552 -0.20915,-0.13704 -0.65883,-0.80631 -0.99931,-1.48728 -0.71179,-1.42361 -2.32565,-6.11917 -3.06431,-8.91567 -0.2773,-1.04986 -0.59798,-2.2036 -0.71262,-2.56389 -0.26113,-0.82063 -0.59746,-2.19618 -1.13967,-4.66111 -0.23263,-1.05761 -0.52142,-2.28346 -0.64173,-2.72412 -0.57019,-2.0883 -1.14311,-5.31813 -1.59176,-8.97359 -0.0541,-0.44067 -0.20223,-1.49903 -0.32921,-2.35193 -0.12698,-0.8529 -0.37582,-2.94406 -0.55296,-4.64704 -0.99385,-9.55395 -1.04008,-10.13085 -1.20471,-15.03438 -0.0488,-1.45421 -0.1241,-3.40116 -0.16729,-4.32656 -0.42438,-9.09373 -0.66958,-28.68231 -0.39424,-31.49632 0.0857,-0.87657 0.26676,-2.85569 0.40223,-4.39802 0.25802,-2.93776 0.32384,-3.52396 0.55782,-4.96752 0.0786,-0.48473 0.1903,-1.35004 0.24829,-1.92291 0.16207,-1.60111 1.62594,-8.92708 2.3214,-11.617584 0.62127,-2.403403 2.22815,-7.448185 3.19007,-10.015163 1.04214,-2.781043 2.09308,-5.00104 4.70323,-9.93504 0.9397,-1.776344 1.2012,-2.119741 1.49079,-1.957674 0.25719,0.143926 1.42935,1.937497 1.72833,2.644587 0.11975,0.283197 0.37792,0.87545 0.5737,1.316119 0.88356,1.988717 1.15329,2.631207 1.51359,3.605456 0.21186,0.572868 0.61656,1.61845 0.89934,2.323519 0.28278,0.705067 0.72161,1.953695 0.97517,2.774733 0.25356,0.821032 0.50421,1.562663 0.55699,1.648064 0.17766,0.287462 1.2742,4.207967 1.43153,5.118203 0.0527,0.304856 0.23649,1.232053 0.40845,2.060424 0.39366,1.896438 1.21455,6.642796 1.36078,7.868056 0.0368,0.30846 0.13343,0.84928 0.21469,1.20181 0.0813,0.35253 0.1867,1.07362 0.23431,1.60243 0.0476,0.5288 0.15713,1.43016 0.2434,2.00303 0.0863,0.57287 0.20387,2.51982 0.26132,4.32655 0.0574,1.80674 0.13754,3.86185 0.17795,4.56692 0.15564,2.71522 0.22343,7.45945 0.33888,23.71591 0.15933,22.43558 0.15196,22.83295 -0.52735,28.44305 -0.1334,1.10167 -0.24643,2.1833 -0.25118,2.40364 -0.004,0.22033 -0.0692,0.7251 -0.14305,1.1217 -0.0739,0.3966 -0.17358,1.3928 -0.22145,2.21379 -0.0479,0.82098 -0.11696,1.54207 -0.15354,1.60242 -0.0366,0.0603 -0.11381,0.61449 -0.17163,1.23143 -0.0579,0.61693 -0.13896,1.26591 -0.1803,1.44218 -0.0413,0.17626 -0.21549,1.90689 -0.38698,3.84582 -0.1715,1.93894 -0.42804,4.10221 -0.57008,4.80728 -0.14206,0.70507 -0.29078,1.49827 -0.3305,1.76267 -0.0681,0.45357 -0.37604,2.04918 -0.95855,4.96752 -0.14073,0.70507 -0.38855,1.67854 -0.55071,2.16327 -0.16216,0.48474 -0.58801,1.86805 -0.94634,3.07404 -0.68057,2.29056 -2.09974,5.44566 -2.806,6.23832 -0.47894,0.53753 -0.77125,0.55893 -1.49847,0.10969 z m -0.98984,-1.36057 c 0.21791,-0.14913 0.44648,-0.34553 0.50795,-0.43647 0.0696,-0.10307 0.2527,-0.0329 0.48607,0.18634 0.37349,0.35088 0.37549,0.35098 0.88276,0.0425 0.56979,-0.34651 0.85278,-0.90182 1.71583,-3.36704 0.32397,-0.92541 0.65582,-1.86282 0.73744,-2.08315 0.43717,-1.1801 1.47999,-5.15 1.83862,-6.99945 0.26319,-1.35727 0.63621,-3.99547 0.80024,-5.65972 0.0564,-0.57286 0.12912,-1.22184 0.16147,-1.44218 0.0324,-0.22033 0.13817,-1.15775 0.23513,-2.08315 0.097,-0.92541 0.2046,-1.79072 0.23918,-1.92292 0.0345,-0.1322 0.10915,-0.70907 0.16569,-1.28194 0.0565,-0.57287 0.3089,-2.2757 0.56079,-3.78407 0.25188,-1.50838 0.50032,-3.51926 0.55208,-4.46865 0.0517,-0.94938 0.1251,-1.7763 0.16299,-1.8376 0.0653,-0.10574 0.36253,-2.8407 0.4966,-4.57012 0.0946,-1.22059 0.22109,-8.44701 0.2328,-13.30189 0.0202,-8.37775 -0.1342,-29.0538 -0.21917,-29.34758 -0.10824,-0.37418 -0.29643,-3.58761 -0.34588,-5.90579 -0.1281,-6.00553 -0.42903,-9.62763 -1.22482,-14.74232 -1.24192,-7.982019 -3.4326,-15.764418 -5.8987,-20.955124 -0.35711,-0.751655 -0.64929,-1.408399 -0.64929,-1.459435 0,-0.100365 -1.28843,-2.774494 -1.49587,-3.104679 -0.1494,-0.237801 -0.62202,0.288255 -1.26026,1.40273 -0.64682,1.129478 -2.56445,4.914552 -3.20675,6.329584 -1.15328,2.540785 -3.13832,8.215067 -3.69979,10.576008 -0.23056,0.969473 -0.57391,2.411651 -0.76301,3.204858 -0.18909,0.793198 -0.58487,2.740138 -0.87952,4.326548 -0.29464,1.5864 -0.75643,3.92995 -1.02619,5.20788 -0.26976,1.27794 -0.59847,3.3691 -0.73046,4.64704 -0.13198,1.27793 -0.28489,2.68406 -0.33978,3.12473 -0.38935,3.12558 -0.49827,7.14312 -0.42794,15.7839 0.0871,10.69615 0.0645,9.46833 0.22287,12.09831 0.069,1.14574 0.16771,3.66956 0.2193,5.6085 0.1059,3.9788 0.21914,5.99129 0.46892,8.33261 0.14299,1.34041 0.24713,2.64574 0.34515,4.32654 0.0514,0.88134 0.15717,2.10719 0.23506,2.72412 0.0779,0.61695 0.1849,1.62647 0.23781,2.2434 0.25154,2.93289 0.51891,5.26069 0.88346,7.69165 0.0793,0.5288 0.26134,1.82676 0.40453,2.88436 0.14321,1.05761 0.32488,2.17625 0.40371,2.48588 0.0789,0.30964 0.22346,1.28131 0.32136,2.15926 0.0979,0.87796 0.21961,1.66363 0.27046,1.74591 0.10303,0.16671 0.32306,1.14162 0.92642,4.10484 0.22432,1.10167 0.47934,2.18427 0.56673,2.40579 0.0874,0.22151 0.19141,0.58207 0.23115,0.80122 0.0733,0.40391 0.69683,2.83258 1.43949,5.60634 1.0126,3.782 2.51921,7.61815 3.39251,8.63809 0.35633,0.41617 1.26205,0.44815 1.82286,0.0644 z"
         id="caryopsis_outline"
         inkscape:connector-curvature="0"
         inkscape:label="caryopsis_outline" />
      <path
         style="fill:#a0a1a2;fill-opacity:1"
         d="m 121.12198,220.25606 c -0.0757,-0.0757 -0.13753,-0.28361 -0.13753,-0.46213 0,-0.42696 -0.29548,-1.12139 -0.55429,-1.30267 -0.39402,-0.27598 -0.70406,-1.69921 -0.73741,-3.385 -0.0233,-1.17691 -4.7e-4,-1.3619 0.19432,-1.57855 0.21492,-0.23898 0.21533,-0.26256 0.016,-0.90183 -0.11258,-0.36105 -0.30442,-0.88854 -0.42632,-1.17221 -0.23279,-0.54177 -0.31406,-0.70362 -1.78405,-3.55305 -0.50408,-0.97708 -1.02602,-2.0725 -1.15989,-2.43426 -0.13385,-0.36175 -0.41873,-1.00646 -0.63308,-1.43268 -0.21434,-0.42622 -0.68494,-1.5228 -1.04578,-2.43685 -0.36085,-0.91405 -0.75808,-1.88777 -0.88276,-2.1638 -0.12465,-0.27606 -0.4575,-1.10128 -0.73963,-1.83383 -0.28212,-0.73258 -0.71236,-1.84771 -0.95608,-2.47808 -0.59319,-1.53429 -1.6209,-4.44499 -2.04363,-5.78803 -0.80702,-2.56397 -1.68231,-5.58885 -1.84067,-6.36111 -0.0646,-0.31518 -0.17437,-0.83096 -0.24388,-1.14614 -0.14703,-0.6667 -0.4532,-2.45546 -0.45613,-2.66478 -0.005,-0.36047 0.31334,-0.086 0.51719,0.4459 0.20621,0.53806 0.88927,1.70004 1.39692,2.37639 0.11234,0.14968 0.24014,0.3287 0.28398,0.39783 0.145,0.22861 0.20979,0.004 0.0968,-0.33618 -0.0611,-0.18357 -0.21835,-1.28794 -0.34944,-2.45414 -0.13111,-1.16621 -0.28589,-2.45735 -0.34396,-2.86921 -0.0581,-0.41186 -0.13292,-1.57233 -0.1663,-2.57882 -0.087,-2.62282 -0.24797,-5.59258 -0.35702,-6.58649 -0.0632,-0.57574 -0.72129,-4.47497 -1.13168,-6.70494 -0.0928,-0.50431 -0.22547,-1.32953 -0.29481,-1.83384 -0.0694,-0.5043 -0.15218,-1.00717 -0.18411,-1.11749 -0.032,-0.11031 -0.009,-0.20057 0.0504,-0.20057 0.23034,0 0.58972,1.29131 0.98987,3.55672 0.1618,0.91606 0.34754,1.84444 0.41275,2.06306 0.0653,0.21861 0.14159,0.52642 0.16973,0.68402 0.27632,1.54766 1.36366,5.26144 1.50042,5.12468 0.0212,-0.0212 -0.009,-0.32815 -0.0663,-0.68221 -0.0576,-0.35407 -0.18968,-1.38131 -0.29346,-2.28276 -0.10377,-0.90145 -0.20648,-1.66779 -0.22823,-1.70298 -0.0217,-0.0352 -0.07,-0.62943 -0.10726,-1.32054 -0.0372,-0.69111 -0.0941,-1.74654 -0.12639,-2.3454 -0.0322,-0.59886 -0.10876,-2.32667 -0.16999,-3.83958 -0.0612,-1.51292 -0.16372,-3.16337 -0.22775,-3.66766 -0.13215,-1.04083 -0.34272,-2.78497 -0.67778,-5.61406 -0.12679,-1.07051 -0.25773,-2.07625 -0.29098,-2.23498 -0.0934,-0.44599 -0.23524,-1.81575 -0.45709,-4.41472 -0.0323,-0.37822 -0.11691,-1.35817 -0.18807,-2.17767 -0.0711,-0.81949 -0.14162,-2.49573 -0.15663,-3.72497 -0.0149,-1.22924 -0.0579,-2.75075 -0.0953,-3.38112 -0.0374,-0.63038 -0.0999,-2.53871 -0.13893,-4.24073 -0.039,-1.70203 -0.11817,-3.49779 -0.17593,-3.99059 -0.0578,-0.4928 -0.13636,-1.3696 -0.17466,-1.94845 -0.11231,-1.69752 -0.48423,-4.62937 -0.74416,-5.86625 -0.13248,-0.63039 -0.28724,-1.42982 -0.3439,-1.77653 -0.0566,-0.34671 -0.3667,-1.4556 -0.68897,-2.46421 -1.32525,-4.14774 -2.21319,-6.81804 -2.57958,-7.75767 -0.59991,-1.53846 -1.01454,-2.91081 -1.70773,-5.652217 -0.724696,-2.865994 -0.761255,-3.036731 -0.678788,-3.170166 0.08468,-0.137021 0.504468,0.109021 0.504468,0.295673 0,0.153805 0.0822,0.441979 0.68891,2.416031 0.17437,0.567346 0.45603,1.567764 0.62591,2.223163 0.16988,0.655396 0.35471,1.274326 0.41073,1.375376 0.10046,0.18124 0.75215,2.10078 1.93015,5.68523 0.33146,1.00861 0.64588,1.93698 0.69868,2.06307 0.0528,0.12607 0.1488,0.43553 0.2133,0.68768 0.0644,0.25216 0.35578,1.20632 0.6473,2.12036 0.29152,0.91406 0.60076,1.99716 0.68719,2.40691 0.0864,0.40975 0.23883,1.13182 0.33867,1.6046 0.24793,1.17411 0.49387,2.85132 0.57983,3.95421 0.0393,0.50429 0.13812,1.48425 0.21958,2.17767 0.0815,0.69342 0.15939,2.00861 0.17316,2.92266 0.0437,2.90307 0.20794,6.73173 0.31151,7.26371 0.0353,0.18123 0.0191,0.30164 -0.0361,0.26755 -0.0985,-0.0609 -0.0711,0.47579 0.18048,3.52904 0.0675,0.81949 0.14943,1.82523 0.18203,2.23498 0.11075,1.39173 0.18605,2.11821 0.35047,3.38113 0.0903,0.69342 0.24598,2.0344 0.34601,2.97997 0.18543,1.75302 0.21704,2.07219 0.3348,3.38113 0.0996,1.10755 0.38113,3.05567 0.71212,4.92842 0.16156,0.91405 0.32909,1.91979 0.37231,2.23498 0.078,0.56879 0.91848,3.06093 1.2176,3.61036 l 0.15601,0.28653 -0.0517,-0.34384 c -0.0285,-0.18912 -0.10536,-0.8854 -0.17089,-1.5473 -0.0655,-0.66189 -0.13946,-1.33239 -0.1643,-1.48999 -0.15467,-0.98129 -0.29376,-15.7638 -0.15058,-16.00447 0.0551,-0.0926 0.12582,-1.549 0.26093,-5.37112 0.0312,-0.88253 0.0806,-1.93985 0.10979,-2.3496 0.0292,-0.40974 0.0867,-2.57596 0.12792,-4.8138 0.0411,-2.23785 0.0846,-4.42986 0.0966,-4.87112 0.0119,-0.44126 -0.0422,-1.52437 -0.12036,-2.40689 -0.0782,-0.88254 -0.1748,-2.30089 -0.21478,-3.1519 -0.04,-0.85102 -0.095,-1.85676 -0.12225,-2.23499 -0.10077,-1.39932 -0.17437,-4.24033 -0.21826,-8.42416 -0.0465,-4.43149 -0.1899,-6.520607 -0.64919,-9.455689 -0.9541,-6.097403 -1.19246,-7.479238 -1.41359,-8.194934 -0.16676,-0.539734 -0.34364,-1.34416 -0.46622,-2.120367 -0.15183,-0.961329 -0.9986,-3.655427 -1.36747,-4.350735 -0.39301,-0.740826 -0.38002,-0.978838 0.0535,-0.978838 0.26312,0 0.72781,1.078631 1.08631,2.521518 0.16446,0.661899 0.44749,1.641853 0.62898,2.177675 0.32149,0.949191 0.5484,1.906953 0.65866,2.780119 0.0299,0.236788 0.1005,0.459031 0.15688,0.493874 0.0563,0.03484 0.1025,0.23747 0.1025,0.450279 0,0.212809 0.0521,0.523824 0.11567,0.691143 0.14276,0.375508 0.63082,3.186808 0.79542,4.581819 0.067,0.567342 0.14914,1.263624 0.18268,1.54729 0.0336,0.283673 0.13299,0.95417 0.22102,1.489993 0.088,0.535823 0.19238,1.515774 0.23191,2.177671 0.0395,0.661902 0.11905,1.616072 0.17671,2.120372 0.13951,1.22007 0.22852,3.7422 0.27706,7.85109 0.022,1.85962 0.0944,4.02583 0.16087,4.8138 0.0665,0.78798 0.14744,2.25791 0.17988,3.26651 0.0324,1.00862 0.11508,2.60749 0.18366,3.55306 0.0686,0.94557 0.0958,2.6218 0.0605,3.72497 -0.23565,7.36757 -0.29323,6.2358 0.61761,12.14054 0.22933,1.48669 0.44837,2.26627 0.30834,1.09742 -0.0377,-0.31519 0.008,-1.57882 0.10154,-2.80805 0.22565,-2.96354 0.37851,-4.04989 0.86284,-6.13188 0.84867,-3.64826 1.68315,-8.18465 1.84425,-10.02572 0.0775,-0.8864 0.0778,-2.41479 7e-4,-4.64492 -0.10837,-3.13753 -0.0853,-19.752599 0.03,-21.604827 0.0295,-0.472783 0.0829,-1.607466 0.11883,-2.521517 0.0906,-2.305945 0.18083,-4.173361 0.24079,-4.984639 0.18813,-2.54508 0.26629,-10.834074 0.12486,-13.239057 -0.0538,-0.914051 -0.0958,-1.739275 -0.0935,-1.833832 0.003,-0.09456 -0.05,-0.801605 -0.11632,-1.57122 -0.12655,-1.469298 -0.0928,-1.789538 0.17787,-1.685685 0.43743,0.167858 0.82225,7.297162 0.63978,11.852988 -0.0467,1.166201 -0.0976,3.461356 -0.113,5.100344 -0.0155,1.638985 -0.0674,3.444164 -0.11537,4.011505 -0.0736,0.8698 -0.25523,6.285187 -0.22874,6.819558 0.004,0.09456 -0.004,0.326652 -0.0188,0.515766 -0.0539,0.677168 -0.0216,3.120343 0.0596,4.527266 0.0455,0.78797 0.10718,2.30948 0.13703,3.38113 0.0299,1.07164 0.0875,2.49 0.12817,3.1519 0.0406,0.66189 0.0868,2.18617 0.10266,3.38728 0.0342,2.59443 0.14141,4.59141 0.28886,5.38072 0.0589,0.31519 0.16269,1.73355 0.23068,3.1519 0.068,1.41836 0.16187,2.81091 0.20861,3.09459 0.0815,0.49502 0.088,0.50194 0.15994,0.17192 0.0412,-0.18911 0.10913,-0.6533 0.1509,-1.03152 0.084,-0.76119 0.20751,-1.41056 0.71897,-3.78229 1.06719,-4.94872 1.52745,-7.63584 1.50704,-8.79856 -0.008,-0.46153 0.20043,-5.70067 0.27023,-6.789 0.0283,-0.44127 0.007,-1.730682 -0.0473,-2.865365 -0.0543,-1.134683 -0.12757,-4.151904 -0.16281,-6.704941 -0.0804,-5.82465 -0.15629,-8.924669 -0.22425,-9.159063 -0.029,-0.100108 -0.0832,-0.749356 -0.12018,-1.442773 -0.0371,-0.693418 -0.0907,-1.441276 -0.11918,-1.661909 -0.0285,-0.220632 -0.0827,-0.850632 -0.12053,-1.399998 -0.0378,-0.549364 -0.0855,-1.142493 -0.10595,-1.318066 -0.0205,-0.175572 -0.0716,-0.938137 -0.11359,-1.694592 -0.042,-0.756456 -0.15242,-2.123233 -0.24534,-3.037281 -0.0929,-0.914052 -0.19421,-1.97137 -0.22507,-2.349597 -0.0309,-0.378228 -0.12931,-1.306606 -0.21877,-2.063061 -0.0894,-0.756456 -0.21923,-2.149021 -0.28839,-3.09459 -0.0692,-0.94557 -0.14968,-1.835264 -0.17892,-1.977099 -0.0616,-0.298774 0.22862,-0.367049 0.33888,-0.07972 0.11436,0.298028 0.30668,1.639873 0.36714,2.561561 0.0314,0.478848 0.10318,1.154304 0.15948,1.501012 0.10394,0.639854 0.19423,1.586924 0.2896,3.037284 0.0921,1.400203 0.39543,4.53528 0.57672,5.95995 0.3199,2.514107 0.53221,4.798048 0.57534,6.189181 0.0235,0.756455 0.095,2.226385 0.15894,3.266512 0.064,1.040125 0.14333,3.33528 0.17636,5.100342 0.033,1.765062 0.0795,3.312358 0.10331,3.438434 0.0238,0.126074 0.0766,0.9513 0.11734,1.83383 0.0966,2.092815 0.16438,3.160668 0.29832,4.699199 0.11539,1.32539 0.17335,2.22368 0.32542,5.04303 0.0829,1.53694 0.60604,4.65408 0.92096,5.48747 0.0529,0.13997 0.14771,-0.1806 0.2712,-0.91692 0.10442,-0.62266 0.28134,-1.59631 0.39315,-2.16365 0.17505,-0.88814 0.20332,-1.70065 0.20343,-5.84533 6e-5,-2.6476 -0.0386,-5.278 -0.0858,-5.845346 -0.0473,-0.567338 -0.13504,-2.465555 -0.19511,-4.218257 -0.0601,-1.752703 -0.13529,-3.228959 -0.16719,-3.28057 -0.0319,-0.05161 -0.0844,-0.93852 -0.11674,-1.970916 -0.0323,-1.032397 -0.086,-2.289694 -0.1193,-2.793997 -0.0586,-0.887481 -0.2271,-4.453396 -0.34931,-7.392633 -0.0328,-0.787972 -0.1376,-2.59315 -0.23297,-4.011504 -0.18368,-2.731705 -0.21706,-6.021755 -0.0668,-6.582863 0.0496,-0.185007 0.15073,-0.356586 0.22483,-0.381287 0.097,-0.03234 0.12736,0.206173 0.10837,0.85214 -0.0145,0.493378 0.0128,1.593335 0.0607,2.444347 0.21183,3.76431 0.33355,5.491391 0.43211,6.131874 0.21596,1.403149 0.35569,3.532041 0.45514,6.934173 0.0562,1.922657 0.12728,3.609118 0.15794,3.747686 0.0306,0.138571 0.0847,1.195889 0.12015,2.349596 0.0354,1.153709 0.0896,2.432899 0.12028,2.842645 0.0307,0.409745 0.0852,1.234971 0.12109,1.833831 0.0652,1.087889 0.19041,2.65969 0.39272,4.928424 0.11381,1.276194 0.20808,4.150567 0.29323,8.939917 0.0565,3.18007 0.0825,3.5384 0.39907,5.50149 0.36061,2.23631 0.68525,3.62731 1.21288,5.19681 0.27885,0.82948 0.84202,2.51679 1.25147,3.74959 0.40947,1.2328 0.81706,2.34071 0.90577,2.46204 0.15109,0.20663 0.15753,0.2009 0.10182,-0.0905 -0.0327,-0.17111 -0.0204,-0.40222 0.0272,-0.51359 0.0477,-0.11137 0.0756,-0.34316 0.062,-0.51509 -0.0136,-0.17192 0.0115,-0.37131 0.0558,-0.44308 0.0443,-0.0718 0.0709,-0.6145 0.0589,-1.20605 -0.0119,-0.59155 0.02,-1.07546 0.071,-1.07537 0.0509,1e-4 0.0585,-0.81223 0.0166,-1.80517 -0.19091,-4.5345 -0.2231,-5.13969 -0.28192,-5.3011 -0.0344,-0.0946 -0.0806,-1.15188 -0.10253,-2.3496 -0.0597,-3.26292 -0.16827,-6.127 -0.29532,-7.79378 -0.20186,-2.647864 -0.32041,-4.006289 -0.3901,-4.469967 -0.0284,-0.189112 -0.0797,-1.581678 -0.11395,-3.094587 -0.0343,-1.512912 -0.0869,-3.601759 -0.11704,-4.641885 -0.11717,-4.045577 -0.15381,-16.177111 -0.053,-17.536009 0.20513,-2.764465 0.83927,-6.189182 1.14602,-6.189182 0.20153,0 0.23415,0.242933 0.11898,0.88611 -0.23794,1.328706 -0.66701,4.942892 -0.80648,6.793059 -0.0821,1.088744 -0.0542,7.583307 0.0466,10.888372 0.0222,0.724936 0.0528,2.530115 0.0682,4.011505 0.0418,4.024898 0.19171,7.554772 0.39191,9.226461 0.0981,0.819496 0.22802,1.902598 0.28864,2.406903 0.0606,0.5043 0.18407,1.45847 0.27436,2.12037 0.0903,0.6619 0.20427,2.10604 0.2533,3.2092 0.10132,2.28008 0.0965,2.18333 0.21098,4.18343 0.0469,0.81949 0.10256,1.69629 0.12363,1.94845 0.12329,1.47582 0.1743,2.37023 0.22876,4.0115 0.13788,4.15435 0.20014,5.15426 0.46743,7.50725 0.31612,2.78279 0.53146,4.22388 1.19027,7.9657 0.12209,0.69342 0.30487,1.87967 0.40617,2.63613 0.1013,0.75646 0.23171,1.68483 0.2898,2.06307 0.058,0.37822 0.14255,1.20344 0.1877,1.83382 0.13961,1.94897 0.25845,0.6517 0.21,-2.29229 -0.0376,-2.28285 -0.1366,-3.91424 -0.34783,-5.73071 -0.0293,-0.25216 -0.10429,-1.23211 -0.16658,-2.17768 -0.0623,-0.94557 -0.16286,-2.2092 -0.2235,-2.80806 -0.10062,-0.99386 -0.17388,-1.95002 -0.29417,-3.83958 -0.0604,-0.94824 -0.072,-7.27251 -0.0136,-7.37052 0.0261,-0.0437 0.0811,-0.82727 0.1224,-1.74133 0.11174,-2.47466 0.28858,-4.72265 0.47786,-6.07456 0.14692,-1.04927 0.33047,-2.41827 0.56861,-4.24073 0.2178,-1.666787 0.64304,-4.148153 1.24728,-7.278023 0.5723,-2.964465 0.92983,-4.9385 1.14174,-6.303793 0.36585,-2.357057 0.62524,-4.147159 0.69753,-4.813807 0.0927,-0.854908 0.60022,-3.662101 0.74597,-4.12612 0.1401,-0.446022 0.42493,-1.903226 0.51634,-2.641613 0.0878,-0.708737 0.18716,-0.884754 0.44405,-0.786171 0.14026,0.05382 0.18117,0.162684 0.14148,0.376378 -0.0307,0.165361 -0.0867,0.558541 -0.12448,0.87373 -0.0647,0.540308 -0.24879,1.534816 -0.75306,4.068814 -0.24587,1.235532 -0.49542,2.936294 -0.68948,4.699191 -0.13527,1.228779 -0.32871,2.44324 -0.85804,5.386879 -0.39016,2.169746 -0.99884,5.648239 -1.3036,7.449938 -0.13329,0.787972 -0.29225,1.649337 -0.35325,1.914137 -0.15007,0.65148 -0.63456,3.88891 -0.84561,5.65042 -0.23098,1.92791 -0.30845,3.4274 -0.39081,7.56455 -0.15272,7.67181 -0.12605,8.48243 0.43743,13.29527 0.0628,0.53583 0.14009,1.59315 0.17193,2.3496 0.0319,0.75646 0.10735,1.89114 0.16783,2.52152 0.0604,0.63038 0.16569,1.73927 0.23382,2.46421 0.0681,0.72494 0.17168,1.65332 0.2301,2.06306 0.16282,1.14173 0.32022,2.89216 0.39681,4.41265 0.0954,1.89371 0.15814,2.79816 0.28231,4.06881 0.13139,1.34453 0.21544,2.55968 0.28541,4.12613 0.10112,2.26383 0.21423,4.64168 0.23718,4.98573 0.0126,0.18911 0.0352,0.75645 0.0503,1.26075 0.0345,1.15826 0.13751,0.79119 0.40191,-1.43268 0.10118,-0.85101 0.23609,-1.97763 0.29982,-2.50362 0.16188,-1.33625 0.33932,-5.76796 0.26688,-6.66553 -0.033,-0.40975 -0.13277,-1.57022 -0.22154,-2.57883 -0.0888,-1.0086 -0.1942,-2.34959 -0.23427,-2.97997 -0.0401,-0.63038 -0.1439,-1.57106 -0.23073,-2.09041 -0.0868,-0.51934 -0.18857,-1.4735 -0.22608,-2.12037 -0.0375,-0.64685 -0.1136,-1.30504 -0.1691,-1.46263 -0.12548,-0.35638 -0.51926,-2.89924 -0.67444,-4.35535 -0.11076,-1.03927 -0.1815,-2.42397 -0.29861,-5.84534 -0.0291,-0.85102 -0.0786,-2.06306 -0.10987,-2.69345 -0.0312,-0.63037 -0.0859,-1.84241 -0.12137,-2.69343 -0.0354,-0.85101 -0.09,-1.82235 -0.12129,-2.15853 -0.0643,-0.69133 0.11861,-2.69226 0.3138,-3.43325 l 0.12946,-0.49143 0.22021,0.23638 c 0.21041,0.22585 0.21279,0.2835 0.0531,1.29374 -0.15237,0.96449 -0.16858,3.33736 -0.0299,4.38117 0.0251,0.18911 0.0793,1.37537 0.12042,2.63613 0.0411,1.26076 0.096,2.42123 0.12191,2.57883 0.0259,0.15759 0.0774,0.95702 0.11444,1.77652 0.0583,1.29143 0.40392,4.53432 0.73901,6.93417 0.3439,2.46292 0.58695,4.09076 0.63316,4.24074 0.12639,0.4101 0.61836,4.88275 0.68079,6.18918 0.14936,3.12573 0.0965,7.61401 -0.10404,8.82531 -0.0261,0.1576 -0.0802,0.8023 -0.12026,1.43268 -0.0401,0.63038 -0.12123,1.50718 -0.1804,1.94844 -0.0592,0.44127 -0.15505,1.2407 -0.21306,1.77653 -0.058,0.53582 -0.16014,1.4771 -0.22696,2.09171 -0.23665,2.17686 -0.33961,3.24939 -0.40439,4.21208 -0.036,0.53583 -0.088,1.25789 -0.11546,1.6046 -0.0275,0.34671 -0.0802,1.06878 -0.11715,1.60461 -0.0369,0.53582 -0.0883,1.25789 -0.11418,1.6046 -0.0258,0.34671 -0.0772,2.04874 -0.11406,3.78228 -0.0369,1.73354 -0.0925,3.407 -0.12352,3.71882 -0.0702,0.70554 0.0597,0.59576 0.30731,-0.25956 0.98718,-3.41064 1.06569,-3.62903 1.26107,-3.50828 0.11293,0.0698 0.0651,4.39221 -0.0633,5.72243 -0.0305,0.31519 -0.0826,0.88254 -0.11591,1.26076 -0.0333,0.37822 -0.10953,1.12608 -0.16935,1.66191 -0.0598,0.53582 -0.14009,1.38684 -0.17838,1.89114 -0.0383,0.5043 -0.11821,1.20058 -0.17762,1.54729 -0.0594,0.34671 -0.13851,1.14614 -0.17577,1.77653 -0.0373,0.63037 -0.11476,1.37824 -0.17223,1.6619 -0.0574,0.28368 -0.20736,1.1089 -0.33312,1.83384 -0.12576,0.72493 -0.27914,1.52437 -0.34085,1.77652 -0.0617,0.25215 -0.2721,1.10316 -0.46756,1.89113 -0.19546,0.78799 -0.45676,1.92264 -0.58064,2.52148 -0.12389,0.59884 -0.48251,1.86246 -0.79692,2.80805 -0.31441,0.9456 -0.62523,1.89979 -0.69071,2.12042 -0.179,0.60308 -0.79447,2.28446 -1.0379,2.83546 -0.11806,0.26722 -0.21467,0.51761 -0.21467,0.55641 0,0.0743 -0.94103,2.37122 -1.45124,3.5423 -0.46027,1.05646 -0.47663,1.09659 -0.77125,1.89114 -0.15193,0.40975 -0.74556,1.64662 -1.31916,2.74862 -0.57362,1.10199 -1.04293,2.06276 -1.04293,2.13502 0,0.0723 0.0837,0.33111 0.18597,0.5752 0.21793,0.52008 0.1753,1.82981 -0.13754,4.22608 -0.0881,0.67506 -0.225,0.97422 -0.44571,0.97422 -0.088,0 -0.30538,0.30688 -0.48308,0.68194 -0.1777,0.37506 -0.36305,0.68452 -0.41189,0.68768 -0.0489,0.004 -0.14136,-0.13251 -0.20562,-0.30152 -0.15028,-0.39529 0.0406,-1.32893 0.3528,-1.72587 0.36951,-0.46976 0.49775,-1.15088 0.48546,-2.57843 -0.0126,-1.46509 -0.0731,-1.80684 -0.31969,-1.80684 -0.0888,0 -0.24042,-0.12035 -0.3368,-0.26746 -0.24523,-0.37424 -0.077,-0.79795 0.82461,-2.07657 0.75462,-1.07017 1.69443,-2.87817 2.32642,-4.47552 0.19953,-0.50431 0.40419,-0.96849 0.4548,-1.03153 0.15508,-0.19313 1.50388,-3.38217 1.8421,-4.35535 0.17526,-0.5043 0.43113,-1.20059 0.56861,-1.5473 0.13747,-0.3467 0.50573,-1.50718 0.81834,-2.57882 0.31261,-1.07165 0.74996,-2.56736 0.97187,-3.32382 0.61137,-2.08405 1.07958,-4.01125 1.25304,-5.15765 0.0858,-0.56734 0.23484,-1.38993 0.3311,-1.82799 0.21325,-0.97037 0.82578,-8.31538 0.69347,-8.31538 -0.0174,0 -0.14417,0.50286 -0.28163,1.11748 -0.13746,0.61463 -0.37068,1.53011 -0.51827,2.03441 -0.14758,0.5043 -0.30476,1.09743 -0.3493,1.31807 -0.0445,0.22063 -0.13291,0.46562 -0.19639,0.54441 -0.0635,0.0788 -0.082,0.14328 -0.0411,0.14328 0.0409,0 0.002,0.14183 -0.0864,0.31518 -0.0884,0.17336 -0.35155,0.88254 -0.5848,1.57596 -0.68762,2.04426 -1.09964,3.01922 -1.84056,4.35534 -0.38453,0.69342 -0.88847,1.62971 -1.11987,2.08064 -0.23141,0.45094 -0.55088,1.06465 -0.70994,1.3638 -0.15905,0.29914 -0.28919,0.57981 -0.28919,0.62369 0,0.0929 -1.65318,3.16088 -1.81127,3.36136 -0.0586,0.0742 -0.23663,0.36716 -0.39568,0.65083 -0.15906,0.28367 -0.57066,0.97995 -0.91467,1.5473 -2.01233,3.31868 -3.33651,6.20239 -3.07364,6.69356 0.0664,0.12406 0.1207,0.33925 0.1207,0.47825 0,0.13899 0.15688,0.76109 0.34862,1.38246 0.30607,0.99182 1.02675,4.04047 1.02675,4.34338 0,0.21809 -0.17518,0.10392 -0.3725,-0.24278 -0.11031,-0.19382 -0.20057,-0.44736 -0.20057,-0.56343 0,-0.16655 -0.6286,-2.03751 -1.00107,-2.9796 -0.0374,-0.0945 -0.0759,-0.19771 -0.0854,-0.22923 -0.25747,-0.84702 -0.42246,-1.3285 -0.56794,-1.6574 -0.0987,-0.22311 -0.25869,-0.58508 -0.35557,-0.80436 -0.0969,-0.21927 -0.30758,-0.74793 -0.46823,-1.1748 -0.16066,-0.42685 -0.33295,-0.82767 -0.38287,-0.89071 -0.0499,-0.063 -0.36003,-0.75932 -0.68915,-1.5473 -0.63116,-1.5111 -2.54941,-5.31292 -4.27942,-8.48147 -0.5679,-1.04012 -1.18577,-2.20059 -1.37304,-2.57882 -0.18727,-0.37822 -0.55757,-1.04872 -0.8229,-1.48999 -0.26532,-0.44126 -0.68923,-1.18912 -0.94203,-1.6619 -0.74369,-1.3909 -3.35644,-4.98525 -3.36018,-4.6226 -4.6e-4,0.0524 0.13037,0.68846 0.2909,1.41339 0.16055,0.72494 0.3488,1.57595 0.41836,1.89114 0.0695,0.31519 0.29492,1.1662 0.5008,1.89114 1.05112,3.70114 1.25988,4.25642 3.66257,9.74222 0.67644,1.54443 1.48158,3.44283 1.78922,4.21864 0.30763,0.77583 0.68403,1.67842 0.83643,2.00576 1.13351,2.43467 1.50405,3.17877 2.10284,4.22291 0.9417,1.64208 1.76305,3.39477 1.83357,3.9127 0.0452,0.33215 0.004,0.49398 -0.17245,0.68769 -0.3076,0.33647 -0.41294,1.2913 -0.26051,2.36152 0.11302,0.79356 0.24688,1.15552 0.81925,2.21541 0.28479,0.52736 0.40697,1.56329 0.22457,1.90409 -0.14607,0.27293 -0.46083,0.32448 -0.67482,0.11049 z m 2.13595,-17.57039 c 0.28051,-0.44127 0.80196,-1.24071 1.1588,-1.77653 0.39311,-0.59031 0.63203,-1.06454 0.60629,-1.20344 -0.15359,-0.82874 -1.96898,-5.20661 -2.32886,-5.61611 -0.18331,-0.2086 -1.85593,-3.00077 -2.71467,-4.53174 -0.1931,-0.34425 -0.60791,-1.06432 -0.92179,-1.60014 -0.62669,-1.0698 -3.2953,-5.68103 -3.58346,-6.19205 -0.0994,-0.17619 -0.25955,-0.44103 -0.356,-0.58854 -0.40691,-0.62234 -4.35953,-8.37477 -4.80957,-9.4332 l -0.29064,-0.68354 -0.0801,1.89609 c -0.0441,1.04285 -0.0531,2.0983 -0.0203,2.34545 0.0328,0.24715 0.0837,0.96512 0.11297,1.59549 0.0857,1.84818 1.04613,6.27658 1.61561,7.44995 0.15298,0.31519 0.42131,0.7278 0.59629,0.91691 0.3493,0.37751 0.98623,1.31807 0.89257,1.31807 -0.0323,0 0.3997,0.68338 0.9601,1.51864 1.04299,1.55455 1.27061,1.96416 2.30886,4.15477 0.32864,0.69342 0.7903,1.59601 1.02592,2.00576 0.75446,1.31202 2.60031,4.90297 3.09304,6.01726 0.13937,0.31518 0.47349,1.01147 0.74249,1.54729 0.26899,0.53583 0.6112,1.29424 0.76044,1.68538 l 0.27136,0.71115 0.2253,-0.3673 c 0.12392,-0.20203 0.4548,-0.72836 0.73531,-1.16962 z m 3.8179,-6.25452 c 0.55006,-0.97268 1.11822,-1.94902 1.26257,-2.16964 0.14434,-0.22064 0.32168,-0.50431 0.39405,-0.63039 0.0724,-0.12607 0.39461,-0.66763 0.71607,-1.20345 0.73997,-1.23339 1.28132,-2.28025 1.61986,-3.13244 0.146,-0.36752 0.35951,-0.85272 0.47448,-1.0782 0.21786,-0.42733 1.43221,-4.16482 1.74142,-5.35966 0.43409,-1.67751 0.8608,-5.06253 1.05469,-8.36685 0.037,-0.63039 0.11418,-1.66192 0.17153,-2.29229 0.18818,-2.06848 0.22127,-2.82211 0.29178,-6.64545 0.0384,-2.07905 0.0994,-3.83265 0.13579,-3.89689 0.0363,-0.0643 0.0199,-0.0746 -0.0365,-0.0231 -0.0564,0.0515 -0.1889,0.38682 -0.29435,0.74499 -0.32153,1.09198 -3.42113,10.09445 -4.05209,11.76881 -0.16627,0.44126 -0.3822,1.0344 -0.47981,1.31806 -0.0976,0.28367 -0.46015,1.16047 -0.8056,1.94845 -0.34546,0.78797 -0.75521,1.74214 -0.91055,2.12036 -0.26315,0.6407 -0.50305,1.13062 -2.18737,4.46714 -0.34925,0.69185 -0.93302,1.7598 -1.29725,2.3732 -0.36423,0.61342 -0.69927,1.23361 -0.74452,1.37822 -0.0452,0.1446 -0.26964,0.59815 -0.49865,1.00791 -0.229,0.40974 -0.6357,1.19551 -0.90377,1.74617 l -0.4874,1.00118 0.27083,0.4315 c 0.14895,0.23732 0.40234,0.6636 0.56308,0.94727 0.16073,0.28367 0.58901,1.02793 0.95174,1.6539 0.36272,0.62598 0.77253,1.42541 0.91072,1.77652 0.42228,1.07303 0.89534,1.96434 1.02044,1.92264 0.0653,-0.0218 0.56877,-0.83538 1.11883,-1.80805 z m -5.32356,-6.55364 c 0.30196,-0.33178 1.41149,-2.10896 2.25113,-3.60574 0.5237,-0.93356 0.63253,-1.21167 0.53822,-1.37538 -0.065,-0.11286 -0.40535,-0.84989 -0.75628,-1.63787 -0.70234,-1.57704 -1.96928,-4.02889 -2.6501,-5.12863 -0.24054,-0.38853 -0.71665,-1.16002 -1.05805,-1.71444 -0.34138,-0.55441 -0.65283,-1.03381 -0.69209,-1.06532 -0.11847,-0.0951 -0.96574,-1.37657 -1.55432,-2.35087 -0.30424,-0.50361 -0.59592,-0.93284 -0.64819,-0.95386 -0.0523,-0.021 -0.095,-0.0943 -0.095,-0.16289 0,-0.0685 -0.0701,-0.20612 -0.15571,-0.30564 -0.0856,-0.0995 -0.35128,-0.54198 -0.59031,-0.98324 -0.23903,-0.44128 -0.78787,-1.38935 -1.21966,-2.10685 -0.43179,-0.7175 -0.78507,-1.34832 -0.78507,-1.40182 0,-0.0535 -0.20631,-0.53767 -0.45846,-1.07591 -0.25215,-0.53825 -0.45846,-1.00445 -0.45846,-1.03601 0,-0.0316 -0.1333,-0.26856 -0.29624,-0.52666 -0.16293,-0.2581 -0.36367,-0.65679 -0.44609,-0.88598 -0.0824,-0.22919 -0.43058,-1.00985 -0.77369,-1.73478 -0.34311,-0.72494 -0.79997,-1.71892 -1.01525,-2.20886 -0.35766,-0.814 -0.39764,-0.8634 -0.46379,-0.57307 -0.16933,0.74303 -0.0948,4.00823 0.12896,5.64729 0.28882,2.11613 0.76427,5.11383 0.90224,5.68868 0.89627,3.7343 1.918,6.31216 3.74171,9.44043 0.48337,0.82914 0.6861,1.1944 1.49493,2.69343 0.30611,0.56735 1.12872,1.90833 1.82803,2.97998 0.6993,1.07165 1.62998,2.55351 2.06818,3.29303 0.43819,0.73951 0.82641,1.34553 0.8627,1.34672 0.0363,8.9e-4 0.1716,-0.11391 0.30069,-0.25574 z m 4.07698,-7.13476 c 0.22182,-0.5043 0.73786,-1.61319 1.14675,-2.4642 1.40965,-2.93384 1.98894,-4.18554 2.25432,-4.87112 0.14642,-0.37822 0.38256,-0.97136 0.52474,-1.31806 0.1422,-0.34671 0.50266,-1.37824 0.80103,-2.29229 0.29836,-0.91406 0.76069,-2.25504 1.02742,-2.97998 1.04079,-2.82896 2.56955,-7.7569 2.73779,-8.82531 0.25625,-1.62728 0.2928,-6.16987 0.0746,-9.26626 -0.15654,-2.22112 -0.18511,-2.48145 -0.46739,-4.25825 -0.12518,-0.78797 -0.29276,-1.86929 -0.37241,-2.40293 l -0.14479,-0.97026 -0.15379,0.68372 c -0.18718,0.83219 -0.60909,2.44937 -1.06047,4.06485 -0.18494,0.6619 -0.4107,1.53765 -0.50167,1.94614 -0.38067,1.70921 -1.71439,5.88225 -2.29018,7.16571 -0.0848,0.18911 -0.39548,1.04012 -0.69028,1.89113 -1.56477,4.5169 -1.93487,5.56654 -2.22274,6.3038 -0.13538,0.34671 -0.34688,0.84901 -0.47001,1.11624 -0.12313,0.26723 -0.22387,0.53882 -0.22387,0.60355 0,0.12028 -0.70411,1.9914 -1.9406,5.15708 -0.38164,0.97708 -0.69426,1.84099 -0.69472,1.91978 -4.6e-4,0.0788 -0.0524,0.14328 -0.11543,0.14328 -0.063,0 -0.11461,0.12589 -0.11461,0.27976 0,0.15388 -0.0476,0.3092 -0.1058,0.34516 -0.0582,0.036 -0.13975,0.21998 -0.18125,0.40892 -0.0415,0.18894 -0.11423,0.31956 -0.16164,0.29026 -0.0474,-0.0293 -0.0862,0.009 -0.0862,0.0856 0,0.0763 -0.13754,0.48257 -0.30564,0.90276 -0.37094,0.9272 -0.37058,0.91289 -0.0363,1.44351 0.14812,0.23513 0.54128,0.94328 0.87371,1.57366 1.20148,2.27835 1.5333,2.8774 1.98502,3.58362 0.25268,0.39503 0.47105,0.70449 0.48529,0.68769 0.0142,-0.0168 0.20737,-0.44319 0.42919,-0.94749 z m -3.89263,-8.59974 c 0.53018,-1.00659 1.00387,-1.95911 1.05265,-2.1167 0.0488,-0.1576 0.26226,-0.66407 0.47442,-1.12547 0.21216,-0.46141 0.41662,-0.96191 0.45434,-1.11222 0.0894,-0.3562 -0.31659,-1.57371 -0.93548,-2.80535 -0.26925,-0.53583 -0.60348,-1.23211 -0.74273,-1.54729 -0.13926,-0.3152 -0.29092,-0.59887 -0.33703,-0.63039 -0.12481,-0.0853 -1.31629,-2.46691 -1.66287,-3.32382 -0.16572,-0.40974 -0.36972,-0.89972 -0.45334,-1.08883 -0.0836,-0.18911 -0.18923,-0.47279 -0.23473,-0.63038 -0.0455,-0.15759 -0.25245,-0.67719 -0.45991,-1.15465 -0.20745,-0.47746 -0.59553,-1.53478 -0.86239,-2.34959 -0.26687,-0.81482 -0.56375,-1.63621 -0.65974,-1.82533 -0.096,-0.18912 -0.34582,-0.8854 -0.55517,-1.5473 -0.20935,-0.6619 -0.69398,-2.10604 -1.07697,-3.2092 -0.38299,-1.10316 -0.82713,-2.39258 -0.98698,-2.86536 -0.15986,-0.47279 -0.4359,-1.22065 -0.61343,-1.66191 -0.66936,-1.6637 -1.04717,-2.67838 -1.50591,-4.04429 -0.26011,-0.77449 -0.48545,-1.39341 -0.50076,-1.37538 -0.0153,0.0181 -0.0618,0.49697 -0.10337,1.06432 -0.0416,0.56734 -0.1265,1.5871 -0.18879,2.26613 -0.13061,1.42355 -0.084,3.92243 0.18671,9.99761 0.0309,0.69342 0.0768,1.75074 0.10208,2.3496 0.0451,1.0672 0.23735,3.21751 0.35882,4.01151 0.0985,0.64401 0.73806,3.46369 0.87087,3.83958 0.13445,0.38055 0.98087,2.11152 1.1209,2.29229 0.0489,0.063 0.39761,0.70774 0.77506,1.43268 0.97951,1.88126 1.47775,2.78284 2.1716,3.92958 0.33507,0.55379 0.60924,1.03492 0.60924,1.06918 0,0.0949 2.66743,4.06267 2.70559,4.02451 0.0183,-0.0183 0.46714,-0.85693 0.99732,-1.86353 z m 3.46942,-8.19128 c 0.37257,-0.96863 0.86709,-2.3327 1.47507,-4.0688 0.11037,-0.31519 0.26651,-0.72781 0.34697,-0.91692 0.84406,-1.98384 2.74168,-7.59364 3.08942,-9.13299 0.0899,-0.39812 0.24236,-1.00752 0.33876,-1.35423 1.47006,-5.28805 1.47993,-5.34696 1.46742,-8.75624 -0.005,-1.56947 -0.0367,-3.09098 -0.0688,-3.38112 -0.032,-0.29015 -0.0891,-0.96593 -0.12676,-1.50176 -0.16118,-2.29405 -0.68472,-5.56435 -1.44954,-9.05454 -0.30056,-1.37152 -0.34565,-1.50464 -0.40762,-1.20345 -0.0259,0.12608 -0.17259,0.74499 -0.3259,1.37537 -0.15332,0.63038 -0.32613,1.37824 -0.38404,1.66191 -0.6119,2.99757 -0.82068,3.76797 -1.81705,6.70495 -0.34217,1.00861 -0.77445,2.37538 -0.96065,3.03728 -0.1862,0.6619 -0.41876,1.48712 -0.51681,1.83383 -0.0981,0.34671 -0.22074,0.7851 -0.27262,0.97422 -0.23837,0.86876 -0.43909,1.51795 -0.56701,1.83383 -0.0766,0.18911 -0.16452,0.49858 -0.19543,0.68769 -0.0309,0.18911 -0.28321,1.02832 -0.56067,1.8649 -0.27746,0.83659 -0.60821,1.9197 -0.735,2.40691 -0.1268,0.48721 -0.30554,1.11793 -0.3972,1.4016 -0.0917,0.28368 -0.24837,0.8768 -0.34826,1.31807 -0.18026,0.7964 -1.14116,4.03057 -1.32807,4.46996 -0.17738,0.41703 -0.90705,3.40356 -0.9065,3.71037 7e-4,0.38199 0.46274,1.52578 0.72053,1.78356 0.10771,0.10773 0.2023,0.26954 0.21018,0.35959 0.0259,0.2963 0.0425,0.33093 0.41686,0.87208 0.20411,0.29503 0.37111,0.59365 0.37111,0.6636 0,0.19845 0.40255,0.93981 1.10559,2.03613 1.23499,1.92585 1.22537,1.91364 1.32122,1.67614 0.0473,-0.1172 0.27445,-0.70308 0.5048,-1.30194 z m -4.89356,-9.6276 c 0.0485,-0.22064 0.3232,-1.04586 0.61035,-1.83383 0.57375,-1.57441 1.12368,-3.3005 1.12289,-3.5244 -2.3e-4,-0.0788 0.042,-0.14327 0.0939,-0.14327 0.0519,0 0.21303,-0.39971 0.35797,-0.88826 0.14495,-0.48854 0.30876,-1.03779 0.36403,-1.22056 0.25162,-0.83208 0.0561,-1.83532 -0.92917,-4.76804 -0.64954,-1.93337 -1.28285,-4.30857 -2.12391,-7.96571 -0.087,-0.37823 -0.28637,-1.22924 -0.44306,-1.89114 -0.42743,-1.80563 -0.71945,-3.15038 -0.93333,-4.29804 -0.10574,-0.56734 -0.31194,-1.57308 -0.45824,-2.23498 -0.1463,-0.6619 -0.37578,-1.71922 -0.50996,-2.34959 -0.13417,-0.63039 -0.28559,-1.30087 -0.33649,-1.49 l -0.0925,-0.34384 -0.1283,0.31556 c -0.0706,0.17356 -0.22652,0.5346 -0.34656,0.80231 -0.23813,0.53102 -0.34237,0.84082 -0.42099,1.25123 -0.0281,0.14687 -0.22861,0.83438 -0.44548,1.52779 -0.51567,1.6488 -1.1676,4.29021 -1.27297,5.15766 -0.0459,0.37822 -0.1081,0.79084 -0.13814,0.91691 -0.03,0.12608 -0.0808,1.31234 -0.11281,2.63613 -0.0429,1.77364 -0.009,2.87976 0.12899,4.20412 0.17384,1.66917 0.56427,4.11869 0.68851,4.31971 0.0297,0.048 0.18558,0.67056 0.34653,1.38353 0.36916,1.63534 1.01018,3.5383 2.37672,7.05558 0.31839,0.81949 0.83772,2.16048 1.15407,2.97998 0.31634,0.81948 0.65361,1.66927 0.74948,1.88841 l 0.17431,0.39845 0.21796,-0.74229 c 0.11989,-0.40825 0.25769,-0.92279 0.30623,-1.14342 z m 4.09383,-12.6659 c 0.24641,-0.81472 0.622,-2.19779 1.60269,-5.90164 0.15856,-0.59886 0.35873,-1.3983 0.44483,-1.77653 0.0861,-0.37823 0.3087,-1.3066 0.49468,-2.06306 0.72124,-2.93357 1.09889,-5.09285 1.09246,-6.24648 -0.005,-1.00826 -0.26734,-2.90029 -0.55721,-4.02805 -0.0915,-0.35581 -0.16629,-0.79739 -0.16629,-0.9813 0,-0.36921 -0.36877,-1.85436 -0.64464,-2.59613 -0.0971,-0.26117 -0.24691,-0.73273 -0.33285,-1.04791 -0.15099,-0.55368 -0.81131,-2.37344 -1.28928,-3.55306 -0.2733,-0.67449 -0.70786,-2.13472 -0.79304,-2.66478 -0.0583,-0.36276 -0.26401,-0.53003 -0.26401,-0.21468 0,0.0868 -0.15081,0.53809 -0.33513,1.00288 -0.18432,0.46478 -0.42306,1.25767 -0.53053,1.76197 -0.10746,0.5043 -0.23988,0.97324 -0.29425,1.04208 -0.0544,0.0688 -0.0758,0.14817 -0.0477,0.17629 0.0281,0.0281 -0.054,0.43599 -0.18267,0.90637 -0.22747,0.832 -0.81427,3.71517 -0.94388,4.63751 -0.0354,0.25215 -0.1454,1.0258 -0.24438,1.71922 -0.099,0.69341 -0.20356,1.46706 -0.23243,1.71922 -0.0289,0.25215 -0.10215,0.69055 -0.16283,0.97422 -0.22182,1.03697 -0.48435,4.30509 -0.51558,6.41841 -0.0247,1.66689 0.11864,2.70436 0.67545,4.89104 0.99835,3.92061 1.65945,6.15446 2.21301,7.47764 l 0.30762,0.7353 0.21419,-0.7353 c 0.1178,-0.40443 0.33911,-1.14838 0.4918,-1.65323 z M 119.938,127.67052 c 0.19375,-0.6619 0.50646,-2.18341 0.69493,-3.38113 0.38954,-2.47556 0.93731,-5.57621 1.19466,-6.76226 0.61425,-2.83101 0.63757,-2.9885 0.58334,-3.94149 -0.0532,-0.93601 -0.22527,-1.88198 -0.55462,-3.04998 l -0.1616,-0.57308 -0.17871,0.41537 c -0.19701,0.45787 -0.36185,1.05838 -0.87538,3.18903 -0.18912,0.78469 -0.34386,1.54849 -0.34386,1.69732 0,0.14883 -0.0464,0.24194 -0.1031,0.20689 -0.0567,-0.0351 -0.12798,0.15532 -0.15837,0.42304 -0.0304,0.26772 -0.11596,0.8478 -0.19014,1.28906 -0.73063,4.34681 -0.8101,5.44887 -0.64048,8.88263 0.0633,1.28139 0.26607,2.93073 0.34938,2.84185 0.0174,-0.0186 0.1902,-0.57535 0.38395,-1.23725 z m 19.82172,-65.86699 c 0.0827,-0.03311 0.1816,-0.02904 0.21968,0.009 0.0381,0.03808 -0.0296,0.06517 -0.15043,0.0602 -0.13352,-0.0055 -0.16068,-0.03265 -0.0693,-0.06924 z"
         id="spikelet_outline"
         inkscape:connector-curvature="0"
         inkscape:label="spikelet_outline" />
      <path
         style="fill:#a0a1a2;fill-opacity:1"
         d="m 174.64407,219.54204 c -0.63388,-0.80812 -0.95713,-1.52551 -1.28609,-2.85424 -0.14316,-0.57823 -0.26029,-1.092 -0.26029,-1.14171 0,-0.0497 0.22657,-0.045 0.50349,0.0103 0.43754,0.0875 0.52597,0.0416 0.67517,-0.35084 0.14573,-0.38332 0.11705,-0.49576 -0.18976,-0.74421 -0.19879,-0.16096 -0.51549,-0.29266 -0.70379,-0.29266 -0.74504,0 -1.5746,-0.56527 -1.94742,-1.32699 -0.42825,-0.87495 -0.67803,-2.97394 -0.45471,-3.82108 0.22515,-0.85411 0.86463,-1.88287 1.3994,-2.25127 0.25769,-0.17752 0.86085,-0.7219 1.34037,-1.20973 0.64869,-0.65993 0.87185,-1.01062 0.87185,-1.37005 0,-0.56089 -0.0381,-0.5746 -0.59058,-0.2126 -0.5943,0.38941 -1.64026,0.21314 -2.26511,-0.38173 -0.27154,-0.2585 -0.76513,-0.84365 -1.09687,-1.30034 -0.33174,-0.45668 -1.09222,-1.42817 -1.68994,-2.15887 -1.09531,-1.33898 -1.32173,-1.66048 -2.72537,-3.86985 -2.35662,-3.70941 -3.71451,-7.67946 -4.15762,-12.15561 -0.0498,-0.50235 -0.16263,-1.62329 -0.25088,-2.49099 -0.0882,-0.86771 -0.20922,-2.25021 -0.2688,-3.07225 -0.0596,-0.82202 -0.13273,-1.53499 -0.16256,-1.58435 -0.0298,-0.0494 -0.0999,-0.68458 -0.15582,-1.41157 -0.0559,-0.727 -0.28523,-3.04061 -0.50964,-5.14135 -0.22441,-2.10075 -0.48204,-4.64157 -0.57249,-5.64627 -0.0905,-1.00471 -0.2348,-2.53668 -0.32078,-3.40438 -0.16082,-1.62302 -0.25052,-3.12003 -0.46263,-7.72211 -0.11924,-2.58713 -0.15978,-24.07849 -0.0542,-28.72957 0.029,-1.27872 0.1515,-3.52062 0.27217,-4.98201 0.12066,-1.46139 0.26325,-3.25491 0.31686,-3.98561 0.0536,-0.73069 0.20618,-2.4359 0.33904,-3.78934 0.13286,-1.35345 0.28723,-2.96014 0.34304,-3.57044 0.0558,-0.61029 0.2803,-1.89429 0.49887,-2.85333 0.21857,-0.95903 0.62723,-2.78992 0.90813,-4.06864 0.83086,-3.782349 2.47745,-9.305511 3.31706,-11.126483 0.2808,-0.609 1.37793,-3.150719 2.32969,-5.397173 0.47132,-1.112466 2.12024,-4.338383 2.97096,-5.812345 0.34266,-0.593689 0.90706,-1.639909 1.25421,-2.324934 0.94934,-1.873255 2.48466,-4.189559 3.2008,-4.828988 1.07353,-0.95852 1.17828,-1.025286 2.05943,-1.312538 l 0.85421,-0.278471 0.48404,0.551278 c 1.19992,1.366642 1.06201,3.39275 -0.46163,6.782086 -0.41482,0.922771 -1.06522,2.885841 -1.38741,4.187578 -0.52312,2.113488 -0.70055,4.065008 -0.73659,8.101374 -0.0299,3.354688 0.14892,8.809258 0.29671,9.048571 0.0948,0.153529 0.4537,5.460805 0.66268,9.800015 0.055,1.14172 0.16877,2.82315 0.25283,3.73651 0.084,0.91337 0.19863,2.5948 0.25456,3.73651 0.0559,1.14171 0.13029,2.25376 0.16521,2.47122 0.0349,0.21746 0.1073,1.18895 0.16082,2.15887 0.0535,0.96991 0.13169,1.92698 0.1737,2.1268 0.042,0.19982 0.15096,1.99335 0.24213,3.98561 0.0912,1.99225 0.20215,4.0333 0.24663,4.53565 0.18357,2.07307 0.40945,5.17327 0.49611,6.80875 0.10426,1.96774 0.5181,8.67191 0.75689,12.2618 0.0871,1.30945 0.18675,2.4304 0.22144,2.491 0.0347,0.0606 0.11721,2.09053 0.18336,4.51096 0.0662,2.42042 0.17301,5.33489 0.23744,6.47661 0.0644,1.1417 0.13647,5.13977 0.16009,8.88457 l 0.0429,6.80875 0.4284,0.44893 c 0.38125,0.3995 0.41633,0.53662 0.31866,1.2455 -0.12015,0.87209 0.25836,1.87601 0.70732,1.87601 0.45326,0 1.37809,0.87307 1.68618,1.59182 0.32095,0.74875 0.39122,1.70634 0.33446,4.55812 -0.0174,0.87071 0.0171,2.81369 0.0764,4.31774 0.13532,3.42969 -0.0165,4.48753 -0.91705,6.39215 -0.78871,1.66798 -0.98569,2.87649 -0.6796,4.16948 0.34544,1.4592 0.37053,1.62462 0.46506,3.06702 0.14164,2.161 -0.24273,3.15634 -1.98058,5.12882 -1.0599,1.203 -1.64822,2.99183 -0.98399,2.99183 0.34317,0 0.85608,0.49288 0.85608,0.82265 0,0.1503 -0.14937,0.18539 -0.49493,0.11628 -0.51524,-0.10304 -0.83361,0.20271 -0.83361,0.80058 0,0.40231 -0.64461,1.19255 -1.35773,1.66447 -0.34929,0.23115 -0.63507,0.37027 -0.63507,0.30914 0,-0.0612 -0.13113,0.007 -0.29141,0.15259 -0.16027,0.14504 -0.6708,0.31405 -1.1345,0.37555 -0.8307,0.1102 -0.85049,0.10243 -1.34545,-0.52859 z m 2.15991,-0.72721 c 1.24469,-0.55059 1.59692,-1.18271 1.93614,-3.47467 0.20158,-1.36196 0.50384,-1.96612 1.66609,-3.33033 1.3429,-1.57624 1.84161,-2.83564 1.8413,-4.64988 -1.1e-4,-0.68503 -0.0409,-1.39496 -0.0906,-1.57763 -0.91405,-3.35756 -0.91456,-3.34558 0.25003,-5.78508 0.97813,-2.0489 1.23365,-3.40207 1.00863,-5.3414 -0.0847,-0.7307 -0.15614,-2.75547 -0.15859,-4.4995 -0.005,-3.5131 -0.0833,-4.20236 -0.53317,-4.68517 -0.1685,-0.18086 -0.26103,-0.37414 -0.20564,-0.42953 0.0554,-0.0554 -0.0513,-0.10072 -0.23696,-0.10072 -0.18571,0 -0.72127,-0.15942 -1.19014,-0.35427 l -0.85248,-0.35427 0,-1.37963 c 0,-0.7588 -0.0668,-1.42089 -0.14836,-1.47132 -0.18915,-0.1169 -0.28761,0.29651 -0.51159,2.14792 -0.56581,4.67707 -1.01538,6.21579 -2.15737,7.38403 -0.56657,0.57958 -1.12506,0.64383 -1.68131,0.19342 -0.57398,-0.46479 -0.48158,-1.17707 0.42853,-3.30329 0.76393,-1.78475 0.79092,-1.89951 0.58993,-2.50855 -0.15738,-0.47683 -0.16393,-0.72553 -0.0259,-0.98342 0.1016,-0.18985 0.1824,-0.51824 0.17954,-0.72975 -0.004,-0.29477 -0.0912,-0.2079 -0.37365,0.37197 -0.83241,1.70916 -1.78359,4.12201 -2.54755,6.46236 -0.58179,1.78224 -0.91802,2.25428 -2.1676,3.04311 -0.76475,0.48276 -1.2152,1.30256 -1.30217,2.36991 -0.0546,0.66963 0.0269,1.05289 0.61503,2.89534 0.15141,0.47429 0.97053,1.57433 2.05073,2.75405 0.0947,0.10342 0.46006,0.29204 0.81192,0.41918 1.1353,0.41016 1.74586,1.60945 1.42535,2.79973 -0.1754,0.65137 -1.34318,1.97512 -2.48519,2.81711 -0.65443,0.4825 -0.96172,1.15585 -1.094,2.39717 -0.14629,1.37266 0.63129,2.89617 1.62082,3.1757 1.03314,0.29187 1.27613,0.46132 1.39499,0.97288 0.18137,0.78059 0.0715,1.48314 -0.28413,1.81706 -0.65088,0.6111 -0.13191,2.32142 0.89425,2.94711 0.29317,0.17875 0.54221,0.32527 0.55344,0.32562 0.0112,2.3e-4 0.36209,-0.15053 0.7797,-0.33526 z m -1.13226,-6.46524 c -0.81131,-0.33558 -1.41156,-1.39214 -1.41156,-2.48467 0,-0.80724 0.23903,-1.47977 0.93918,-2.64248 0.68348,-1.13503 0.88668,-1.84306 0.923,-3.21594 0.0351,-1.32473 -0.33629,-2.13809 -1.29957,-2.84655 -0.98978,-0.72796 -1.72551,-2.34532 -1.3622,-2.99452 0.24106,-0.43075 0.3848,-0.32279 0.58957,0.44284 0.14781,0.55265 0.41856,0.91204 1.1974,1.58946 1.14363,0.99469 1.30595,1.2442 1.57313,2.41798 0.26936,1.18337 0.0807,2.13946 -0.80178,4.06481 -0.41928,0.91469 -0.76233,1.77804 -0.76233,1.91855 0,0.14052 -0.0561,0.25564 -0.12455,0.25582 -0.0686,1.6e-4 -0.14241,0.2519 -0.16425,0.55937 -0.0548,0.77296 0.53581,1.59461 1.34657,1.87304 0.644,0.22116 1.43323,0.15189 1.43323,-0.12581 0,-0.0815 0.0981,-0.14807 0.21804,-0.14807 0.65679,0 1.86541,-2.19026 2.37606,-4.30591 0.31603,-1.30937 0.3299,-1.19387 -0.45427,-3.78206 -0.15467,-0.5105 -0.16373,-0.80046 -0.0337,-1.07943 1.72706,-3.70619 1.93498,-4.23954 2.03701,-5.22515 0.062,-0.59996 0.044,-1.05166 -0.0421,-1.05166 -0.083,0 -0.10978,-0.10728 -0.0595,-0.23837 0.0503,-0.13112 0.0202,-0.26214 -0.067,-0.29117 -0.0871,-0.029 -0.18892,-0.21138 -0.22624,-0.4052 -0.0373,-0.19381 -0.13603,-0.60458 -0.21933,-0.91282 -0.11075,-0.40983 -0.0416,-1.21298 0.25757,-2.98904 0.40281,-2.39177 0.41029,-3.54303 0.0268,-4.13102 -0.25955,-0.39802 -0.75865,0.39145 -0.99223,1.56953 -0.47067,2.37374 -0.66545,2.86117 -1.36946,3.42692 -0.65157,0.52362 -0.66805,0.52756 -0.57711,0.13773 0.0515,-0.2207 0.31946,-0.99912 0.59549,-1.72981 0.27604,-0.73069 0.63734,-1.92012 0.80289,-2.64317 0.23692,-1.03475 0.39514,-1.38406 0.74322,-1.64078 0.56228,-0.41469 1.08112,-0.28272 1.62812,0.41417 0.38474,0.49015 0.40863,0.63899 0.3924,2.44495 -0.01,1.05767 -0.10714,2.40878 -0.21699,3.00247 -0.12739,0.68857 -0.15885,1.65069 -0.0869,2.65707 0.1422,1.98854 -0.0471,3.04768 -1.01324,5.67038 -0.81932,2.22402 -0.90891,2.97648 -0.49837,4.18569 0.54113,1.59389 0.25949,3.46417 -0.83329,5.53345 -0.60575,1.14706 -1.60328,2.27871 -2.35024,2.66624 -0.45413,0.2356 -1.6027,0.2645 -2.1136,0.0532 z m -1.33252,-9.61583 c -0.0409,-0.0409 -0.31823,-0.0674 -0.61629,-0.0589 -0.61566,0.0175 -1.0676,-0.33946 -1.79958,-1.4214 -0.26394,-0.39015 -0.56062,-0.80117 -0.65927,-0.91337 -0.46538,-0.5293 -2.13909,-2.8622 -2.33342,-3.25244 -0.12022,-0.24143 -0.34273,-0.58842 -0.49444,-0.7711 -0.7919,-0.95348 -2.96138,-4.8991 -3.15023,-5.72931 -0.11428,-0.50235 -0.38109,-1.58593 -0.59292,-2.40796 -0.60664,-2.35415 -1.0656,-5.46095 -1.48424,-10.04706 -0.0375,-0.41101 -0.10838,-1.19568 -0.15747,-1.7437 -0.0491,-0.54801 -0.16332,-2.34154 -0.25384,-3.98561 -0.15674,-2.84666 -0.37884,-5.51178 -0.90647,-10.87738 -0.13024,-1.32438 -0.27921,-3.30472 -0.33105,-4.40077 -0.0518,-1.09604 -0.13156,-2.66538 -0.17715,-3.48741 -0.23023,-4.15034 -0.39991,-33.06354 -0.19607,-33.40833 0.0446,-0.0754 0.13238,-0.97882 0.19504,-2.00748 0.0627,-1.02868 0.14212,-2.03753 0.17654,-2.24191 0.0345,-0.20437 0.10397,-1.0068 0.15451,-1.78316 0.0506,-0.77636 0.12059,-1.56103 0.15563,-1.74371 0.0351,-0.18266 0.23109,-1.3958 0.43564,-2.69585 0.20456,-1.30005 0.43667,-2.3237 0.5158,-2.27479 0.0791,0.0489 0.10113,-0.0225 0.0489,-0.15867 -0.11418,-0.29753 0.14008,-1.64384 0.69353,-3.67223 0.2243,-0.82203 0.56545,-2.09244 0.75814,-2.82314 0.93112,-3.530982 2.65018,-7.782481 4.39815,-10.877382 0.33531,-0.593689 0.91001,-1.63991 1.27713,-2.324936 0.90444,-1.687709 0.94166,-1.751853 1.75865,-3.030722 0.39387,-0.616525 0.78251,-1.120952 0.86365,-1.120952 0.0811,0 0.19643,-0.01867 0.25622,-0.04151 0.15612,-0.05961 0.2113,0.430961 0.22881,2.034318 0.009,0.776365 0.16938,2.45779 0.35755,3.736505 0.42509,2.888646 0.39756,2.708981 0.52176,3.404373 0.0571,0.319679 0.14668,1.104343 0.19907,1.743702 0.0524,0.639359 0.12502,1.498756 0.16139,1.909768 0.0363,0.411012 0.11331,1.644066 0.17101,2.740103 0.0577,1.096043 0.13459,2.403813 0.17091,2.906173 0.0363,0.50235 0.10421,1.99696 0.15088,3.32134 0.0996,2.82601 0.7585,11.95122 1.0034,13.89662 0.0324,0.2575 0.10511,1.40229 0.16154,2.54401 0.0564,1.1417 0.13394,2.52421 0.17227,3.07223 0.0384,0.54802 0.14692,2.22945 0.24128,3.7365 0.3124,4.98889 0.5181,8.19225 0.67717,10.54526 0.19654,2.90731 0.29323,4.50655 0.40664,6.7257 0.049,0.95904 0.12753,2.15472 0.17449,2.65707 0.047,0.50235 0.19634,2.81899 0.33195,5.14807 0.13562,2.32909 0.35779,6.14033 0.49371,8.46942 0.13592,2.32909 0.22816,5.26232 0.20499,6.51829 -0.0232,1.25596 0.0165,2.2835 0.0882,2.28341 0.0717,-8e-5 0.0604,0.13072 -0.0253,0.29068 -0.0856,0.15996 -0.16075,0.66438 -0.16699,1.12095 -0.0141,1.03052 -0.48334,6.82408 -0.59854,7.38976 -0.0466,0.22835 -0.18573,0.90092 -0.3094,1.49461 -0.19659,0.94391 -0.19297,1.12843 0.0289,1.46971 0.21507,0.33091 0.22236,0.50725 0.048,1.15927 -0.14152,0.52912 -0.15087,0.78724 -0.03,0.82754 0.0966,0.0322 0.17568,0.25758 0.17568,0.50083 0,0.44056 -0.76525,2.95059 -0.9959,3.26655 -0.2031,0.27824 -0.34337,1.5514 -0.18192,1.65119 0.34672,0.21429 0.68804,-0.16897 1.15028,-1.2916 0.74236,-1.80295 1.02386,-3.3252 1.02457,-5.54044 4.6e-4,-1.73326 0.043,-2.02727 0.36658,-2.54125 0.34863,-0.55369 0.36933,-0.79378 0.43673,-5.06505 0.0602,-3.81542 -0.13343,-10.81549 -0.38818,-14.03265 -0.0398,-0.50235 -0.11586,-2.55743 -0.16908,-4.56684 -0.0831,-3.13781 -0.2481,-5.98763 -0.49996,-8.63548 -0.10186,-1.07083 -0.38819,-5.95699 -0.49145,-8.38638 -0.10819,-2.54528 -0.38822,-7.18516 -0.50113,-8.30334 -0.0415,-0.41102 -0.15226,-2.20454 -0.24612,-3.9856 -0.19667,-3.73212 -0.34776,-5.77215 -0.99628,-13.45142 -0.18127,-2.14642 -0.4054,-5.6961 -0.49806,-7.88819 -0.0927,-2.19208 -0.19916,-4.14083 -0.23668,-4.33055 -0.0375,-0.1897 -0.1142,-1.23592 -0.17041,-2.324929 -0.0562,-1.088996 -0.13671,-2.391016 -0.1789,-2.893365 -0.074,-0.880602 -0.23366,-3.494394 -0.33994,-5.563242 -0.11205,-2.181293 -0.0734,-5.396643 0.083,-6.891775 0.17539,-1.677713 0.43519,-2.557749 1.42173,-4.815942 1.0657,-2.439378 1.43277,-3.663679 1.51863,-5.06504 0.0693,-1.131758 0.0322,-1.406271 -0.25065,-1.853358 -0.30948,-0.489181 -0.37361,-0.515443 -0.94448,-0.386689 -0.9471,0.213602 -2.52382,2.170426 -4.32071,5.362267 -0.65191,1.158039 -4.88778,9.668093 -4.88778,9.819807 0,0.05382 -0.14471,0.414633 -0.32156,0.801818 -0.17686,0.387187 -0.52027,1.189721 -0.76313,1.783411 -0.24285,0.593689 -0.54428,1.303625 -0.66983,1.577635 -0.12554,0.27401 -0.34044,0.93529 -0.47756,1.469512 -0.27562,1.073828 -0.39774,1.467574 -0.99211,3.19871 -0.22298,0.649443 -0.63645,2.144047 -0.91881,3.321336 -0.28237,1.177284 -0.58052,2.260474 -0.66258,2.407074 -0.17851,0.31895 -1.08529,4.70226 -1.33621,6.45916 -0.0978,0.68503 -0.28637,2.44118 -0.41896,3.90257 -0.1326,1.46139 -0.27672,2.80653 -0.32027,2.9892 -0.0435,0.18268 -0.12579,1.03202 -0.18275,1.88743 -0.057,0.85542 -0.13581,1.71481 -0.17522,1.90977 -0.26311,1.30169 -0.3395,5.63094 -0.30509,17.29331 0.0341,11.56846 0.14238,16.09954 0.49392,20.67532 0.0456,0.59369 0.11303,1.71464 0.14982,2.49101 0.11146,2.35238 0.41868,6.85985 0.50368,7.38997 0.044,0.27401 0.12098,1.02131 0.1712,1.66067 0.0502,0.63936 0.12276,1.42402 0.16121,1.74371 0.0923,0.76742 0.23222,2.42945 0.34116,4.05208 0.0484,0.7216 0.1218,1.36655 0.163,1.43323 0.0412,0.0667 0.15025,0.93353 0.2423,1.92632 0.0921,0.9928 0.20238,2.02927 0.24519,2.30327 0.0795,0.50881 0.34313,2.8601 0.52141,4.64988 0.23063,2.31534 1.82287,7.44108 2.86076,9.20942 2.14117,3.64804 3.50887,5.4917 5.58581,7.52968 1.78455,1.7511 1.83093,1.78099 2.41946,1.55885 0.26467,-0.0999 0.44777,-0.21511 0.40688,-0.25601 z m -4.31291,-8.70125 c 0.1652,-0.2052 0.88748,-0.93355 1.60508,-1.61858 1.29334,-1.23464 1.6388,-1.81278 2.13341,-3.57044 0.0771,-0.27401 0.26102,-0.90921 0.4087,-1.41157 0.14767,-0.50235 0.29241,-1.06282 0.32163,-1.2455 0.0292,-0.18266 0.21818,-0.78051 0.41988,-1.32853 0.2017,-0.54803 0.44746,-1.2206 0.54612,-1.4946 0.0987,-0.27402 0.39397,-0.77308 0.65622,-1.10905 0.47711,-0.61122 0.5395,-0.84959 1.31794,-5.03543 0.15856,-0.8526 0.21365,-3.19875 0.20668,-8.80155 -0.005,-4.20149 -0.0595,-7.86327 -0.12059,-8.13727 -0.0611,-0.27402 -0.14789,-1.73125 -0.19288,-3.23831 -0.24628,-8.24975 -0.26724,-8.64738 -0.74857,-14.19872 -0.17423,-2.0094 -0.35825,-4.66233 -0.40895,-5.89537 -0.0507,-1.23305 -0.1265,-2.91448 -0.16849,-3.73651 -0.042,-0.82203 -0.1151,-2.42872 -0.16253,-3.57044 -0.0475,-1.14171 -0.12217,-2.93523 -0.16614,-3.9856 -0.12257,-2.92814 -0.38427,-6.88454 -0.5712,-8.63548 -0.3207,-3.00384 -0.51999,-5.40452 -0.5859,-7.05784 -0.13565,-3.40226 -0.56066,-9.79075 -0.67947,-10.213118 -0.0386,-0.137007 -0.11175,-1.154785 -0.16269,-2.261719 -0.0969,-2.10505 -0.26829,-3.320429 -0.99257,-7.038031 -0.24022,-1.233046 -0.47934,-2.789429 -0.53139,-3.458623 l -0.0946,-1.21672 -0.47229,0.863645 c -0.25976,0.475009 -0.55357,0.961587 -0.65292,1.081292 -0.36286,0.43722 -3.60485,7.005007 -4.12952,8.365785 -0.94462,2.449958 -2.3935,7.030759 -2.76106,8.729409 -0.0395,0.18267 -0.18949,0.85525 -0.33326,1.4946 -0.14377,0.63936 -0.36579,1.90977 -0.49338,2.82314 -0.12759,0.91337 -0.34451,2.37061 -0.48203,3.2383 -0.43751,2.7605 -0.595,4.36647 -0.69381,7.07489 -0.14538,3.98505 -0.1672,30.10993 -0.0269,32.19994 0.0675,1.0047 0.16533,2.79822 0.21751,3.9856 0.12825,2.91844 0.38831,7.06494 0.46867,7.47301 0.18608,0.9449 0.30194,1.89155 0.51827,4.23471 0.13071,1.41572 0.31376,3.3587 0.40679,4.31774 0.093,0.95904 0.28882,3.01411 0.43512,4.56683 0.54367,5.77044 0.72174,7.48946 0.80043,7.72725 0.0444,0.13418 0.11912,0.58025 0.16601,0.99127 0.14541,1.2744 0.39172,2.33913 0.97971,4.23471 0.31164,1.0047 0.59682,1.93883 0.63372,2.07583 0.0369,0.13701 0.10446,0.28647 0.15013,0.33214 0.0457,0.0457 0.40122,0.71957 0.79014,1.49757 0.38891,0.778 0.98675,1.85592 1.32853,2.39538 l 0.62143,0.98084 0.0993,-1.0259 c 0.0595,-0.61427 0.21985,-1.1756 0.3997,-1.39898 z"
         id="caryopsis_cross_section"
         inkscape:connector-curvature="0"
         inkscape:label="caryopsis_cross_section" />
    </g>
    <!-- outlines layer -->
    <g
       inkscape:groupmode="layer"
       id="LAYER_EFO"
       inkscape:label="LAYER_EFO"
       transform="translate(-97.932875,-61.781129)">
      <g
         id="PO_0009066"
         inkscape:label="anther"
         style="fill:none;stroke:none"
         transform="matrix(0.23280217,0,0,0.23280217,76.668281,47.398348)">
        <title
           id="title4437">anther</title>
        <path
           inkscape:label="anther3"
           inkscape:connector-curvature="0"
           id="anther3"
           d="m 226.5043,549.08648 c -4.28572,-10.71429 -7.14286,-0.71429 -7.14286,-0.71429 4.28572,11.42857 1.42858,27.14286 1.42858,27.14286 0,7.14286 7.14286,-3.57143 7.14286,-3.57143 2.85714,-13.57143 -1.42858,-22.85714 -1.42858,-22.85714 z"
           style="fill:none;stroke:none" />
        <path
           inkscape:label="anther4"
           inkscape:connector-curvature="0"
           id="anther4"
           d="m 162.21859,573.37219 c 0,-2.85714 5,-5.71428 5,-5.71428 5.71429,-0.71429 -0.71429,-8.57143 -0.71429,-8.57143 -12.85714,0.71428 -13.57142,21.42857 -13.57142,21.42857 0,7.85714 9.28571,2.85714 9.28571,2.85714 0.71429,-3.57143 0,-10 0,-10 z"
           style="fill:none;stroke:none" />
        <path
           inkscape:label="anther2"
           inkscape:connector-curvature="0"
           id="anther2"
           d="m 222.02008,446.55864 c 4.26504,4.06243 4.1822,-9.41443 4.1822,-9.41443 2.21089,-9.85662 -4.34788,-17.53929 -4.34788,-17.53929 -6.57722,1.63046 -2.04968,11.44565 -2.04968,11.44565 1.63045,6.57723 2.21536,15.50807 2.21536,15.50807 z"
           style="fill:none;stroke:none" />
        <path
           inkscape:label="anther1"
           inkscape:connector-curvature="0"
           id="anther1"
           d="m 170.07573,440.69363 c -5,-8.57143 -5,7.14285 -5,7.14285 0,13.57143 6.42857,15 6.42857,15 9.28572,0 -1.42857,-22.14285 -1.42857,-22.14285 z"
           style="fill:none;stroke:none" />
        <path
           style="fill:none;stroke:none"
           d="m 236.93488,589.84347 c -3.73184,10.91956 -7.09695,1.07886 -7.09695,1.07886 3.69529,-11.6329 0.0378,-27.1804 0.0378,-27.1804 -0.36551,-7.1335 7.31626,3.20124 7.31626,3.20124 3.54786,13.40745 -0.25708,22.9003 -0.25708,22.9003 z"
           id="anher3_2"
           inkscape:connector-curvature="0"
           inkscape:label="anther3_2" />
        <path
           style="fill:none;stroke:none"
           d="m 164.67866,588.66405 c 1.34738,-2.51949 7.10386,-2.68108 7.10386,-2.68108 5.37584,2.06488 3.41226,-7.89532 3.41226,-7.89532 -11.67456,-5.43332 -22.07291,12.49616 -22.07291,12.49616 -3.70528,6.9286 6.84098,6.89846 6.84098,6.89846 2.31409,-2.81252 4.71581,-8.81822 4.71581,-8.81822 z"
           id="anther4_2"
           inkscape:connector-curvature="0"
           inkscape:label="anther4_2" />
        <path
           style="fill:none;stroke:none"
           d="m 169.43496,533.06537 c 2.85016,-0.19972 6.04983,4.58832 6.04983,4.58832 1.11199,5.65038 8.50053,-1.31172 8.50053,-1.31172 -1.6113,-12.77576 -22.32485,-12.04028 -22.32485,-12.04028 -7.83792,0.54925 -2.20104,9.46272 -2.20104,9.46272 3.61262,0.46289 9.97553,-0.69904 9.97553,-0.69904 z"
           id="anther5_2"
           inkscape:connector-curvature="0"
           inkscape:label="anther5_2" />
        <path
           inkscape:label="anther5"
           inkscape:connector-curvature="0"
           id="anther5"
           d="m 174.14295,548.66405 c 1.34738,-2.51949 7.10386,-2.68108 7.10386,-2.68108 5.37584,2.06488 3.41226,-7.89532 3.41226,-7.89532 -11.67456,-5.43332 -22.07291,12.49616 -22.07291,12.49616 -3.70528,6.9286 6.84098,6.89846 6.84098,6.89846 2.31409,-2.81252 4.71581,-8.81822 4.71581,-8.81822 z"
           style="fill:none;stroke:none" />
        <path
           inkscape:label="anther6_2"
           inkscape:connector-curvature="0"
           id="anther6_2"
           d="m 220.32782,508.60108 c 2.85016,-0.19972 6.04983,4.58832 6.04983,4.58832 1.11199,5.65038 8.50053,-1.31172 8.50053,-1.31172 -1.6113,-12.77576 -22.32485,-12.04028 -22.32485,-12.04028 -7.83792,0.54925 -2.20104,9.46272 -2.20104,9.46272 3.61262,0.46289 9.97553,-0.69904 9.97553,-0.69904 z"
           style="fill:none;stroke:none" />
        <path
           style="fill:none;stroke:none"
           d="m 225.03581,524.19976 c 1.34738,-2.51949 7.10386,-2.68108 7.10386,-2.68108 5.37584,2.06488 3.41226,-7.89532 3.41226,-7.89532 -11.67456,-5.43332 -22.07291,12.49616 -22.07291,12.49616 -3.70528,6.9286 6.84098,6.89846 6.84098,6.89846 2.31409,-2.81252 4.71581,-8.81822 4.71581,-8.81822 z"
           id="anther6"
           inkscape:connector-curvature="0"
           inkscape:label="anther6" />
        <path
           style="fill:none;stroke:none"
           d="m 212.57572,408.55076 c -1.42857,-5.71428 -8.57142,5.71429 -8.57142,5.71429 -7.14286,7.14286 -5.71428,17.14286 -5.71428,17.14286 6.42857,2.14285 7.85714,-8.57143 7.85714,-8.57143 2.14286,-6.42857 6.42856,-14.28572 6.42856,-14.28572 z"
           id="anther2_2"
           inkscape:connector-curvature="0"
           inkscape:label="anther2_2" />
        <path
           style="fill:none;stroke:none"
           d="m 172.04002,432.30077 c -5,-8.57143 -5,7.14285 -5,7.14285 0,13.57143 6.42857,15 6.42857,15 9.28572,0 -1.42857,-22.14285 -1.42857,-22.14285 z"
           id="anther1_2"
           inkscape:connector-curvature="0"
           inkscape:label="anther1_2" />
      </g>
      <g
         id="PO_0009030"
         inkscape:label="carpel"
         style="fill:none;stroke:none"
         transform="matrix(0.23280217,0,0,0.23280217,76.668281,47.398348)">
        <title
           id="title4447">carpel</title>
        <path
           inkscape:label="carpel1"
           sodipodi:nodetypes="ccccccccc"
           inkscape:connector-curvature="0"
           id="carpel1"
           d="m 202.04002,643.72933 c 5.89286,12.32143 -3.75,21.42858 -3.75,21.42858 -7.14286,0.89285 -18.21429,-25 -18.21429,-25 -2.27843,-14.99669 -1.43135,-16.79087 -3.92857,-21.42857 -8.26465,-11.65634 -11.20446,-6.16942 -14.28571,-14.64286 0,-8.57143 6.42857,-10 6.42857,-10 10.71428,0 13.21428,13.21428 13.21428,13.21428 -0.35714,9.64286 2.14286,19.28572 2.14286,19.28572 2.6553,6.9448 15.96495,12.24692 18.39286,17.14285 z"
           style="fill:none;stroke:none" />
        <path
           inkscape:label="carpel2"
           style="fill:none;stroke:none"
           d="m 205.87904,618.66852 c -4.94859,12.94305 5.54249,21.36434 5.54249,21.36434 7.29257,0.31854 16.36559,-26.77328 16.36559,-26.77328 1.07659,-15.35287 0.0737,-17.09805 2.21851,-21.99257 7.40024,-12.46449 10.82029,-7.15599 13.24174,-15.97745 -0.70089,-8.66847 -7.31531,-9.58723 -7.31531,-9.58723 -10.82931,0.87662 -12.27561,14.44503 -12.27561,14.44503 1.14949,9.7228 -0.58886,19.67938 -0.58886,19.67938 -2.11593,7.24066 -15.13492,13.69178 -17.18855,18.84178 z"
           id="carpel2"
           inkscape:connector-curvature="0"
           sodipodi:nodetypes="ccccccccc" />
        <path
           inkscape:label="carpel3"
           style="fill:none;stroke:none"
           d="m 197.75431,584.08647 c 5.89286,12.32143 -3.75,21.42858 -3.75,21.42858 -7.14286,0.89285 -18.21429,-25 -18.21429,-25 -2.27843,-14.99669 -1.43135,-16.79087 -3.92857,-21.42857 -8.26465,-11.65634 -11.20446,-6.16942 -14.28571,-14.64286 0,-8.57143 6.42857,-10 6.42857,-10 10.71428,0 13.21428,13.21428 13.21428,13.21428 -0.35714,9.64286 2.14286,19.28572 2.14286,19.28572 2.6553,6.9448 15.96495,12.24692 18.39286,17.14285 z"
           id="carpel3"
           inkscape:connector-curvature="0"
           sodipodi:nodetypes="ccccccccc" />
        <path
           inkscape:label="carpel4"
           sodipodi:nodetypes="ccccccccc"
           inkscape:connector-curvature="0"
           id="carpel4"
           d="m 201.59333,553.48995 c -4.94859,12.94305 5.54249,21.36434 5.54249,21.36434 7.29257,0.31854 16.36559,-26.77328 16.36559,-26.77328 1.07659,-15.35287 0.0737,-17.09805 2.21851,-21.99257 7.40024,-12.46449 10.82029,-7.15599 13.24174,-15.97745 -0.70089,-8.66847 -7.31531,-9.58723 -7.31531,-9.58723 -10.82931,0.87662 -12.27561,14.44503 -12.27561,14.44503 1.14949,9.7228 -0.58886,19.67938 -0.58886,19.67938 -2.11593,7.24066 -15.13492,13.69178 -17.18855,18.84178 z"
           style="fill:none;stroke:none" />
        <path
           inkscape:label="carpel6"
           style="fill:none;stroke:none"
           d="m 196.41937,481.24411 c -3.94928,13.28211 7.15224,20.8806 7.15224,20.8806 7.29567,-0.23735 14.28069,-27.94106 14.28069,-27.94106 -0.0949,-15.39028 -1.22768,-17.05408 0.53843,-22.09763 6.43024,-12.9915 10.24435,-7.95866 11.98746,-16.93881 -1.35853,-8.59 -8.02369,-9.00274 -8.02369,-9.00274 -10.73119,1.69819 -11.14074,15.33732 -11.14074,15.33732 1.88606,9.60713 0.91045,19.66713 0.91045,19.66713 -1.55878,7.38068 -14.04908,14.80384 -15.70484,20.09519 z"
           id="carpel6"
           inkscape:connector-curvature="0"
           sodipodi:nodetypes="ccccccccc" />
        <path
           inkscape:label="carpel5"
           sodipodi:nodetypes="ccccccccc"
           inkscape:connector-curvature="0"
           id="carpel5"
           d="m 196.607,520.52398 c 4.92243,12.74022 -5.3958,21.07444 -5.3958,21.07444 -7.19052,0.33783 -16.22655,-26.33362 -16.22655,-26.33362 -1.11194,-15.12797 -0.12865,-16.85128 -2.25977,-21.6682 -7.33854,-12.26052 -10.69384,-7.01736 -13.11063,-15.7037 0.66281,-8.54576 7.1826,-9.47295 7.1826,-9.47295 10.6822,0.82852 12.15288,14.19655 12.15288,14.19655 -1.10174,9.58637 0.64511,19.39368 0.64511,19.39368 2.11032,7.12933 14.97012,13.44479 17.01216,18.5138 z"
           style="fill:none;stroke:none" />
      </g>
      <path
         style="fill:none;stroke:none"
         d="m 216.10945,75.8301 c 2.88843,2.317008 7.40772,17.167095 7.40772,17.167095 1.36594,6.312851 2.61637,12.192475 2.96129,17.326475 0.74572,11.09995 0.5662,18.65388 0.5662,18.65388 1.01077,38.37827 -0.58791,43.97599 -0.58791,43.97599 -1.05825,22.5759 -6.46706,33.51111 -6.46706,33.51111 -1.18496,3.60941 -2.48611,1.52858 -2.93957,1.52858 -0.86465,0.25656 -1.9716,0.38719 -1.9716,0.38719 -2.25547,0.68532 -5.20095,-11.43999 -5.20095,-11.43999 -6.58464,-25.63305 -6.34948,-49.03205 -6.34948,-49.03205 -0.96205,-32.67254 1.17583,-39.15508 1.17583,-39.15508 2.20628,-12.869941 5.46054,-21.060053 7.83215,-26.151478 2.17858,-4.67704 3.57338,-6.771722 3.57338,-6.771722 z"
         id="PO_0009001"
         inkscape:connector-curvature="0"
         sodipodi:nodetypes="ccsccccccccsc"
         inkscape:label="caryposis">
        <title
           id="title4451">caryopsis</title>
      </path>
      <path
         style="fill:none;stroke:none"
         d="m 179.03573,180.88064 c 1.08086,-1.16401 1.70444,-0.62357 1.70444,-0.62357 0.62357,0.66514 0.49886,1.455 0.49886,1.455 -0.291,1.57974 0.41572,1.87074 0.41572,1.87074 1.37187,0.37415 1.82916,1.53815 1.82916,1.53815 0.45729,0.87301 0.41572,2.12017 0.41572,2.12017 -0.0831,6.1942 0.12471,7.15035 0.12471,7.15035 0.16629,3.82461 -0.49886,4.90547 -0.49886,4.90547 -1.82916,4.03247 -1.20558,4.78076 -1.20558,4.78076 1.45501,5.11333 -0.20786,7.2335 -0.20786,7.2335 -3.20103,3.32574 -2.45274,4.36504 -2.45274,4.36504 -0.0416,0.24943 0.49886,0.16629 0.49886,0.16629 0.58201,0.45729 0.62358,0.87301 0.62358,0.87301 -0.12472,0.24942 -0.582,0.0416 -0.582,0.0416 -0.49887,0 -0.62358,0.24943 -0.62358,0.24943 -0.12472,0.70672 -0.24943,0.99772 -0.24943,0.99772 -1.24716,2.16173 -4.11561,2.12016 -4.11561,2.12016 -0.49886,-0.0416 -1.74602,-2.78531 -1.74602,-2.78531 -0.37414,-1.6213 -0.37414,-1.95388 -0.37414,-1.95388 1.12243,0.37415 0.99772,0.0831 0.99772,0.0831 0.62358,-0.95615 -0.16629,-1.12244 -0.16629,-1.12244 -0.58201,-0.33257 -1.28873,-0.33257 -1.28873,-0.33257 -1.70444,-0.49886 -1.74601,-3.45047 -1.74601,-3.45047 -0.0416,-3.28417 1.66287,-3.86618 1.66287,-3.86618 2.32802,-1.74601 2.2033,-2.66059 2.2033,-2.66059 0,-1.45501 -0.87301,-1.37187 -0.87301,-1.37187 -1.41344,-0.0416 -2.4943,-2.2033 -2.4943,-2.2033 -1.95387,-3.74147 -1.87073,-4.48976 -1.87073,-4.48976 0.0416,-2.07859 1.164,-2.57746 1.164,-2.57746 2.99318,-2.45273 3.07632,-4.44818 3.07632,-4.44818 1.49659,-5.86162 2.32803,-6.52678 2.32803,-6.52678 1.28872,-0.99772 1.82916,0.58201 1.82916,0.58201 -0.0831,0.70672 -0.33258,1.3303 -0.33258,1.3303 0,0.45729 0.20786,0.41572 0.20786,0.41572 0.24943,0.49886 -0.291,1.95387 -0.291,1.95387 -1.12245,2.41117 -0.91458,2.91003 -0.91458,2.91003 0.12471,0.87301 0.74829,0.20786 0.74829,0.20786 2.24488,-3.90775 1.53815,-7.35821 1.53815,-7.35821 0,-0.99772 0.1663,-1.57973 0.1663,-1.57973 z"
         id="PO_0009009"
         inkscape:connector-curvature="0"
         inkscape:label="plant_embryo">
        <title
           id="title4455">plant embryo</title>
      </path>
      <path
         style="fill:none;stroke:none"
         d="m 169.75451,196.82999 c -4.83639,-5.99673 -5.26392,-12.70608 -5.26392,-12.70608 -4.64949,-32.2464 -3.69059,-56.29768 -2.74136,-69.97379 0.52747,-7.59967 2.15344,-11.92685 2.15344,-11.92685 2.90411,-10.221311 6.57595,-16.004843 8.20686,-18.109189 0.53216,-0.686634 0.84702,-0.758678 0.84702,-0.758678 0.14611,5.097633 1.07252,9.849652 1.07252,9.849652 4.77218,58.381615 4.33629,80.218815 4.33629,80.218815 -0.94066,7.76046 -1.99891,8.93629 -1.99891,8.93629 -0.94066,0.35275 -1.28628,2.10223 -1.28628,2.10223 -1.60458,7.20109 -2.75311,7.26996 -2.75311,7.26996 -0.5735,0.63861 -1.66359,1.56814 -2.37091,2.52536 -0.81993,1.10961 -0.20164,2.57228 -0.20164,2.57228 z"
         id="PO_0009089"
         inkscape:connector-curvature="0"
         sodipodi:nodetypes="ccscsccccccsc"
         inkscape:label="endosperm">
        <title
           id="title4459">endosperm</title>
      </path>
    </g>
    <!-- LAYER_EFO -->
  </g>
  <!-- group_all -->
  <g
     id="g4256"
     transform="matrix(0.23280217,0,0,0.23280217,93.462913,153.92858)">
    <!-- group_all -->
    <a
       id="ccLogo"
       xlink:href="http://www.ebi.ac.uk/gxa/licence.html">
      <image
         xlink:href="https://licensebuttons.net/i/l/by/ffffff/33/99/33/80x15.png"
         x="55"
         y="0"
         height="15"
         width="80"
         id="image4259" />
    </a>
  </g>
</svg>
