<?xml version="1.0" encoding="UTF-8" standalone="no"?>
<!-- Created with Inkscape (http://www.inkscape.org/) -->

<svg xmlns:xlink="http://www.w3.org/1999/xlink"
   xmlns:dc="http://purl.org/dc/elements/1.1/"
   xmlns:cc="http://creativecommons.org/ns#"
   xmlns:rdf="http://www.w3.org/1999/02/22-rdf-syntax-ns#"
   xmlns:svg="http://www.w3.org/2000/svg"
   xmlns="http://www.w3.org/2000/svg"
   xmlns:sodipodi="http://sodipodi.sourceforge.net/DTD/sodipodi-0.dtd"
   xmlns:inkscape="http://www.inkscape.org/namespaces/inkscape"
   id="svg3619"
   version="1.1"
   inkscape:version="0.48.5 r10040"
   width="143"
   height="156"
   sodipodi:docname="chicken.svg">
  <metadata
     id="metadata3625">
    <rdf:RDF>
      <cc:Work
         rdf:about="">
        <dc:format>image/svg+xml</dc:format>
        <dc:type
           rdf:resource="http://purl.org/dc/dcmitype/StillImage" />
        <dc:title />
      </cc:Work>
    </rdf:RDF>
  </metadata>
  <defs
     id="defs3623" />
  <sodipodi:namedview
     pagecolor="#ffffff"
     bordercolor="#666666"
     borderopacity="1"
     objecttolerance="10"
     gridtolerance="10"
     guidetolerance="10"
     inkscape:pageopacity="0"
     inkscape:pageshadow="2"
     inkscape:window-width="1682"
     inkscape:window-height="1309"
     id="namedview3621"
     showgrid="false"
     inkscape:zoom="3.5245642"
     inkscape:cx="43.689461"
     inkscape:cy="96.821498"
     inkscape:window-x="1048"
     inkscape:window-y="10"
     inkscape:window-maximized="0"
     inkscape:current-layer="LAYER_EFO" />
  <g
     id="group_all">
    <g
       inkscape:groupmode="layer"
       id="LAYER_EFO"
       inkscape:label="LAYER_EFO"
       transform="translate(0,-503)">
      <path
         style="fill:none;stroke:none"
         d="m 26.888631,526.12648 c -0.224977,-0.16438 -0.761761,-0.49769 -1.19286,-0.7407 -0.431101,-0.24302 -0.864145,-0.48822 -0.962319,-0.54488 -0.167802,-0.0968 -0.223211,-0.0969 -0.924662,-7.6e-4 -0.869379,0.11838 -1.461705,0.0881 -1.706879,-0.0873 -0.214437,-0.15339 -0.429726,-0.44913 -0.544802,-0.74839 l -0.09754,-0.25366 -0.976028,-0.11562 c -0.930356,-0.11022 -1.24662,-0.18913 -1.232914,-0.30777 0.01344,-0.11646 0.285886,-0.25092 0.702245,-0.34651 0.240431,-0.0551 0.438737,-0.11371 0.440688,-0.12985 0.0021,-0.0163 -0.09584,-0.0699 -0.217312,-0.11898 -0.379252,-0.15377 -1.404535,-1.03322 -2.023688,-1.73579 -0.198896,-0.22571 -0.200434,-0.23159 -0.174998,-0.67036 0.0249,-0.42941 0.0319,-0.44997 0.233086,-0.68568 0.670458,-0.78548 1.861514,-1.66326 2.442156,-1.79984 0.680725,-0.16009 2.134689,-0.0812 2.981759,0.16179 1.251437,0.35897 2.013208,1.26789 1.898574,2.26533 -0.02234,0.19428 -0.08086,0.49564 -0.13007,0.66971 -0.04921,0.17408 -0.0804,0.32812 -0.06931,0.34235 0.01103,0.0141 0.09105,-0.0182 0.177672,-0.0719 0.186917,-0.11597 0.557866,-0.0909 0.700476,0.0473 0.126386,0.12266 0.172791,0.1248 0.186221,0.008 0.01794,-0.15535 0.19593,-0.31954 0.329225,-0.30374 0.0677,0.008 0.214186,0.0993 0.325543,0.20301 0.170324,0.15854 0.225544,0.18256 0.347827,0.15136 0.330153,-0.0842 0.711554,0.10473 0.80496,0.39895 0.025,0.0788 0.07903,0.1472 0.120032,0.15205 0.041,0.005 0.142469,0.0551 0.225477,0.11191 0.189148,0.12925 0.250473,0.3473 0.15417,0.5482 -0.06357,0.1326 -0.05654,0.15739 0.06894,0.24314 0.252812,0.17275 0.300242,0.32498 0.191031,0.61303 -0.04605,0.12151 -0.03299,0.14976 0.09933,0.21478 0.193156,0.095 0.218616,0.27284 0.08062,0.56337 -0.101364,0.21344 -0.101316,0.23187 0.0013,0.43144 0.129528,0.25204 0.128006,0.26858 -0.05154,0.55989 -0.0783,0.12705 -0.226389,0.40694 -0.329079,0.62199 -0.185238,0.3879 -0.189546,0.3921 -0.545193,0.53176 -0.228541,0.0898 -0.460794,0.13724 -0.640761,0.13106 -0.255443,-0.008 -0.321194,-0.0382 -0.691331,-0.30857 l 0,0 z"
         id="UBERON_0000955"
         inkscape:connector-curvature="0"
         inkscape:label="UBERON_0000955" />
      <path
         style="fill:none;stroke:none"
         d="m 33.915656,587.75261 c -1.166831,-0.89808 -1.819248,-1.75823 -2.189884,-2.88715 -0.547424,-1.6674 -1.023369,-3.56429 -1.19937,-4.78007 -0.134832,-0.93141 -0.102142,-1.08864 0.309734,-1.48948 0.265141,-0.25804 0.853276,-0.52419 1.386442,-0.6274 0.617814,-0.11957 0.996511,-0.30612 1.137951,-0.56048 0.231912,-0.41713 0.702589,-0.36046 2.31071,0.27822 0.897713,0.35653 0.900441,0.36366 0.260876,0.68067 -0.254627,0.12619 -0.449239,0.25916 -0.432477,0.29547 0.01677,0.0363 0.524747,0.24982 1.128857,0.47441 1.030744,0.38321 1.115063,0.44155 1.369484,0.94741 0.542999,1.07965 0.455232,3.08844 -0.270892,6.20021 -0.332445,1.42469 -0.761178,1.97083 -1.720145,2.1911 -0.666755,0.15317 -1.186451,-0.0265 -2.091286,-0.72291 z"
         id="UBERON_0000948"
         inkscape:connector-curvature="0"
         inkscape:label="UBERON_0000948" />
      <path
         style="fill:none;stroke:none"
         d="m 78.353122,569.84756 c -9.329278,-0.58684 -10.807496,-0.67634 -13.496477,-0.81725 -2.195164,-0.11515 -2.733302,-0.15707 -3.21256,-0.25083 -1.129403,-0.22092 -1.796404,-0.64632 -1.927783,-1.22946 -0.03611,-0.16006 -0.02224,-0.47575 0.02555,-0.58174 0.04216,-0.0935 0.219522,-0.23937 0.465538,-0.38268 0.890696,-0.51886 2.407131,-0.75723 4.440004,-0.69798 3.087785,0.09 10.312343,0.6554 13.973906,1.09361 1.39567,0.16704 1.872288,0.26437 2.376265,0.48534 0.354507,0.15542 0.520479,0.26788 0.744326,0.50435 0.263108,0.27794 0.323889,0.41347 0.324735,0.72411 5.25e-4,0.21754 -0.007,0.25103 -0.08923,0.41316 -0.111452,0.2189 -0.312377,0.41367 -0.575294,0.55765 -0.243246,0.13321 -0.396304,0.18722 -0.682823,0.24093 -0.307006,0.0575 -0.645186,0.0491 -2.366199,-0.0592 z"
         id="UBERON_0002113"
         inkscape:connector-curvature="0"
         inkscape:label="UBERON_0002113" />
      <path
         style="fill:none;stroke:none;"
         d="m 51.806537,607.75002 c -0.537637,-0.14446 -0.857419,-0.35966 -1.503579,-1.01186 -0.473094,-0.47753 -1.821039,-1.6751 -2.553608,-2.26875 -1.914131,-1.5511 -3.210363,-2.36555 -4.714034,-2.9619 -1.4326,-0.56816 -3.099902,-1.78413 -4.999989,-3.64656 -0.781546,-0.76606 -3.280738,-3.68962 -3.73111,-4.36468 -0.61187,-0.9171 -1.028452,-1.92276 -1.197147,-2.88993 -0.123408,-0.70755 -0.110781,-0.84188 0.109248,-1.16195 0.440658,-0.64108 1.148203,-1.13684 1.624833,-1.13848 0.102514,-2.4e-4 0.186089,-9.4e-4 0.185725,-0.006 -2.64e-4,-9.3e-4 -0.0451,-0.15078 -0.0994,-0.32808 -0.503109,-1.6427 0.219741,-3.11052 1.812049,-3.67959 0.668296,-0.23883 1.066012,-0.27365 1.884371,-0.16494 0.759762,0.10077 1.079644,0.19724 2.021525,0.60863 0.766772,0.3349 2.078765,1.02076 2.683114,1.40261 1.589695,1.00443 2.886678,2.41323 5.250144,5.70283 1.133493,1.57764 4.38434,6.26826 4.585963,6.61703 0.509977,0.88216 1.253873,1.79466 3.41397,4.18769 0.944721,1.04662 1.320342,1.5479 1.520123,2.02946 0.198505,0.47822 0.150003,0.71216 -0.185739,0.8959 -0.650204,0.35583 -1.283843,0.53217 -1.84759,0.51422 l -0.331155,-0.01 -0.03199,0.20549 c -0.101315,0.65079 -1.119774,1.31546 -2.319502,1.51378 -0.217765,0.0361 -0.527053,0.0604 -0.68731,0.0543 -0.160259,-0.006 -0.363672,-0.0142 -0.452043,-0.0177 -0.08836,-0.005 -0.284955,-0.0399 -0.436866,-0.0807 l 0,0 z"
         id="UBERON_0002107"
         inkscape:connector-curvature="0"
         inkscape:label="UBERON_0002107" />
      <g
         id="UBERON_0014892"
         style="fill:none"
         transform="matrix(0.26130833,-0.03158279,0.03158279,0.26130833,-23.682064,503.64141)"
         inkscape:label="UBERON_0014892">
        <path
           inkscape:connector-curvature="0"
           id="path3037"
           d="m 299.99168,492.88016 c -0.59261,-0.78463 -2.13094,-3.27428 -3.41851,-5.53255 -1.72286,-3.02173 -3.59772,-5.21077 -7.10006,-8.28987 -11.16638,-9.81698 -32.80546,-33.26834 -35.3734,-38.33592 -2.69044,-5.30932 -3.94167,-11.06596 -3.95868,-18.21295 -0.0176,-7.40499 0.88297,-11.58363 3.85238,-17.87455 l 1.8749,-3.97213 8.58655,17.02338 c 7.93686,15.73532 9.73797,18.78374 23.80388,40.28867 8.36953,12.79591 16.56134,25.2499 18.20404,27.67553 2.84116,4.19533 3.21628,5.52007 1.56307,5.52007 -0.40574,0 -2.13698,0.7058 -3.84721,1.56846 l -3.1095,1.56847 -1.07746,-1.42661 0,0 z"
           style="fill:none;stroke:none" />
        <path
           inkscape:connector-curvature="0"
           id="path3039"
           d="m 296.03043,465.25582 c -11.86482,-18.16984 -20.91474,-33.01806 -24.56247,-40.2997 -2.21808,-4.42778 -6.3113,-12.01216 -9.09604,-16.85419 l -5.06317,-8.8037 1.34075,-0.87849 c 0.73742,-0.48318 1.55656,-0.8785 1.82032,-0.8785 1.70377,0 15.02577,18.81187 22.10165,31.20953 8.50294,14.89802 13.06729,24.50986 14.88955,31.35514 0.97676,3.66918 2.14976,7.73079 2.60666,9.02579 0.45691,1.29501 0.72191,2.46339 0.58889,2.5964 -0.13301,0.13302 -2.21478,-2.77951 -4.62614,-6.47228 z"
           style="fill:none;stroke:none" />
        <path
           sodipodi:nodetypes="csssscccsssc"
           inkscape:connector-curvature="0"
           id="path3041"
           d="m 310.09823,484.77031 c -4.14685,-6.86419 -8.16893,-16.98823 -11.99816,-30.20074 -1.54299,-5.324 -11.1922,-24.4093 -16.75934,-33.14852 -5.03543,-7.90455 -11.13543,-16.2581 -15.53394,-21.27273 -1.61666,-1.84311 -2.93937,-3.53481 -2.93937,-3.75933 0,-0.94885 12.24036,-2.81509 18.48086,-2.81771 13.73661,-0.006 25.25737,8.13714 32.7395,23.14037 2.17262,5.00467 2.97494,7.69237 3.14215,12.48382 0.27006,7.73857 -0.6733,14.14226 -3.27032,22.19965 -2.52225,7.82537 -3.24372,16.18529 -2.3475,27.20104 0.38954,4.78806 0.61108,8.80274 0.4923,8.92152 -0.11877,0.11877 -1.02156,-1.11754 -2.00618,-2.74737 z"
           style="fill:none;stroke:none" />
      </g>
      <!-- UBERON_0014892 -->
      <path
         style="fill:none;stroke:none"
         d="m 99.337478,87.631358 c -4.9407,-0.973431 -6.473797,0.129917 -7.375754,0.878029 -2.653819,2.387306 -5.993649,10.178563 -5.993649,10.178563 -0.303923,0.866543 -0.856322,2.09878 -0.773423,2.48544 0.208685,0.97335 1.515676,0.51947 1.515676,0.51947 2.542888,-3.123302 3.527391,-9.286074 6.776407,-10.52357 1.276754,0 3.281502,0.525895 3.281502,0.525895 2.271361,-0.369154 3.026996,-3.1907 2.569241,-4.063827 z"
         id="UBERON_0001155"
         inkscape:connector-curvature="0"
         transform="translate(0,503)"
         sodipodi:nodetypes="cccscccc"
         inkscape:label="UBERON_0001155" />
      <path
         style="fill:none;stroke:none"
         d="m 48.87129,587.85645 c -1.205823,0 -1.631407,0.85117 -1.631407,0.85117 -0.780238,0.9221 -0.212792,1.98606 -0.212792,1.98606 0.922099,1.27676 2.198853,0.49652 2.198853,0.49652 1.702338,-0.99303 1.489546,-2.19885 1.489546,-2.19885 -0.212792,-1.27676 -1.8442,-1.1349 -1.8442,-1.1349 z"
         id="UBERON_0002106"
         inkscape:connector-curvature="0"
         inkscape:label="UBERON_0002106" />
      <path
         style="fill:none;stroke:none"
         d="m 38.911463,562.48549 c -0.960505,2.07791 -0.19382,3.75453 -0.19382,3.75453 1.06545,2.38439 5.511953,2.69706 5.511953,2.69706 1.672172,0.1932 3.008874,0.69102 3.008874,0.69102 2.141349,0.93415 5.139685,0.0789 5.139685,0.0789 l 0,0 c 0.871634,-0.1413 1.753604,-0.13795 2.631427,-0.21098 1.019543,-0.22555 1.137442,-1.49952 1.137442,-1.49952 0.251517,-2.7178 -0.201938,-3.62858 -0.201938,-3.62858 -0.290466,-0.87451 -1.549805,-1.54208 -2.009303,-1.33811 -0.699955,0.60582 -0.149294,1.66352 -0.213235,2.11137 -0.102181,1.1041 -0.754808,0.68534 -0.754808,0.68534 -0.561556,-0.3297 -0.348687,-2.87299 -0.348687,-2.87299 -0.205066,-1.1045 -1.163555,-1.53867 -1.163555,-1.53867 -2.268741,-1.46525 -2.202357,-0.22459 -2.202357,-0.22459 -0.07534,0.57094 -0.316553,0.87995 -0.410901,1.06933 -0.322343,0.99283 -0.225345,1.60491 -0.225345,1.60491 -0.596581,-1.10331 -1.099644,-1.87428 -1.336791,-2.98715 -0.409757,-1.19452 -1.714149,-1.39984 -1.714149,-1.39984 -0.982111,-0.16014 -1.85763,0.90992 -2.440025,2.29324 -0.85462,-1.84831 -1.595923,-2.5843 -2.188595,-2.91391 -1.572584,-0.43922 -1.978795,0.62974 -1.978795,0.62974 -0.152959,0.40883 0.42798,2.34048 -0.04708,2.99894 z"
         id="UBERON_0002048"
         inkscape:connector-curvature="0"
         sodipodi:nodetypes="ccccccccccccccccccccccc"
         inkscape:label="UBERON_0002048" />
    </g>
    <!-- LAYER_EFO -->
    <g
       inkscape:groupmode="layer"
       id="lines"
       inkscape:label="lines">
      <g
         id="g3905"
         transform="matrix(0.7618575,0,0,0.7618575,-2,-4)">
        <path
           inkscape:label="#path3001"
           inkscape:connector-curvature="0"
           id="chicken_outline"
           d="m 92.561042,198.05762 c -0.07408,-1.09463 0.07487,-1.61734 1.084474,-3.80639 l 0.998728,-2.16534 -1.549191,1.06587 c -4.358364,2.99864 -10.200135,4.23413 -12.403229,2.62319 -0.45053,-0.32944 -0.566925,-0.70816 -0.409905,-1.33377 0.171156,-0.68195 0.675174,-1.04418 2.296592,-1.65055 1.142519,-0.42729 2.077312,-0.95917 2.077312,-1.18197 0,-0.98692 4.593593,-3.79454 7.077537,-4.32585 2.510814,-0.53705 3.720291,-4.8631 3.771418,-13.48947 0.01861,-3.13858 -0.08953,-6.14927 -0.240367,-6.69041 -0.206036,-0.73933 -0.163097,-0.94693 0.172735,-0.8352 0.250599,0.0833 0.571497,1.04678 0.730487,2.19308 0.358226,2.58281 0.05124,11.45329 -0.483175,13.96363 -1.04815,4.9231 -4.203361,8.1075 -10.337668,10.43331 -4.559038,1.72854 -4.914805,2.0831 -2.480735,2.47232 2.046414,0.32724 5.063683,-0.63135 8.586495,-2.72791 4.905644,-2.91957 5.545856,-2.53046 3.395075,2.06343 -0.665061,1.4205 -1.209199,2.69921 -1.209199,2.84157 0,0.50694 2.839621,-2.50822 4.357848,-4.62725 1.781832,-2.48697 2.330286,-2.85482 4.256546,-2.85482 1.85883,0 1.82594,-0.41578 -0.31291,-3.95673 -2.324385,-3.84815 -2.792904,-5.82345 -2.790012,-11.76281 0.0026,-4.40458 0.405852,-8.62362 0.869552,-9.08732 0.46836,-0.46836 0.51785,0.38756 0.15689,2.71397 -0.222514,1.4342 -0.326813,4.63567 -0.240684,7.38868 0.170544,5.45125 0.699124,7.37407 2.863804,10.41737 1.30948,1.841 2.05968,3.7035 1.78258,4.42561 -0.0963,0.25065 -0.89401,0.53678 -1.77293,0.63585 -1.82505,0.20572 -2.55974,0.7682 -4.177682,3.19846 -1.825709,2.74234 -3.905122,4.66405 -5.046835,4.66405 -0.689912,0 -0.994819,-0.18011 -1.023551,-0.6046 z m -3.804757,-7.90158 c 1.372427,-0.87805 2.428685,-1.6631 2.347242,-1.74455 -0.157141,-0.15713 -5.411253,2.94427 -5.411253,3.19417 0,0.38307 0.765741,0.0209 3.064011,-1.44962 z m -26.204123,2.81454 c -0.294563,-0.35494 -0.349478,-1.14056 -0.181124,-2.59114 0.240538,-2.07247 0.237618,-2.08177 -0.65464,-2.08177 -0.492942,0 -1.79082,0.30704 -2.884172,0.6823 -5.984411,2.05396 -12.264288,2.78474 -14.02368,1.63196 -1.598894,-1.04765 -0.680282,-2.43186 2.014,-3.03481 1.16885,-0.26159 1.786034,-0.56388 1.685593,-0.82563 -0.191244,-0.49837 1.966114,-2.40939 3.76055,-3.33114 0.872175,-0.44802 2.47984,-0.75883 4.903501,-0.94798 3.171279,-0.24751 3.756914,-0.3966 4.858901,-1.23713 2.251686,-1.71746 6.830431,-8.64206 9.342302,-14.1287 0.49446,-1.08004 1.037005,-1.87843 1.205661,-1.7742 0.819462,0.50645 -5.892115,12.41741 -8.560347,15.19193 -0.730946,0.76007 -1.944602,1.80218 -2.697013,2.31581 -2.388714,1.6306 -7.813707,3.98947 -11.387072,4.95123 -4.139228,1.11409 -4.965892,1.48505 -4.27886,1.92016 1.389942,0.88027 5.787654,0.18977 13.462322,-2.11372 1.707742,-0.51258 2.955806,-0.7017 3.586357,-0.54343 0.965368,0.24229 0.966795,0.24703 0.795351,2.64321 -0.09446,1.32026 -0.05557,2.40049 0.08646,2.40049 0.277007,0 2.530897,-2.51107 3.552353,-3.95769 0.771726,-1.09296 1.983669,-1.14005 4.192683,-0.16288 2.782633,1.23088 3.208571,-0.33931 0.983215,-3.6246 -2.579381,-3.80792 -2.511701,-4.71324 0.890244,-11.90832 1.49259,-3.1568 2.809188,-6.01171 2.925778,-6.34423 0.3221,-0.91868 1.018168,-0.75279 0.724785,0.17274 -0.135528,0.42753 -1.427773,3.26482 -2.871661,6.30509 -3.187906,6.71249 -3.317197,7.70914 -1.37271,10.58162 2.057385,3.03925 2.400941,4.10388 1.816122,5.62791 -0.279798,0.72913 -1.945313,0.70621 -4.071805,-0.056 l -1.690376,-0.60592 -0.900758,1.19461 c -1.521666,2.01807 -3.718932,4.15963 -4.267844,4.15963 -0.28676,0 -0.711612,-0.22921 -0.944121,-0.50938 z m -7.867126,-7.86219 c 1.852661,-0.76317 3.368475,-1.53427 3.368475,-1.71356 0,-0.17929 -0.27207,-0.25135 -0.604598,-0.16012 -0.332529,0.0913 -1.459673,0.35601 -2.504764,0.5884 -2.068185,0.45991 -3.832059,1.28015 -5.182269,2.40984 l -0.863711,0.72264 1.209197,-0.22982 c 0.665056,-0.12636 2.725008,-0.85422 4.57767,-1.61738 z M 89.665357,165.7034 c -2.10013,-0.66419 -3.557037,-1.51037 -5.186508,-3.01238 l -1.479896,-1.36412 -0.759602,1.22906 c -0.843223,1.36436 -1.973967,2.06891 -3.900561,2.43034 -1.415254,0.26551 -1.835648,-0.3136 -0.475476,-0.65498 0.899424,-0.22574 4.374122,-2.93166 4.374122,-3.40635 0,-0.1665 -0.384553,-0.86864 -0.854564,-1.56031 -0.470011,-0.69169 -0.786407,-1.32575 -0.703103,-1.40908 0.08332,-0.0833 1.319123,0.93901 2.746269,2.2718 2.843437,2.65546 7.519093,5.26832 9.427553,5.26832 0.599238,0 1.185617,0.15547 1.303054,0.34548 0.303824,0.49158 -2.802585,0.39628 -4.491288,-0.13778 z m -23.056252,-0.18697 c -2.527475,-0.81253 -5.493261,-3.58321 -6.922806,-6.4674 -0.455857,-0.91972 -1.344042,-2.9695 -1.973751,-4.55506 -0.629703,-1.58556 -1.793634,-3.76211 -2.586515,-4.83678 C 51.944445,145.34486 45.511287,140.44134 36.004622,135.0824 24.187953,128.42127 16.415639,119.47921 13.041688,108.66348 10.980403,102.0557 10.871852,93.392586 12.758142,86.034252 15.860961,73.930263 17.50728,69.44641 22.934153,58.319212 c 4.965146,-10.180489 5.208795,-10.841614 5.223295,-14.173227 0.0071,-1.627759 0.146959,-2.629262 0.357131,-2.557067 0.195388,0.06711 0.329882,1.304645 0.309568,2.8485 -0.04318,3.282122 -0.552645,4.657828 -5.776466,15.598151 -4.885367,10.231499 -5.964516,13.214923 -8.966702,24.789482 -1.423641,5.488666 -1.433779,5.571721 -1.433506,11.746468 2.5e-4,5.689501 0.07962,6.506411 0.932627,9.599211 0.512793,1.85925 1.410055,4.52796 1.993913,5.93046 0.999456,2.4008 4.451115,7.90516 6.475345,10.32622 3.278012,3.92063 9.640914,9.06492 14.411366,11.65128 7.653285,4.14934 15.927506,10.47193 18.928001,14.46347 0.834018,1.10949 1.948538,3.08477 2.476707,4.38949 1.871929,4.6242 3.41287,7.52244 4.799134,9.02636 2.246958,2.43766 4.992635,3.53015 7.282831,2.8978 1.15451,-0.31878 2.002291,-0.008 1.248396,0.45857 -0.616096,0.38077 -3.619242,0.51306 -4.586688,0.20205 z m 34.629975,-0.19438 c 0,-0.0954 0.62941,-0.74227 1.39869,-1.43726 0.76927,-0.69501 2.028,-2.16078 2.79715,-3.25729 1.92485,-2.74405 3.39417,-3.67459 6.82354,-4.32138 1.56128,-0.29449 3.35159,-0.74973 3.97846,-1.01164 1.56296,-0.65304 3.20644,-2.62098 3.66705,-4.39097 0.2108,-0.81007 0.5294,-2.03774 0.70799,-2.72817 0.4623,-1.78728 1.05475,-2.15873 3.06355,-1.92082 1.1171,0.13231 1.81095,0.0601 2.03495,-0.21171 0.18694,-0.22686 0.5747,-1.77698 0.86168,-3.44468 0.87753,-5.09955 1.85889,-6.70776 7.55875,-12.38696 2.85038,-2.84002 6.33408,-6.76073 8.14095,-9.16212 1.73716,-2.30873 3.62908,-4.53281 4.20432,-4.94241 0.57523,-0.40959 2.51666,-1.26357 4.31428,-1.89769 3.51443,-1.23975 6.40496,-2.84439 8.74916,-4.85695 2.73463,-2.34776 1.85122,-3.01461 -4.56528,-3.44617 -1.89336,-0.12728 -3.9533,-0.44497 -4.57767,-0.70584 -0.99432,-0.41545 -1.13522,-0.63354 -1.13522,-1.75716 0,-1.39701 0.68062,-2.71063 3.65358,-7.051645 1.04002,-1.5186 2.74514,-4.397237 3.78915,-6.396978 1.55284,-2.974344 1.83197,-3.759659 1.53414,-4.316146 -0.20022,-0.374147 -0.65841,-0.68027 -1.0182,-0.68027 -0.35977,0 -0.89847,-0.244334 -1.1971,-0.542964 -0.49363,-0.493633 -0.46158,-0.681846 0.35279,-2.071483 0.82049,-1.400031 0.84495,-1.548015 0.29107,-1.760542 -0.33258,-0.127681 -1.48348,-0.05055 -2.55756,0.171312 -3.53883,0.730927 -3.70267,0.671405 -3.88266,-1.410449 -0.16346,-1.890672 -1.9992,-5.441386 -2.81324,-5.441386 -0.22376,0 -1.21484,0.544143 -2.20239,1.2092 -2.99899,2.019635 -3.58257,1.571015 -1.7479,-1.343717 1.49994,-2.38299 1.52436,-4.242739 0.0863,-6.573688 -1.62499,-2.633921 -3.23293,-3.757268 -5.62577,-3.930359 -1.83953,-0.133054 -2.34797,0.01315 -6.36815,1.823601 -5.24283,2.36186 -6.5821,3.186826 -10.59282,6.524946 -5.45278,4.538353 -11.3411,8.010072 -15.57775,9.184564 -2.97553,0.824886 -9.890038,1.384377 -17.202422,1.391972 -8.134523,0.0079 -11.863684,-1.092877 -19.478679,-5.752554 -7.107478,-4.34911 -8.96057,-5.704242 -10.523515,-7.695583 -3.256161,-4.14869 -4.53188,-7.803599 -5.493997,-15.740195 C 52.124655,48.407688 50.35795,40.741497 48.871316,36.486437 46.911693,30.877559 42.890264,26.15004 38.287013,24.043724 c -8.857447,-4.052905 -17.34498,-2.831836 -22.260557,3.20256 -1.809658,2.22154 -3.417493,5.245851 -3.760266,7.072977 -0.131473,0.700821 -0.377211,1.274232 -0.546082,1.274232 -0.459748,0 -0.353806,-1.007341 0.308841,-2.936609 0.562364,-1.637304 0.561802,-1.790524 -0.01066,-2.936621 -1.20523,-2.412609 -0.403455,-4.466612 2.28283,-5.848213 0.889316,-0.457405 2.307637,-1.57004 3.151824,-2.47255 0.844188,-0.9025 1.886262,-1.887034 2.315721,-2.187829 1.070014,-0.749461 2.466986,-0.686062 3.220139,0.146158 0.803463,0.88782 0.390519,1.34026 -0.493267,0.540437 -0.959523,-0.868358 -1.752233,-0.477514 -3.794989,1.871084 -1.102784,1.267907 -2.560476,2.463981 -3.823028,3.136928 -2.316859,1.234864 -2.857002,2.18971 -2.332363,4.123015 l 0.328136,1.209189 0.73824,-1.002829 c 3.33708,-4.53306 5.269853,-6.106489 9.221256,-7.506827 4.430592,-1.570142 11.96848,-0.666894 17.075259,2.046103 0.954254,0.506951 2.916142,2.090911 4.35975,3.519893 2.121541,2.100059 2.933061,3.227396 4.232924,5.880269 2.036981,4.157248 4.475868,13.250154 5.235595,19.519895 0.704547,5.814343 1.279395,8.005006 3.016751,11.496345 1.671787,3.359578 3.940549,5.808437 7.379232,7.965014 13.351034,8.373099 15.167344,9.028737 25.014885,9.029644 6.822212,6.91e-4 12.884846,-0.465362 15.719536,-1.208271 4.2692,-1.118869 10.35897,-4.709552 16.51944,-9.740304 3.30622,-2.699915 4.39925,-3.355383 9.39191,-5.632115 3.68992,-1.682656 4.94522,-2.064012 6.79415,-2.064012 3.00695,0 5.23633,1.652017 7.04438,5.22004 1.10963,2.189756 1.0654,3.488132 -0.19483,5.721166 -0.57168,1.01294 -0.94997,1.841726 -0.84067,1.841726 0.10939,0 0.70664,-0.387386 1.32739,-0.860842 0.62073,-0.473467 1.6135,-0.957816 2.20614,-1.07635 1.02253,-0.204502 1.14872,-0.103265 2.47262,1.983667 1.06269,1.675175 1.3959,2.549042 1.39839,3.667491 0.005,1.705849 0.0983,1.732952 3.11626,0.893885 3.34175,-0.929092 4.592,0.107346 3.25302,2.696594 -0.29902,0.578274 -0.49338,1.075818 -0.43186,1.105664 2.02748,0.983695 2.1881,1.152694 2.2929,2.41253 0.13151,1.580626 -2.20727,6.190529 -6.27418,12.366954 -2.70245,4.104248 -3.10458,5.220788 -2.03923,5.662208 0.33254,0.13779 2.67184,0.45224 5.19847,0.69879 2.98425,0.29123 4.8908,0.64288 5.44139,1.00363 1.34915,0.884 1.10764,2.09125 -0.79353,3.96648 -2.49803,2.46397 -5.20173,4.03053 -9.2229,5.34389 -3.8245,1.24912 -4.96861,2.12596 -7.81044,5.98602 -1.36904,1.85951 -5.11046,6.04046 -8.31432,9.29097 -6.55199,6.64745 -7.16879,7.62171 -8.02689,12.67872 -0.6607,3.89368 -0.89285,4.17508 -3.24422,3.9324 -2.13572,-0.22042 -2.50163,0.13085 -3.17363,3.04653 -0.53812,2.33484 -1.69763,4.30883 -3.07702,5.23839 -0.6279,0.42314 -2.33569,1.01674 -3.79507,1.3191 -5.48386,1.1362 -5.65711,1.24356 -8.92733,5.53266 -1.51809,1.99106 -2.86558,3.2555 -3.48605,3.27118 -0.23753,0.007 -0.43186,-0.0672 -0.43186,-0.16273 z M 18.813478,49.452447 c -1.199266,-0.731313 -1.619942,-1.611255 -2.375916,-4.96979 -0.289578,-1.286496 -0.782267,-2.729433 -1.094863,-3.206516 -0.312598,-0.477083 -0.458933,-0.976859 -0.32519,-1.110605 0.422251,-0.422243 1.559592,1.400179 2.105713,3.374098 1.035711,3.743529 2.367918,5.52775 4.127333,5.52775 0.262276,0 1.523312,-0.545424 2.802298,-1.212091 1.278989,-0.666656 2.400585,-1.136949 2.49244,-1.045087 0.548367,0.548371 -4.281553,3.285296 -5.804117,3.288969 -0.475042,10e-4 -1.342505,-0.289879 -1.927698,-0.646728 z M 6.9410962,43.798749 c 0.010565,-0.617551 0.2912851,-1.792848 0.6237073,-2.61176 0.6533296,-1.609464 2.9518905,-4.211556 3.7202785,-4.211556 0.724583,0 0.58763,0.244164 -0.881314,1.571264 -0.8241344,0.744564 -1.5684251,1.850919 -1.900166,2.824525 -0.7676305,2.252883 -0.6951878,2.397182 0.5774691,1.150405 0.6175533,-0.604992 1.9390309,-1.56766 2.9366199,-2.139246 0.997586,-0.571608 1.813793,-1.12202 1.813793,-1.223143 0,-0.101111 -0.395059,-0.653393 -0.877911,-1.227224 -1.160963,-1.37973 -0.776089,-1.691997 0.536029,-0.434904 1.595117,1.528223 1.378814,2.335585 -1.059668,3.955274 -1.150884,0.764434 -2.4861822,1.85772 -2.9673302,2.429544 -0.5271967,0.62654 -1.2058126,1.039657 -1.7078113,1.039657 -0.7134315,0 -0.8302291,-0.161166 -0.8136963,-1.122836 z M 20.341859,42.712662 c -1.515888,-0.541491 -4.312527,-2.146206 -4.626949,-2.65496 -0.450379,-0.728717 0.188526,-0.732695 1.41545,-0.0091 2.144742,1.265447 5.173379,2.108798 7.572991,2.108798 2.607611,0 3.003495,0.494676 0.653647,0.816748 -2.309828,0.316608 -3.581833,0.250206 -5.015139,-0.261779 z m -1.677125,-8.507707 c -0.431826,-0.806885 0.13488,-2.280574 1.109789,-2.88594 0.80652,-0.500797 1.237795,0.02698 0.476765,0.583454 -0.960268,0.702159 -0.59519,2.110896 0.582117,2.246229 1.320167,0.151758 0.826026,0.753836 -0.61869,0.753836 -0.826775,0 -1.287661,-0.207426 -1.549981,-0.697579 z"
           style="fill:#a0a1a2;fill-opacity:1" />
        <path
           inkscape:label="bracket"
           inkscape:connector-curvature="0"
           id="bracket"
           d="m 170.05789,210.39264 c 0,-0.0417 0.20577,-0.58531 0.45728,-1.20798 0.59084,-1.46281 1.31244,-3.92054 1.69269,-5.76525 0.76337,-3.7032 0.92047,-8.18108 1.09483,-31.20364 0.1744,-23.02768 0.32279,-28.26885 1.01901,-35.99109 0.43637,-4.84005 0.97594,-8.08777 1.79644,-10.81293 1.64642,-5.46828 5.48768,-10.45283 12.05088,-15.63765 l 0.89304,-0.70549 -0.88799,-0.64934 c -4.41968,-3.23183 -8.4833,-7.55326 -10.21373,-10.86163 -1.73753,-3.32201 -3.18137,-9.001985 -3.805,-14.9686 -0.53462,-5.11502 -0.84734,-18.072838 -0.85539,-35.442433 -0.006,-12.091839 -0.19982,-23.401269 -0.46279,-26.946542 -0.33438,-4.508028 -0.78655,-6.813866 -2.00673,-10.2331445 -0.3399,-0.9525339 -0.61802,-1.7659363 -0.61802,-1.8075587 0,-0.2263549 1.37337,1.2007911 2.00733,2.0859252 2.09145,2.920106 3.05503,5.983585 3.61698,11.499481 0.71424,7.01059 0.87709,12.447158 1.03076,34.412627 0.0769,10.997451 0.17615,20.342931 0.22044,20.76772 0.0443,0.424798 0.15426,1.737795 0.24433,2.917781 0.35518,4.653036 1.08891,9.124022 2.00996,12.24769 0.77694,2.634934 2.31903,5.91445 3.89071,8.274284 1.49021,2.23746 4.42849,5.53804 6.4094,7.1996 1.01011,0.84728 1.42919,1.305 1.42924,1.56104 6e-5,0.25528 -0.51334,0.82048 -1.73818,1.91354 -5.83784,5.20971 -9.36605,11.17985 -10.77617,18.23446 -0.62098,3.10661 -0.94693,5.74326 -1.46401,11.84274 -0.0441,0.5192 -0.14349,10.01913 -0.22103,21.11099 -0.13871,19.83945 -0.25861,25.02178 -0.72065,31.15159 -0.55248,7.3297 -1.35393,10.80005 -3.18125,13.77523 -0.80098,1.30416 -2.91238,3.65203 -2.91238,3.23858 z"
           style="fill:#d0d6d3;fill-opacity:1" />
      </g>
      <!-- g3905 -->
    </g>
    <!-- lines -->
  </g>
  <!-- group_all -->
<a id="ccLogo" xlink:href="https://www.ebi.ac.uk/gxa/licence.html"> <image  xlink:href="https://licensebuttons.net/i/l/by/ffffff/33/99/33/80x15.png" x="55" y="0" height="15" width="80" /></a></svg>
