<?xml version="1.0" encoding="UTF-8" standalone="no"?>
<!-- Created with Inkscape (http://www.inkscape.org/) -->

<svg xmlns:xlink="http://www.w3.org/1999/xlink"
   xmlns:dc="http://purl.org/dc/elements/1.1/"
   xmlns:cc="http://creativecommons.org/ns#"
   xmlns:rdf="http://www.w3.org/1999/02/22-rdf-syntax-ns#"
   xmlns:svg="http://www.w3.org/2000/svg"
   xmlns="http://www.w3.org/2000/svg"
   xmlns:sodipodi="http://sodipodi.sourceforge.net/DTD/sodipodi-0.dtd"
   xmlns:inkscape="http://www.inkscape.org/namespaces/inkscape"
   width="41.412525"
   height="33.348392"
   id="svg2"
   version="1.1"
   inkscape:version="0.48.5 r10040"
   sodipodi:docname="macaca_mulatta.svg">
  <defs
     id="defs4" />
  <sodipodi:namedview
     id="base"
     pagecolor="#ffffff"
     bordercolor="#666666"
     borderopacity="1.0"
     inkscape:pageopacity="0.0"
     inkscape:pageshadow="2"
     inkscape:zoom="5.6"
     inkscape:cx="100.97345"
     inkscape:cy="-40.868911"
     inkscape:document-units="px"
     inkscape:current-layer="lines"
     showgrid="false"
     fit-margin-top="0"
     fit-margin-left="0"
     fit-margin-right="0"
     fit-margin-bottom="0"
     inkscape:window-width="1588"
     inkscape:window-height="1240"
     inkscape:window-x="706"
     inkscape:window-y="833"
     inkscape:window-maximized="0" />
  <metadata
     id="metadata7">
    <rdf:RDF>
      <cc:Work
         rdf:about="">
        <dc:format>image/svg+xml</dc:format>
        <dc:type
           rdf:resource="http://purl.org/dc/dcmitype/StillImage" />
        <dc:title />
      </cc:Work>
    </rdf:RDF>
  </metadata>
  <g
     id="group_all"
     transform="matrix(0.29153969,0,0,0.29153969,-8.3243553e-8,-6.7980913)">
    <g
       inkscape:label="lines"
       inkscape:groupmode="layer"
       id="lines"
       transform="translate(-70.41439,-3.9304344)">
      <g
         id="g3903"
         transform="matrix(0.28960372,0,0,0.28960372,50.022121,26.110059)">
        <path
           inkscape:label="outline"
           inkscape:connector-curvature="0"
           id="outline"
           d="m 380.67406,370.59494 c -7.97141,-1.13656 -12.07987,-2.47454 -10.955,-4.29461 0.2973,-0.48105 5.07074,-2.40781 9.37302,-4.28169 13.15773,-5.73093 17.71461,-10.08366 17.07618,-16.3344 -0.005,-5.25607 -3.51893,-10.39667 -10.87803,-17.18005 -8.75509,-8.07017 -14.8053,-19.943 -29.32699,-45.3486 -8.75317,-15.31363 -10.34944,-20.45528 -8.79012,-28.31333 0.58298,-2.93786 0.96092,-5.4439 0.83986,-5.56898 -0.12105,-0.12508 -3.89079,3.38945 -8.37718,7.81007 -8.80248,8.67342 -8.13877,7.33203 -13.65826,27.60418 -1.37572,5.05275 -4.29174,13.37775 -6.48006,18.5 -6.00259,14.05041 -6.19921,19.33924 -6.19921,34.67028 0.35612,4.50604 1.27737,12.78112 -4.5596,17.92264 -5.65157,6.897 -21.05023,12.46846 -29.68587,10.88507 -2.14281,-0.3929 -1.8898,-2.55507 -16.63841,-1.00272 -12.90802,1.35862 -14.15165,-0.26514 -14.56306,-2.30452 -0.42973,-2.13016 3.21623,-5.75871 15.67918,-10.29165 5.775,-2.10045 14.49849,-5.42178 18.30524,-7.84373 3.80674,-2.42196 8.35601,-4.63637 10.10948,-4.92092 l 1.79916,-1.65378 -0.86111,-6.00554 c -1.67995,-11.71625 -4.97631,-23.882 -2.54325,-47.14196 3.40066,-32.5102 6.11567,-38.72161 14.74046,-50.02428 8.54389,-11.19665 16.79375,-20.59616 17.14699,-19.53646 0.20624,0.61873 -1.61314,3.47302 -4.04307,6.34285 -8.11688,9.58634 -15.61049,20.17058 -17.64591,24.9237 -3.52075,8.2217 -8.13816,44.53598 -8.12991,63.93885 0.63635,8.71189 2.18292,16.01309 2.69363,19.74746 0.57947,4.23707 2.54202,9.37021 -0.83063,10.59293 -1.77084,0.64201 -6.97944,2.59227 -10.42784,4.95345 -3.4484,2.36117 -10.69322,5.98621 -16.09959,8.05564 -11.14369,4.26554 -16.60794,7.24675 -15.76939,8.60355 0.33802,0.54693 5.6556,0.65515 12.97232,0.264 9.42933,-0.50409 12.77024,-0.35516 13.94733,0.62173 3.7546,3.11605 21.76367,-2.297 27.02788,-8.12386 4.63633,-5.13186 5.5948,-9.42555 4.87967,-21.85956 -0.72008,-12.51989 0.62365,-19.35499 6.52619,-33.19648 3.89359,-9.13048 11.15847,-33.17716 12.55397,-41.55352 0.80262,-4.81758 2.2426,-5.61291 2.71584,-1.5 0.30979,2.69234 0.48415,2.59561 8.31642,-4.61377 5.59596,-5.15091 8.52821,-8.7024 9.75773,-11.8184 2.15021,-5.44931 2.58491,-18.24557 1.3951,-41.06783 -0.53313,-10.22616 -0.49386,-16.25 0.10593,-16.25 1.10596,0 2.7706,26.42136 2.67765,42.5 -0.0426,7.36056 -1.00265,12.48908 -1.75691,16.45475 -0.99587,4.63199 -2.33349,7.31761 -3.15036,12.35065 -1.19269,7.41592 -0.13984,11.00068 7.07112,24.07598 16.27307,29.5072 23.61843,40.98795 30.99894,48.45119 8.25829,8.35087 10.4008,12.12896 10.4008,18.34072 0,3.40451 -0.67963,5.19554 -3.07362,8.09986 -3.14815,3.81925 -10.15007,8.4996 -13.75391,9.19364 -1.11028,0.21382 -3.26458,1.04155 -4.78735,1.83941 l -2.76866,1.45065 2.94177,0.56026 c 1.61797,0.30815 7.44177,1.09104 12.94177,1.73976 12.16803,1.4352 17.82913,0.3477 20.13153,-3.86727 0.80804,-1.47928 3.65766,-6.56477 6.33249,-11.30108 4.89324,-8.66445 5.36223,-10.04812 5.15113,-15.19754 0.10096,-3.47499 -4.42617,-6.48928 -6.88646,-9.16656 -6.45806,-6.97238 -11.27704,-14.59275 -14.8994,-23.56082 -3.47058,-8.59229 -8.0588,-30.2666 -9.46614,-44.71707 l -1.19337,-12.25351 -2.08489,2.98623 c -1.14669,1.64243 -2.71713,2.99401 -3.48988,3.00351 -1.15363,0.0142 -1.1293,-0.2958 0.136,-1.73272 0.84755,-0.9625 2.71729,-4.09754 4.15499,-6.96676 2.29551,-4.58113 2.614,-6.43258 2.614,-15.19553 0,-15.12376 1.86845,-34.29466 4.57273,-46.91771 1.335,-6.2315 2.42727,-13.2423 2.42727,-15.57954 0,-4.88295 -5.77301,-26.6819 -9.02816,-34.09046 -3.42448,-7.79393 -3.03995,-19.97659 0.99426,-31.5 7.61631,-21.755403 19.32306,-37.330123 31.2727,-41.605353 12.24525,-4.38098 31.42847,5.622869 37.8936,22.10535 5.82697,14.855517 5.4432,8.997729 2.4609,-0.549163 -3.01849,-9.662727 -11.39928,-20.976187 -17.83678,-25.107117 -15.17583,-8.256538 -32.94952,-0.503202 -42.55144,9.64373 -14.12989,15.13014 -23.96434,33.751043 -26.19906,46.754833 -2.01023,11.69752 -4.02844,13.38989 -10.14715,15.20695 -6.51336,1.93426 -14.24285,1.95114 -28.35887,0.0619 -27.37579,-3.66381 -51.93104,-1.08328 -85.5,8.98525 -21.14449,6.34198 -33.33311,7.8124 -42.32554,5.10607 -4.90118,-1.47504 -18.71104,-10.2986 -24.76703,-15.82446 -1.97592,-1.80294 -5.22973,-4.67122 -7.23068,-6.37394 -2.00096,-1.70273 -6.71601,-5.97773 -10.4779,-9.5 -16.42842,-15.382013 -20.93699,-18.899093 -29.84873,-23.284563 -12.38056,-6.09249 -26.46832,-7.31509 -40.91178,-3.55052 -8.59566,2.24039 -10.68166,3.39863 -7.789,4.32482 2.7185,0.87042 8.35066,9.66943 8.35066,13.046083 0,2.28773 -1.47534,4.30262 -7,9.56004 -3.85,3.66376 -7,6.96257 -7,7.33069 0,0.36812 0.9,0.66931 2,0.66931 1.1,0 2,0.45 2,1 0,0.55 -0.64743,1 -1.43873,1 -0.93791,0 -1.67296,1.56198 -2.11162,4.48719 -0.90978,6.06682 -0.0276,8.90673 3.27637,10.54746 l 2.77398,1.37754 -2.75,0.36032 c -2.45124,0.32119 -2.75,0.77085 -2.75,4.13892 0,5.79599 2.79371,7.63917 16.89918,11.14941 8.67915,2.15987 12.31952,1.26751 16.19097,-3.9689 2.17091,-2.93631 3.90985,-3.97771 3.90985,-2.3415 0,0.41275 -1.74802,2.66275 -3.88448,5 -2.67475,2.92614 -4.69901,4.24956 -6.5,4.24956 -3.36403,0 -3.29565,0.46628 0.63448,4.32644 1.7875,1.75568 8.29872,8.68722 14.46938,15.40344 l 11.21937,12.2113 1.08688,-4.22059 c 3.42473,-13.29905 5.29161,-13.38262 2.54761,-0.11405 -0.86528,4.18406 -1.57324,11.13297 -1.57324,15.44202 0,10.6654 3.45637,39.45471 6.5014,54.15243 1.37423,6.63311 2.4986,12.67644 2.4986,13.42961 0,2.14649 -1.79119,1.60265 -2.54511,-0.77273 -0.60886,-1.91833 -0.99651,-1.63345 -3.71037,2.72676 -3.17656,5.10361 -15.74452,31.60643 -15.74452,33.20144 -8.96206,22.75229 -9.36121,25.83382 -20.74204,37.87446 -3.72517,3.86516 -7.58224,6.4008 -15.3658,10.10146 -10.51371,4.99872 -17.35107,10.24988 -13.31647,10.22719 1.05837,-0.006 4.13333,-0.68096 6.83324,-1.5 7.25506,-2.2009 15.00246,-1.98197 16.7191,0.47245 1.28869,1.84256 1.74173,1.88244 7.46333,0.65707 7.12415,-1.52576 7.30591,-1.62099 14.15486,-7.41616 8.1827,-6.9237 12.636,-14.50639 17.35242,-29.54616 2.90967,-9.27836 5.837,-16.10401 9.93114,-23.15638 3.19294,-5.5 6.70055,-12.025 7.7947,-14.5 16.62351,-37.60311 26.25642,-60.72368 26.86672,-64.48451 0.31377,-1.93352 0.96161,-3.51549 1.43964,-3.51549 1.37922,0 1.04607,2.11538 -1.71436,10.88563 -3.01826,9.58937 -2.97556,9.6928 5.58855,13.53614 20.20552,7.66276 37.0874,8.12684 55.49497,1.71276 23.76172,-9.96727 49.39294,-23.04594 70.73437,-29.54734 10.24269,-3.09218 15.405,-4.00203 34.01563,-5.99525 2.0625,-0.22089 3.75,-0.0268 3.75,0.43126 0,0.45809 -2.5875,1.1017 -5.75,1.43026 -22.23438,2.30994 -40.89058,8.78958 -66.37119,21.13953 -21.79522,10.56371 -33.96717,15.89792 -43.63498,18.5548 -13.96605,3.83812 -37.51979,0.0168 -51.58006,-7.1662 -3.20993,-1.63988 -6.02243,-2.98159 -6.25,-2.98159 -1.04837,0 -0.20574,4.31586 1.97798,10.13094 4.76372,12.68547 7.95414,21.28608 8.04721,44.48518 0.0508,12.65975 -1.55859,18.94944 -3.44726,24.31657 -1.24452,3.53662 -1.92096,11.08925 -2.74639,16.62627 -1.47364,9.88513 -3.27687,21.09447 -7.50086,24.19104 -0.70712,0.51838 -2.19949,1.25 -3.67856,1.25 -1.47907,0 -6.26147,0.94373 -10.62755,2.09718 -13.45881,3.55559 -30.48684,1.37335 -29.5122,-3.91031 0.20637,-1.11872 4.1302,-2.52889 9.16381,-4.18687 9.67194,-3.18577 15.23366,-6.86841 16.85283,-11.15894 0.69347,-1.83758 2.30056,-5.81606 3.57132,-8.84106 4.62458,-11.00872 5.57585,-17.90274 3.14598,-22.79966 -5.13236,-11.57523 -4.06969,-15.96942 -5.98605,-25.28454 l -3.16897,5.7921 c -6.28445,9.9638 -10.49675,20.94257 -13.59605,31.76296 -3.86448,13.49902 -7.35087,19.52644 -14.86475,27.58561 -6.73829,7.2273 -13.98513,10.60311 -22.19183,11.54597 -5.08899,0.58467 -5.7601,0.4386 -6.78519,-1.4768 -1.44416,-2.69843 -3.5629,-2.69427 -14.12817,0.0278 -9.0181,2.32343 -11.93907,2.09691 -11.93907,-0.92589 0,-3.2248 6.20277,-7.98879 17,-13.05672 8.71296,-4.08962 10.647293,-6.37317 15.71869,-11.67602 3.36135,-3.51476 7.08783,-8.49967 8.49932,-11.51407 8.81552,-18.65657 15.02517,-38.01168 26.92126,-56.09851 4.61014,-7.76001 4.41192,-9.38917 1.67984,-20.88223 -2.82764,-11.89504 -4.69769,-22.3985 -5.29959,-37.5 -0.81307,-20.39944 -0.78688,-17.41115 -11.01952,-29.58848 -3.06849,-3.65165 -9.30327,-11.16127 -13.34059,-15.62202 l -7.34059,-8.11045 -8.65941,-2.15212 c -13.63082,-3.38766 -15.00253,-5.14604 -15.24104,-19.53736 -0.31205,-18.82803 -0.31267,-18.82587 7.38182,-25.83369 4.13296,-3.76414 5.673561,-6.5758 5.651411,-7.79874 -0.383804,-8.042868 -9.008173,-10.26012 -10.946532,-12.982143 0.71601,-2.27033 16.441571,-6.93398 25.369451,-7.55654 20.68185,-1.4422 35.37716,4.025143 58.73267,25.500643 18.17786,16.71463 30.10624,27.55192 38.61387,31.82747 7.11927,3.57782 7.35186,3.62134 16.5,3.08723 8.73719,-0.51012 16.11904,-3.40808 41.27894,-10.4653 21.47007,-6.02224 51.7528,-7.57346 73,-4.49506 17.64549,2.55656 31.37937,2.27921 33.42877,-1.6994 3.77107,-1.19997 0.93298,-20.76066 20.01508,-47.252614 11.69317,-17.193762 22.16208,-23.880629 35.38284,-25.938909 19.87425,-3.09413 33.66412,8.85864 40.27176,34.90674 2.80662,11.06403 3.1657,16.246453 0.91497,16.246453 -1.65295,0 -2.84122,-2.0504 -4.67516,-9.408273 -2.70153,-10.83864 -10.87066,-19.913207 -20.18621,-25.889477 -7.50495,-4.8147 -12.21156,-5.284524 -18.05662,-3.292904 -9.22252,3.14242 -18.47569,13.350505 -24.91584,27.090655 -5.97109,12.739399 -8.07957,16.989549 -8.1319,27.964289 -0.0444,9.32142 1.20142,11.14515 6.09517,26.87578 5.98536,19.23954 5.49897,23.94418 2.3578,37.62422 -3.68363,18.05492 -3.58471,34.70065 -4.32408,53.67857 -1.68081,27.83882 4.47169,71.28195 25.02793,91.935 6.01684,5.39697 5.35928,6.62803 5.12156,12.58926 -0.33379,5.09023 -1.12272,7.44715 -4.1162,12.29717 -2.0368,3.3 -4.3426,7.35914 -5.12401,9.0203 -3.84572,8.17542 -12.58713,10.0309 -33.32619,7.07394 z M 160.65695,361.0007 c 3.96948,-1.1 8.22723,-2 9.46166,-2 3.96243,0 6.52902,-7.17772 8.76064,-24.5 0.77943,-6.05 2.42576,-13.925 3.65853,-17.5 4.3406,-12.58764 2.47286,-44.40101 -3.77208,-64.25 -1.34108,-4.2625 -2.58261,-7.75 -2.75896,-7.75 -0.17635,0 -1.11958,2.1375 -2.09607,4.75 -0.97649,2.6125 -4.21961,9.66599 -7.20694,15.67443 -8.85803,17.8162 -8.8054,17.52835 -5.72355,31.30679 1.44779,6.47283 3.26276,13.28624 4.03328,15.1409 0.77051,1.85467 1.39749,5.22967 1.39329,7.5 -0.008,4.46893 -2.76778,14.30987 -5.36367,19.12788 -0.889,1.65 -1.61914,3.75297 -1.62253,4.67327 -0.0172,4.67823 -9.05287,11.23225 -19.76256,14.3348 -3.44102,0.99686 -5.99623,2.07784 -5.67823,2.4022 3.28935,3.35514 16.54778,3.89673 26.67719,1.08973 z M 102.92752,136.68636 c -1.89993,-4.54717 -1.90394,-9.64123 -0.0131,-16.68566 2.60065,-9.68904 2.1244,-12.41815 -3.15126,-18.05825 -5.23528,-5.596953 -5.33878,-7.073763 -0.25785,-3.679383 6.82119,4.556983 8.44073,12.326663 5.20293,24.960803 -1.46725,5.72532 -1.53794,7.41502 -0.47626,11.38453 1.53396,5.73529 0.74729,6.98843 -1.30443,2.07796 z m 28.73687,-5.34794 c -1.99246,-0.80398 -1.44519,-2.20153 0.64777,-1.65421 4.36255,1.14084 7.85447,-3.23024 12.82606,-16.05525 4.04652,-10.43866 2.80539,-12.62826 -7.15809,-12.62826 -3.47507,0 -5.56574,-0.42503 -5.56574,-1.131513 0,-1.60499 14.45362,-0.56683 16.57074,1.190223 2.45859,2.04045 1.16267,8.78 -3.56731,18.55212 -5.01159,10.35393 -8.91266,13.68018 -13.75343,11.72689 z m 2.97923,-9.19605 c -0.8659,-0.53516 -0.93883,-1.66745 -0.25987,-4.03484 0.5191,-1.81 0.68349,-4.59257 0.36531,-6.18348 -0.43036,-2.15179 -0.14594,-3.05855 1.11063,-3.54074 0.92902,-0.3565 2.19889,-0.13843 2.82192,0.4846 0.84371,0.84372 0.82433,1.13279 -0.076,1.13279 -0.87084,0 -1.03512,1.4772 -0.58766,5.28432 0.64671,5.50248 -0.80224,8.44701 -3.37437,6.85735 z M 90.41439,114.5007 c 1.86578,-1.925 3.84233,-3.5 4.39233,-3.5 0.55,0 -0.52655,1.575 -2.39233,3.5 -1.86578,1.925 -3.84233,3.5 -4.39233,3.5 -0.55,0 0.52655,-1.575 2.39233,-3.5 z m 6.44615,-6.58713 c -0.94095,-1.52249 1.10241,-3.30008 2.96977,-2.58351 0.89841,0.34475 1.3022,1.24162 0.96023,2.13278 -0.68249,1.77856 -2.94872,2.03847 -3.93,0.45073 z"
           style="fill:#a0a1a2;fill-opacity:1"
           sodipodi:nodetypes="csscssscsssccsssssscsssssscsssssssssssssssssccsssssscssssccsscscssssssssssccssssssssssssssssssscssssssssscsssssssccscsssssssssscccssssssssssssssssssccccsssssssccsssscsssccssssssccsssssssssccccssccsssssssssscssssscsssssccsssssssscssssssccsssssssss" />
        <path
           inkscape:label="bracket"
           inkscape:connector-curvature="0"
           id="bracket"
           d="m 492.1388,398.0377 c 2.49885,-3.89044 6.57527,-12.91885 7.42794,-16.45131 1.38099,-5.72113 2.35472,-27.80372 2.88869,-65.51055 0.90221,-63.70986 3.78316,-80.58353 15.85907,-92.88608 6.72447,-6.8507 15.95605,-13.11402 28.32509,-19.21767 3.13975,-1.54935 5.70244,-2.92893 5.69486,-3.06574 -0.008,-0.1368 -2.7429,-1.53138 -6.07851,-3.09905 -13.37493,-6.28595 -25.19904,-14.46532 -30.0127,-20.76138 -6.19489,-8.10265 -10.20488,-19.48447 -11.92542,-33.84867 -1.07733,-8.99425 -2.19628,-44.457004 -2.22116,-70.39517 -0.0245,-25.50488 -0.99585,-44.970726 -2.60539,-52.210064 -0.60701,-2.730207 -2.42281,-7.535451 -4.03511,-10.6783242 -1.6123,-3.142859 -2.76862,-5.8237989 -2.5696,-5.9576484 0.59623,-0.4009788 6.90197,4.0031456 9.25337,6.4628576 3.26519,3.415573 5.62881,7.692217 7.28958,13.18947 2.94063,9.733676 3.76698,20.172682 4.52428,57.153587 0.967,47.221472 1.81666,64.071432 3.62492,71.887642 2.84996,12.31895 7.17874,20.55273 15.17654,28.8673 3.25838,3.38744 15.14774,11.82506 24.08022,17.08923 l 4.0686,2.39774 -5.91797,3.54211 c -13.45182,8.0514 -22.66962,15.49944 -28.07639,22.6859 -2.97331,3.95201 -6.19457,10.73189 -7.74665,16.30462 -3.42393,12.29359 -3.75933,16.58403 -4.50397,57.61457 -1.38766,76.46181 -3.00364,85.03999 -17.97065,95.39415 -3.48819,2.41313 -5.58218,3.10005 -4.54964,1.49248 z"
           style="fill:#d0d6d3;fill-opacity:1" />
      </g>
      <!-- g3903 -->
    </g>
    <!-- lines -->
    <g
       inkscape:groupmode="layer"
       id="LAYER_EFO"
       inkscape:label="LAYER_EFO">
      <path
         style="fill:none;stroke:none"
         d="m 22.059495,58.706974 c 1.058526,-0.204871 1.886395,-3.8045 1.388252,-4.305251 0.326598,-0.438865 -1.417987,-3.369616 -2.120594,-3.484631 -0.168739,-0.02762 -0.172792,-0.07479 -0.183004,-0.232303 -0.06063,-0.935016 -5.726366,-2.60125 -5.974799,-2.438353 -5.3138216,-1.22051 -6.3481731,0.661653 -6.3481731,0.661653 -1.2762259,1.627349 1.1095876,3.112585 1.1095876,3.112585 0.5782355,0.214132 0.7977495,0.581999 1.0349005,0.898414 0.112513,0.150117 -0.113621,0.169912 -0.134194,0.333233 -0.04622,0.366897 -0.156406,1.652823 -0.209487,1.985004 -0.424499,0.980785 0.131986,1.230049 0.131986,1.230049 0.530418,0.382522 1.639624,0.174644 2.481689,0.539286 0.895511,0.387795 1.079937,0.836169 1.743163,0.910672 0.920839,0.113303 2.467041,0.959459 2.467041,0.959459 1.424323,0.821688 4.005025,1.105655 4.613632,-0.169817 z"
         id="UBERON_0000955"
         inkscape:connector-curvature="0"
         sodipodi:nodetypes="ccsscccssccsccc"
         inkscape:label="UBERON_0000955" />
      <path
         style="fill:none;stroke:none"
         d="m 12.030869,47.848335 c -2.6146109,-0.173698 -3.3551126,1.234171 -3.3551126,1.234171 -0.8593477,1.316448 0.7862115,2.596327 0.7862115,2.596327 0.4388155,0.383965 0.5668031,0.402249 0.5668031,0.402249 l 0.36568,0.146271 c 0.475384,0.255977 0.585088,0.18284 0.585088,0.18284 1.244247,-1.169242 1.28383,-4.20137 1.05133,-4.561858 z"
         id="UBERON_0000451"
         inkscape:connector-curvature="0"
         sodipodi:nodetypes="ccccccc"
         inkscape:label="UBERON_0000451" />
      <path
         style="fill:none;stroke:none"
         d="m 22.082821,58.70857 -0.16031,0.229011 c 0,0 -0.182839,0.42053 -1.115324,0.603371 0,0 -1.481004,0.329112 -3.583663,-0.749643 -0.164556,-0.146274 0.219408,-0.420532 0.219408,-0.420532 1.170177,-0.475384 2.669464,-0.164558 2.669464,-0.164558 0.658223,0.292545 1.608992,0.292545 1.608992,0.292545 0.329111,0 0.361433,0.209806 0.361433,0.209806 z"
         id="UBERON_0002037"
         inkscape:connector-curvature="0"
         sodipodi:nodetypes="cccccccc"
         inkscape:label="UBERON_0002037" />
      <path
         style="fill:none;stroke:none"
         d="m 27.662368,82.390707 c -0.381923,0.982274 -0.470658,1.888333 0.124416,2.843957 1.159071,1.737151 4.832603,3.931643 5.904312,3.528593 0.462985,-0.213311 0.789847,-1.779337 0.474538,-2.366265 -1.230046,-1.620582 -1.071574,-3.008951 -2.125479,-4.065857 -1.532599,-1.326641 -2.126273,-1.330194 -2.126273,-1.330194 -1.489787,-0.155022 -2.251514,1.389766 -2.251514,1.389766 z"
         id="UBERON_0000948"
         inkscape:connector-curvature="0"
         sodipodi:nodetypes="ccccccc"
         inkscape:label="UBERON_0000948" />
      <path
         style="fill:none;stroke:none"
         d="m 53.552611,71.264543 c -1.231893,-0.574616 -0.718603,-1.975245 -0.718603,-1.975245 1.383402,-2.509756 4.549023,-2.80511 7.083386,-3.052652 1.984717,0 2.429567,0.466876 2.429567,0.466876 0.688868,0.395049 0.544034,1.472454 0.307974,1.759762 -1.892836,2.150411 -7.813784,3.525276 -9.102324,2.801259 z"
         id="UBERON_0002113"
         inkscape:connector-curvature="0"
         sodipodi:nodetypes="cccccc"
         inkscape:label="UBERON_0002113" />
      <path
         style="fill:none;stroke:none"
         d="m 49.770456,90.510701 c 1.196222,0.890803 6.912117,-2.297581 6.912117,-2.297581 1.607218,-1.394774 2.831915,-1.137468 2.638391,-2.022816 -0.09687,-1.10677 -1.757661,-2.555585 -2.466862,-2.780181 -2.62149,-1.168207 -5.438142,-2.600919 -5.753943,-3.084232 -0.817664,-0.87402 -1.130969,-2.756412 -1.130969,-2.756412 -1.405229,-2.891818 -2.231107,-0.09232 -2.231107,-0.09232 -1.360536,4.764304 1.234764,12.640497 2.032373,13.03354 z"
         id="UBERON_0002107"
         inkscape:connector-curvature="0"
         sodipodi:nodetypes="cccccccc"
         inkscape:label="UBERON_0002107" />
      <path
         sodipodi:type="arc"
         style="fill:none;stroke:none"
         id="UBERON_0000473"
         sodipodi:cx="317.14285"
         sodipodi:cy="187.65672"
         sodipodi:rx="5"
         sodipodi:ry="6.9642859"
         d="m 322.14285,187.65672 c 0,3.84627 -2.23857,6.96429 -5,6.96429 -2.76142,0 -5,-3.11802 -5,-6.96429 0,-3.84627 2.23858,-6.96428 5,-6.96428 2.76143,0 5,3.11801 5,6.96428 z"
         transform="matrix(0.28333768,0.05991727,-0.05838095,0.2760726,13.14967,6.285895)"
         inkscape:label="UBERON_0000473" />
    </g>
    <!-- LAYER_EFO -->
  </g>
  <!-- group_all -->
<a id="ccLogo" xlink:href="https://www.ebi.ac.uk/gxa/licence.html"> <image  xlink:href="https://licensebuttons.net/i/l/by/ffffff/33/99/33/80x15.png" x="55" y="0" height="15" width="80" /></a></svg>
