<?xml version="1.0" encoding="UTF-8" standalone="no"?>
<!-- Created with Inkscape (http://www.inkscape.org/) -->

<svg xmlns:xlink="http://www.w3.org/1999/xlink"
   xmlns:dc="http://purl.org/dc/elements/1.1/"
   xmlns:cc="http://creativecommons.org/ns#"
   xmlns:rdf="http://www.w3.org/1999/02/22-rdf-syntax-ns#"
   xmlns:svg="http://www.w3.org/2000/svg"
   xmlns="http://www.w3.org/2000/svg"
   xmlns:sodipodi="http://sodipodi.sourceforge.net/DTD/sodipodi-0.dtd"
   xmlns:inkscape="http://www.inkscape.org/namespaces/inkscape"
   width="143"
   height="105"
   id="svg2"
   version="1.1"
   inkscape:version="0.48.5 r10040"
   sodipodi:docname="rat.svg">
  <defs
     id="defs4" />
  <sodipodi:namedview
     id="base"
     pagecolor="#ffffff"
     bordercolor="#666666"
     borderopacity="1.0"
     inkscape:pageopacity="0.0"
     inkscape:pageshadow="2"
     inkscape:zoom="7.9195959"
     inkscape:cx="75.162889"
     inkscape:cy="60.046614"
     inkscape:document-units="px"
     inkscape:current-layer="LAYER_EFO"
     showgrid="false"
     inkscape:window-width="1789"
     inkscape:window-height="1286"
     inkscape:window-x="38"
     inkscape:window-y="3"
     inkscape:window-maximized="0" />
  <metadata
     id="metadata7">
    <rdf:RDF>
      <cc:Work
         rdf:about="">
        <dc:format>image/svg+xml</dc:format>
        <dc:type
           rdf:resource="http://purl.org/dc/dcmitype/StillImage" />
        <dc:title />
      </cc:Work>
    </rdf:RDF>
  </metadata>
  <g
     id="group_all"
     transform="translate(0,-5)">
    <g
       inkscape:label="lines"
       inkscape:groupmode="layer"
       id="layer1"
       transform="translate(0,-942.36218)">
      <g
         id="g3888"
         transform="matrix(0.95294874,0,0,0.95294874,-5.3314278,49.488312)">
        <path
           inkscape:label="rat_outline"
           inkscape:connector-curvature="0"
           id="rat_outline"
           d="m 91.801561,1045.3111 c -0.79465,-0.038 -3.70761,-0.1992 -6.47324,-0.3586 -2.76563,-0.1595 -7.75027,-0.2908 -11.07697,-0.2919 -7.51936,0 -12.2345,-0.378 -17.06643,-1.359 -2.86457,-0.5816 -6.03102,-1.939 -6.03102,-2.5854 0,-0.3852 0.28765,-0.3686 1.75685,0.1013 4.60415,1.4724 6.60905,1.7194 15.58101,1.9197 10.3526,0.2312 35.438569,0.2344 39.533479,0.01 1.83127,-0.1025 5.05674,-0.2803 7.16772,-0.395 8.7254,-0.4742 13.38926,-2.1939 15.44751,-5.6957 0.50293,-0.8557 0.55657,-1.115 0.55657,-2.6907 0,-1.6235 -0.0491,-1.8427 -0.71234,-3.1786 -0.85744,-1.7271 -2.82347,-4.2252 -4.45317,-5.6582 -1.75471,-1.543 -8.03125,-6.3595 -10.31174,-7.9131 -1.08869,-0.7417 -3.64143,-2.5837 -5.67277,-4.0934 -4.6386,-3.4472 -5.93514,-4.094 -8.20759,-4.094 -0.85959,0 -1.46879,0.1761 -3.04937,0.8816 -2.40218,1.0722 -3.89714,1.254 -6.38369,0.7763 -2.347939,-0.451 -3.112629,-0.3957 -5.403979,0.3906 -2.77916,0.9537 -3.84862,1.1933 -5.9974,1.3434 l -1.83867,0.1284 -0.33042,0.7989 c -0.42584,1.0296 -1.34746,2.1421 -2.23006,2.692 -2.32406,1.4478 -7.15687,2.6715 -11.84714,2.9996 -1.92076,0.1343 -3.05987,0.3325 -4.74323,0.8251 -1.21846,0.3565 -2.3755,0.7382 -2.57119,0.8481 -0.32134,0.1804 -0.28632,0.2408 0.36146,0.623 l 0.71727,0.4232 2.62473,-0.8748 c 2.21089,-0.7368 2.86008,-0.8747 4.11748,-0.8747 0.82102,0 1.49276,0.074 1.49276,0.1652 0,0.091 -0.49847,0.1663 -1.1077,0.1676 -0.6709,0 -1.86735,0.2312 -3.03413,0.5827 -1.05953,0.3192 -2.47238,0.7356 -3.13965,0.9253 -0.66727,0.1896 -1.25754,0.4165 -1.31171,0.5042 -0.20434,0.3306 3.12955,0.1586 4.65144,-0.2401 0.83865,-0.2196 1.72393,-0.3613 1.96731,-0.3148 0.24337,0.046 0.4899,0.01 0.54785,-0.086 0.17334,-0.2804 2.0171,-1.1544 2.26056,-1.0714 0.12406,0.042 -0.2729,0.3966 -0.88213,0.7874 -1.18771,0.762 -1.23573,0.8361 -0.8669,1.3384 0.21967,0.2991 0.3563,0.2503 1.55668,-0.5556 1.52871,-1.0264 2.98036,-1.6079 5.74989,-2.3033 2.41656,-0.6068 7.11076,-2.1296 8.11242,-2.6317 0.91249,-0.4574 1.4209,-1.2759 1.58078,-2.545 0.16592,-1.3171 0.47342,-2.2645 0.69127,-2.1299 0.10794,0.067 0.10618,0.2433 -0.004,0.4501 -0.10016,0.1871 -0.23937,0.8104 -0.30936,1.3849 -0.19989,1.6411 -0.71617,2.5453 -1.77634,3.1111 -1.05924,0.5654 -5.897,2.1833 -9.09917,3.0431 -2.17405,0.5838 -3.49909,1.1916 -5.05546,2.319 -1.01168,0.7329 -1.5901,0.7345 -1.967,0.01 -0.15943,-0.3083 -0.39538,-0.5957 -0.52434,-0.6387 -0.12896,-0.043 -1.01871,0.1256 -1.97723,0.3745 -1.33889,0.3478 -2.14487,0.44 -3.47795,0.3979 l -1.7352,-0.055 -0.008,-0.5514 c -0.006,-0.4025 -0.15204,-0.627 -0.54156,-0.8311 -0.66398,-0.3479 -0.62828,-1.0158 0.0722,-1.3504 0.2673,-0.1277 1.59156,-0.5351 2.94282,-0.9055 1.89319,-0.5189 2.99706,-0.702 4.81169,-0.7978 2.66555,-0.1408 6.55957,-0.8109 8.42312,-1.4494 2.803,-0.9604 4.2436,-1.9626 5.02861,-3.4981 0.60247,-1.1784 0.54606,-1.2427 -1.22391,-1.3948 -4.36754,-0.3752 -6.91933,-1.1931 -14.76256,-4.7321 l -1.80733,-0.8155 -2.62346,0.087 c -2.96101,0.098 -3.66142,0.3127 -5.32046,1.6337 -1.55251,1.2361 -4.07406,5.9638 -5.37928,10.0857 -0.3818,1.2057 -0.88658,2.473 -1.12172,2.8162 -0.5373,0.7841 -1.71654,1.4593 -2.40945,1.3796 -0.46582,-0.054 -0.52548,-0.1374 -0.49917,-0.7006 0.0247,-0.5284 -0.0256,-0.6154 -0.28897,-0.5002 -2.1452,0.9383 -3.9307,1.0933 -4.03679,0.3504 -0.0518,-0.3629 -0.15495,-0.3949 -1.00814,-0.313 -0.78951,0.076 -0.97297,0.033 -1.08371,-0.256 -0.16879,-0.4399 0.27593,-0.7454 2.32384,-1.5963 0.85124,-0.3537 1.78047,-0.8088 2.06496,-1.0114 0.28449,-0.2025 0.63081,-0.3683 0.7696,-0.3683 0.51114,0 -0.31749,0.568 -2.52811,1.733 -1.82473,0.9616 -2.07887,1.1454 -1.44392,1.0442 0.66628,-0.1061 2.75998,-0.7364 3.80469,-1.1453 0.18542,-0.073 0.33713,-0.048 0.33713,0.056 0,0.1033 -0.65017,0.436 -1.44482,0.7394 -1.0812,0.4128 -1.44483,0.6416 -1.44483,0.9093 0,0.3138 0.10043,0.341 0.81874,0.2211 0.94282,-0.1574 3.39817,-1.0031 3.76119,-1.2955 0.135,-0.1088 0.30205,-0.1412 0.37122,-0.072 0.0692,0.069 -0.0221,0.2338 -0.20279,0.366 -0.18071,0.1321 -0.34776,0.4996 -0.37123,0.8167 -0.0508,0.687 0.30332,0.6958 1.32778,0.033 0.55897,-0.3617 0.79898,-0.8041 1.74322,-3.2128 1.6752,-4.2734 2.68941,-6.4992 3.43317,-7.5345 0.3725,-0.5185 0.67728,-1.0124 0.67728,-1.0976 0,-0.255 1.58565,-1.861 2.33299,-2.363 1.32469,-0.8897 3.87733,-3.5014 5.71255,-5.8447 0.23988,-0.3063 0.49036,-0.5027 0.55663,-0.4364 0.0663,0.066 -0.12999,0.4476 -0.43614,0.8474 -0.30615,0.3998 -0.75121,1.0122 -0.98903,1.3608 -0.56507,0.8283 -0.73845,1.0325 -1.85319,2.1828 l -0.9371,0.9671 0.64813,-0.1016 c 1.60551,-0.2516 3.62165,-0.3094 4.54652,-0.1304 0.55481,0.1074 2.46198,0.8364 4.23814,1.6201 4.42145,1.9507 4.40493,1.9472 3.22215,0.683 -1.24763,-1.3336 -1.69085,-2.0769 -2.22105,-3.7249 -0.49309,-1.5326 -0.58157,-4.2089 -0.20467,-6.19033 0.3049,-1.6029 1.34926,-4.8961 1.55266,-4.8961 0.0911,0 0.002,0.52723 -0.199,1.17162 -1.84205,5.91851 -1.39167,10.32521 1.36181,13.32471 1.77324,1.9317 3.62369,2.6748 8.24856,3.3124 4.23319,0.5837 6.40878,0.381 10.36485,-0.9653 2.24677,-0.7647 3.59101,-0.843 5.982059,-0.3485 2.3807,0.4924 3.64044,0.3032 6.48382,-0.9734 l 2.3815,-1.0693 1.14047,0.2899 c 1.66165,0.4223 3.58761,1.4297 5.66757,2.9644 2.1023,1.5512 7.55425,5.473 8.91465,6.4127 2.53455,1.7506 7.9417,6.0248 9.44855,7.4687 2.08439,1.9973 3.24469,3.5049 4.15561,5.3995 0.62998,1.3103 0.69466,1.5973 0.69466,3.0823 0,1.3898 -0.0788,1.798 -0.52101,2.6983 -1.31562,2.6788 -4.23255,4.4152 -9.01481,5.3664 -5.54685,1.1034 -10.76474,1.2807 -37.276409,1.2669 -23.37717,-0.012 -24.65017,-0.052 -28.18924,-0.8696 -1.8467,-0.427 -2.3688,-0.4589 -1.34424,-0.082 1.17366,0.4314 4.32042,1.0203 7.1869,1.345 4.04305,0.4579 7.4418,0.6143 14.23937,0.6551 3.3816,0.02 7.28262,0.1253 8.66893,0.2331 5.53168,0.4305 21.812729,0.5917 26.950279,0.2668 0.93381,-0.059 3.88125,-0.2296 6.54986,-0.3789 4.88794,-0.2735 6.62565,-0.5224 8.8446,-1.267 4.6399,-1.5568 7.66231,-4.9913 7.66231,-8.7069 0,-2.8828 -1.60267,-6.446 -4.12711,-9.1758 -1.01229,-1.0946 -3.4891,-3.0452 -8.5867,-6.7625 -5.68365,-4.1447 -7.49324,-5.6839 -8.89729,-7.568 -2.23581,-3.0002 -3.15082,-5.5511 -4.61021,-12.85223 -0.11648,-0.5827 -0.6746,-2.35987 -1.24027,-3.94918 -0.56567,-1.5893 -1.47662,-4.2981 -2.02434,-6.01954 -2.61019,-8.20378 -8.55527,-17.34016 -13.955059,-21.44608 -2.33697,-1.777 -6.15223,-3.7419 -9.34341,-4.81196 -2.54793,-0.85437 -6.99304,-1.58009 -9.82456,-1.60399 -3.16921,-0.0267 -4.83224,0.40993 -8.71775,2.28905 -4.23061,2.04603 -5.53019,2.44902 -8.24409,2.55643 -1.87071,0.074 -2.46838,0.0215 -3.75654,-0.33046 -1.55644,-0.42521 -4.17089,-1.61619 -4.5496,-2.07251 -0.35348,-0.42591 0.113,-0.29582 1.51304,0.42196 2.36431,1.21214 3.72678,1.54535 6.22443,1.52225 1.94504,-0.018 2.44863,-0.0968 4.12666,-0.64571 1.0512,-0.34387 3.00171,-1.1606 4.33447,-1.81495 5.20298,-2.55453 8.04398,-2.8981 14.62222,-1.76832 3.20826,0.55101 4.31292,0.85092 6.57159,1.78417 5.11967,2.11536 8.420879,4.41201 11.496349,7.99801 3.01836,3.51941 4.74546,6.18351 7.15354,11.03458 1.61596,3.25535 1.9071,3.99195 3.04567,7.70571 0.48725,1.58931 1.17547,3.66985 1.52937,4.62343 0.83403,2.24729 1.53342,4.76611 1.92568,6.93514 0.73512,4.0651 1.8645,7.2023 3.4558,9.5997 1.41104,2.1258 3.15578,3.61 11.09011,9.4336 1.53632,1.1277 2.88001,2.1206 2.98596,2.2065 0.10595,0.086 0.62609,0.4843 1.15586,0.8852 3.44839,2.6096 5.68767,5.7373 6.66926,9.3152 1.56714,5.7123 -2.52869,10.7087 -10.08182,12.2987 -0.77193,0.1625 -2.83389,0.3799 -4.58212,0.4832 -1.74824,0.1033 -4.43561,0.2816 -5.97193,0.3962 -2.6904,0.2007 -19.96005,0.3829 -22.924509,0.2419 z m -56.74348,-25.9996 c 0.42834,-1.0462 0.41621,-1.0531 -0.91794,-0.5238 -0.69143,0.2743 -1.39397,0.4463 -1.5612,0.3821 -0.4177,-0.1603 -0.38105,-0.6297 0.0856,-1.0963 0.33016,-0.3302 0.34486,-0.4069 0.0963,-0.5023 -0.39444,-0.1513 -0.37134,-0.7156 0.0438,-1.07 0.18542,-0.1582 0.9006,-0.5984 1.5893,-0.9782 2.74602,-1.514 3.67716,-3.4115 4.22946,-8.6185 0.3396,-3.2017 0.92747,-6.2147 1.18189,-6.0575 0.0999,0.062 0.14119,0.1776 0.0918,0.2575 -0.17261,0.2793 -0.50426,2.6452 -0.77615,5.537 -0.5649,6.0081 -1.41917,7.6247 -5.16512,9.7744 -0.84187,0.4831 -1.05044,0.8914 -0.45538,0.8914 0.13179,0 0.96289,-0.3498 1.84687,-0.7773 0.88399,-0.4275 1.69629,-0.7476 1.80511,-0.7113 0.22543,0.075 -1.27232,1.022 -2.56584,1.622 -0.73713,0.342 -1.81418,1.2151 -1.4989,1.2151 0.28271,0 1.9169,-0.6591 2.90191,-1.1704 0.97395,-0.5055 1.14922,-0.5431 1.39379,-0.2985 0.24457,0.2446 0.1711,0.3434 -0.58428,0.7861 -1.41174,0.8273 -1.14463,1.0843 0.68437,0.6584 1.7798,-0.4144 2.77675,-0.8777 3.45713,-1.6065 0.4402,-0.4715 0.48829,-0.7077 0.60194,-2.9565 0.114,-2.2554 0.70323,-5.44 1.14727,-6.2007 0.26864,-0.4601 0.22763,0.039 -0.1821,2.2158 -0.19938,1.0593 -0.41858,2.6196 -0.48711,3.4672 -0.25576,3.1635 -0.34445,3.8575 -0.51577,4.0359 -0.10996,0.1145 -0.17575,0.097 -0.17575,-0.047 0,-0.1265 -0.38113,0.061 -0.84695,0.4166 -0.82861,0.6325 -3.05318,1.38 -4.81985,1.6196 -0.68381,0.093 -0.74035,0.068 -0.60423,-0.2644 z m 7.23758,-1.6671 c 0.0125,-0.9015 0.43587,-4.1407 0.6947,-5.3152 0.35593,-1.6151 0.29585,-4.2745 -0.1137,-5.0321 -0.14102,-0.2609 -0.81391,-2.1248 -1.4953,-4.1419 -1.23601,-3.65893 -2.90176,-7.65004 -3.89407,-9.33023 -0.68385,-1.15789 -2.49889,-3.78902 -3.86778,-5.60684 -1.89369,-2.51471 -2.74153,-4.07503 -3.39206,-6.2426 -0.14577,-0.48573 -0.38998,-0.64179 -1.84926,-1.18175 -2.2818,-0.8443 -4.13286,-1.32711 -7.76711,-2.02587 -3.49822,-0.67261 -4.88216,-1.03731 -5.91464,-1.55865 -0.81411,-0.41108 -1.75949,-1.69106 -1.64106,-2.2219 0.0595,-0.26682 0.1492,-0.18951 0.37541,0.3237 0.57799,1.31125 1.71373,1.8931 4.87749,2.49877 1.16549,0.22313 2.81259,0.53827 3.66021,0.70032 3.53876,0.67654 7.53269,2.08449 9.39135,3.31067 0.91908,0.60633 0.95342,0.98487 0.038,0.41912 -0.37641,-0.23263 -0.72339,-0.38396 -0.77107,-0.33628 -0.15423,0.15423 0.62972,2.18921 1.17884,3.05999 0.29357,0.46555 1.45569,2.06011 2.58247,3.54348 3.9602,5.21342 4.9747,7.1456 7.02972,13.38867 0.71497,2.1721 1.42191,4.2093 1.57098,4.5271 0.14906,0.3179 0.40546,1.2266 0.56976,2.0194 0.32316,1.5594 0.27636,2.2908 -0.3207,5.0121 -0.1976,0.9006 -0.36114,2.1288 -0.36344,2.7294 -0.002,0.6006 -0.0568,1.2291 -0.1211,1.3967 -0.13895,0.3621 -0.46242,0.4072 -0.45766,0.064 z m 41.47003,-2.9675 c 0.0607,-0.098 0.44162,-0.2002 0.84639,-0.2265 1.05629,-0.069 2.11637,-0.3812 2.46106,-0.7259 0.31033,-0.3103 0.36344,-0.574 0.30124,-1.4959 -0.024,-0.3551 0.0374,-0.5054 0.17223,-0.4221 0.1152,0.071 0.20945,0.5992 0.20945,1.1732 0,0.9098 -0.0639,1.0856 -0.49785,1.3699 -0.54284,0.3557 -3.69248,0.6508 -3.49252,0.3273 z m -69.79188,-39.89665 c -2.49713,-0.80176 -4.9845703,-2.27308 -6.0465003,-3.57652 -1.23751,-1.51894 -1.69508,-3.38397 -1.26751,-5.1663 0.19312,-0.80503 0.45218,-1.22754 1.22889,-2.00425 0.8709,-0.87089 1.16134,-1.0304 2.5232803,-1.38576 0.8465,-0.22087 1.87342,-0.45836 2.28204,-0.52774 0.40862,-0.0694 2.24242,-0.55337 4.07512,-1.07553 4.17508,-1.18954 5.05826,-1.37399 10.13618,-2.11695 5.6551,-0.82742 11.53415,-1.01122 11.53415,-0.3606 0,0.10877 -0.21746,0.12369 -0.52976,0.0364 -0.96572,-0.27006 -5.30449,-0.0998 -8.13917,0.31943 -7.28255,1.07701 -8.69995,1.36602 -12.87357,2.62492 -1.20004,0.36197 -3.22802,0.87447 -4.50662,1.1389 -2.7312103,0.56484 -3.7904903,1.02952 -4.5512003,1.9965 -0.83744,1.0645 -0.93059,1.5342 -0.3482,1.75563 0.7447,0.28314 1.77403,-0.0952 2.36424,-0.86903 0.6272303,-0.82233 0.7784003,-0.74842 0.3418103,0.16712 -0.5315803,1.11473 -1.5032103,1.46822 -2.9656803,1.07894 -0.2323,-0.0618 -0.28373,0.12186 -0.26229,0.93676 0.0375,1.42327 0.80262,2.89212 2.11669,4.06333 1.0881303,0.96984 3.4178703,2.24798 4.4874303,2.46189 0.33073,0.0661 0.65156,0.20153 0.71294,0.30084 0.14972,0.24225 0.038,0.31453 -0.31227,0.20207 z m 25.9605,-4.81503 c -0.16427,-0.18542 -0.75334,-1.33406 -1.30906,-2.55252 -0.79303,-1.7388 -1.03034,-2.48767 -1.1031,-3.48105 -0.22279,-3.04161 1.41832,-6.42629 3.71064,-7.65296 0.38053,-0.20363 1.07798,-0.31164 2.04195,-0.31622 1.29487,-0.006 1.57311,0.0598 2.40804,0.57068 2.16829,1.32676 2.4046,4.18642 0.61251,7.41197 -0.72501,1.30493 -4.04254,5.65023 -4.62562,6.05863 -0.56594,0.39641 -1.36578,0.37865 -1.73536,-0.0385 z m 1.33434,-0.42386 c 0.33759,-0.20584 0.71883,-0.57395 0.84721,-0.81801 0.12837,-0.24407 0.45899,-0.66807 0.7347,-0.94224 0.82303,-0.81839 1.34325,-1.485 1.23971,-1.58854 -0.0535,-0.0535 0.17053,-0.37746 0.49783,-0.71995 0.55772,-0.5836 1.8295,-2.96438 2.08366,-3.90062 0.22594,-0.83227 0.18778,-2.54641 -0.0672,-3.02088 -0.3275,-0.60931 -0.95749,-1.3485 -1.14931,-1.3485 -0.0806,0 -0.29837,-0.13735 -0.48387,-0.30523 -0.23497,-0.21265 -0.74397,-0.3104 -1.67793,-0.32227 -1.1984,-0.0152 -1.43857,0.0478 -2.26344,0.5942 -0.50753,0.33618 -0.8429,0.61256 -0.74527,0.61418 0.0976,0.002 0.083,0.0666 -0.0325,0.14448 -0.48574,0.32744 -1.41765,1.86553 -1.69511,2.79772 -0.62994,2.1164 -0.72825,3.04951 -0.44069,4.18264 0.10843,0.42726 0.85826,2.01218 1.03611,2.19004 0.0846,0.0846 0.16086,0.21158 0.16949,0.28221 0.0958,0.78364 0.93083,2.53733 1.20735,2.53575 0.069,-3.9e-4 0.40166,-0.16914 0.73924,-0.37498 z m -0.5672,-0.732 c -0.0399,-0.0795 -0.0964,-0.49124 -0.12566,-0.91506 -0.0292,-0.42381 -0.1424,-0.87893 -0.25145,-1.01137 -0.13724,-0.16668 -0.13349,-0.2408 0.0122,-0.2408 0.11573,0 -0.006,-0.31875 -0.27026,-0.70833 -0.6408,-0.94428 -0.73341,-1.39915 -0.47798,-2.34774 0.56415,-2.09512 3.53126,-2.28412 4.36934,-0.27833 0.16313,0.39042 0.24204,0.92357 0.17759,1.19979 -0.0638,0.27343 -0.14118,0.60542 -0.17197,0.73776 -0.0308,0.13235 -0.51164,0.65248 -1.06857,1.15586 -0.59729,0.53986 -1.02429,1.09301 -1.0411,1.34868 -0.0157,0.2384 -0.1112,0.43345 -0.21226,0.43345 -0.10107,0 -0.12731,0.0565 -0.0583,0.12543 0.069,0.069 -0.0249,0.23961 -0.2087,0.37916 -0.38501,0.29237 -0.57033,0.32583 -0.67283,0.1215 z m 1.16318,-2.36136 c 0.24156,-0.423 0.51992,-0.76909 0.61858,-0.76909 0.41222,0 0.91873,-0.81541 0.87859,-1.41442 -0.11586,-1.7292 -1.66139,-2.30138 -2.861,-1.0592 -0.42891,0.44412 -0.36132,1.50722 0.15725,2.47362 0.199,0.37084 0.37484,0.76094 0.39077,0.86689 0.0159,0.10596 0.0422,0.30101 0.0583,0.43345 0.0527,0.43251 0.31031,0.25185 0.75751,-0.53125 z m -15.85939,1.06977 c -0.26007,-0.26006 -0.48254,-0.62849 -0.49439,-0.81873 -0.0118,-0.19023 -0.0541,-0.62762 -0.094,-0.97197 -0.10617,-0.91748 0.23867,-0.76594 0.36279,0.15944 0.23147,1.72571 1.18447,2.0148 3.4611,1.04992 0.73154,-0.31004 0.29011,0.27202 -0.49426,0.65172 -1.14405,0.55383 -2.1427,0.52819 -2.74126,-0.0704 z m 3.28487,-2.03048 c -0.48902,-0.42324 -1.10883,-0.82468 -1.37734,-0.89207 -0.52595,-0.13201 -2.26363,0.005 -2.81383,0.22154 -0.18542,0.073 -0.33712,0.0465 -0.33712,-0.0591 0,-0.31038 2.39463,-0.87604 3.12698,-0.73865 0.4246,0.0797 1.00415,0.4657 1.65307,1.10113 0.54958,0.53815 0.99923,1.01406 0.99923,1.05756 0,0.24588 -0.46686,-0.0118 -1.25099,-0.69045 z m 7.03216,-8.33283 c 0.004,-1.69833 1.56006,-3.87452 3.47702,-4.86241 1.50714,-0.7767 3.5056,-0.9519 4.41897,-0.38742 0.41092,0.25397 0.10737,1.70198 -0.5602,2.67227 -0.33752,0.49056 -0.70036,0.89194 -0.80632,0.89194 -0.10595,0 0.0774,-0.39255 0.40754,-0.87233 0.73389,-1.06668 0.93312,-2.02477 0.49641,-2.38721 -0.45679,-0.3791 -2.13646,-0.17662 -3.42354,0.41271 -2.10221,0.96257 -3.59011,2.81127 -3.65805,4.5451 -0.0415,1.05826 -0.35426,1.04701 -0.35183,-0.0127 z"
           style="fill:#a0a1a2;fill-opacity:1"
           sodipodi:nodetypes="cccsscscccsscccsscsccsccccsccsscsccccccccccsscccccccsccccccccsccscccscccscccccscccsssccccccssscccssccccccssscsccccccscsssccsccccccscscsscsssscsccsssssssssssssccssssscccccccccsccscssccscscccscsscscccccscssscsssccssssscsscsscccccccccscccsssscssscssssscsccscccccssscssccccccssscssccccsscccccccsscssscscsccccsssscccscccssscccccscsscccsccscssccc" />
        <path
           inkscape:label="bracket"
           inkscape:connector-curvature="0"
           id="bracket"
           d="m 143.02147,1051.7701 c 0,-0.023 0.12206,-0.3125 0.27123,-0.645 0.35045,-0.7811 0.77846,-2.0934 1.004,-3.0785 0.45277,-1.9774 0.54596,-4.3684 0.64937,-16.6617 0.10345,-12.296 0.19147,-15.0947 0.60442,-19.2181 0.25882,-2.5844 0.57886,-4.3186 1.06553,-5.7737 0.97655,-2.92 3.25494,-5.5816 7.1478,-8.35003 l 0.52968,-0.3767 -0.52669,-0.3467 c -2.62146,-1.72568 -5.03175,-4.03318 -6.05811,-5.79978 -1.03059,-1.7739 -1.88699,-4.8067 -2.25688,-7.9927 -0.31711,-2.73126 -0.5026,-9.65038 -0.50737,-18.92518 -0.003,-6.45661 -0.11852,-12.49551 -0.27449,-14.38854 -0.19833,-2.40717 -0.46653,-3.63842 -1.19027,-5.46421 -0.20162,-0.50863 -0.36658,-0.94293 -0.36658,-0.96513 0,-0.12091 0.8146,0.64121 1.19063,1.11384 1.24051,1.55922 1.81204,3.19501 2.14536,6.14033 0.42364,3.74344 0.52023,6.64638 0.61137,18.37518 0.0456,5.87235 0.10449,10.86253 0.13076,11.0893 0.0263,0.22685 0.0915,0.92797 0.14492,1.55805 0.21067,2.48456 0.64587,4.87196 1.19218,6.53976 0.46082,1.407 1.37549,3.1582 2.30771,4.4183 0.88389,1.1948 2.6267,2.9571 3.80164,3.84438 0.59913,0.4523 0.8477,0.6967 0.84774,0.8335 3e-5,0.1363 -0.30448,0.4381 -1.03098,1.0217 -3.46263,2.78193 -5.55534,5.96973 -6.39173,9.73673 -0.36832,1.6587 -0.56165,3.0666 -0.86835,6.3236 -0.0261,0.2772 -0.0851,5.3498 -0.13111,11.2725 -0.0823,10.5937 -0.15338,13.3609 -0.42743,16.634 -0.3277,3.9138 -0.80306,5.7669 -1.88691,7.3555 -0.47508,0.6964 -1.72744,1.9501 -1.72744,1.7293 z"
           style="fill:#d0d6d3;fill-opacity:1" />
      </g>
      <!-- g3888 -->
    </g>
    <!-- lines -->
    <g
       inkscape:groupmode="layer"
       id="LAYER_EFO"
       inkscape:label="LAYER_EFO"
       transform="translate(0,-634.09448)">
      <path
         style="fill:none;stroke:none"
         d="m 35.328733,663.90097 -0.272344,-0.23208 -0.816895,-0.0231 c -1.498084,-0.0423 -1.606339,-0.0535 -1.932648,-0.19909 -0.377081,-0.16829 -0.713053,-0.42661 -0.919261,-0.70683 l -0.16265,-0.22101 -0.315273,0.11804 c -0.411417,0.15405 -1.42686,0.35678 -1.872859,0.3739 -0.45753,0.0175 -1.374753,-0.13853 -1.899017,-0.32318 -0.848039,-0.2987 -1.815158,-0.85045 -2.551692,-1.45578 -0.417953,-0.3435 -0.813008,-0.52324 -1.398242,-0.63616 -0.506311,-0.0977 -1.203632,-0.0942 -1.512825,0.008 -0.175419,0.0576 -0.319811,0.0637 -0.640925,0.0267 -0.356584,-0.0412 -0.449535,-0.0702 -0.665264,-0.20792 -0.292555,-0.18677 -0.696205,-0.66621 -0.869089,-1.03228 -0.247672,-0.52439 -0.218673,-0.87581 0.09443,-1.14463 l 0.180384,-0.15484 0.349999,0.0731 c 0.508598,0.10622 1.065483,0.29305 1.482531,0.49741 l 0.365075,0.17889 0.03087,-0.25796 c 0.05813,-0.48555 0.306145,-0.76378 0.924398,-1.03705 1.131427,-0.50008 3.501154,-0.88782 5.766665,-0.94358 0.791376,-0.0195 2.368297,0.13918 2.873179,0.28908 0.937215,0.27826 1.429251,0.7369 1.365127,1.27248 -0.02725,0.22723 0.0365,0.25616 0.174038,0.079 0.214509,-0.2762 0.67423,-0.48641 1.090173,-0.4985 0.265958,-0.008 0.773947,0.16355 1.124289,0.37908 0.600148,0.3692 0.953806,1.23545 1.029089,2.52065 0.0038,0.0615 0.06614,0.12954 0.166261,0.18104 0.318085,0.16365 0.683055,0.72661 0.860227,1.3269 l 0.08214,0.27831 -0.130821,0.32526 c -0.07194,0.1789 -0.193295,0.42125 -0.269665,0.53856 -0.231938,0.35632 -0.90898,0.77427 -1.337845,0.82588 -0.08948,0.0108 -0.187312,-0.0436 -0.391604,-0.21771 l 0,0 z"
         id="UBERON_0000955"
         inkscape:connector-curvature="0"
         inkscape:label="UBERON_0000955" />
      <path
         style="fill:none;stroke:none"
         d="m 73.203271,673.88778 c -0.2003,-0.0663 -0.395502,-0.16944 -0.593868,-0.3137 -0.426406,-0.3101 -0.704554,-0.62601 -1.157947,-1.31519 -0.341165,-0.51859 -0.573685,-0.82266 -0.939102,-1.22809 -0.505254,-0.56057 -1.017864,-1.02983 -1.644818,-1.5057 -0.622963,-0.47286 -0.822995,-0.58405 -1.311134,-0.72886 -1.255081,-0.3723 -2.120721,-0.8024 -2.640936,-1.31216 -0.234978,-0.23025 -0.40021,-0.50105 -0.441778,-0.72402 -0.04641,-0.24877 0.08739,-0.86404 0.276299,-1.27099 0.2483,-0.53484 0.762521,-1.01103 1.322931,-1.22513 0.78057,-0.29819 1.485056,-0.34185 2.668523,-0.16534 2.368611,0.35321 4.193823,1.00403 5.453354,1.9445 0.424825,0.3172 0.766524,0.66358 0.938464,0.95132 0.341794,0.57198 0.504901,1.71319 0.450964,3.15532 -0.04707,1.25964 -0.259383,2.48648 -0.510018,2.94794 -0.06023,0.11093 -0.36597,0.40922 -0.551776,0.53838 -0.178955,0.12438 -0.419622,0.23614 -0.599148,0.27821 -0.160142,0.0376 -0.572474,0.0224 -0.72001,-0.0265 z"
         id="UBERON_0002113"
         inkscape:connector-curvature="0"
         inkscape:label="UBERON_0002113" />
      <path
         style="fill:none;stroke:none"
         d="m 64.67761,667.49353 c -0.120996,-0.0404 -0.416419,-0.27143 -0.569368,-0.44531 -0.1537,-0.17472 -0.361806,-0.50911 -0.461551,-0.7416 -0.03002,-0.0698 -0.07805,-0.2305 -0.106778,-0.35705 -0.04488,-0.19741 -0.04688,-0.25108 -0.0142,-0.3779 0.05785,-0.22411 0.163622,-0.39613 0.365905,-0.59506 0.208419,-0.20496 0.400972,-0.32396 0.757946,-0.46846 0.373137,-0.15105 1.256168,-0.33551 1.491623,-0.31159 0.05785,0.006 0.03897,0.0251 -0.109704,0.11131 -0.814381,0.4726 -1.283651,1.18717 -1.38939,2.11571 -0.04774,0.41915 -0.02258,0.5215 0.21731,0.88495 l 0.161049,0.24398 -0.138816,-0.0185 c -0.07634,-0.0101 -0.168177,-0.0284 -0.204065,-0.0404 z"
         id="CL_0000336"
         inkscape:connector-curvature="0"
         inkscape:label="CL_0000336" />
      <path
         style="fill:none;stroke:none"
         d="m 72.599616,707.84305 c 0,-0.0434 0.439729,-1.32987 0.977173,-2.85874 0.61974,-1.76298 1.013633,-3.03413 1.076842,-3.47517 0.179983,-1.2558 -0.0038,-3.35984 -0.520854,-5.95582 -0.129287,-0.64937 -0.235064,-1.36246 -0.235064,-1.58463 0,-0.4421 0.419908,-1.39403 0.744492,-1.68778 0.184205,-0.1667 0.19586,-0.16234 0.583118,0.21772 0.869347,0.8532 1.547055,2.45734 1.546379,3.66032 -9.53e-4,1.9932 -0.833439,5.17308 -2.097221,8.01234 -0.277185,0.62274 -0.651026,1.58241 -0.830761,2.1326 -0.179727,0.55018 -0.376711,1.04605 -0.437738,1.10193 -0.210783,0.19303 -0.806366,0.51596 -0.806366,0.43723 z"
         id="UBERON_0001388"
         inkscape:connector-curvature="0"
         inkscape:label="UBERON_0001388" />
      <path
         style="fill:none;stroke:none"
         d="m 42.568781,687.01523 c -0.28762,-0.0174 -0.774139,-0.10615 -1.08114,-0.1971 -0.467374,-0.13845 -0.625897,-0.22993 -0.974219,-0.56217 -0.228812,-0.21824 -0.525551,-0.55746 -0.659421,-0.75382 -0.233187,-0.342 -0.251093,-0.41108 -0.426159,-1.64343 -0.154445,-1.08715 -0.216024,-1.35528 -0.397599,-1.73092 -0.330549,-0.68386 -0.683931,-1.60143 -0.646738,-1.6793 0.06003,-0.12581 0.585921,-0.43652 0.697635,-0.41223 0.06003,0.0131 0.157923,0.0977 0.217616,0.18825 0.162277,0.24604 0.493665,0.17248 0.960743,-0.21329 l 0.380675,-0.31439 -0.06204,-0.46118 c -0.05736,-0.42666 -0.04879,-0.46913 0.114735,-0.56721 0.281091,-0.16859 0.449916,-0.15896 0.591781,0.0338 0.07204,0.0979 0.31797,0.2898 0.54645,0.42643 0.228479,0.13664 0.430542,0.33042 0.483517,0.41252 0.107406,0.16646 0.240247,0.5544 0.760862,0.48435 0.59727,-0.0803 1.041287,0.10832 1.05641,0.22069 -0.01925,0.2111 -0.0086,0.20733 0.05746,0.40177 0.144352,0.10376 0.275469,0.27608 0.140235,0.4273 -0.180956,0.20235 -0.332893,0.396 -0.416687,0.17483 -0.209391,-0.33293 -0.283511,-0.23928 -0.621684,-0.26858 0.159066,0.38908 0.137615,0.35917 0.162221,0.67437 0.01372,0.0981 0.168414,0.20866 0.491883,0.3512 0.413018,0.18198 0.528867,0.28105 0.926705,0.79241 0.576791,0.74139 0.872758,1.31376 1.004493,1.94261 0.187483,0.89489 0.0077,1.48651 -0.552243,1.81411 -0.419516,0.24558 -1.982257,0.5059 -2.755442,0.45899 z"
         id="UBERON_0000948"
         inkscape:connector-curvature="0"
         sodipodi:nodetypes="cssssssccscsscsssccscccsssscc"
         inkscape:label="UBERON_0000948" />
      <path
         style="fill:none;stroke:none"
         d="m 62.940328,703.32755 c -0.683588,-0.25296 -0.863943,-0.36125 -1.783835,-1.071 -2.709252,-2.09034 -5.22821,-3.4722 -6.929348,-3.80134 -0.494475,-0.0956 -1.108231,-0.58703 -1.419188,-1.1362 l -0.258649,-0.45678 0.07395,-1.92798 c 0.05375,-1.40313 0.12215,-2.20666 0.251303,-2.95169 0.754745,-4.35371 2.083127,-8.34996 4.367574,-13.13933 0.82814,-1.73618 0.95576,-1.95753 1.198199,-2.07807 0.328615,-0.16342 0.720972,-0.1538 0.906102,0.0222 0.237703,0.22597 0.686342,2.65925 0.750761,4.07195 0.0528,1.15658 0.25803,2.30316 0.526267,2.93934 0.453451,1.07548 1.443602,4.59096 1.425839,5.06239 -0.0057,0.14448 0.145859,0.85087 0.33623,1.56978 0.681225,2.5726 1.358256,5.32024 1.648439,6.68996 0.192047,0.90649 0.357889,1.48666 0.47494,1.6615 0.284979,0.42571 0.354116,0.92139 0.299788,2.14917 -0.05432,1.22744 -0.226821,1.87393 -0.639152,2.39523 -0.246109,0.31117 -0.390376,0.31127 -1.229095,7.4e-4 l 0,0 z"
         id="UBERON_0002107"
         inkscape:connector-curvature="0"
         inkscape:label="UBERON_0002107" />
      <path
         style="fill:none;stroke:none"
         d="m 49.097547,682.80623 c -0.08929,-0.009 -0.402174,-0.0379 -0.695405,-0.0651 -1.982458,-0.18378 -4.202762,-0.68051 -5.261936,-1.17724 -1.063577,-0.49878 -2.956066,-1.81538 -3.857603,-2.68372 -0.83991,-0.80898 -1.18867,-1.37315 -1.193225,-1.93029 -0.0019,-0.27611 0.01591,-0.33547 0.203559,-0.66342 1.362116,-2.381 4.666228,-4.8433 8.904801,-6.63604 2.146908,-0.90805 3.100781,-1.13945 4.695417,-1.13905 1.025792,1.9e-4 1.831053,0.15416 2.512192,0.48014 0.282187,0.13505 0.344977,0.18896 0.476484,0.40909 0.983186,1.64583 1.110252,4.49577 0.335504,7.52506 -0.593543,2.32078 -1.605852,4.34097 -2.698856,5.38589 -0.326155,0.31182 -0.508455,0.38904 -1.12608,0.47701 -0.296786,0.0423 -1.910109,0.0547 -2.294852,0.0176 z"
         id="UBERON_0002048"
         inkscape:connector-curvature="0"
         inkscape:label="UBERON_0002048" />
      <path
         style="fill:none;stroke:none"
         d="m 70.407329,681.10764 c -0.09206,-1.46952 -1.20974,-3.87327 -2.023949,-4.84989 -1.53663,-1.70095 -3.470915,-4.20312 -5.66182,-5.50564 -0.378331,-0.22492 -0.62221,-0.41431 -1.004361,-0.77998 l -0.230299,-0.22037 -0.04679,-0.19305 c -0.193497,-0.79829 -0.156465,-1.56075 0.111886,-2.30367 0.118832,-0.32902 0.275925,-0.61954 0.384981,-0.71201 0.198519,-0.16834 0.584949,-0.28647 0.889197,-0.27182 0.235712,0.0114 0.507731,0.0914 1.037685,0.30542 2.164213,1.06389 4.225184,2.01465 5.910493,3.41993 1.511367,1.26814 2.825483,2.96268 3.830178,4.48134 0.487356,0.73666 1.093079,1.834 1.308017,2.75625 0.329072,1.412 0.582338,2.52732 0.576628,4.08162 -0.04755,1.87953 -1.515168,3.62117 -2.641145,3.55545 -2.082479,-0.20516 -2.505731,-2.43258 -2.440692,-3.76358 z"
         id="UBERON_0002106"
         inkscape:connector-curvature="0"
         sodipodi:nodetypes="ccsscssscccssccc"
         inkscape:label="UBERON_0002106" />
      <path
         style="fill:none;stroke:none"
         d="m 37.956975,681.12064 c -0.236207,-0.0663 -1.131036,-0.46074 -1.707312,-0.75259 -1.200687,-0.60807 -1.975492,-1.22901 -2.188971,-1.75425 -0.04908,-0.12074 -0.05032,-0.13439 -0.0162,-0.17214 0.05575,-0.0616 0.201091,-0.0918 0.434515,-0.0903 0.319991,0.002 0.563937,0.0419 0.951291,0.15534 0.323755,0.0948 0.551958,0.1144 1.309685,0.11261 0.749647,-0.002 0.908046,-0.0115 2.26008,-0.13947 1.227122,-0.11612 1.458279,-0.12706 1.583181,-0.075 0.32023,0.13358 0.514641,0.36301 0.514641,0.60732 0,0.24627 -0.09482,0.38275 -0.533146,0.76732 -0.722812,0.63417 -1.46817,1.11678 -1.970327,1.27574 -0.193144,0.0612 -0.529525,0.0956 -0.637456,0.0653 l 0,0 z"
         id="UBERON_0002370"
         inkscape:connector-curvature="0"
         inkscape:label="UBERON_0002370" />
      <path
         style="fill:none;stroke:none"
         d="m 80.349291,696.8791 c -3.322865,-1.80057 -5.42753,-3.11952 -6.981427,-4.3751 -0.794388,-0.64188 -1.211141,-1.0654 -1.517942,-1.54255 -0.208439,-0.32416 -0.291736,-0.99416 -0.283541,-1.35942 0.01353,-0.60229 0.06689,-1.39279 0.408129,-1.52072 0.104396,-0.0392 0.374976,-0.052 0.511124,-0.0287 0.491608,0.0844 3.420876,1.54123 4.653601,2.3144 0.251331,0.15764 0.471558,0.27222 0.489387,0.25463 0.09139,-0.0902 -1.283241,-1.3033 -2.391996,-2.11103 -0.987408,-0.79979 -0.716361,-1.99245 -0.386783,-2.37199 0.175218,-0.26429 1.048119,-0.21412 1.629113,0.10708 l 0.665816,0.56678 c 0.832696,0.70882 2.682665,2.5643 3.110349,3.11961 1.173165,1.52323 1.997266,3.25052 2.375738,4.97953 0.314044,1.43466 0.268665,2.25977 -0.143067,2.60148 -0.351913,0.29206 -0.523196,0.24128 -2.138501,-0.63401 z"
         id="UBERON_0000995"
         inkscape:connector-curvature="0"
         sodipodi:nodetypes="ssssscsccccsssss"
         inkscape:label="UBERON_0000995" />
      <path
         sodipodi:type="arc"
         style="fill:none;stroke:none"
         id="UBERON_0000473"
         sodipodi:cx="84.10714"
         sodipodi:cy="62.589287"
         sodipodi:rx="3.0357144"
         sodipodi:ry="2.4107144"
         d="m 87.142854,62.589287 a 3.0357144,2.4107144 0 1 1 -8.9e-5,-0.01843 l -3.035625,0.01843 z"
         transform="matrix(0.98317496,0.18266638,-0.14883927,0.80110553,11.266564,636.26889)"
         sodipodi:start="0"
         sodipodi:end="6.275538"
         inkscape:label="UBERON_0000473" />
      <path
         style="fill:none"
         d="m 85.82419,701.79365 c 0.166419,-0.68503 -0.02777,-1.3111 -0.486842,-1.56964 -0.420027,-0.23654 -4.250195,-2.35618 -9.360295,-3.78434 -5.110102,-1.42816 -9.675744,-0.9873 -10.700053,-2.47166 -0.685913,-0.99398 -0.385306,-3.11224 0.986897,-4.39684 1.273864,-1.19253 1.04409,-1.98314 -0.699462,-2.40672 -1.854541,-0.45054 -3.17714,0.82784 -3.885295,3.75539 -0.429886,1.77714 -0.378799,2.76518 0.207996,4.02308 0.697115,2.81258 4.937022,2.69536 8.355182,3.17687 6.184697,0.60293 8.239642,3.03573 10.746713,3.66652 4.527052,1.13901 4.560219,1.13904 4.835154,0.007 z"
         id="UBERON_0001155"
         inkscape:connector-curvature="0"
         sodipodi:nodetypes="ccsssscccssc"
         inkscape:label="UBERON_0001155" />
    </g>
    <!-- LAYER_EFO -->
  </g>
  <!-- group_all -->
<a id="ccLogo" xlink:href="http://www.ebi.ac.uk/gxa/licence.html"> <image  xlink:href="https://licensebuttons.net/i/l/by/ffffff/33/99/33/80x15.png" x="55" y="0" height="15" width="80" /></a></svg>
