<?xml version="1.0" encoding="UTF-8" standalone="no"?>
<!-- Created with Inkscape (http://www.inkscape.org/) -->

<svg
   xmlns:dc="http://purl.org/dc/elements/1.1/"
   xmlns:cc="http://creativecommons.org/ns#"
   xmlns:rdf="http://www.w3.org/1999/02/22-rdf-syntax-ns#"
   xmlns:svg="http://www.w3.org/2000/svg"
   xmlns="http://www.w3.org/2000/svg"
   xmlns:xlink="http://www.w3.org/1999/xlink"
   xmlns:sodipodi="http://sodipodi.sourceforge.net/DTD/sodipodi-0.dtd"
   xmlns:inkscape="http://www.inkscape.org/namespaces/inkscape"
   width="142.689"
   height="143.30179"
   id="svg2"
   version="1.1"
   inkscape:version="0.91 r13725"
   sodipodi:docname="oryza_sativa_flower_parts.svg">
  <defs
     id="defs4" />
  <sodipodi:namedview
     id="base"
     pagecolor="#ffffff"
     bordercolor="#666666"
     borderopacity="1.0"
     inkscape:pageopacity="0.0"
     inkscape:pageshadow="2"
     inkscape:zoom="1.979899"
     inkscape:cx="-34.478809"
     inkscape:cy="-37.190827"
     inkscape:document-units="px"
     inkscape:current-layer="LAYER_EFO"
     showgrid="false"
     inkscape:window-width="1549"
     inkscape:window-height="1303"
     inkscape:window-x="5"
     inkscape:window-y="23"
     inkscape:window-maximized="0"
     fit-margin-top="0"
     fit-margin-left="0"
     fit-margin-right="0"
     fit-margin-bottom="0" />
  <metadata
     id="metadata7">
    <rdf:RDF>
      <cc:Work
         rdf:about="">
        <dc:format>image/svg+xml</dc:format>
        <dc:type
           rdf:resource="http://purl.org/dc/dcmitype/StillImage" />
        <dc:title></dc:title>
      </cc:Work>
    </rdf:RDF>
  </metadata>
  <g
     id="group_all"
     transform="translate(-9.8354253e-7,-5.1827767)">
    <g
       inkscape:label="lines"
       inkscape:groupmode="layer"
       id="layer1"
       transform="translate(-56.275351,-209.16509)"
       style="display:inline">
      <g
         id="g3909"
         transform="matrix(0.20553494,0,0,0.20553494,44.708801,173.16938)">
        <g
           inkscape:label="outlines_group"
           id="outlines_group">
          <path
             style="fill:#a0a1a2;fill-opacity:1"
             d="m 403.21781,579.25443 1.26577,-17.69074 -19.01448,-20.40447 c -38.2006,-40.99307 -44.66532,-65.31736 -44.74402,-168.35383 -0.0652,-85.52285 2.70476,-93.31993 42.8789,-120.69338 16.6431,-11.34009 23.39321,-17.83556 29.94757,-28.81768 10.54353,-17.6662 16.73602,-18.7591 18.79703,-3.31742 1.00987,7.56616 4.58728,14.60323 11.79415,23.2 15.49109,18.47863 31.13879,46.50286 35.61928,63.79231 6.19801,23.9171 5.1684,58.91107 -2.64381,89.85791 -9.54386,37.80631 -31.63075,108.48236 -39.15084,125.2792 -4.21551,9.41572 -6.99532,21.44329 -8.04385,34.80395 -1.01191,12.89392 -2.797,20.81114 -4.84494,21.4883 -2.48098,0.82038 -2.63237,-0.53302 -0.64444,-5.76166 1.42905,-3.75864 2.59824,-13.20196 2.59824,-20.98514 0,-9.87394 2.27051,-19.48691 7.51187,-31.80389 8.45917,-19.87871 24.73064,-72.48747 36.31053,-117.39877 8.32608,-32.29178 10.00555,-60.54081 5.15139,-86.64743 -3.20956,-17.26161 -16.0638,-43.22142 -29.64045,-59.86044 -15.73621,-19.28567 -19.29785,-25.51586 -19.4002,-33.93581 l -0.094,-7.73334 -5.99628,9.75354 c -8.72252,14.18809 -16.54138,21.89654 -32.50949,32.05049 -40.86697,25.9868 -45.45913,40.65958 -42.94135,137.2052 0.87097,33.39822 2.74094,67.10403 4.1555,74.9018 3.91996,21.60888 18.54187,48.55222 37.40639,68.92766 19.64651,21.22003 22.92776,28.38975 20.63197,45.08209 -2.61545,19.0166 -5.81828,16.87788 -4.40043,-2.93845 z m 0.61457,-33.45121 c 0,-2.27868 13.5006,-8.02012 18.85873,-8.02012 4.06856,0 1.08301,2.04809 -9.32446,6.39664 -5.24385,2.19102 -9.53427,2.92156 -9.53427,1.62348 z m -13.74225,-18.97567 c -9.22896,-12.32886 -13.30084,-21.33414 -20.85616,-46.12496 -9.75618,-32.01258 -13.60351,-57.34723 -15.60242,-102.74165 -1.61719,-36.72667 -1.30498,-41.40392 3.86357,-57.87838 9.09555,-28.99149 24.60645,-40.18484 55.35948,-39.94993 19.57652,0.14952 37.45041,7.25529 44.407,17.65398 4.8016,7.17744 5.86575,12.29742 5.89355,28.35555 0.0812,46.85783 -31.14204,197.16099 -42.71502,205.62336 -2.58735,1.89189 -9.06349,3.43981 -14.39148,3.43981 -7.92423,0 -10.82854,-1.52467 -15.95852,-8.37778 z m 29.5689,-1.93334 c 8.85384,-12.02772 -0.36527,-36.08886 -13.82758,-36.08886 -19.02995,0 -24.2399,33.90926 -6.34167,41.275 8.60178,3.53993 14.94678,1.90842 20.16925,-5.18614 z m 23.99792,-90.22218 c 6.03555,-31.32937 14.34022,-90.64569 14.32388,-102.30869 -0.0155,-10.76987 -0.0433,-10.80107 -10.97069,-12.14689 -6.02554,-0.74215 -20.64767,-2.63454 -32.49362,-4.20537 -26.15938,-3.46881 -37.89128,-1.72693 -48.06191,7.13601 l -7.73332,6.73904 0.68599,44.11558 c 0.37729,24.26358 1.56767,49.28042 2.64533,55.59298 1.92848,11.29662 2.14641,11.50417 13.83502,13.17615 20.24328,2.89567 32.58225,15.00537 33.85523,33.22615 0.29369,4.2034 1.8042,7.64486 3.35666,7.64767 3.00189,0.005 10.86334,7.71863 11.17139,10.96069 0.10107,1.06333 0.23174,5.12332 0.29064,9.02221 0.12401,8.21586 13.6111,-40.4877 19.0954,-68.95553 z m -57.86901,64.72999 c 0,-6.57655 7.84593,-15.85006 14.18113,-16.76138 3.27015,-0.47041 5.40702,-3.01099 5.84975,-6.95489 0.76568,-6.82092 -7.98487,-22.96928 -12.44675,-22.96928 -1.54153,0 -0.39858,3.05644 2.53989,6.79208 5.50564,6.99929 7.18926,16.40791 2.93609,16.40791 -1.32362,0 -2.77362,-3.15252 -3.22223,-7.00563 -0.94704,-8.13402 -14.87112,-18.77214 -24.57057,-18.77214 -4.70537,0 -5.92499,1.10778 -4.9666,4.51112 8.80981,31.28457 15.16761,49.6222 17.20439,49.6222 1.37218,0 2.4949,-2.1915 2.4949,-4.86999 z m -4.90631,-195.72488 c 1.5633,-4.70276 2.11452,-9.27832 1.22497,-10.16791 -2.53262,-2.53258 -11.15639,7.43825 -15.51833,17.94237 l -3.95954,9.53506 7.70527,-4.37951 c 4.4558,-2.53259 8.90395,-7.98542 10.54763,-12.93001 z m 73.19428,1.13255 c -5.38802,-11.35444 -17.27204,-17.07094 -35.48867,-17.07094 -13.74145,0 -14.15254,0.21061 -15.72152,8.05556 -2.72745,13.63718 -2.11814,15.14444 6.12222,15.14444 6.24754,0 7.76813,-1.11436 7.91452,-5.8 0.0997,-3.19001 1.27406,-8.12 2.60984,-10.95555 1.79612,-3.81273 2.17029,-1.99462 1.4366,6.98025 l -0.99208,12.13581 10.62668,1.37744 c 19.32009,2.50431 26.08366,2.7278 26.91384,0.88935 0.45129,-0.99942 -1.08836,-5.83979 -3.42143,-10.75636 z m -13.80361,3.55127 c -0.23175,-2.12667 -1.14339,-6.76666 -2.02582,-10.3111 -1.23906,-4.97706 -0.89168,-5.78227 1.5256,-3.53625 1.72152,1.59948 2.63313,6.23949 2.02583,10.31111 -0.60731,4.0716 -1.29384,5.66291 -1.52561,3.53624 z m -44.62055,-1.93333 c 1.27154,-2.48111 3.09483,-7.78226 4.05175,-11.78034 1.61127,-6.73196 1.22388,-7.20823 -5.24141,-6.44444 -5.55527,0.65631 -7.18806,2.3913 -7.99359,8.49388 -0.55677,4.21799 -2.23973,9.14798 -3.73986,10.95556 -2.09092,2.51942 -1.17091,3.28646 3.94186,3.28646 3.75258,0 7.68049,-1.97293 8.98125,-4.51112 z"
             id="endosperm_embryo_outline"
             inkscape:connector-curvature="0"
             inkscape:label="endosperm_embryo_outline" />
          <path
             style="fill:#a0a1a2;fill-opacity:1"
             d="m 114.01013,792.18268 c -13.89493,-2.40299 -20.499381,-5.23845 -22.677831,-7.64562 -1.532,-1.69284 -3.3523,-8.91228 -4.742,-18.80706 -2.64228,-18.81327 -3.31347,-20.99508 -13.9479,-45.34065 -4.44295,-10.17135 -9.949263,-22.3076 -11.001593,-26.96946 -2.68011,-11.87294 -6.995037,-136.12421 -4.730167,-164.41938 1.75475,-21.92221 15.058975,-85.45472 21.715515,-110.13813 2.05723,-7.62851 6.13101,-20.96177 9.05284,-27.77754 3.20738,-7.4819 7.332705,-12.39734 7.332705,-16.25291 0,-8.76869 2.33249,-17.32267 6.035351,-17.32267 1.66619,0 3.5334,3.84593 4.14938,4.8426 0.71956,1.16428 7.50128,-8.37195 18.96957,-20.32044 9.8173,-10.22838 19.33604,-15.50684 21.15279,-16.05109 4.45037,-1.33325 12.71459,8.28371 20.71928,24.11081 3.79225,7.49814 6.74477,11.61837 7.98465,11.14258 3.41868,-1.31187 7.5076,8.20586 8.64617,20.12562 0.60002,6.28159 1.45049,11.78062 1.88995,12.22009 0.43946,0.43947 3.06136,-4.73419 5.82643,-11.49702 2.76509,-6.76281 5.65625,-12.29602 6.42481,-12.29602 4.70773,0 3.47549,17.81314 -2.46648,35.65523 -2.20456,6.61966 -3.78421,13.58651 -3.51033,15.48191 0.84047,5.81686 15.05398,-24.91535 16.36042,-35.37426 1.01062,-8.09047 1.42402,-8.82787 4.949,-8.82787 3.7491,0 3.85753,0.31659 4.29089,12.52827 0.53143,14.97508 -2.78126,32.35559 -8.14021,42.70871 -2.27395,4.3931 -3.87593,10.09796 -3.89484,13.87 -0.0178,3.52412 -0.94987,10.78793 -2.07159,16.1418 -1.74035,8.3065 -2.97811,11.80922 0.28672,21.57556 13.123,39.25587 2.42383,147.57271 -2.73517,161.14188 -1.4881,3.91404 -1.37323,4.27728 1.05591,3.33881 5.37634,-2.07706 18.25658,-4.00061 24.63523,-3.67908 7.63638,0.38496 11.85773,3.46215 11.20124,15.74166 -0.75376,19.72767 -29.79635,55.87387 -45.82692,69.13814 -14.48687,11.41602 -16.7795,11.64905 -10.53563,29.48155 6.01563,17.18066 5.50291,20.64259 -20.43032,28.9229 -13.45133,4.29493 -36.11788,6.25453 -45.96787,4.55108 z m 44.3829,-9.23919 c 19.61325,-6.0887 19.88297,-6.21932 21.47226,-10.39944 1.03694,-2.72739 0.41017,-6.29837 -2.42973,-13.84331 -6.38026,-16.95079 -5.33103,-21.51517 7.22788,-31.44241 4.31823,-3.41337 9.92161,-9.12926 12.45197,-12.702 2.53035,-3.57274 7.93111,-9.96339 12.00167,-14.20145 4.07057,-4.23806 10.92284,-13.54142 15.22731,-20.67415 6.42228,-10.64212 7.82627,-14.25247 7.82627,-20.1252 0,-10.96262 -2.27998,-13.02065 -13.2508,-11.96099 -5.00241,0.48318 -13.73627,2.33824 -19.40855,4.12238 l -10.31322,3.24386 -0.96647,7.28595 c -3.17417,23.9295 -13.71423,64.53414 -17.88187,68.88847 -0.7892,0.82454 -0.032,-2.57815 1.68243,-7.56154 1.71454,-4.98341 3.06259,-11.20603 2.99568,-13.82808 -0.13831,-5.41927 -0.0759,-5.56106 -5.04493,11.47116 -1.36917,4.69312 -3.51068,9.89436 -4.7589,11.55834 -1.24824,1.66397 -0.48638,-1.4376 1.69301,-6.89236 3.90552,-9.77504 3.96887,-10.58428 4.40405,-56.25057 l 0.44154,-46.33286 -1.32997,38.5278 c -0.88903,25.7539 -2.10062,41.33806 -3.65434,47.00391 -1.27838,4.66187 -1.99003,6.39561 -1.58144,3.85279 0.40861,-2.54284 1.14173,-9.82459 1.62914,-16.18168 0.82898,-10.81173 0.60868,-11.97798 -3.41062,-18.05498 -2.36327,-3.57318 -4.60141,-6.19212 -4.97361,-5.8199 -0.37223,0.37222 -1.21332,14.73846 -1.86912,31.925 l -1.19235,31.24823 0.56031,-33.1339 c 0.83738,-49.51827 3.51749,-116.87266 6.10162,-153.34063 1.26128,-17.79984 2.99634,-46.23336 3.85562,-63.18559 0.85931,-16.95224 1.99982,-32.55599 2.53444,-34.67502 0.69478,-2.75369 0.48924,-3.40776 -0.72047,-2.29283 -2.51603,2.31892 -4.69577,24.76527 -6.43332,66.24897 -0.85207,20.34269 -2.23461,49.46969 -3.07233,64.72671 -0.83769,15.257 -2.22691,48.54502 -3.08715,73.97337 -0.86023,25.42834 -2.56486,52.47485 -3.78808,60.10336 -3.49221,21.77897 -6.05517,33.1339 -7.47873,33.1339 -0.72103,0 -0.90722,-1.90712 -0.41378,-4.23806 0.49345,-2.33093 0.2614,-6.31855 -0.51564,-8.86139 l -1.41283,-4.62334 -0.16726,5.3939 -0.16727,5.39389 -5.44235,-8.47611 -5.44232,-8.47612 0.70128,10.01723 c 0.38572,5.50947 1.12648,11.75097 1.64617,13.87 0.51967,2.11903 -0.0524,1.42552 -1.27135,-1.54111 -3.04193,-7.4035 -3.10737,-59.62978 -0.13038,-104.02506 1.94547,-29.01176 2.99502,-92.42371 1.41568,-85.53171 -0.29135,1.27142 -1.72491,16.87518 -3.18568,34.67503 -1.95264,23.79315 -2.58465,46.74936 -2.38667,86.68869 0.23198,46.79853 -0.0749,55.18553 -2.21475,60.53362 -1.36622,3.41453 -3.96104,6.97562 -5.76625,7.91354 -3.2819,1.70517 -3.28188,1.70501 0.0827,-1.97134 4.9605,-5.42017 6.65239,-11.14827 6.65239,-22.52241 0,-9.37708 -0.72138,-11.59172 -9.26346,-28.43889 -5.09492,-10.04847 -9.9136,-21.8979 -10.70822,-26.33211 -1.04902,-5.85393 -1.3073,0.80221 -0.94302,24.30116 0.4316,27.8404 0.94607,33.65053 3.68127,41.57354 4.00465,11.60035 3.353,12.66928 -1.21878,1.99917 -3.2322,-7.54365 -3.60306,-11.723 -5.16553,-58.21326 -0.92584,-27.54738 -1.65857,-60.48865 -1.62837,-73.20282 0.0311,-13.1283 -3.515691,-53.22871 0.0592,-89.91216 4.03243,-41.37946 16.07941,-78.03684 15.43801,-71.13922 -0.47292,5.08567 -10.39782,37.14803 -13.02113,71.05885 -1.79776,23.23911 -0.34396,63.07409 -0.34079,74.81318 0.004,18.55881 0.40424,21.99733 3.05958,26.35241 1.67959,2.75474 3.46854,5.00862 3.97544,5.00862 0.50692,0 0.42588,-12.36958 -0.18005,-27.48796 -0.81889,-20.43202 -0.60632,-28.98896 0.82813,-33.33535 2.36842,-7.17641 10.78861,-16.75454 16.98557,-19.32141 4.16475,-1.72509 4.61106,-2.59249 4.65217,-9.04146 0.025,-3.92331 0.68466,-25.6868 1.46587,-48.36326 l 1.42038,-41.22993 -3.67539,-3.67539 c -5.09874,-5.09875 -6.04322,-12.25184 -3.97112,-30.07546 1.02467,-8.81383 1.3213,-20.40766 0.69808,-27.28493 l -1.08367,-11.95875 -3.37041,7.60662 c -1.85372,4.18363 -5.21297,9.78611 -7.46497,12.44995 l -4.09457,4.84334 3.97953,13.65 c 5.39266,18.4971 6.31702,28.26823 3.20552,33.88459 -5.30944,8.50918 -3.07392,2.87603 -4.79834,2.44753 -0.81016,-0.81012 -7.61652,21.59297 -10.66679,35.10957 -8.661251,38.38062 -9.543081,82.58319 -4.965241,248.88957 0.40884,14.85258 0.22874,18.45418 -0.57793,11.55833 -0.64451,-5.50946 -1.62934,-36.24463 -2.18855,-68.30036 l -1.01673,-58.28314 -3.81669,-4.11614 c -4.58326,-4.94283 -4.37225,-3.0334 -4.49128,-40.64073 -0.11364,-35.88291 1.87781,-34.65212 3.64445,2.25248 0.68091,14.22452 1.58059,26.20533 1.99927,26.62401 0.41869,0.41868 1.16377,-15.72732 1.65575,-35.87999 1.15534,-47.32564 6.256811,-83.01902 15.684581,-109.74018 2.24882,-6.37384 2.21838,-6.98634 -0.49677,-9.9966 -3.46987,-3.84694 -6.33814,-11.90469 -6.572,-18.46252 -0.55316,-15.51173 -15.022051,76.02636 -17.514241,110.80475 -0.48592,6.78088 -2.31642,25.10272 -4.0678,40.71518 -2.71697,24.22042 -3.07675,34.73724 -2.45147,71.6617 0.79055,46.68417 2.13658,57.65914 10.08351,82.2177 6.10331,18.86114 17.278401,43.26026 20.169971,44.03805 2.1361,0.57459 2.12634,0.67412 -0.0816,0.83149 -3.3036,0.23545 -5.21107,-3.3767 -12.301104,-18.79377 -21.281331,-46.27559 -22.966983,-68.87807 -21.422233,-133.59753 0.49567,-20.76648 1.59552,-42.26499 2.44412,-47.77447 2.851616,-32.18921 5.272035,-64.82413 8.848565,-95.54894 1.8557,-18.19329 4.378292,-25.70868 10.391972,-51.87462 2.995211,-13.03239 5.34444,-20.61504 4.44853,-24.12684 -3.572031,-14.00152 -4.235981,-14.4864 -8.301851,-6.06274 -7.34815,15.22386 -12.956,38.19077 -27.37545,112.11588 -3.88132,19.8986 -3.76033,170.88617 0.15026,187.60798 0.9387,4.01384 5.81279,16.49685 10.83134,27.74001 9.90829,22.19774 11.72362,27.96024 13.2367,42.0177 2.37824,22.09538 4.36386,23.3889 36.393651,23.70846 15.75155,0.15715 19.66542,-0.36354 32.36334,-4.30545 z M 118.6035,764.29623 c -5.25441,-2.11647 -8.74803,-8.37438 -6.75463,-12.09911 0.90483,-1.69066 1.19036,-4.33778 0.63455,-5.88252 -1.2978,-3.60684 0.0567,-2.31811 2.50774,2.38602 1.22684,2.3546 1.30106,3.28106 0.20875,2.60599 -1.05994,-0.65509 -1.69486,0.39718 -1.69486,2.80886 0,11.23193 22.77436,11.61768 52.01252,0.88101 4.44996,-1.63409 8.09084,-2.45702 8.09084,-1.82871 0,1.16361 -1.31979,1.69698 -21.52146,8.69769 -11.84534,4.1049 -26.65768,5.18022 -33.48345,2.43077 z m 38.17435,-25.54196 c 0.074,-1.79533 0.43912,-2.16048 0.93108,-0.9311 0.4452,1.11248 0.39043,2.44171 -0.12158,2.95381 -0.51209,0.5121 -0.87634,-0.39813 -0.80941,-2.02271 z m 3.12135,-2.95381 c -0.0558,-1.69522 0.86352,-6.54972 2.04279,-10.78778 2.78546,-10.0103 2.92644,-5.63585 0.17386,5.3939 -1.16343,4.66185 -2.16092,7.08911 -2.21665,5.39388 z m -10.37481,-21.64657 c 1.27242,-9.28467 2.69639,-23.8188 3.1644,-32.29808 0.75652,-13.70687 0.50171,-15.99102 -2.29725,-20.59353 -1.73147,-2.84718 -3.36287,-4.9251 -3.62535,-4.6176 -0.26247,0.30749 -0.87644,18.24334 -1.36434,39.85743 -0.51305,22.72813 -0.31868,38.2937 0.46099,36.91568 0.74144,-1.31046 2.38913,-9.97921 3.66155,-19.2639 z m -9.72079,14.32629 c 0.001,-2.75474 0.40062,-21.52928 0.88646,-41.72122 l 0.88336,-36.71258 -3.5342,-3.762 c -1.94383,-2.0691 -4.07858,-3.21765 -4.7439,-2.55233 -0.66531,0.66531 -1.67847,17.49188 -2.25143,37.39237 l -1.04177,36.1827 4.10633,8.09084 c 2.25847,4.44996 4.46311,8.09084 4.89918,8.09084 0.43609,0 0.79426,-2.25388 0.79597,-5.00862 z m 2.54528,-11.55833 c -0.3531,-2.33095 -0.64201,-0.42382 -0.64201,4.23806 0,4.66185 0.28891,6.56898 0.64201,4.23805 0.35312,-2.33094 0.35312,-6.14519 0,-8.47611 z m 1.59037,-72.33799 c -0.25934,-12.55412 -0.47212,-2.71417 -0.47285,21.86657 -7.3e-4,24.58073 0.21144,34.85228 0.47152,22.82566 0.26007,-12.0266 0.26066,-32.13811 0.001,-44.69223 z m 36.85251,43.05686 c 0.49712,-4.44997 0.54597,-8.09084 0.1085,-8.09084 -1.80509,0 -5.97039,21.52747 -4.82416,24.93256 1.08446,3.22153 1.33432,2.96385 2.5081,-2.58643 0.717,-3.39045 1.71039,-9.80533 2.20756,-14.25529 z m -56.09914,-21.96085 c -1.14681,-29.44759 -1.23902,-30.06145 -4.58687,-30.53748 -4.20862,-0.59838 -4.351,-1.42928 -6.69678,-39.0761 -1.65029,-26.48476 -0.52614,-29.06561 0.95805,-36.21613 1.86318,-8.97644 4.6372,-11.49988 5.95414,-12.61557 -0.006,0.22704 2.63043,-0.53124 1.23653,0.24133 -9.83648,9.79151 -7.1653,38.06839 -6.47839,49.5237 0.97733,16.16004 2.39507,30.94228 3.15053,32.84941 0.79201,1.99933 2.69261,3.46749 4.48885,3.46749 2.81629,0 3.11751,-0.99831 3.13855,-10.4025 0.0117,-5.72138 1.37593,-26.31913 3.02914,-45.77275 1.65319,-19.45364 2.77005,-35.60603 2.48188,-35.89419 -0.28818,-0.28817 -2.51815,1.13508 -4.95551,3.16278 -2.43736,2.02768 -5.32172,3.25584 -5.97268,3.16622 -0.88629,-0.12201 -3.27487,2.07084 -5.3939,5.23801 -3.83856,5.73727 -3.85128,5.87647 -3.44628,37.73657 0.24137,18.98702 -0.17597,31.97808 -1.02729,31.97808 -0.78858,0 -2.85666,-1.90712 -4.59574,-4.23806 -2.98224,-3.99721 -3.16472,-4.04775 -3.21076,-0.88909 -0.0269,1.84191 2.03168,5.42944 4.57451,7.97227 5.24075,5.24077 5.68489,8.42341 2.16115,15.48692 -1.85601,3.72044 -2.32012,8.23692 -1.88515,18.34484 0.54529,12.67129 1.04125,14.32791 9.01191,30.10167 10.06371,19.91582 9.79101,20.71477 8.06411,-23.62742 z m 53.24432,15.7964 c 9.77692,-42.08978 9.40297,-35.33596 7.7864,-140.62646 l -0.55605,-36.21613 5.16954,-20.50735 5.16957,-20.50734 -2.68763,-12.62655 c -1.47819,-6.94461 -2.98516,-15.05381 -3.34884,-18.02047 -1.19981,-9.7875 -2.02789,-10.26241 -5.32194,-3.05215 -2.71133,5.93482 -2.91667,7.82389 -1.4615,13.44565 4.79493,18.52419 2.83272,59.97171 -5.92835,125.22436 -2.42268,18.04406 -3.0296,32.13701 -3.15252,73.2028 -0.0837,27.9712 -0.11732,51.37682 -0.0747,52.01253 0.23733,3.53911 1.61658,-0.3203 4.40602,-12.32889 z m -6.10818,-95.93422 c 0.94232,-8.05231 3.20556,-27.47031 5.02942,-43.15113 3.4811,-29.92881 4.61458,-86.68493 1.92885,-96.58185 -1.30804,-4.82009 -1.3715,-4.84854 -4.72618,-2.11903 -4.03381,3.28211 -5.60613,16.50586 -8.16248,68.6492 -0.87265,17.79985 -2.27734,42.76586 -3.12154,55.48003 -0.8442,12.71417 -2.16389,40.68683 -2.93265,62.16146 l -1.39771,39.04477 4.88402,6.93681 4.88403,6.93682 0.95048,-41.35826 c 0.52277,-22.74705 1.72147,-47.9465 2.66376,-55.99882 z m 13.62977,77.44088 c -0.38763,-1.48332 -0.70479,-0.26969 -0.70479,2.69694 0,2.96664 0.31716,4.18027 0.70479,2.69695 0.38762,-1.48333 0.38762,-3.91058 0,-5.39389 z M 154.13399,630.2343 c 0.53229,-16.52842 1.65124,-42.5347 2.48655,-57.7917 0.83529,-15.257 2.22179,-42.85254 3.08107,-61.32343 1.78378,-38.34305 4.03413,-60.89541 6.35545,-63.69242 1.11568,-1.34433 1.04511,-2.96714 -0.23285,-5.35506 -2.70948,-5.06268 -0.74253,-17.10681 4.02783,-24.66355 l 4.11903,-6.52494 -2.493,-11.34553 c -1.37114,-6.24004 -2.49299,-16.80425 -2.49299,-23.476 l 0,-12.13044 -8.68605,-7.93856 c -7.82697,-7.15341 -9.29755,-7.89269 -14.86896,-7.47491 -5.0124,0.37585 -7.06772,1.55987 -10.85667,6.25431 -4.11858,5.10283 -4.39118,6.01812 -2.29484,7.70556 4.76531,3.83576 11.97638,65.80559 8.61189,74.00798 -0.61884,1.50869 -1.42437,18.15269 -1.79005,36.98669 -0.36569,18.83397 -1.18638,40.13836 -1.82374,47.34306 -1.07128,12.10987 -0.96515,12.93967 1.40479,10.98437 1.66338,-1.37238 2.61756,-4.61938 2.71724,-9.24667 0.12641,-5.86819 0.3722,-6.44905 1.38748,-3.27882 2.25082,7.02821 1.58611,10.62928 -2.90654,15.74613 l -4.44765,5.0656 -0.56096,50.43803 -0.56096,50.43803 3.4675,2.42908 3.4675,2.42908 0.0366,-17.4249 c 0.0545,-25.94848 10.08174,-142.08422 12.15651,-140.79463 0.49854,0.30989 0.69912,-9.69752 0.44574,-22.23868 -0.4104,-20.31235 -0.78902,-23.09927 -3.4675,-25.52326 -2.79396,-2.5285 -3.00442,-4.91332 -2.97295,-33.68978 0.0298,-27.25317 0.39052,-31.75447 3.00687,-37.51838 2.09122,-4.60706 3.90958,-6.54973 6.13061,-6.54973 3.59672,0 3.66965,0.71843 1.6425,16.18168 -0.88475,6.74897 -0.84652,16.26903 0.10219,25.42834 1.94695,18.7982 2.02528,35.1398 0.1796,37.46936 -0.797,1.00594 -1.84517,18.81975 -2.32928,39.58623 -0.48412,20.7665 -1.93381,48.15975 -3.22153,60.87393 -2.2402,22.11821 -4.2412,50.586 -6.41226,91.22623 -0.95001,17.78296 -0.82029,19.05202 2.41153,23.59068 1.87856,2.63821 3.5949,4.58341 3.8141,4.32271 0.21921,-0.26071 0.83407,-13.99727 1.36637,-30.52569 z m -45.36514,7.07099 c 2.31673,-2.7915 1.09359,-7.24685 -3.0087,-10.95937 -2.99723,-2.71247 -3.04268,-2.61724 -3.02949,6.34647 0.007,5.00515 0.50807,12.9145 1.11268,17.57636 l 1.09927,8.47612 0.9588,-9.56993 c 0.52736,-5.26344 1.8177,-10.60479 2.86744,-11.86965 z m 84.02022,13.5527 c 4.59822,-1.76449 6.11945,-7.44182 7.17789,-26.78815 0.57966,-10.59513 1.90459,-30.35989 2.94426,-43.92167 1.08435,-14.14439 0.50908,-36.18134 0.01,-50.32573 -0.87829,-24.88241 -2.81245,-49.076 -4.84091,-49.076 -1.56124,0 -3.92989,12.10679 -5.8795,30.05169 -1.30406,12.00305 -3.2723,141.01633 -2.1513,141.0126 0.14257,-4.7e-4 1.37548,-0.4292 2.73975,-0.95274 z M 150.59619,546.2437 c 1.79638,-19.49506 3.0279,-37.52607 2.73668,-40.06891 -0.86238,-7.53035 -7.95002,72.22097 -8.35464,94.00783 l -0.37205,20.03445 1.36192,-19.2639 c 0.74906,-10.59514 2.83171,-35.2144 4.62809,-54.70947 z m -57.744771,54.39367 c -1.30394,-2.79296 -3.05503,-9.58584 -3.89133,-15.09532 l -1.52051,-10.01723 0.55073,12.6066 c 0.40271,9.21783 1.31684,13.63279 3.40078,16.42431 3.66813,4.91356 4.51848,2.6319 1.46033,-3.91836 z M 194.15323,486.91089 c 2.19906,-9.74753 4.71762,-20.14545 5.59675,-23.10651 0.87914,-2.96104 1.55604,-6.42855 1.50419,-7.70555 -0.22295,-5.4929 -10.87216,34.40797 -12.9902,48.67224 -2.51298,16.92408 -3.02142,42.02995 -1.17083,57.81352 0.90178,7.69128 1.36528,2.40605 2.10879,-24.04644 0.80381,-28.59852 1.57868,-36.67805 4.9513,-51.62726 z m -56.99309,-9.24667 c 0.52329,-20.87293 0.36039,-30.99446 -0.40924,-25.42835 -0.70321,5.08568 -1.59497,25.54393 -1.98169,45.4628 -0.38675,19.91888 -0.20259,31.36163 0.40922,25.42836 0.61182,-5.93328 1.50359,-26.39155 1.98171,-45.46281 z m 17.47616,14.25529 c -0.38764,-1.48332 -0.70481,-0.26969 -0.70481,2.69695 0,2.96663 0.31717,4.18026 0.70481,2.69694 0.38761,-1.48331 0.38761,-3.91057 0,-5.39389 z m 28.33257,-33.51919 -1.52257,-10.78778 0.69345,10.78778 c 0.38137,5.93328 0.83614,15.64229 1.01059,21.57557 l 0.31716,10.78779 0.51197,-10.78779 c 0.28155,-5.93328 -0.17321,-15.64229 -1.0106,-21.57557 z m 17.53152,-12.71417 c 0.85841,-3.93384 0.59013,-5.00862 -1.25024,-5.00862 -3.57373,0 -4.42505,2.56383 -3.21707,9.68852 1.17699,6.94202 2.15481,5.9177 4.46731,-4.6799 z M 180.6603,429.01247 c 9.49595,-16.98033 19.4108,-48.89445 16.60209,-53.43907 -0.53084,-0.85888 -3.13674,3.9049 -5.7909,10.58622 -2.65417,6.68132 -8.77332,18.04024 -13.59813,25.24205 -9.34438,13.94801 -12.51615,24.13401 -8.87944,28.51595 2.66708,3.21365 4.97952,1.05208 11.66638,-10.90515 z m -62.81895,3.47388 c 0.26596,-3.21966 -1.27603,-12.92289 -3.42662,-21.56276 -2.15056,-8.63986 -4.60112,-20.98334 -5.44566,-27.42995 -2.30005,-17.55679 -5.36255,-23.88648 -9.275731,-19.1714 -3.1026,3.73841 -2.36006,17.80271 1.368951,25.92853 2.29478,5.00054 3.79792,12.4218 4.68218,23.11668 0.71629,8.66347 1.82285,17.13875 2.45903,18.83397 3.37261,8.98704 8.90556,9.15062 9.63785,0.28493 z m 39.20902,0.10028 c 0.39486,-3.60235 0.0463,-12.79123 -0.77474,-20.41974 -1.45094,-13.48239 -0.75478,-38.06776 1.27638,-45.07752 1.39576,-4.81686 -1.49098,-4.36161 -4.88604,0.77056 -2.51148,3.79646 -2.76406,7.44964 -2.42419,35.06029 0.20868,16.95223 0.74377,32.03586 1.18909,33.51918 1.55031,5.16387 4.88151,2.87994 5.6195,-3.85277 z m 45.64418,0.59401 c 6.00296,-6.42618 9.8872,-20.14802 10.67306,-37.70469 0.76241,-17.03208 -1.66105,-23.83026 -3.35553,-9.41287 -0.62628,5.32868 -4.02322,15.49588 -8.6984,26.03461 -4.21894,9.51034 -7.67082,19.1379 -7.67082,21.39454 0,5.48053 3.76202,5.35103 9.05169,-0.31159 z m -63.66776,-4.14723 c 1.13834,-7.59088 0.89844,-10.65994 -3.33596,-42.68014 -1.54122,-11.65465 -3.34928,-21.19029 -4.01789,-21.19029 -1.50206,0 -1.31785,-3.18956 -1.86915,32.36336 -0.36163,23.32036 0.0132,31.00095 1.67443,34.28973 3.26694,6.46852 6.33064,5.33915 7.54857,-2.78266 z m 40.63357,-36.03966 c -0.14779,-13.27655 -2.00662,-25.94296 -4.11694,-28.05329 -2.98292,-2.98292 -3.95634,11.46173 -1.90237,28.22908 1.70031,13.88013 2.1647,15.3575 4.02688,12.81082 1.30687,-1.78725 2.06228,-6.71094 1.99243,-12.98661 z M 124.5464,367.84707 c 7.0326,-14.46761 12.1639,-20.61346 18.34387,-21.97082 4.66014,-1.02354 12.15737,2.0608 18.00396,7.40679 4.23827,3.87534 4.36661,2.71725 0.52625,-4.74838 -4.45054,-8.65178 -12.24592,-18.81721 -14.43,-18.81721 -1.06745,0 -10.05457,8.14862 -19.97138,18.10805 l -18.03054,18.10806 1.67026,11.1488 1.67027,11.14878 3.02164,-3.8414 c 1.66192,-2.11277 5.79996,-9.55698 9.19567,-16.54267 z"
             id="reproduction_outline"
             inkscape:connector-curvature="0"
             sodipodi:nodetypes="sssssssssssssssscsssssssscsssssccssssssssssssscsscssssscsscsscscssscsssssssscccccssssssssssssssssssssscssssscscssscsscsccsssscssscssssssssssssccsssssssscscsssssssscscccsssssssscssssscssscssssssscssscssssscscccssscscsssssscssssccscccssssssccscsssssscccsccsccsssssscsscssssssssssscccccscssssssssssssccscssscscsssssscsssscsssscsssssssssssssssssssscsscssssssscssssssssssssssssssscsssscsssscsssssssssssscccss"
             inkscape:label="reproduction_outline" />
          <g
             id="seed_outline"
             inkscape:label="seed_outline">
            <path
               sodipodi:nodetypes="ssssssssssssssssscsssssssssss"
               inkscape:connector-curvature="0"
               id="path3050"
               d="m 528.80765,887.72362 c -5.44724,-1.55708 -9.25153,-5.50858 -13.61075,-10.15911 -7.80129,-8.32256 -7.92362,-9.35571 -7.7813,-65.7176 0.26161,-103.65712 14.70755,-182.32131 38.10498,-207.4996 10.58045,-11.38578 33.39293,-26.43537 40.13784,-26.47929 8.18094,-0.0532 35.56574,30.67101 45.01184,50.50088 13.50163,28.34349 18.61416,108.93264 9.6072,151.43844 -6.0946,28.76155 -18.04163,50.22603 -43.85682,78.79481 -11.07295,12.25405 -24.47806,20.72682 -29.4781,28.54072 -1.28421,2.00691 -5.41659,1.78463 -7.09078,1.58826 -2.56688,-0.30108 -5.12735,-4.12476 -7.51488,-3.89026 -2.21708,0.21777 -5.07823,4.43835 -7.15004,4.08058 -3.17085,-0.54756 -6.1659,-2.96745 -8.96778,-4.76621 -1.97981,-1.27101 -5.02446,4.25069 -7.41141,3.56838 z m 57.85345,-26.96968 c 47.74594,-49.00658 58.92513,-90.04635 48.71655,-178.84297 -4.70181,-40.89756 -10.97775,-56.27125 -32.17993,-78.82841 l -18.44016,-19.61864 -16.61673,11.93791 c -27.08846,19.46113 -35.78618,39.12581 -46.39595,104.89663 -3.9668,24.59064 -7.45341,65.86584 -8.61192,101.94911 -1.72583,53.75402 -1.31998,61.58632 3.57876,69.06274 3.62271,5.52895 7.01767,9.97873 11.92684,11.95668 2.0455,0.82415 4.87711,-2.7843 7.61818,-2.65644 2.81365,0.13124 5.56065,3.98847 9.52307,4.05174 2.271,0.0363 4.35998,-4.2414 6.36295,-3.90834 2.85457,0.47466 6.98356,5.09817 10.33236,4.03021 2.85104,-0.90922 5.58737,-3.96322 9.10129,-7.82311 3.95534,-4.34476 8.84821,-9.80597 15.08469,-16.20711 z"
               style="fill:#a0a1a2;fill-opacity:1" />
            <path
               sodipodi:nodetypes="ccccccccc"
               inkscape:connector-curvature="0"
               id="path4061"
               d="m 537.14286,876.6479 c -7.85715,-16.42857 -7.50001,-34.64286 -7.50001,-34.64286 -0.71428,-7.5 1.78572,-14.28571 1.78572,-14.28571 2.5,-26.42858 16.78571,-168.57143 16.78571,-168.57143 2.85715,-29.64286 33.21429,-66.42858 33.21429,-66.42858 -8.33261,16.94297 -18.11968,40.95671 -22.85297,51.58943 -8.0133,50.2651 -11.40724,102.40463 -16.78989,153.41058 C 538.57143,827.00504 535,834.86218 535,834.86218 c -3.92857,28.57143 2.14286,41.78572 2.14286,41.78572 z"
               style="color:#000000;display:inline;overflow:visible;visibility:visible;fill:#a0a1a2;fill-opacity:1;stroke:none;stroke-width:0.1;marker:none;enable-background:accumulate" />
            <path
               style="color:#000000;display:inline;overflow:visible;visibility:visible;fill:#a0a1a2;fill-opacity:1;stroke:none;stroke-width:0.1;marker:none;enable-background:accumulate"
               d="m 555.01697,878.56593 c 10.13437,-13.00152 14.64263,-27.96348 20.12947,-43.89492 4.73276,-19.71561 20.9372,-84.04582 22.9343,-182.67735 -0.76896,-30.59863 -10.30236,-58.62005 -10.30236,-58.62005 1.09988,17.3102 2.50086,37.25653 2.58216,53.32357 -0.73254,57.16961 -6.66576,95.84046 -14.31914,148.16349 -4.87424,28.18796 -9.55091,45.96851 -9.55091,45.96851 -5.80347,27.29522 -11.47352,37.73675 -11.47352,37.73675 z"
               id="path4063"
               inkscape:connector-curvature="0"
               sodipodi:nodetypes="cccccccc" />
          </g>
          <!-- seed_outline -->
        </g>
        <!-- outlines_group -->
      </g>
      <!-- g3909 -->
    </g>
    <!-- lines -->
    <g
       inkscape:groupmode="layer"
       id="LAYER_EFO"
       inkscape:label="LAYER_EFO"
       style="display:inline">
      <path
         style="fill:none;stroke:none"
         d="m 108.63802,83.881629 c -4.36005,2.595272 -7.00723,5.527928 -7.00723,5.527928 l -0.72667,0.830487 c -2.283841,2.802892 -3.944814,9.550596 -3.944814,9.550596 -2.802892,12.56111 -3.425758,31.97373 -3.425758,31.97373 0.10381,12.04206 0.519054,10.58871 0.519054,10.58871 l 0.934298,1.34954 1.14192,1.24573 c 1.141917,1.34954 2.180026,0.20762 2.180026,0.20762 l 0.726675,-0.20762 c 1.141919,1.45335 2.076219,0.62286 2.076219,0.62286 0.93429,-1.24573 1.45335,-0.10381 1.45335,-0.10381 1.34954,1.45335 2.59527,-0.62286 2.59527,-0.62286 l 0,0 1.45335,-1.45336 c 11.33535,-10.37064 12.39649,-19.82786 12.39649,-19.82786 1.29761,-6.02088 1.6037,-24.798737 -3.75393,-32.166336 -2.58606,-3.660493 -6.61825,-7.515355 -6.61825,-7.515355 z"
         id="PO_0009010"
         inkscape:connector-curvature="0"
         sodipodi:nodetypes="cccccccccccccccccc"
         inkscape:label="seed">
        <title
           id="title3357">seed</title>
      </path>
      <g
         id="PO_0009066"
         inkscape:label="anther"
         style="fill:none"
         transform="matrix(0.20553494,0,0,0.20553494,3.5668931e-7,6.9950238)">
        <title
           id="title3359">anther</title>
        <path
           sodipodi:nodetypes="ccccccccccccccc"
           inkscape:connector-curvature="0"
           id="path3759"
           d="m 43.125,155.31361 c 2.053572,-2.23215 3.214286,-1.60715 3.214286,-1.60715 2.095041,0.89286 3.251269,4.91072 3.251269,4.91072 1.080403,2.60089 2.105874,9.28571 2.105874,9.28571 1.480874,8.92486 2.563135,16.04527 2.563135,16.04527 1.696428,8.125 3.686865,16.6333 3.686865,16.6333 2.053571,8.57143 2.80484,13.75 2.80484,13.75 2.053572,11.69643 -0.394126,13.75 -0.394126,13.75 -1.517857,2.5 -2.857143,1.78572 -2.857143,1.78572 -3.928571,-0.80357 -5.803571,-7.41072 -5.803571,-7.41072 -1.071429,-2.5 -1.607143,-11.07143 -1.607143,-11.07143 -1.160714,-16.60714 -2.5,-21.33928 -2.5,-21.33928 -0.982143,-4.28572 -2.142857,-7.5 -2.142857,-7.5 -3.072698,-6.58099 -3.482143,-11.96429 -3.482143,-11.96429 C 40.372462,158.44309 43.125,155.31361 43.125,155.31361 Z"
           style="fill:none;stroke:none" />
        <path
           sodipodi:nodetypes="cccccc"
           inkscape:connector-curvature="0"
           id="path3761"
           d="m 74.017857,160.40289 c 0.08929,-6.875 1.607143,-3.92857 1.607143,-3.92857 2.971736,8.21428 8.681766,51.25 7.589286,60.26786 -1.339285,15.53571 -6.517857,8.48214 -6.517857,8.48214 -5.553603,-7.95239 -3.618782,-23.4384 -3.035715,-38.75 -0.08929,-14.46429 0.357143,-26.07143 0.357143,-26.07143 z"
           style="fill:none;stroke:none" />
        <path
           sodipodi:nodetypes="cccccccc"
           inkscape:connector-curvature="0"
           id="path3763"
           d="m 94.642857,162.90289 c 0.446429,-5.26786 5.267858,-8.21428 5.267858,-8.21428 1.874995,-1.16072 1.696425,1.60714 1.696425,1.60714 -1.33928,5.89286 -1.696425,9.73214 -1.696425,9.73214 -1.339485,12.50013 0.251685,42.00483 0.803575,44.19643 1.33928,24.375 -4.107147,19.46429 -4.107147,19.46429 -2.748646,-0.53855 -2.363902,-17.55721 -2.678571,-46.16072 -0.446429,-17.23214 0.714285,-20.625 0.714285,-20.625 z"
           style="fill:none;stroke:none" />
        <path
           sodipodi:nodetypes="ccccccc"
           inkscape:connector-curvature="0"
           id="path3765"
           d="m 119.46429,156.02789 c 5.625,9.82143 4.37669,35.00001 2.67857,39.28572 -2.05357,4.91071 -2.85715,1.16071 -2.85715,1.16071 -5.17857,-25.17857 -2.58928,-38.03571 -2.58928,-38.03571 l 0,0 0.44643,-1.51786 c 0.98214,-2.67857 2.32143,-0.89286 2.32143,-0.89286 z"
           style="fill:none;stroke:none" />
        <path
           sodipodi:nodetypes="cccccccccccc"
           inkscape:connector-curvature="0"
           id="path3767"
           d="m 140.80357,166.29575 c 1.60714,1.42857 -0.17857,9.64286 -0.17857,9.64286 -4.64286,21.07142 -10.26786,31.42857 -10.26786,31.42857 -4.375,10.08928 -6.16071,12.85714 -6.16071,12.85714 -4.64286,8.48215 -6.42857,10 -6.42857,10 -2.85715,3.39286 -4.82143,0.98214 -4.82143,0.98214 -3.39286,-4.28571 -0.80357,-10.625 -0.80357,-10.625 2.58928,-8.57143 6.51785,-13.92857 6.51785,-13.92857 3.57143,-5.08928 6.33929,-9.73214 6.33929,-9.73214 5.80357,-9.91071 7.85714,-14.55357 7.85714,-14.55357 3.57143,-8.39286 4.82143,-11.07143 4.82143,-11.07143 2.14286,-4.82143 3.125,-5 3.125,-5 z"
           style="fill:none;stroke:none" />
        <path
           sodipodi:nodetypes="cccccccccc"
           inkscape:connector-curvature="0"
           id="path3769"
           d="m 156.07143,169.42075 c 1.78571,3.125 1.07143,18.125 1.07143,18.125 -0.98215,16.60714 -4.375,25 -4.375,25 -3.83929,10.53572 -8.125,13.21428 -8.125,13.21428 -4.01786,3.83929 -5.26786,2.5 -5.26786,2.5 -4.46429,-1.25 -0.35714,-10.26785 -0.35714,-10.26785 3.92857,-10.71429 6.16071,-15.26786 6.16071,-15.26786 7.85714,-19.46429 7.85714,-22.58929 7.85714,-22.58929 0.80358,-4.19642 0.89286,-5.44642 0.89286,-5.44642 1.16071,-7.58929 2.14286,-5.26786 2.14286,-5.26786 z"
           style="fill:none;stroke:none" />
      </g>
      <path
         style="fill:none;stroke:none"
         d="m 64.229668,56.497973 c -1.027675,0 -0.513837,1.174487 -0.513837,1.174487 0.102247,0.565478 2.795371,10.468511 3.523456,9.983125 0.587242,0 0.587242,-1.468107 0.587242,-1.468107 0.587244,-2.128756 2.624242,-2.972915 2.624242,-2.972915 2.275565,-0.146811 1.119431,-3.266538 1.119431,-3.266538 -1.669971,-5.211778 -7.340534,-3.450052 -7.340534,-3.450052 z"
         id="PO_0009009"
         inkscape:connector-curvature="0"
         sodipodi:nodetypes="ccccccc"
         inkscape:label="plant_embryo">
        <title
           id="title3363">plant_embryo</title>
      </path>
      <path
         style="fill:none;stroke:none"
         d="m 62.234588,31.742647 c 3.477661,-4.308149 9.446784,-3.010513 9.446784,-3.010513 4.515769,0.467148 10.329177,1.34954 10.329177,1.34954 0.934296,0.05191 0.519054,2.180027 0.519054,2.180027 -1.244582,20.043526 -6.671757,36.294456 -6.79961,35.399489 0.24009,-3.4971 -1.961913,-3.934316 -2.595271,-4.360053 -0.778581,-0.259527 -0.726675,-3.166231 -0.726675,-3.166231 -1.45335,-4.389638 -6.124838,-5.020812 -7.474379,-5.242446 -2.176777,0.23914 -2.048484,-2.542348 -2.128121,-3.010513 -1.193825,-15.986867 -0.570959,-20.1393 -0.570959,-20.1393 z"
         id="PO_0009089"
         inkscape:connector-curvature="0"
         sodipodi:nodetypes="cccccccccc"
         inkscape:label="endosperm">
        <title
           id="title3365">endosperm</title>
      </path>
      <path
         style="fill:none;stroke:none"
         d="m 17.47047,115.9563 c -7.5607494,-14.97469 -6.900101,-14.75448 -6.900101,-14.75448 -1.0276751,-5.064967 0.734053,-6.606479 0.734053,-6.606479 0,-1.174484 -1.5415122,-2.569186 -1.5415122,-2.569186 C 6.3862645,92.172966 5.2117791,90.631454 5.2117791,90.631454 3.7436725,86.887781 4.4777257,81.602598 4.4777257,81.602598 c 0.2202161,-7.780964 1.3947015,-8.882046 1.3947015,-8.882046 1.8351333,-1.247891 3.3032399,-0.293621 3.3032399,-0.293621 0.8808639,2.055349 0.440432,5.064969 0.440432,5.064969 1.7617279,-4.771348 3.6702669,-4.918157 3.6702669,-4.918157 2.128755,-2.202161 2.936213,-4.551132 2.936213,-4.551132 1.981944,-2.495782 3.596862,-0.0734 3.596862,-0.0734 1.174486,4.918157 0.14681,6.75329 0.14681,6.75329 -1.541512,1.835133 -4.624536,3.596861 -4.624536,3.596861 -1.981944,0.734054 -1.10108,10.129935 -1.10108,10.129935 -0.293621,2.642594 -1.614917,3.303241 -1.614917,3.303241 0,2.275565 0.587242,2.715998 0.587242,2.715998 3.817078,1.468107 6.019238,4.697941 6.019238,4.697941 3.670266,3.376643 5.431995,10.937393 5.431995,10.937393 l 0,0 0,1.24789 c -1.835133,5.21178 -7.193723,4.62454 -7.193723,4.62454 z"
         id="PO_0009030"
         inkscape:connector-curvature="0"
         sodipodi:nodetypes="cccccccccccccccccccccc"
         inkscape:label="carpel">
        <title
           id="title3361">carpel</title>
      </path>
    </g>
    <!-- LAYER_EFO -->
  </g>
  <!-- group_all -->
  <a
     id="ccLogo"
     xlink:href="https://www.ebi.ac.uk/gxa/licence.html">
    <image
       xlink:href="https://licensebuttons.net/i/l/by/ffffff/33/99/33/80x15.png"
       x="55"
       y="0"
       height="15"
       width="80"
       id="image29" />
  </a>
</svg>
