<?xml version="1.0" encoding="UTF-8" standalone="no"?>
<!-- Generator: Adobe Illustrator 18.1.1, SVG Export Plug-In . SVG Version: 6.00 Build 0)  -->

<svg xmlns:xlink="http://www.w3.org/1999/xlink"
   xmlns:dc="http://purl.org/dc/elements/1.1/"
   xmlns:cc="http://creativecommons.org/ns#"
   xmlns:rdf="http://www.w3.org/1999/02/22-rdf-syntax-ns#"
   xmlns:svg="http://www.w3.org/2000/svg"
   xmlns="http://www.w3.org/2000/svg"
   xmlns:sodipodi="http://sodipodi.sourceforge.net/DTD/sodipodi-0.dtd"
   xmlns:inkscape="http://www.inkscape.org/namespaces/inkscape"
   version="1.1"
   id="Layer_1"
   x="0px"
   y="0px"
   enable-background="new 0 0 1417.3 1275.6"
   xml:space="preserve"
   inkscape:version="0.91 r13725"
   sodipodi:docname="mouse_brain.svg"
   width="142.0164"
   height="81.638588"><metadata
     id="metadata16266"><rdf:RDF><cc:Work
         rdf:about=""><dc:format>image/svg+xml</dc:format><dc:type
           rdf:resource="http://purl.org/dc/dcmitype/StillImage" /><dc:title /></cc:Work></rdf:RDF></metadata><defs
     id="defs16264" /><sodipodi:namedview
     pagecolor="#ffffff"
     bordercolor="#666666"
     borderopacity="1"
     objecttolerance="10"
     gridtolerance="10"
     guidetolerance="10"
     inkscape:pageopacity="0"
     inkscape:pageshadow="2"
     inkscape:window-width="1578"
     inkscape:window-height="1012"
     id="namedview16262"
     showgrid="false"
     inkscape:zoom="3.6203867"
     inkscape:cx="75.884764"
     inkscape:cy="-8.0299331"
     inkscape:window-x="920"
     inkscape:window-y="154"
     inkscape:window-maximized="0"
     inkscape:current-layer="LAYER_EFO"
     fit-margin-top="0"
     fit-margin-left="0"
     fit-margin-right="0"
     fit-margin-bottom="0" /><g
     id="group_all"
     transform="translate(-0.77529918,-36.971726)"><!-- lines layer start --><g
       inkscape:groupmode="layer"
       id="lines"
       inkscape:label="lines"
       style="display:inline"><!-- brain outline start --><g
         style="display:inline"
         id="mouse_brain_outline"
         inkscape:label="#g4301"
         transform="matrix(0.16467934,0,0,0.16467934,-34.992607,-109.1881)"><path
           inkscape:connector-curvature="0"
           id="path16294"
           d="m 667.59847,887.54197 -23.11132,2.83789 -0.39258,0.0898 c 0,0 -3.10859,0.70669 -6.89649,1.78321 -3.7879,1.07652 -8.1255,2.34998 -11.98047,4.41796 -2.74952,1.47498 -4.73732,3.21307 -6.5332,4.75 -1.11001,0.94997 -1.40146,1.24285 -1.96875,1.76758 -0.60055,0.25505 -1.20327,0.52861 -2.73828,1.08789 -2.12415,0.77395 -4.96021,1.46804 -5.21289,1.48829 -1.12585,0.0902 -4.93551,-1.78464 -11.74609,-1.84571 -9.31985,-0.0836 -22.94141,2.87891 -22.94141,2.87891 l -41.50195,8.13281 -36.77149,4.47852 -47.68555,2.26171 -0.0234,0.002 c 0,0 -22.49992,1.04442 -34.06836,3.32226 -9.45355,1.86142 -22.85938,7.74024 -22.85938,7.74024 l -0.63867,0.26562 -0.58398,0.375 c 0,0 -2.47813,1.58687 -5.39453,3.73047 -2.91641,2.1436 -6.22931,4.57541 -8.9668,8.00195 -2.54344,3.18366 -3.55053,6.33665 -4.37305,8.60157 -0.82252,2.26492 -1.46232,3.64332 -1.87304,4.16211 -0.14008,0.17692 -2.16899,2.06373 -3.88086,3.34765 -0.63925,0.47944 -0.67377,0.47877 -1.17579,0.83203 l -4.42187,-0.16992 -9.33203,-3.29687 -17.52344,-5.73828 -18.14062,-1.69532 -13.86133,2.05469 -14.48242,3.95117 -13.3379,6.38282 -14.39453,1.51171 -18.12109,7.94532 -0.37305,0.21484 c 0,0 -2.74006,1.57274 -5.93554,3.77539 -3.19549,2.20266 -6.86478,4.7046 -9.82422,8.71485 -2.36995,3.21143 -3.33557,6.21292 -4.32422,8.95902 -0.98865,2.7461 -1.65235,5.0546 -1.65235,5.0546 l -0.0391,0.1368 -0.0352,0.1367 -0.29688,1.18745 -0.002,0.01 c 0,0 -0.35796,1.4375 -0.62305,3.2441 -0.26509,1.8067 -0.61691,3.9809 -0.0859,7.0274 1.04742,6.0094 3.86187,8.4872 3.95508,8.7324 0.28988,0.7626 0.57881,2.551 1.00586,5.0801 0.42705,2.5291 1.04979,5.9985 3.50586,9.4414 3.10013,4.3458 7.14233,5.9627 9.70508,7.1621 2.56275,1.1994 3.69132,2.0222 3.7832,2.1426 0.52704,0.6926 0.82922,4.7384 3.4336,10.9824 2.70045,6.4744 8.30273,17.0156 8.30273,17.0156 l 0.46484,0.8848 16.07813,17.7656 9.64062,8.5254 15.89258,10.5215 9.81445,5.2265 14.14649,6.1192 16.53125,7.5176 17.99023,4.8437 26.25,3.7051 17.6543,2.582 14.39453,6.0645 18.3711,6.5371 8.91601,12.1641 8.84766,16.2968 9.02539,12.9297 12.38086,19.9102 9.95508,15.2773 1.60546,0.9434 c 0,0 2.84894,1.6781 6.48829,3.3965 3.63934,1.7183 7.71197,3.7476 13.08007,4.0507 4.80736,0.2716 8.2642,-1.0661 11.39454,-2.1347 2.10512,-0.7187 2.81243,-1.059 3.77343,-1.4649 0.66087,-0.01 1.31466,-0.036 2.89844,0.08 2.20917,0.1614 4.92777,1.0651 4.22852,0.6641 -0.26559,-0.1523 0.27544,0.2385 1.29882,1.957 1.02339,1.7185 2.36659,4.584 5.56446,7.2578 3.4038,2.846 7.33801,4.8063 10.79101,6.5039 3.45301,1.6976 6.33008,2.9063 6.33008,2.9063 l 0.54102,0.2285 18.97265,4.8535 21.44141,1.9082 29.74805,0 0.0547,0 c 0,0 3.8348,-0.049 8.48243,-0.4571 4.64762,-0.4076 9.87172,-0.8421 14.92382,-3.039 1.85098,-0.805 3.12366,-1.2183 5.00977,-3.0664 0.16618,-0.1629 0.33499,-0.4525 0.50781,-0.6583 0.3773,0.1671 0.51734,0.1987 0.94141,0.3985 1.40254,0.6606 2.98983,1.4548 4.83203,2.1543 1.8422,0.6994 3.8486,1.7834 7.78906,0.9512 -2.23582,0.4722 0.20144,0.1357 2.63086,0.7617 2.42942,0.626 5.62342,1.6274 8.90234,2.6465 3.27893,1.0191 6.63812,2.0583 9.78516,2.8007 2.37513,0.5604 4.23586,1.4102 7.16797,1.0997 0.10792,0.042 0.23207,0.1497 0.33594,0.1835 2.95084,0.9605 4.06989,0.3286 4.96093,0.096 l 0.31836,0.752 5.97266,-0.7793 c 0,0 3.38419,-0.4413 7.25,-0.8379 2.90246,-0.2977 5.15183,-0.3696 6.82617,-0.4394 0.15489,0.1951 0.19547,0.2308 0.36524,0.4492 1.44844,1.8633 2.92143,4.3965 6.52929,6.7929 1.80393,1.1983 5.06122,2.6465 8.8125,1.5606 3.75129,-1.086 5.84903,-4.0547 6.93164,-6.4512 2.00702,-4.4428 2.50629,-9.641 2.76368,-17.6191 0.65042,-0.2543 1.32575,-0.4375 3.27343,-1.625 6.80944,-4.1518 9.65557,-5.7943 10.85938,-6.4961 l 17.36328,0.8066 24.19141,0 21.56054,0 9.95117,1.6973 20.07813,3.7363 0.58594,0.021 c 0,0 2.62865,0.096 5.86718,0.02 3.23854,-0.076 6.90351,-0.1527 10.74414,-1.2089 4.61988,-1.2706 7.79472,-3.6489 10.26758,-5.3028 2.47287,-1.6539 4.17985,-2.5542 5.18946,-2.7558 1.67732,-0.3351 7.31012,-0.1737 11.80664,0.4257 4.49651,0.5995 8.10156,1.3711 8.10156,1.3711 0.0104,0 1.77021,0.3878 3.86914,1.0567 1.81163,0.5773 3.30258,1.4178 3.56641,1.4765 0.14858,0.5837 0.22461,1.0918 0.22461,1.0918 l 0.006,0.051 2.02929,16.5899 0.41406,0.998 c 0,0 4.4752,11.0822 7.88477,17.1465 4.1388,7.3614 12.76953,17.459 12.76953,17.459 l 0.13867,0.1679 15.67383,17.0079 18.13281,18.9375 0.19727,0.1816 c 0,0 16.10506,14.6947 22.83203,20.8437 7.5292,6.8825 20.67579,16.8965 20.67579,16.8965 l 0.289,0.2207 20.0821,12.6387 1.7812,0.207 c 0,0 4.8375,0.563 10.1348,1.127 5.2973,0.564 10.1237,1.1621 13.5605,1.1621 5.0069,0 6.7451,-2.2387 8.4551,-3.7949 1.7101,-1.5563 3.0938,-3.2131 4.336,-4.8086 2.4843,-3.1911 4.3632,-6.252 4.3632,-6.252 l 0.029,-0.045 0.027,-0.047 c 0,0 1.2912,-2.1446 2.5918,-4.8398 1.3007,-2.6952 3.0371,-5.2958 3.0371,-10.3789 0,-3.6336 -0.023,-5.9959 0.8301,-12.9629 0.2622,-2.1416 1.2858,-7.1146 2.2305,-12.0625 0.9447,-4.9479 1.9192,-9.6784 1.7988,-14.3047 -0.1457,-5.5976 -1.1816,-11.0957 -1.1816,-11.0957 l -0.1153,-0.6445 -0.2207,-0.6172 c 0,0 -0.9296,-2.6041 -2.2304,-5.707 -1.3009,-3.103 -2.6964,-6.5298 -5.0879,-9.7579 l 0,0 c -4.1164,-5.5563 -12.1836,-15.5039 -12.1836,-15.5039 l -0.1289,-0.1582 -16.0625,-17.8711 c -0.3045,-0.4053 -7.6524,-10.179 -12.4922,-14.9609 -8.0799,-7.9831 -20.0529,-22.2932 -20.1328,-22.3887 l -20.61524,-26.2968 -15.79297,-22.9434 -13.15234,-17.4688 -11.52149,-9.6464 -4.9414,-1.8379 c 1.73702,-1.1478 3.58599,-2.7674 5.14453,-5.5528 3.85321,-6.8861 4.8678,-14.5291 4.55664,-21.5039 -0.17826,-3.9932 -1.32651,-7.017 -2.29493,-9.748 -0.95486,-2.6928 -1.86266,-4.7706 -1.88867,-4.8301 -0.007,-0.016 -1.26393,-2.9936 -3.12109,-6.4922 -1.72999,-3.259 -3.67673,-6.9307 -7.12305,-10.1933 0.003,-0.085 0.0677,0.095 0.01,-0.3047 -0.15118,-1.044 -0.6851,-3.4095 -1.99805,-5.752 -0.1347,-0.5751 -0.27531,-1.1405 -0.48047,-1.541 0.35941,-1.0246 1.24405,-3.2705 1.13086,-6.5508 -0.44532,-12.9062 -6.67578,-28.3379 -6.67578,-28.3379 l -0.12891,-0.3496 -7.45312,-15.4355 c -0.22965,-0.6033 -7.45682,-19.568 -13.68945,-30.49412 -2.51306,-4.40558 -6.20217,-8.7154 -9.4375,-12.38672 -3.23533,-3.67131 -5.9961,-6.5039 -5.9961,-6.5039 l -0.082,-0.084 -16.43945,-15.88672 -17.71875,-13.35937 -0.47656,-0.26563 c 0,0 -4.35956,-2.42884 -9.90821,-5.06836 -5.54864,-2.63951 -12.02362,-5.58185 -18.3164,-6.72265 -9.67662,-1.75427 -17.33738,0.95402 -22.4961,0.78711 -4.10475,-0.13282 -13.32015,-1.38359 -14.95898,-1.60742 l -6.16016,-2.80079 -15.05664,-11.1289 c -0.37493,-0.35607 -2.42936,-2.31809 -5.58008,-5.01758 -3.42244,-2.93231 -7.40926,-6.26588 -11.6875,-8.54492 -7.03168,-3.74583 -16.48381,-6.60875 -24.59961,-8.85938 -8.11579,-2.25063 -14.76367,-3.71289 -14.76367,-3.71289 l -0.67578,-0.15039 -22.19922,-0.94531 -25.54883,0 z m 0.9668,15.82812 24.24609,0 20.37696,0.86914 c 0.48539,0.10772 6.00654,1.32207 13.36718,3.36329 7.67584,2.12862 16.89561,5.18268 21.38868,7.57617 1.73962,0.9267 5.7563,3.96045 8.83203,6.5957 3.07573,2.63525 5.42969,4.88281 5.42969,4.88281 l 0.36132,0.34375 17.07422,12.61719 9.78321,4.45117 1.11328,0.16016 c 0,0 10.9336,1.67694 17.77929,1.89844 9.07369,0.29358 15.83929,-1.81883 20.1836,-1.03125 2.86679,0.51971 9.28525,3.03691 14.33984,5.4414 4.83553,2.30029 8.29644,4.22547 8.61914,4.4043 l 15.98242,12.05078 15.51954,14.99805 c 0.029,0.0298 2.4913,2.55458 5.42773,5.88672 2.95368,3.35174 6.37777,7.68674 7.5625,9.76364 4.85872,8.51755 12.82031,28.71875 12.82031,28.71875 l 0.11524,0.2969 7.3164,15.1562 c 0.13051,0.3838 5.37203,15.8168 5.625,23.1484 -0.007,-0.217 -0.003,-0.069 -0.57031,1.7618 -0.44121,1.4239 -0.9381,4.2729 -0.38281,7.207 -0.008,0.02 -0.0859,0.2148 -0.0859,0.2148 -5e-5,6e-4 0.27322,2.8215 0.27344,2.8223 2.2e-4,8e-4 0.38912,1.094 0.56445,1.4375 1.19412,2.3397 1.49023,2.256 1.75977,2.3535 0.23776,1.6164 0.95181,5.9621 4.49609,9.0254 0.32606,0.2818 2.73585,3.5551 4.24414,6.3965 1.5083,2.8414 2.53516,5.2598 2.53516,5.2598 l 0.0176,0.041 0.0176,0.043 c 0,0 0.73789,1.691 1.50196,3.8457 0.76407,2.1548 1.39504,5.0444 1.40039,5.1641 0.21324,4.7799 -0.66432,9.6885 -2.55664,13.0703 0.51884,-0.9272 -0.53757,0.2615 -3.18555,1.8145 -1.32399,0.7765 -2.96113,1.7209 -4.68945,3.4531 -1.72833,1.7322 -3.52306,4.673 -3.7793,7.998 -0.24211,3.1415 0.87108,5.0538 1.69531,6.3575 0.82423,1.3037 1.62987,2.1575 2.35352,2.873 1.44728,1.4309 2.8164,2.3789 2.8164,2.3789 l 0.84766,0.6016 9.47852,3.5273 8.04101,6.7324 11.85742,15.7481 15.88086,23.0723 21.0918,26.9023 0.0742,0.09 c 0,0 11.98882,14.4568 21.21682,23.5743 2.2083,2.1818 11.2773,13.6132 11.2773,13.6132 l 0.1797,0.2325 16.1563,17.9785 c 0.1471,0.1822 8.1134,10.0447 11.6601,14.832 0.3706,0.5002 2.0882,3.7817 3.209,6.4551 0.9596,2.289 1.4576,3.6874 1.6465,4.207 0.094,0.5622 0.7823,4.5909 0.875,8.1504 0.033,1.2548 -0.622,6.2043 -1.5235,10.9258 -0.9014,4.7215 -1.9418,9.4075 -2.3945,13.1055 -0.9174,7.4948 -0.9473,11.2415 -0.9473,14.8867 0,-1.4437 -0.5143,1.5303 -1.4648,3.5 -0.9329,1.9332 -1.8404,3.4555 -1.875,3.5137 -0.017,0.028 -1.5436,2.4788 -3.3711,4.8261 -0.7608,0.9772 -1.4818,1.7466 -2.0684,2.3379 -1.5864,-0.1224 -5.6891,-0.4404 -10.1191,-0.9121 -4.283,-0.456 -6.9337,-0.7647 -8.2129,-0.9121 l -16.3789,-10.3066 c -0.4366,-0.3363 -13.1449,-10.1285 -19.36522,-15.8145 -6.68305,-6.1089 -22.35879,-20.4127 -22.64063,-20.6699 l -17.66406,-18.4473 -15.22656,-16.5215 c -0.15866,-0.1987 -8.94504,-11.2079 -11.0957,-15.0332 -1.88843,-3.3587 -6.01347,-13.0119 -6.65626,-14.5195 l -1.74023,-14.2324 c 0,0 -0.17131,-1.6457 -0.69336,-3.5781 -0.52205,-1.9325 -0.93692,-4.5549 -4.27344,-7.4707 -3.56458,-3.1152 -6.85882,-3.9564 -9.7539,-4.879 -2.89509,-0.9226 -5.3418,-1.4472 -5.3418,-1.4472 l -0.006,0 -0.004,0 c 0,0 -4.16426,-0.895 -9.33203,-1.584 -5.16776,-0.6889 -11.09508,-1.439 -16.99804,-0.2597 -4.86709,0.9723 -8.27263,3.3714 -10.88867,5.1211 -2.61605,1.7496 -4.50568,2.8806 -5.66407,3.1992 -0.74123,0.2038 -4.19046,0.5825 -6.91992,0.6465 -2.46626,0.058 -4.07901,0 -4.44727,-0.014 l -18.93554,-3.5234 -11.38867,-1.9434 -22.90039,0 -23.82227,0 -21.70117,-1.0078 -2.01172,1.1641 c 0,0 -4.96467,2.8738 -13.11914,7.8457 -0.22324,0.1361 -1.92763,0.6303 -4.59375,2.3027 -2.66612,1.6724 -6.03966,6.1994 -6.1582,10.7832 -0.0444,1.7172 -0.21416,2.5689 -0.32032,3.9629 -0.87672,-1.0639 -2.06172,-2.2453 -5.76172,-2.5586 -3.95432,-0.3347 -7.92534,0.1909 -12.04296,0.6133 -2.56503,0.2631 -3.37724,0.3791 -4.78516,0.5527 -0.10969,-0.044 -0.19454,-0.1158 -0.30664,-0.1562 -2.31066,-0.834 -4.78939,-0.6341 -7.29883,-0.061 -1.71181,-0.5383 -3.01197,-0.5176 -3.83984,-0.4062 -1.05256,0.1415 -1.79426,0.3614 -2.59961,0.6211 2.6302,-0.848 0.40847,-0.1739 -1.92578,-0.7247 -2.33426,-0.5507 -5.48516,-1.5055 -8.72266,-2.5117 -3.2375,-1.0062 -6.56734,-2.063 -9.65039,-2.8574 -2.68041,-0.6907 -4.69125,-1.5432 -8.23633,-1.123 0.002,0.029 -0.16469,0.073 -0.51562,-0.061 -0.80537,-0.3058 -2.17352,-0.9544 -3.70508,-1.6758 -1.53157,-0.7213 -3.20599,-1.5276 -5.29492,-2.1562 -2.08894,-0.6287 -5.11526,-1.6725 -9.19922,0.539 l -0.002,0 c -1.86494,1.01 -3.28637,1.717 -4.93554,3.8125 -0.2182,0.2773 -0.35067,0.6844 -0.52149,1.0391 -1.37643,0.4766 -5.77204,1.3497 -9.55664,1.6816 -4.01176,0.3519 -7.31836,0.3985 -7.31836,0.3985 l -28.88086,0 -19.46289,-1.7324 -16.49023,-4.2188 c -0.3527,-0.1499 -2.28632,-0.9622 -5.05274,-2.3223 -3.00596,-1.4778 -6.62862,-3.6115 -7.62109,-4.4414 -0.0791,-0.066 -0.88481,-1.1434 -2.11719,-3.2129 -1.23237,-2.0694 -3.05446,-5.3124 -7.02539,-7.5898 -4.33703,-2.4874 -7.84161,-2.4938 -10.94726,-2.7207 -3.10565,-0.2269 -5.67774,-0.1445 -5.67774,-0.1445 l -1.55859,0.047 -1.42383,0.6368 c 0,0 -1.89128,0.8383 -4.28125,1.6543 -2.38997,0.8159 -5.59981,1.2985 -5.38672,1.3105 l -0.002,0 c -0.34751,-0.02 -4.27851,-1.1751 -7.21289,-2.5605 -2.09257,-0.9881 -2.88682,-1.4736 -3.72852,-1.9473 l -7.72461,-11.8574 -12.51562,-20.125 -8.75781,-12.545 -8.93555,-16.4589 -12.42383,-16.9512 -22.53125,-8.0195 -15.83984,-6.6739 -19.68946,-2.8769 -25.32421,-3.5742 -15.79688,-4.2539 -15.48047,-7.0411 -13.69531,-5.9238 -8.58008,-4.5683 -14.33984,-9.4942 -8.1543,-7.2109 -14.07227,-15.5508 c -0.53309,-1.0265 -5.43236,-10.4353 -7.30859,-14.9336 -0.85739,-2.0556 -0.563,-8.0757 -5.45898,-14.4922 -3.19648,-4.1892 -7.16177,-5.7085 -9.65821,-6.8769 -2.49643,-1.1684 -3.47909,-1.9472 -3.52929,-2.0176 -0.0883,-0.1239 -0.46107,-0.9654 -0.78516,-2.8848 -0.32409,-1.9193 -0.54179,-4.7173 -1.81641,-8.0703 -1.8289,-4.811 -3.2747,-6.4926 -3.1582,-5.8242 0.0597,0.3427 0.004,-0.9888 0.1543,-2.0117 0.1484,-1.0114 0.31837,-1.7049 0.32226,-1.7207 l 0,0 c 3e-5,-2e-4 0.004,-0.016 0.004,-0.016 l 0.24023,-0.959 c 0.0191,-0.066 0.53074,-1.8289 1.31446,-4.0058 0.79819,-2.21705 2.20263,-4.97145 2.16601,-4.92185 0.4522,-0.6127 3.4518,-3.2757 6.07227,-5.08202 2.48175,-1.71067 4.36799,-2.79555 4.58594,-2.92187 l 14.96289,-6.56055 14.66015,-1.53906 14.51563,-6.94532 12.19336,-3.32812 11.03515,-1.63672 14.47071,1.35352 15.66406,5.1289 11.41992,4.03516 12.02734,0.46484 2.11914,-1.38867 c 0,0 1.81935,-1.19407 3.95899,-2.79883 2.13964,-1.60475 4.55739,-3.35742 6.79492,-6.18359 2.52268,-3.18636 3.52102,-6.3312 4.33985,-8.58594 0.81882,-2.25474 1.45504,-3.61645 1.86132,-4.125 0.58582,-0.73327 3.49757,-3.30629 5.97461,-5.12695 2.17305,-1.59722 3.57547,-2.49478 4.00196,-2.77149 1.12677,-0.44615 14.08517,-5.56556 19.1582,-6.56445 8.24244,-1.62295 31.85742,-3.04687 31.85742,-3.04687 l 48.19727,-2.28516 37.91992,-4.61914 42.07617,-8.24609 0.004,0 c 0,0 14.71586,-2.62512 19.73828,-2.58008 1.57629,0.0141 5.91775,2.37443 13.15234,1.79492 3.77399,-0.30232 6.71833,-1.42941 9.36719,-2.39453 2.64885,-0.96512 4.75,-1.89063 4.75,-1.89063 l 1.26367,-0.55859 1.00195,-0.95313 c 0,0 1.11008,-1.05415 2.56446,-2.29882 1.45437,-1.24467 3.46986,-2.69147 3.72461,-2.82813 1.36021,-0.72968 5.46868,-2.18698 8.82422,-3.14062 3.18865,-0.90622 5.53003,-1.43984 5.7832,-1.49805 l 21.25781,-2.60938 z m 265.50195,165.56831 c 0.12649,0.031 0.36197,0.3301 0.64844,0.6797 -0.23272,-0.2195 -0.38942,-0.4756 -0.64844,-0.6797 z m -12.59375,7.0371 c 0.0591,0.1519 0.068,0.3086 0.13477,0.459 0.10561,0.2381 -0.0322,0.1196 -0.13477,-0.459 z m -290.01367,168.957 c -0.32161,1.6501 -0.40632,3.1169 -0.39258,3.2071 0.0126,0.083 -0.23214,-0.9913 0.10743,-2.5117 0.0566,-0.2535 0.19827,-0.4533 0.28515,-0.6954 z m 79.71289,16.1993 c 0.0675,0.071 0.35997,0.4469 0.50391,0.6191 -0.69109,-0.3883 -0.62655,-0.7489 -0.50391,-0.6191 z m 338.51171,106.6328 c 0,0 -0.01,0.011 -0.012,0.014 -0.3277,0.2983 -0.3901,0.1677 0.012,-0.014 z"
           style="color:#000000;font-style:normal;font-variant:normal;font-weight:normal;font-stretch:normal;font-size:medium;line-height:normal;font-family:sans-serif;text-indent:0;text-align:start;text-decoration:none;text-decoration-line:none;text-decoration-style:solid;text-decoration-color:#000000;letter-spacing:normal;word-spacing:normal;text-transform:none;direction:ltr;block-progression:tb;writing-mode:lr-tb;baseline-shift:baseline;text-anchor:start;white-space:normal;clip-rule:nonzero;display:inline;overflow:visible;visibility:visible;opacity:1;isolation:auto;mix-blend-mode:normal;color-interpolation:sRGB;color-interpolation-filters:linearRGB;solid-color:#000000;solid-opacity:1;fill:#a0a1a2;fill-opacity:1;fill-rule:evenodd;stroke:none;stroke-width:15.82769966;stroke-linecap:butt;stroke-linejoin:miter;stroke-miterlimit:4;stroke-dasharray:none;stroke-dashoffset:0;stroke-opacity:1;color-rendering:auto;image-rendering:auto;shape-rendering:auto;text-rendering:auto;enable-background:accumulate" /><path
           sodipodi:nodetypes="ccccccccccccccccccccccccccccccccccccccccccccccccccccccccccccccccccccccccccccccccccccccccccccccccccccccccccccccccccccccccccccccccccccccccccccccccccccccccccccccccccccccccccccccccccccccccccccccccccccccccccccc"
           inkscape:connector-curvature="0"
           d="m 375.4666,974.04944 c 4.80563,-4.5138 1.19291,0.4437 0.73091,1.8418 -0.0379,0.7281 -1.10897,3.2654 -1.10897,3.2654 0,0 -0.6055,1.5936 -0.61775,2.1559 -0.007,0.6026 -0.42727,1.4466 -0.42427,2.0492 l -0.35695,1.5594 c -0.002,0.6761 -0.24331,0.568 -0.24331,1.2441 0.0755,0.7325 -0.11342,0.8665 -0.41296,2.3697 -0.2704,0.4857 -0.34046,1.3221 -0.43169,1.8677 -0.0556,0.54251 -0.46769,-4.1596 -0.47169,-3.615 0.84556,0.9826 0.2393,5.58481 0.2463,6.32611 -8.2e-4,0.6999 -0.48338,2.703 -0.48338,2.703 0.002,0.5409 0.007,1.3229 0.007,1.8637 -0.009,0.7094 -0.0623,1.1776 -0.0653,1.8871 -0.1093,0.77585 -0.26331,0.78085 0.007,1.47585 0.12382,0.7932 -0.10617,1.0645 0.19511,1.7937 0.3167,0.7625 0.56561,1.585 0.63841,2.4044 0.23495,0.7448 1.05611,2.5782 1.22328,3.3481 0.34904,0.7079 0.55366,1.0658 0.97229,1.7362 0.42594,0.7835 0.77806,1.6083 1.15896,2.4229 0.39572,0.7756 0.50102,1.5379 0.89158,2.31 0.23291,0.7559 0.54543,1.5219 0.88621,2.222 0.38358,0.8874 0.90142,1.6966 1.39556,2.5201 0.37469,0.7712 0.84235,1.4674 1.26255,2.2072 0.35974,0.7552 0.86062,1.4229 1.39306,2.057 0.53862,0.5658 1.03702,1.1192 1.41216,1.8125 0.54234,0.6909 1.0914,1.4067 1.52682,2.1757 0.55834,0.6866 1.07178,1.396 1.596,2.1057 0.39382,0.6068 0.84082,1.1713 1.30784,1.72 0.52034,0.5861 1.07095,1.1432 1.61272,1.7084 0.93642,0.7993 1.47007,1.938 2.31373,2.8179 0.96933,0.957 1.7653,2.1055 2.78253,3.0111 0.60526,0.7588 1.34624,1.3599 1.97467,2.0882 0.69066,0.4592 1.29266,1.0308 1.94209,1.5594 1.1959,0.9526 2.44937,1.8288 3.62451,2.8153 1.31391,0.9623 2.53849,2.0712 3.66871,3.2538 0.87742,0.7312 1.68366,1.5337 2.40047,2.4313 0.68327,0.4587 0.99074,1.241 1.51543,1.8504 0.46759,0.7371 1.11464,1.3223 1.64079,2.0174 0.87651,0.8362 1.5925,1.8291 2.4707,2.6638 1.22873,1.372 2.68048,2.5209 4.13779,3.6263 1.05841,0.9265 2.12276,1.8532 3.07857,2.8901 0.50326,0.6381 0.99666,1.2979 1.41151,2.0002 0.44221,0.7016 0.97448,1.3491 1.39442,2.0775 0.76055,1.032 1.55287,2.0361 2.33929,3.0506 0.75944,1.071 1.4216,2.1947 2.06602,3.3423 0.76518,1.0159 1.40028,2.1307 2.02627,3.2422 0.40031,0.6989 1.02219,1.1192 1.34576,1.8811 0.12472,0.6609 0.55723,1.1478 0.80418,1.7617 0.33956,0.822 0.67959,1.6552 1.07233,2.4545 0.54897,0.9801 0.96405,2.041 1.56468,2.9894 0.53372,0.9594 1.03911,1.9269 1.54815,2.9011 0.24278,0.5689 0.56,1.0629 0.95482,1.5296 0.42736,0.3997 0.39199,1.0316 0.62141,1.5255 0.37938,0.6727 0.53267,1.4329 0.81703,2.1417 0.36274,0.621 0.60749,1.2902 0.80802,1.9812 0.12109,0.3563 0.12653,0.7336 0.13696,1.1064 -0.0744,0.5316 0.22563,0.9223 0.46378,1.3737 0.22586,0.5686 0.34541,1.1632 0.39403,1.772 0.23883,0.6303 0.51893,1.2337 0.71597,1.8838 0.0694,0.6571 0.20023,1.2138 0.53147,1.7811 0.29822,0.4556 0.43906,1.0114 0.51147,1.5502 0.0519,0.516 0.0435,1.0356 0.0481,1.5537 0.0463,0.2994 -0.15851,0.7321 0.13606,0.8665 0.27536,0.4038 0.53998,0.8182 0.66366,1.2961 0.0932,0.478 0.0875,0.9656 0.0841,1.4505 -0.0204,0.6053 0.3281,1.1569 0.58628,1.6859 0.21565,0.3447 0.25776,0.7465 0.29452,1.1447 0.027,0.2118 0.0159,0.4236 0.0136,0.6363 0.002,0.2866 -0.002,0.5731 -0.005,0.8597 0.005,0.3547 -0.002,0.7093 -6.4e-4,1.0641 0.002,0.3952 10e-4,0.7905 -0.002,1.1857 5.4e-4,0.5417 -0.002,1.0833 0.002,1.6249 0.002,0.4628 -0.002,0.9256 -0.002,1.3884 0.007,0.4197 10e-4,0.8394 0.002,1.2591 0.005,0.3597 -0.001,0.7193 0.002,1.079 -0.009,0.4103 0.005,0.8207 -0.002,1.2311 0.002,0.379 7.2e-4,0.7579 -2.5e-4,1.1368 -0.001,0.2674 0.009,0.5346 0.002,0.8019 10e-4,0.3389 -0.001,0.6778 -0.002,1.0168 6.1e-4,0.4505 10e-4,0.901 -0.002,1.3515 0.005,0.5064 -6.4e-4,1.0128 0.002,1.5192 0.005,0.3777 -5.5e-4,0.7553 0.002,1.133 0.005,0.3078 -0.002,0.6156 5.5e-4,0.9236 0.007,0.2063 10e-4,0.4123 -6.1e-4,0.6185 0.005,0.3388 -0.002,0.6774 -0.001,1.0162 0.0658,0.5139 0.18848,1.0712 -0.0994,1.4626 -0.15921,0.9978 -0.10762,0.6518 -0.15921,0.9978 -0.0444,0.3974 -6.7e-4,1.1337 -6.7e-4,1.1337 -0.34468,0.3739 -0.0497,0.6101 -0.18719,1.102 -0.12177,0.4344 -0.1195,1.1893 -0.13266,1.637 0.007,0.4974 -0.0109,1.7448 -0.24582,2.1953 -0.2152,0.3516 -0.0821,2.1033 -0.19176,2.5047 -0.0379,0.4825 -1.83803,-1.9326 -2.11802,-1.5599 -0.2623,0.2373 -0.15559,-0.7406 -0.21187,-0.3972 0.0367,0.4891 0.46036,0.1215 0.17772,0.4794 -0.0914,0.1602 1.02553,-2.2923 -0.23785,-0.2547 -0.0236,0.2262 0.52483,-0.2092 0.52933,0.018 -5.2e-4,0.372 -0.18298,-0.2816 -0.18298,0.09 -0.007,0.3155 0.11565,-1.2389 0.11865,-0.9233 l -2.58857,-2.3992 0.36195,0.2413 c 0.002,-0.3148 -0.0553,0.6372 -0.0623,0.3225 -10e-4,-0.3666 -0.72591,-1.0952 -0.73291,-1.4617 4.0398,-6.521 0.90395,1.798 0.89988,1.5508 -0.056,-0.3157 -0.58407,-1.2411 -0.48398,-0.6897 0.0619,-0.088 2.4939,-4.1106 0.49948,0.2008 0.3393,-1.9957 2.26351,-3.7494 -0.0962,-0.086 0.0302,0.016 -0.35695,-0.069 -0.35495,-0.1039 0.0413,-0.3914 -0.42611,-0.1732 -0.20183,-0.4818 0.26371,-0.3 0.0809,0.3128 0.10624,-0.085 0.0846,-0.5036 -0.40891,0.084 -0.004,-0.2579 0.35797,-0.4198 -0.004,0.9045 -0.049,0.2633 -0.005,-0.4911 -0.42164,0.035 -0.34408,-0.4496 0.12359,-0.5741 0.0839,0.2577 0.0839,0.2577 0.37523,0.1689 -0.78719,-0.6219 -0.72007,-0.9057 0.0333,-0.3859 -1.70951,-0.2921 -1.40606,-0.5568 0.25454,-0.2876 -1.60238,0.1033 -1.62222,-0.2677 10e-4,-0.3384 -2.05106,-0.9652 -1.87109,-1.6787 l -1.08647,0.2266 c -1.2045,-0.4288 5.84956,-2.1242 5.85211,-2.4323 0.005,-0.3785 0.0583,-0.093 0.0623,-0.4718 0.002,-0.5071 0.96421,-1.4968 0.96721,-2.0039 -0.005,-0.4495 -0.005,-0.8991 -0.002,-1.3487 -0.001,-0.3382 -0.005,-0.6764 -0.002,-1.0147 -0.007,-0.268 0.005,-0.536 0.002,-0.8041 -9.7e-4,-0.3789 -0.002,-0.7577 -2.4e-4,-1.1366 -0.007,-0.4098 0.007,-0.8196 -0.002,-1.2294 0.002,-0.3602 -0.002,-0.7203 0.002,-1.0805 0.002,-0.4206 -0.005,-0.8412 0.002,-1.2619 -1.8e-4,-0.4619 -0.005,-0.924 -0.002,-1.3859 0.005,-0.5424 0.002,-1.0847 0.002,-1.627 -0.005,-0.3943 -0.005,-0.7887 -0.002,-1.183 0.001,-0.3549 -0.005,-0.7097 -2e-5,-1.0646 -10e-4,-0.2874 -0.005,-0.5745 0.002,-0.8618 -4.3e-4,-0.1979 -3.2e-4,-0.3949 0.002,-0.5928 -0.0113,-0.3267 -0.0136,-0.641 -0.18935,-0.9257 -0.28323,-0.6166 -0.68052,-1.263 -0.69247,-1.9498 -0.005,-0.4413 0.007,-0.8844 -0.0433,-1.3236 -0.0365,-0.3454 -0.28749,-0.6629 -0.49167,-0.926 -0.37441,-0.4248 -0.40732,-0.8099 -0.36026,-1.3619 0.007,-0.4964 0.0113,-0.9933 -0.0159,-1.4891 -0.0336,-0.4598 -0.14626,-0.9248 -0.39985,-1.3114 -0.34174,-0.6154 -0.5705,-1.2034 -0.59504,-1.9181 -0.1932,-0.7019 -0.50847,-1.3371 -0.77318,-2.0115 -0.0256,-0.5222 -0.0961,-1.0378 -0.28563,-1.5282 -0.26951,-0.5266 -0.65261,-1.0302 -0.59578,-1.6469 0.005,-0.3202 0.0204,-0.6461 -0.0653,-0.957 -0.16939,-0.6742 -0.41192,-1.3109 -0.75787,-1.9127 -0.29752,-0.6945 -0.42952,-1.4536 -0.81674,-2.1148 -0.20999,-0.4561 -0.20001,-0.9953 -0.55499,-1.3771 -0.40843,-0.5116 -0.74835,-1.0449 -0.99401,-1.6595 -0.49246,-0.9634 -0.99763,-1.9146 -1.5198,-2.8602 -0.59311,-0.9769 -1.04625,-2.0371 -1.59557,-3.0404 -0.40655,-0.8097 -0.75103,-1.6625 -1.10517,-2.4945 -0.24345,-0.6044 -0.70757,-1.086 -0.80098,-1.7509 -0.30055,-0.7152 -1.01858,-1.0916 -1.29823,-1.8274 -0.61447,-1.1168 -1.26957,-2.215 -2.01896,-3.2416 -0.63443,-1.1179 -1.2769,-2.2193 -2.02477,-3.2621 -0.79511,-1.0393 -1.62659,-2.0466 -2.38331,-3.1149 -0.43498,-0.7136 -0.98149,-1.3478 -1.40531,-2.0634 -0.41249,-0.6531 -0.85024,-1.2938 -1.33882,-1.888 -0.95845,-0.9883 -1.94361,-1.9444 -3.00392,-2.8196 -1.45645,-1.1488 -2.92855,-2.3023 -4.18667,-3.6813 -0.87642,-0.876 -1.65917,-1.8442 -2.52809,-2.7286 -0.54415,-0.669 -1.16372,-1.2757 -1.64115,-1.9973 -0.5056,-0.6305 -0.86906,-1.3614 -1.51867,-1.865 -0.69556,-0.8873 -1.52532,-1.6345 -2.35163,-2.3914 -1.1107,-1.1697 -2.33843,-2.232 -3.62349,-3.1948 -1.18827,-0.9738 -2.44852,-1.8413 -3.64902,-2.7958 -0.67068,-0.5462 -1.34016,-1.0931 -2.00212,-1.648 -0.6207,-0.7001 -1.32113,-1.3221 -1.92306,-2.043 -0.98736,-0.9614 -1.83603,-2.0691 -2.80207,-3.0532 -0.80954,-0.905 -1.39325,-1.9957 -2.31959,-2.796 -0.56406,-0.569 -1.12532,-1.1413 -1.65464,-1.7446 -0.45653,-0.5673 -0.90831,-1.138 -1.30665,-1.7502 -0.56038,-0.7156 -1.05834,-1.4688 -1.625,-2.181 -0.45324,-0.769 -1.01986,-1.4665 -1.54341,-2.1863 -0.35446,-0.6525 -0.88634,-1.1366 -1.35409,-1.7031 -0.54578,-0.6679 -1.06231,-1.3672 -1.44218,-2.1503 -0.43333,-0.7287 -0.8679,-1.438 -1.24479,-2.2014 -0.51294,-0.833 -1.03142,-1.6666 -1.42873,-2.5656 -0.35061,-0.6967 -0.77743,-1.3439 -1.01013,-2.1003 -0.38224,-0.791 -0.73693,-1.8173 -1.07186,-2.6253 -0.3748,-0.7916 -0.6561,-1.5923 -1.06915,-2.3565 -0.45099,-0.7373 -0.58018,-1.3367 -0.947,-2.12 -0.1551,-0.8008 -0.52655,-1.5052 -0.77705,-2.2756 -0.0476,-0.7549 -0.50255,-1.154 -0.79161,-1.8572 -0.30906,-0.7345 -0.40893,-1.4237 -0.50956,-2.2301 -0.28602,-0.7553 -0.57362,-1.8167 -0.46121,-2.6584 -0.005,-0.7079 -0.4776,-1.4159 -0.4876,-2.12375 2.3e-4,-0.5425 -0.35495,-1.2655 -0.35495,-1.2655 -0.005,-0.6992 -0.24149,-1.6396 -0.2433,-2.3388 0.005,-0.7409 -0.66559,-2.266 -0.67059,-3.0069 -0.007,-0.5648 -0.40187,-1.3931 -0.40187,-1.3931 0.0306,-0.602 -0.4223,-1.77331 -0.4223,-1.77331 0,0 -0.64035,-1.376 -0.75374,-2.103 0.002,-0.6754 -1.08581,-1.9542 -1.08786,-2.6297 l -1.44981,-2.2823 c 0,0 -1.2155,-1.8165 -1.2115,-2.4231 0.007,-0.6104 -1.68711,-2.801 -1.55486,-3.3988 0.16372,-0.6602 3.37821,0.2413 5.35409,0.3331 -2.21718,-0.2125 1.35456,1.3023 -1.56145,-0.1579 l 7.38378,0.844 z"
           id="path16312"
           style="opacity:1;fill:#a0a1a2;fill-opacity:1;fill-rule:nonzero;stroke:none;stroke-width:1px;stroke-linecap:butt;stroke-linejoin:miter;stroke-opacity:1" /><path
           sodipodi:nodetypes="cccccccccccccccccccccscccccccccccccccccccccccccccccccccccccccccccccccccccccccccccccccccccccccccccccccccccccccccccccccccccccccccccccccccccccccccccccccccccccccccccccccccccccccccccccccccccccccccccccccccccccc"
           inkscape:connector-curvature="0"
           d="m 767.1724,929.80943 c 0.7496,1.52155 -5.46072,-4.96321 -4.88118,-3.36441 0.0252,0.80672 6.96609,4.34794 7.32277,4.97983 0.20046,0.0747 -1.76742,-0.40286 1.86147,1.55753 -3.62889,-1.96039 -3.88483,-2.30164 -0.26102,-0.61281 0,0 0.88457,0.75408 1.01204,1.22802 0,0 0.76109,0.39428 1.02257,0.57796 0.13175,0.34954 1.89753,1.52363 2.19568,1.74927 0.3697,0.12321 2.54367,2.72328 -0.9438,-0.54941 1.29633,1.08877 3.77364,2.69037 3.98294,3.08565 0.21452,0.50055 -0.74258,-1.19823 -0.44703,-0.75255 0.15873,0.58095 1.23126,1.17483 1.59336,1.40235 0.23121,0.47881 0.98351,0.42063 1.28407,0.86774 0.26905,0.44698 1.41205,0.48234 1.66068,0.93741 0,0 -0.48261,0 1.50524,0.5553 0.49256,0.45633 0.82482,0.47312 0.82482,0.47312 0.59508,0.21783 1.53129,0.41623 1.69284,1.02935 0.94137,0.047 1.00057,-0.36616 1.21151,0.21087 0.29985,0.56309 1.56268,0.29602 1.78634,0.92346 0.0774,1.10252 0.5066,-2.28046 0.29505,-1.27736 0.39215,0.96092 1.56946,0.6692 1.82178,1.67773 0.1347,0.6224 1.93041,-1.68911 2.07697,0.55157 0.0485,0.74158 -0.90434,5.46026 -1.18812,6.66958 0.30892,0.86391 -0.35645,2.56427 -0.18846,3.47017 0.1551,0.96387 -0.31254,3.27327 -0.30143,4.24827 -0.11179,0.83295 -0.0338,3.90987 0.25146,4.65957 0.30333,0.9258 0.21984,0.8168 0.25306,1.7835 0.0299,1.1088 0.38465,3.5456 0.38005,4.6547 -0.10975,1.3 -0.0553,1.1996 0.24742,2.4543 0.2986,1.2239 0.29725,3.5622 0.36132,4.8185 0.0422,1.1292 0.0408,2.2592 0.0458,3.389 -1.1e-4,0.9339 -0.005,1.8678 -0.002,2.8017 -0.002,0.9958 -0.002,1.9917 -0.007,2.9875 10e-4,0.9765 0.005,1.953 0.002,2.9296 -0.002,1.03771 -0.005,2.07551 5.7e-4,3.11331 -0.007,1.0561 -3e-4,2.1121 -0.002,3.1681 0.001,0.9429 0.005,1.8858 0.002,2.8286 1.8e-4,1.04215 -10e-4,2.08425 -0.005,3.12645 0.007,1.117 -0.001,2.234 0.002,3.3511 -0.002,1.2252 -0.002,2.4504 -0.007,3.6756 0.002,1.3301 10e-4,2.6601 10e-4,3.9901 0.005,1.0462 0.009,2.0924 0.007,3.1386 -0.0113,1.1618 -0.002,2.3237 -0.002,3.4855 8.8e-4,1.2628 -0.005,2.5256 -0.007,3.7884 0.002,1.4575 -0.005,2.915 0.002,4.3724 -0.14377,1.232 -0.39175,2.4157 -0.58615,3.6406 -0.14309,1.0155 -0.28959,2.0425 -0.29889,3.0669 0.005,1.297 -0.41228,2.5454 -0.63256,3.8144 -0.0932,1.476 -0.32444,2.9059 -0.64082,4.3468 -0.33963,1.3664 -0.32468,2.7858 -0.56397,4.165 -0.33024,1.2429 -0.53766,2.5114 -0.95282,3.7284 -0.39244,0.981 -0.54009,2.0289 -0.92319,3.0112 -0.40425,1.0689 -0.69589,2.1761 -1.05296,3.2639 -0.37954,1.3246 -0.90754,2.575 -1.17802,3.9327 -0.44047,1.4758 -0.80763,2.971 -1.24495,4.448 -0.33421,1.5673 -0.91103,3.0598 -1.28367,4.6157 -0.51072,1.4617 -0.82239,2.9762 -1.22204,4.4682 -0.40428,1.3805 -0.86709,2.7435 -1.47518,4.0446 -0.72475,1.3244 -1.25071,2.7419 -1.78773,4.152 -0.702,1.6919 -0.97083,3.514 -1.40987,5.2852 -0.43158,1.8225 -0.94269,3.632 -1.5724,5.3939 -0.43774,1.3614 -0.82256,2.734 -1.27149,4.0928 -0.51057,1.3196 -1.11236,2.5977 -1.64836,3.9055 -0.41297,1.1319 -0.89242,2.2412 -1.38223,3.3407 -0.50097,1.1059 -1.64509,4.6609 -2.09275,5.7907 -0.66621,1.2675 -0.2406,0.2549 -0.67186,1.6087 -0.41566,1.2914 -1.00437,2.5148 -1.4196,3.805 -0.46378,1.4267 -1.08337,2.7922 -1.57224,4.2087 -0.4145,1.5421 -0.97375,3.0407 -1.52642,4.5359 -0.56644,1.6608 -1.08313,3.3392 -1.74165,4.9647 -0.55572,1.502 -1.13572,2.9934 -1.7769,4.4592 -0.58689,1.3028 -1.29533,2.5362 -1.99252,3.778 -0.54569,1.0182 -1.34692,1.8504 -1.94048,2.834 -0.63387,0.9745 -1.15008,2.0195 -1.76788,3.0038 -0.80972,1.2845 -1.68456,2.5199 -2.47769,3.8163 -0.86749,1.3564 -1.4862,2.8498 -2.40022,4.1747 -0.86378,1.2433 -1.59798,2.5758 -2.38021,3.8736 -0.73365,1.0411 -1.39134,2.1327 -2.08683,3.2004 -0.66172,0.9279 -1.33524,1.8423 -2.05048,2.7272 -0.68497,0.9216 -1.23937,1.9298 -1.91395,2.859 -0.5649,0.8322 -1.25474,1.5584 -1.85925,2.3578 -0.50889,0.7398 -1.18301,1.3237 -1.82002,1.9419 -0.79636,0.6237 -1.46459,1.3734 -2.11439,2.1486 -0.80105,1.044 -1.79374,1.8938 -2.71236,2.821 -1.07614,1.0721 -1.97382,2.3062 -2.97088,3.4513 -1.06895,1.1704 -2.10287,2.3676 -3.1054,3.5981 -0.59005,0.8091 -1.41125,1.3849 -2.09173,2.1042 -0.78985,0.7481 -1.56618,1.4978 -2.27555,2.3272 -0.79799,0.7938 -1.57527,1.6106 -2.25178,2.5164 -0.60901,0.8129 -1.25146,1.6018 -1.90969,2.3741 -0.72186,0.8981 -1.61634,1.6146 -2.47569,2.3657 -0.90523,0.7636 -1.51966,1.7264 -2.27948,2.6485 -0.66522,0.8995 -1.82781,1.2373 -2.69395,1.9293 -1.02094,0.9828 -1.33636,0.1995 -2.36517,1.1718 -1.02557,0.9603 -2.38125,1.527 -3.27126,2.619 -0.76899,1.0232 -1.66544,1.613 -2.59826,2.4778 -1.15458,1.1514 -3.30646,3.7221 -5.25517,4.612 l -2.10638,1.3032 c -0.67657,1.9901 -1.59937,1.6595 -3.01722,2.9166 -1.10319,0.5609 -0.59225,1.3386 -2.47366,1.8052 -2.01217,0.4882 0.19085,0.2814 -0.85088,1.0682 l -0.0794,0.386 -1.70626,0.5972 c 1.04544,-0.7774 -3.22612,1.7385 -2.18284,0.9582 1.79396,-1.2982 -1.46973,0.8282 0.006,-0.8516 1.3823,-1.3 2.15771,-1.8709 3.60756,-3.0911 1.22526,-1.1946 2.50852,-2.0277 3.75165,-3.2048 1.09632,-1.2182 2.91604,-2.7759 4.07243,-3.9259 0.87593,-0.8995 1.68086,-1.6103 2.4015,-2.6701 0.89395,-1.1099 1.87522,-1.7763 2.94656,-2.7112 0.96089,-1.0494 1.52261,-1.2195 2.50614,-2.2425 0.77697,-0.7532 2.68419,-1.9684 2.68419,-1.9684 0.66832,-1.0372 2.18927,-1.605 3.14647,-2.3401 0.83445,-0.7629 1.60661,-1.4792 2.30203,-2.3782 0.73949,-0.677 1.29219,-1.0718 2.00759,-1.7786 0.56372,-0.9852 1.39482,-1.8516 2.23396,-2.5931 0.69905,-0.8386 1.38325,-1.6963 2.2577,-2.3375 0.64883,-0.7783 1.43566,-1.3515 2.11555,-2.0865 1.01854,-1.2336 2.03492,-2.4614 3.11297,-3.6375 1.05802,-1.0927 1.8788,-2.3857 2.95718,-3.4626 0.8879,-0.9492 1.89302,-1.7471 2.70527,-2.772 0.66134,-0.7932 1.29401,-1.5991 2.06774,-2.269 0.71826,-0.4514 1.28027,-1.1701 1.86549,-1.781 0.60115,-0.8316 1.31118,-1.5307 1.86809,-2.3932 0.77844,-0.8424 1.2346,-1.8973 1.91846,-2.8168 0.60617,-0.9579 1.44765,-1.7524 2.06672,-2.7115 0.71742,-1.0531 1.3264,-2.1728 2.09969,-3.1847 0.82983,-1.2852 1.54042,-2.6441 2.37834,-3.9218 0.98553,-1.2758 1.57736,-2.757 2.42084,-4.1277 0.79443,-1.2962 1.62137,-2.5642 2.45165,-3.8292 0.65831,-0.9512 1.11923,-2.0051 1.76776,-2.9601 0.55178,-1.0245 1.3134,-1.8625 1.949,-2.8322 0.69116,-1.2375 1.42402,-2.4349 2.03173,-3.7213 0.62095,-1.4717 1.27662,-2.9297 1.78369,-4.4492 0.66495,-1.618 1.23465,-3.2677 1.75263,-4.9424 0.53431,-1.4958 1.13777,-2.9754 1.53083,-4.5153 0.44205,-1.4281 1.06664,-2.7814 1.5686,-4.188 0.36061,-1.3236 0.99213,-2.5336 1.40033,-3.8412 0.54891,-1.3025 0.64907,-2.791 1.39311,-4.0258 0.41142,-1.1588 0.91441,-2.2798 1.34381,-3.432 0.5566,-1.0489 0.95351,-2.2013 1.41393,-3.2952 0.4797,-1.3225 1.12236,-2.5731 1.65072,-3.8751 0.46203,-1.3671 0.88781,-2.7324 1.28343,-4.1201 0.6675,-1.7295 1.17165,-3.5257 1.60418,-5.3294 0.44591,-1.7922 0.71844,-3.6304 1.37647,-5.3601 0.56415,-1.4123 1.01822,-2.8727 1.74389,-4.213 0.71844,-1.2049 1.08807,-2.6004 1.52138,-3.9319 0.49591,-1.4433 0.62426,-3.0147 1.24746,-4.4278 0.33538,-1.5835 0.94477,-3.0699 1.27238,-4.6552 0.4255,-1.4617 0.75701,-2.9446 1.26145,-4.3816 0.23028,-1.3971 0.71329,-2.6716 1.13886,-4.0036 0.33403,-1.1071 0.69094,-2.2011 1.02739,-3.3024 0.39062,-0.9818 0.59986,-1.9848 0.9416,-2.9903 0.42418,-1.1975 0.66508,-2.4187 0.98246,-3.6528 0.345,-1.3575 0.57533,-3.5299 0.93533,-4.8946 0.29887,-1.4344 0.62866,-1.3866 0.64569,-2.865 0.18413,-1.2486 0.12282,-2.8239 0.17166,-4.0818 0.0113,-1.0509 0.4916,-2.2265 0.63408,-3.2698 0.15919,-1.2087 0.10721,-2.6172 0.38733,-3.7992 0.007,-1.4582 -5e-4,-2.9164 0.002,-4.3745 -0.005,-1.2607 -0.009,-2.5213 -0.007,-3.7819 -10e-4,-1.161 0.007,-2.3221 -0.002,-3.4831 -0.002,-1.0482 0.005,-2.0964 0.007,-3.1446 1.6e-4,-1.3304 -5.2e-4,-2.6608 0.001,-3.9913 -0.005,-1.2235 -0.005,-2.447 -0.007,-3.6705 0.005,-1.1177 -0.005,-2.2354 0.002,-3.3532 -0.005,-1.0406 -0.007,-2.0812 -0.005,-3.1218 -0.002,-0.9434 6.4e-4,-1.88675 0.002,-2.83015 -0.002,-1.0555 0.005,-2.1109 -0.002,-3.1663 0.005,-1.0379 0.002,-2.0759 5.2e-4,-3.1138 -0.002,-0.9773 0.002,-1.95461 0.002,-2.93181 -0.002,-0.9948 -0.002,-1.9895 -0.005,-2.9842 0.005,-0.9345 0.002,-1.8689 0.007,-2.8034 0.007,-1.1214 0.009,-2.2433 -0.0245,-3.3643 -0.0526,-1.2175 -0.14491,-2.4341 -0.43127,-3.6215 -0.31595,-1.3029 -0.31223,-2.5691 -0.18744,-3.9225 -0.002,-1.1014 -0.2363,-2.2028 -0.2572,-3.3041 -0.0274,-0.8966 -0.0413,-1.8059 -0.30457,-2.6702 -0.29917,-0.8088 -0.45686,-2.0421 -0.33271,-2.9389 -0.009,-0.9421 -0.2433,-1.4067 -0.37962,-2.341 -0.15579,-0.92636 -0.46732,-1.79551 -0.80117,-2.66901 -0.0578,-0.65004 -0.13832,-1.30095 -0.52596,-1.84336 -0.34536,-0.63992 -0.38672,-1.25738 -0.45137,-1.98013 -0.22632,-1.02115 -0.56549,-1.99813 -0.96891,-2.96053 -0.19501,-0.92094 -0.62918,-1.73115 -0.88363,-2.62568 -0.21316,-0.62952 -0.62574,-1.10534 -0.88201,-1.70159 -0.20885,-0.59979 -0.61558,-1.10113 -0.76121,-1.71761 -0.11814,-0.53854 -0.42659,-0.97257 -0.73286,-1.42228 -0.34908,-0.55694 -0.40564,-1.25192 -0.85082,-1.76322 -0.31756,-0.52638 -0.80772,-1.23565 -1.18775,-1.74224 -0.25577,-0.44064 -0.91181,-1.17775 -1.13831,-1.62055 -0.27313,-0.3695 -1.13189,-1.85191 -1.31433,-2.29954 -0.4248,-0.3149 -0.76557,-1.02177 -0.97501,-1.54121 -0.31659,-0.4031 1.02894,0.77099 0.77179,0.33714 -0.26126,-0.28745 -0.75976,-0.0945 -1.00061,-0.39982 -0.25839,-0.26689 -0.57961,-0.36662 -0.85687,-0.61334 -0.2567,-0.22462 -1.11168,-0.88106 -1.179,-1.0016 -0.34371,-0.30585 -0.18725,-0.39688 -0.39444,-0.81842 -0.0181,-0.25313 -0.83099,-0.44158 -1.05508,-0.54031 -0.41013,-0.26323 -0.9992,-0.675 -1.18056,-1.10446 -0.4099,-0.65122 -1.28196,0.5443 -1.32978,-0.27314 -0.5275,-1.59144 -5.22495,-3.73547 -6.00436,-5.21342 l 6.77925,5.52621 z"
           id="path16316"
           style="opacity:1;fill:#a0a1a2;fill-opacity:1;fill-rule:nonzero;stroke:none;stroke-width:1px;stroke-linecap:butt;stroke-linejoin:miter;stroke-opacity:1" /><path
           sodipodi:nodetypes="sscscsssscccssssssscssccssss"
           inkscape:connector-curvature="0"
           id="path5402"
           d="m 860.00518,1147.2573 c -7.1666,-0.202 -14.3333,-0.5856 -15.9259,-0.8524 -9.0589,-1.5173 -18.0262,-3.6778 -21.3861,-5.1526 -2.0401,-0.8955 -4.3607,-1.7847 -5.157,-1.976 -2.1423,-0.5147 -6.492,-2.7847 -9.9666,-5.2015 -1.685,-1.172 -4.6267,-2.9139 -6.537,-3.871 -5.471,-2.7409 -9.5722,-5.6083 -16.0807,-11.243 -3.3227,-2.8766 -7.1232,-6.0261 -8.4456,-6.9991 -1.3224,-0.9729 -3.0176,-2.4132 -3.7672,-3.2006 l -1.3629,-1.4316 0.857,-2.5377 c 1.4714,-2.9149 5.4895,-14.6635 6.1643,-17.0516 0.2503,-0.8858 1.4968,1.4379 3.0942,6.2739 2.8911,8.7527 7.2464,17.4845 10.3787,20.8085 3.6152,3.8363 8.7389,7.5865 16.9789,12.4275 15.9192,9.3524 23.5893,11.9462 42.7555,14.4588 4.7069,0.617 28.5786,0.3052 34.7023,-0.4532 3.3179,-0.411 8.4214,-0.9719 11.3412,-1.2465 8.1126,-0.7631 14.37492,-1.7088 19.62002,-2.9457 2.6123,-0.616 6.96321,-4.0887 7.16601,-3.9634 0.2029,0.1254 -0.48423,3.775 -0.48423,4.5649 0,1.5475 -0.42129,3.0611 1.64522,5.05 l 1.216,2.8702 -1.08325,-1.947 c 1.08325,1.947 -1.48231,0.4903 -3.86161,0.8716 -4.192,0.6718 -8.89465,0.6106 -17.02056,1.1201 -7.35332,0.4612 -22.8628,1.5483 -27.7083,1.7901 -2.2561,0.1126 -9.9657,0.039 -17.1324,-0.1627 z"
           style="opacity:1;fill:#a0a1a2;fill-opacity:1;stroke:none;stroke-width:10.56614208;stroke-miterlimit:4;stroke-dasharray:none;stroke-opacity:1" /></g><!-- brain outline end --></g><!-- lines layer end --><!-- LAYER_EFO start --><g
       inkscape:groupmode="layer"
       id="LAYER_EFO"
       inkscape:label="LAYER_EFO"
       style="display:inline">
       
       <path
         style="fill:none"
         d="m 136.10605,116.35079 c -0.84806,-0.19704 -1.46859,-0.55822 -3.50629,-2.04084 -2.41434,-1.75668 -7.15421,-5.77362 -7.15421,-6.06307 0,-0.0797 -1.43055,-1.62726 -3.17897,-3.43906 -2.63883,-2.73446 -3.40513,-3.65052 -4.5099,-5.391371 -0.98733,-1.555788 -0.88622,-3.713073 -1.21636,-4.818954 -0.24476,-0.819894 -0.53212,-1.245471 -1.07827,-1.53891 -1.83881,-0.987949 -1.44195,-0.775712 -0.23834,-1.062977 0.55196,-0.131737 1.79456,-1.286866 2.55289,-1.813719 1.44489,-1.003853 3.43758,-3.163484 3.60689,-3.909111 0.15934,-0.701621 1.1395,-2.873677 1.29678,-2.873677 0.0703,0 0.46303,0.571001 0.87274,1.268892 1.34725,2.294909 3.6569,5.437012 5.4355,7.39458 2.24735,2.473454 3.84241,4.311929 5.54248,6.388218 0.74877,0.914477 2.07649,2.410899 2.95051,3.325369 1.33629,1.39815 1.68969,1.89374 2.22123,3.11486 0.5995,1.37724 0.62684,1.52172 0.52987,2.80031 -0.0562,0.74148 -0.25802,1.97822 -0.44844,2.74831 -0.25627,1.03642 -0.32099,1.71842 -0.24914,2.62529 0,0 -0.15893,0.89456 -0.29461,1.2811 -0.12359,0.3521 -0.37488,0.75991 -0.37488,0.75991 -1.33645,1.42237 -1.56048,1.52343 -2.75948,1.24485 z"
         id="UBERON_0001896"
         inkscape:connector-curvature="0"
         sodipodi:nodetypes="ssssssssscsssssscscsss"
         inkscape:label="UBERON_0001896">
         <title id="medulla_oblongata">medulla oblongata</title>
         </path>
         
         <path
         style="fill:none"
         d="m 37.994013,69.886517 c -1.461982,-0.347916 -0.17521,-0.0438 -0.628301,-0.112428 -1.258157,-0.190557 -0.513676,-0.0043 -1.257663,-0.864161 -0.990959,-1.145306 -1.294792,-1.77706 -3.214138,-4.021007 -0.682632,-0.798079 -2.483444,-2.290051 -3.320234,-3.144088 -0.803161,-0.819713 -2.137447,-2.083207 -2.563163,-3.302158 -1.378345,-3.946593 -1.068214,-5.35635 0.699011,-8.345272 1.241952,-2.100523 1.310619,-2.545165 2.561003,-3.233973 0.71395,-0.393299 3.703062,-1.26973 4.696366,-1.476464 1.48936,-0.309976 6.11584,-0.329762 9.036859,-0.569418 1.718388,-0.140986 6.407362,-0.550655 8.110344,-0.751514 3.59757,-0.42432 2.795516,-0.479571 10.99018,-1.90536 0,0 3.843048,1.128722 5.534264,-1.154271 0.368898,-0.49798 0.961429,-0.545149 1.497603,-0.782556 0.609391,-0.269825 1.511666,-0.243524 1.511666,-0.243524 0.365228,-0.03208 1.575359,-0.133117 2.088895,-0.239696 0.513538,-0.106577 1.225838,-0.184131 2.516763,-0.21349 5.557289,-0.126387 4.885175,-0.04174 6.709062,0.108487 2.085549,0.171772 3.462678,0.752305 4.188763,1.291649 0.684211,0.508242 0.104286,0.832731 -0.679054,1.778702 -0.398251,0.480934 -0.808999,0.779404 -1.46961,1.067888 -1.710555,0.746987 -3.251351,2.340177 -6.868288,7.101837 -3.564171,4.692192 -5.113118,5.072788 -5.904193,4.974202 -0.283885,-0.03538 -0.917312,0.425206 -1.375613,-0.479147 -0.357913,-0.706262 -0.956695,-1.758748 -0.357913,-1.803475 1.020266,-0.07622 3.815339,-0.595869 5.046699,-2.89621 0.595334,-1.112164 0.652713,-1.289296 0.717529,-2.215094 0,0 -0.07829,-0.70471 0.07045,-1.006265 0.137083,-0.277914 0.696322,-0.615946 0.696322,-0.615946 0.53944,-0.477172 0.738076,-0.760821 0.881655,-1.258966 0.173661,-0.60253 0.170276,-0.65926 -0.05377,-0.900939 -0.212121,-0.228819 -0.345367,-0.237171 -1.180907,-0.07406 -1.123408,0.219311 -5.178669,1.090785 -3.754946,2.229074 0.599566,0.479361 -0.878246,1.319005 -1.627112,1.629699 -1.829948,0.75922 -5.801108,3.0217 -8.793734,4.746416 -3.566358,2.055365 -6.334721,2.338104 -9.183746,4.030142 -2.489823,1.478706 -3.029944,1.799382 -5.656419,4.20302 -1.305404,1.194651 -1.261065,2.197509 -1.67019,3.94626 -0.18891,0.807472 -0.41193,3.449432 0.167214,4.283173 l 0.150479,0.216631 c -0.150479,-0.216631 -1.974956,-0.08877 -1.974956,-0.08877 0,0 -5.141974,0.0218 -7.068018,-0.07687 z"
         id="UBERON_0000956"
         inkscape:connector-curvature="0"
         inkscape:label="UBERON_0000956"
         sodipodi:nodetypes="csssssssssssssssssssssssssssssssssssssssccc">
         <title id="cerebral_cortex">cerebral cortex</title>
         </path>
         
         <path
         style="fill:none"
         d="m 45.036891,91.244688 c -1.737906,-2.82419 -3.723548,-5.633158 -4.061862,-6.547221 -0.139255,-0.376239 0.0079,0.234915 0.885835,-0.620515 1.718344,-1.674359 -2.195767,2.066369 -0.61321,0.575502 0.91841,-0.865199 2.903193,-3.869331 2.84375,-4.541715 0,0 0.314333,-3.660034 0.438261,-4.66967 0.271229,-2.209419 0.09287,-3.546187 0.567992,-3.062128 1.142468,0.164635 -3.7238,-0.665015 6.064503,0.931085 1.017639,0.165938 3.285137,0.231024 3.285137,0.231024 0.155339,1.140063 -0.721826,6.2777 -1.030145,7.331351 -0.840441,2.872123 -0.304828,-0.711469 -0.299769,0.572254 0.008,2.017325 -1.91925,1.668558 -2.470025,5.000819 -0.299083,1.809484 0.761991,2.455435 0.586372,3.886014 -0.241267,1.965358 -0.249771,0.813615 -1.777903,1.222028 -2.091385,0.55895 -3.649724,0.941187 -4.418936,-0.308828 z"
         id="UBERON_0000369"
         inkscape:connector-curvature="0"
         sodipodi:nodetypes="sssscscscssssss"
         inkscape:label="UBERON_0000369">
         <title id="corpus_striatum">corpus striatum</title>
         </path>
         
         <path
         style="fill:none"
         d="m 74.011914,92.681968 c -1.224205,0.240954 0.456213,-0.414888 -0.415969,0.01704 -0.599302,0.296794 -1.18424,0.455357 -2.653921,1.505935 l -1.316671,1.101135 -0.665428,0.390048 c -0.578148,0.338887 -3.668505,0.224045 -4.852482,0.17127 -0.496706,-0.179726 -1.064311,-0.0018 -2.060499,-0.143912 l -0.945459,9.88e-4 -1.539678,-0.155394 -1.405207,-0.200627 -1.226549,-0.33744 c -0.566659,-0.34638 -0.843584,-0.302333 -1.058253,-0.735199 0,0 -0.289883,-0.70254 -0.33114,-0.923744 -0.145442,-0.779785 -0.509895,-1.55001 -0.417469,-2.562312 0.195257,-2.138537 -0.105497,-2.652574 0.433335,-4.665073 0.328471,-1.22689 1.409048,-2.735302 1.972019,-3.69963 l 1.343077,-2.300598 -0.442138,-1.020643 c -0.947497,-2.18723 -1.116274,-3.83882 -0.870971,-6.291633 0.170269,-1.702536 0.601888,-2.372267 1.213674,-4.055247 0.358545,-0.986311 0.697139,-1.955484 1.139828,-2.779226 0.789132,-1.468439 1.161014,-1.911445 1.53629,-1.805472 0.210518,0.05945 1.538051,0.27291 2.097807,0.357066 1.129785,-0.04588 0.980414,0.121262 2.110285,-0.20457 0.710891,-0.205006 2.074785,-0.498555 2.813183,-0.933873 0.738397,-0.435318 1.80024,-0.816235 2.080842,-1.058954 0.749538,-0.648341 1.406584,-0.997593 1.577664,-1.192908 0.07707,-0.08798 0.08965,-0.180946 0.408018,-0.509213 0.526875,-0.543247 0.850722,-1.020203 1.142591,-0.212235 0.459617,1.272306 3.179347,5.984855 3.662461,9.88424 0.411075,3.317959 0.406049,2.506542 0.08001,4.583466 -0.118666,0.755911 -0.522573,1.550938 -1.04417,2.151425 -0.547958,0.630837 -1.110382,1.055735 -2.076656,1.393433 -0.862913,0.301575 -0.311,0.313072 -0.682319,0.731476 -0.408537,0.460341 -0.265231,0.17026 -0.555214,0.250307 0,0 -0.731736,-0.09999 0.07546,-0.06667 0.524172,0.02164 0.345611,-0.719019 0.825632,-0.816315 0.821682,-0.166557 2.065047,0.703917 3.563111,1.641188 1.080342,0.675921 1.984099,1.284482 3.320531,3.49371 0.578455,0.95623 1.227877,2.436477 1.153248,4.341224 0,0 -2.25711,1.864651 -1.593065,1.329693 0.568074,-0.457645 0.140094,-0.129165 0.140094,-0.129165 -0.161364,0.380705 -0.367767,0.536037 -0.634713,0.537922 -0.619896,0.0044 -2.212349,0.450978 -0.947687,-0.515655 0,0 -1.195659,0.369488 0.114096,-0.232878 0.08058,-0.03706 -0.327259,0.489323 0.696986,0.564977 0.706036,0.05215 -1.254806,1.371795 -1.86037,1.804171 -0.207395,0.148081 0.398452,-0.565333 -0.204635,0.173784 0,0 -0.827359,0.86208 -1.219208,0.990716 -0.20984,0.06888 -0.658942,0.06399 -0.658942,0.06399 0,0 -2.083114,0.05648 -1.593332,-0.0261 l 0.690932,-0.116497 z"
         id="UBERON_0001894"
         inkscape:connector-curvature="0"
         sodipodi:nodetypes="csscscccccccsscscssscscssscsssssssssssscscscssscscscc"
         inkscape:label="UBERON_0001894">
         <title id="diencephalon">diencephalon</title>
         </path>
         
         <path
         style="fill:none"
         d="m 77.100712,96.232718 c -2.464035,-0.139166 -3.997611,-1.238104 -4.269962,-1.48732 0,0 -1.027033,-0.384977 -1.863733,-0.359048 -0.537681,0.01666 0.28841,-0.654327 0.530591,-0.861067 0,0 -0.03252,-0.131322 0.362821,-0.297732 1.769272,-0.744751 2.062354,-0.850022 3.975529,-1.014613 0.859267,-0.07392 2.207474,-1.013478 2.207474,-1.013478 0.561747,-0.409163 3.763957,-3.5727 4.052515,-3.331639 0.778299,0.650189 -0.04851,-0.251516 1.323987,1.439469 0.219163,0.27002 1.212582,1.39046 1.749986,1.900049 0.549838,0.521379 1.308251,1.44001 1.304695,1.743055 -0.0061,0.517615 -0.984169,0.934087 -1.566479,1.587098 -0.399308,0.447788 -1.060008,0.931591 -1.060008,0.931591 -0.06192,0.189075 0.03592,-0.01508 -0.441933,0.276334 -0.195307,0.119109 -0.643215,0.390252 -1.140984,0.549337 -0.816178,0.260844 -1.126511,0.252982 -1.733618,0.236447 -2.180408,-0.05938 -1.868967,-0.210268 -3.430881,-0.298483 z"
         id="UBERON_0000007"
         inkscape:connector-curvature="0"
         sodipodi:nodetypes="ssscsscssssssssss"
         inkscape:label="UBERON_0000007">
         <title id="pituitary_gland">pituitary gland</title>
         </path>
         
         <path
         style="fill:none"
         d="m 973.33752,117.66223 c 0.4313,-0.2311 1.12312,-0.30415 1.53741,-0.1623 0.41427,0.14182 0.0614,0.3309 -0.78419,0.42018 -0.93443,0.0986 -1.22984,-0.002 -0.75319,-0.25786 z"
         id="path4453"
         inkscape:connector-curvature="0" />
         
         <g
         inkscape:label="hippocampus"
         transform="matrix(0.15514368,0,0,0.14672848,-37.693751,-14.36539)"
         id="EFO_0000530"
         style="fill:none">
         <title id="hippocampus">hippocampus</title>
         <path
           style="fill:none"
           d="m 649.13219,544.02418 c -0.82165,0.1235 -0.81012,-0.73697 -3.20884,0.0207 -3.83485,1.21125 2.61305,-1.16439 -2.69448,1.27806 0,0 -1.61178,0.52832 -6.26316,-3.12597 -1.86253,-1.46327 -2.44435,-4.31032 -2.74514,-5.71084 -0.64463,-3.00149 -0.041,-6.84428 2.96985,-12.07769 1.49044,-2.59061 3.41199,-6.41796 4.27013,-8.50524 4.48486,-10.90867 2.76317,-31.25661 21.12982,-38.12137 4.33256,-1.61935 9.01772,-9.88843 15.80361,-13.10131 3.72084,-1.76167 9.56675,-4.75087 14.58167,-3.14105 5.6403,1.81057 4.6953,12.69504 8.48408,13.26463 2.13437,0.32088 6.44017,0.84867 8.55056,0.94951 5.35615,0.25593 5.46743,3.14348 7.68225,5.32348 1.7883,1.76019 1.4375,2.60723 1.55834,4.10898 0.15992,1.9874 -0.40408,4.46907 -1.14225,5.99589 -1.54192,3.18927 -13.39252,6.40228 -16.01283,7.79514 -35.87718,19.07101 0.84428,-1.00712 4.1077,-2.81693 3.86985,-2.14613 8.96158,4.86993 9.80671,8.49271 0.58507,2.50802 -5.75282,9.79318 -8.82251,12.99534 -7.24907,7.5619 -10.44188,11.82103 -18.12843,16.7648 -6.39098,4.11049 -11.24803,5.12735 -17.44495,8.48745 0,0 -5.54712,1.54919 -8.3796,1.76445 -2.76534,0.21015 -5.53454,-0.35072 -8.30387,-0.46985 -1.93219,-0.0831 0,0 -5.79866,-0.17083 z"
           id="path4435"
           inkscape:connector-curvature="0"
           sodipodi:nodetypes="cssssssssssssasssssssaacc" />
           <path
           style="fill:none"
           d="m 710.30588,496.85945 c -0.60342,0.0662 -1.32926,0.15992 -1.61301,0.20811 -0.28372,0.0482 -1.88136,-0.0344 -3.29632,0.2273 -2.13354,0.39465 -4.02713,0.62269 -5.63993,0.86309 -3.41639,0.50923 -5.29812,1.10706 -6.93821,1.33494 -2.69031,0.37378 -4.52152,1.30231 -7.12622,2.10639 -1.3716,0.42342 -1.78841,0.66876 -3.0609,1.09361 -1.51085,0.50443 -2.9694,0.79802 -4.25595,1.90963 -1.38245,1.19447 -1.35619,1.65871 -3.05098,2.58241 -0.062,0.0337 1.65329,-2.52176 1.64682,-2.63513 -0.0183,-0.32238 7.40118,-3.62162 11.33164,-4.55149 1.72979,-0.40924 3.88197,-0.92887 4.78264,-1.15473 0.90068,-0.22587 2.65307,-0.57064 3.89422,-0.76616 1.24118,-0.19552 3.95536,-0.62831 6.03154,-0.9617 2.07618,-0.33344 4.18013,-0.61759 4.67545,-0.63145 0.49532,-0.0137 1.4858,-0.0905 2.20105,-0.17027 0.92874,-0.10358 1.37996,-0.0785 1.57855,0.088 0.32933,0.276 0.2666,0.30072 -1.16037,0.45745 z"
           id="path4455"
           inkscape:connector-curvature="0"
           sodipodi:nodetypes="ccssssssscssssssscc" />
           
           </g>
           
           <path
         style="fill:none"
         d="m 116.3935,77.991395 c 0,0 0.065,0.09292 -0.47701,0.157579 -0.30107,0.03592 -1.03137,0.124135 -1.79962,0.222549 -0.57814,0.07406 -1.33541,0.273929 -1.88722,0.182111 -0.18034,0.337482 -1.07276,-0.586733 -1.07276,-0.586733 -0.079,0.567299 0.68683,0.654014 0.68683,0.654014 -0.27664,-0.329047 -1.3294,-0.614728 -0.0289,-0.0035 0,0 0.0289,0.0035 -0.93562,0.18275 l -1.27375,0.04376 c -0.76276,-0.212049 -0.81302,0.04014 -1.41858,0.0068 -1.00532,-0.05534 -2.16114,0.109866 -2.82071,-0.089 0,0 -1.14727,0.286338 -1.29059,-0.214325 -0.13657,-0.47707 -0.13657,-0.47707 -0.13657,-0.47707 -0.0625,-0.375554 -1.03557,-1.12099 -1.03557,-1.12099 -2.33487,-0.96553 -2.23788,-0.74769 -2.15295,-1.111638 0.0229,0.32921 -1.45811,0.303075 -1.45811,0.303075 -0.86812,0.300366 -1.10649,0.327688 -1.10649,0.327688 0,0 -0.17707,-0.286406 -0.347246,-0.250234 -0.232379,0.04939 -0.44134,-0.319295 -0.44134,-0.319295 -0.830676,-0.263877 -0.159772,-0.192607 -0.159772,-0.192607 0,0 -0.400945,-0.176094 -0.576329,-0.304311 -0.12234,-0.08944 -0.32422,-0.318707 -0.32422,-0.318707 -0.71097,-0.353618 -0.795945,-0.686535 -1.214626,-1.112472 -0.75018,-0.763218 -1.005186,-1.511644 -1.154995,-1.934108 -0.503128,-1.418946 -0.510703,-1.393488 -0.695589,-2.055422 -0.216537,-0.775243 1.445654,-3.469422 0.595316,-1.615516 -0.600487,1.30917 -0.228674,0.348129 0.271013,-0.765358 0.718891,-1.601998 4.251128,0.701086 2.481059,-0.194378 0,0 -1.7706,0.166972 -2.024585,-0.353361 -0.454926,-0.93201 0.301051,-1.639859 0.591249,-3.251338 0.131134,-0.728114 2.251018,0.706117 2.089797,-0.0066 -0.06796,-0.300494 -0.862409,-0.0058 -1.25848,-0.163415 -0.257723,-0.102603 -0.541185,0.08757 -0.68495,-0.49232 -0.09362,-0.3776 0.04392,-1.438996 0.155062,-2.306267 0.159278,-1.250706 0.210921,-3.050269 0.180966,-3.117299 0,0 -0.01005,-0.556799 -0.02874,-0.767491 -0.02951,-0.330056 0.0074,-0.767539 0.0074,-0.767539 0.128878,-0.527934 -0.139335,-1.301795 0.03791,-2.168292 0.129323,-0.632357 0.291532,-0.92891 0.572903,-0.957182 l 1.582783,1.494012 -1.863018,-1.824346 c -0.344015,-0.181648 -0.42922,-0.953766 -0.516055,-1.755098 -0.117664,-1.086264 -0.05662,-0.982704 -0.01449,-1.429976 0.03867,-0.409502 0.18915,-1.133589 0.358984,-1.564993 0.461415,-1.172429 1.061145,-1.475024 2.097274,-1.371666 0.470229,0.04691 1.201769,0.10233 1.455389,0.543041 0.29448,0.314373 -0.15834,-0.361797 -0.92222,-0.445372 -1.616512,-0.17686 0.1465,-0.143251 0.32559,-0.156343 0.25874,-0.01891 1.58643,-0.183562 2.35163,-0.09452 0.34387,-0.04633 1.08321,-0.09185 1.3589,0.01436 1.28722,0.30304 2.61817,0.996603 3.60811,2.404266 0.25721,0.365744 0.0516,0.679812 0.0272,1.091707 l -0.92876,0.865068 c 0,0 1.3051,-1.613302 1.78239,-1.501001 0.49427,0.116294 -0.12567,-0.162634 0.7867,0.592663 0.85169,0.705055 2.3744,2.081445 3.19757,3.030777 0.90318,1.021972 1.1415,0.984766 0.92724,1.620072 -0.0107,0.296525 0.0461,-0.289457 0.0666,-0.292161 0.0205,-0.0027 -0.15852,0.05844 -0.0155,-0.03025 0.17591,-0.109042 -0.0773,-0.01398 0.0905,0.04683 0.3354,0.121514 1.41618,2.189914 1.892,3.233713 0.3415,0.749143 0.39218,0.945231 0.41009,1.586437 0.0112,0.402397 -0.0708,0.643837 -0.22441,0.861246 l -1.38782,1.964353 c 0,0 0.5479,-1.56948 1.20425,-1.558201 1.68979,0.02904 2.35449,2.183406 2.96074,4.115836 0.27159,0.865673 -0.0405,1.332038 -0.0859,1.878624 -0.0527,0.635929 0.15154,1.168291 -0.16534,1.601382 -0.0544,0.0743 -0.17342,0.06317 -0.25326,0.110187 -0.51026,0.30048 -1.98544,0.887667 -1.42214,1.086452 0.4652,0.164165 1.65211,-1.514004 2.60933,0.424889 0.78817,1.596487 1.37708,2.393897 1.59614,3.727718 0.13479,0.820694 0.61025,2.286801 -0.19691,2.487287 -0.51177,0.127116 -0.67635,0.227017 -1.03626,0.718051 -0.7003,0.259961 -0.7635,1.436674 -0.9567,0.949327 0,0 -0.18201,0.182111 -0.27069,0.27541 -0.0417,0.04388 -0.1229,0.133723 -0.1229,0.133723 z"
         id="UBERON_0002037"
         inkscape:connector-curvature="0"
         sodipodi:nodetypes="csscsssccscssccccsscasssssscsssasssssssccsssscssccsccsscccsscsscascaassascsacc"
         inkscape:label="cerebellum">
         <title id="cerebellum">cerebellum</title>
         </path>
         
         <path
         style="fill:none"
         d="m 107.9088,92.513774 c 0,-0.131198 0.12516,-0.708335 0.27815,-1.282526 0.15297,-0.574189 0.33353,-1.83307 0.40122,-2.797508 0.10748,-1.531066 0.0564,-1.993634 -0.40251,-3.646102 -0.29762,-1.071663 -0.89655,-2.548449 -1.3808,-3.40467 -0.7756,-1.371354 -0.82339,-1.385245 -0.5134,-1.56666 0.18797,-0.110023 1.48112,-0.0234 2.99217,-0.04458 1.51105,-0.02117 4.18197,-0.249035 5.63905,-0.328555 0,0 2.05135,-0.354828 2.50378,-0.144587 0.53343,0.247889 1.15117,0.845782 1.15117,0.845782 1.00971,0.367885 1.73542,0.388633 3.2266,2.241803 0,0 0.71981,0.73345 0.76617,1.250555 0.0451,0.503123 -0.75883,1.714615 -0.75883,1.714615 -0.71877,1.860848 -1.70442,3.005022 -3.17825,4.253634 -0.80837,0.684826 -2.44785,1.624377 -2.77051,2.16332 -0.25248,0.421726 -1.33828,0.533836 -1.78566,0.578751 -0.49131,0.04932 -1.52278,-0.315992 -1.52278,-0.315992 -1.90232,-0.550982 -3.11267,-0.256633 -3.98463,0.299623 -0.40667,0.259439 -0.66094,0.329875 -0.66094,0.183095 z"
         id="UBERON_0002298"
         inkscape:connector-curvature="0"
         sodipodi:nodetypes="sccsscssssssssssssss"
         inkscape:label="brainstem">
         <title id="brainstem">brainstem</title>
         </path>
         
         <path
         style="fill:none"
         d="m 81.524682,86.738771 c -0.249571,-1.83622 -1.660725,-4.202119 -3.358948,-5.631544 -1.01421,-0.853679 -2.661111,-1.896847 -3.551104,-2.249291 l -0.602347,-0.238543 0.894011,-0.450705 c 0.825241,-0.416033 0.942954,-0.534166 1.529994,-1.535513 0.587938,-1.002873 0.647668,-1.192425 0.790906,-2.509658 0.151455,-1.392991 0.143946,-1.478863 -0.33588,-3.840521 -0.548646,-2.700338 -1.195893,-4.558119 -2.735448,-7.851457 -0.523993,-1.120924 -0.969187,-2.245421 -0.989294,-2.498879 -0.02011,-0.253459 -0.202753,-0.678709 -0.405852,-0.944997 -0.267736,-0.351027 -0.313698,-0.484164 -0.1671,-0.484164 0.111191,0 0.392068,-0.159782 0.624151,-0.35507 0.36185,-0.304467 0.421365,-0.446176 0.41761,-0.994347 -0.0053,-0.776102 -0.221955,-1.090301 -0.87644,-1.271015 l -0.497134,-0.137263 0.791828,-0.663526 c 1.140569,-0.955738 2.547589,-2.571195 3.589655,-4.121432 1.153546,-1.716047 4.105489,-5.203289 5.340798,-6.309298 0.52289,-0.468149 1.611817,-1.15864 2.017488,-1.527979 1.25792,-1.145271 1.794315,-0.860017 1.974425,-1.4612 l 0.0451,-0.695293 0.67278,-0.153209 c 1.103802,-0.251363 2.3561,1.357799 3.605868,2.443787 0.541515,0.470558 1.778789,1.07321 2.421489,1.863274 0.764433,0.939712 1.003816,1.621848 1.583537,3.270957 0,0 0.583839,1.817105 0.643354,2.166291 0.312512,1.833809 0.191493,5.677723 0.191493,5.677723 -0.003,6.581846 -0.459704,6.485237 -1.681002,10.66224 -1.096742,3.751007 -2.689189,9.332306 -3.531368,10.800498 -1.652893,2.881532 -3.575455,6.596975 -7.070711,8.948028 l -0.649868,0.925509 -0.681976,-0.833403 z"
         id="UBERON_0001891"
         inkscape:connector-curvature="0"
         sodipodi:nodetypes="csccsscsssssccscssssccssassssssccc"
         inkscape:label="UBERON_0001891">
         <title id="midbrain">midbrain</title>
         </path>
         
         <path
         style="fill:none"
         d="m 63.445119,81.92791 c -2.79292,-0.201187 -4.461557,-1.832573 -5.40397,-3.795274 -1.610829,-3.354796 -0.195684,-10.535911 2.724593,-13.70737 0.512186,-0.556246 0.08407,-0.0072 1.660643,-0.02361 2.216205,-0.02307 3.019745,0.339993 5.55215,-0.869259 1.18248,-0.564641 3.115862,-1.600186 3.115862,-1.600186 0,0 0.469629,-0.380376 0.794344,-0.578584 0,0 0.08905,-0.09279 0.806048,-0.749074 0.488318,-0.446971 0.167709,-0.684021 0.793382,-0.452747 0,0 -0.08868,0.530723 -0.076,0.01413 0.01054,-0.429754 0.824896,1.828066 1.201583,2.491938 2.202015,3.880818 2.912392,6.390777 2.851774,8.819175 -0.09437,3.780413 -0.09536,5.422877 -2.551507,6.645875 -3.627913,1.806455 -3.442484,2.786004 -5.706775,3.384075 -1.309168,0.345785 -4.376713,0.520712 -5.762127,0.420915 z"
         id="UBERON_0001897"
         inkscape:connector-curvature="0"
         sodipodi:nodetypes="sssssccsscsssss"
         inkscape:label="UBERON_0001897">
         <title id="dorsal_plus_ventral_thalamus">dorsal plus ventral thalamus</title>
         </path>
         
         <path
         style="fill:none"
         d="m 59.939396,95.718914 c -1.274921,-0.09302 -4.167952,-0.267137 -4.217343,-0.684337 0,0 -0.324475,-0.758488 -0.597716,-1.505551 -0.474868,-1.298396 -0.302809,-1.92465 -0.302809,-3.690171 0,-3.097689 0.293201,-3.925646 2.777707,-7.844024 0.444708,-0.701368 0.871855,-1.535587 0.949195,-1.853822 l 0.140649,-0.578606 0.884233,0.523409 c 1.230779,0.728548 2.372456,1.906829 4.143824,1.671176 2.023521,-0.269198 4.268668,0.0106 6.231733,-0.69624 1.42614,-0.513516 2.954934,-2.486633 3.78849,-2.488476 0.232038,-4.94e-4 0.928203,0.197979 1.547012,0.441095 0.867954,0.340995 1.510844,0.747602 2.812766,1.77897 0.928204,0.735322 1.789521,1.454377 1.914009,1.597902 0.124506,0.143525 0.614148,0.918552 1.088104,1.722282 0.716735,1.215443 0.898029,1.657424 1.077483,2.626746 0.118678,0.640978 -0.09963,1.35139 -0.491628,1.858191 -0.140159,0.181206 0.147162,-0.247497 -0.598882,0.33714 -2.27,1.778882 -2.794387,2.217436 -4.455872,3.177356 -0.897555,0.51856 -2.080939,-0.07278 -3.029082,0.505684 l -1.973484,0.719113 -1.031298,1.311966 c -0.727069,0.924941 -1.142191,0.847858 -2.03924,1.016032 -1.069682,0.200535 -6.171965,0.232605 -8.617851,0.05417 z"
         id="UBERON_0001898"
         inkscape:connector-curvature="0"
         sodipodi:nodetypes="sscssccssacsscscassscsss"
         inkscape:label="UBERON_0001898">
         <title id="hypothalamus">hypothalamus</title>
         </path>
         
         <path
         style="fill:none"
         d="m 34.941361,77.703882 c -0.373376,-0.205458 -1.446391,-0.609334 -2.513178,-1.005863 -2.068455,-0.768855 -2.729597,-0.82961 -4.853906,-1.038131 -3.389906,-0.332752 -5.719384,-0.83968 -7.572786,-1.684585 -0.726566,-0.331218 -2.177219,-1.088682 -2.710612,-1.264179 -0.798291,-0.262652 -1.5274,-0.680961 -3.203808,-1.726894 -3.135572,-1.956323 -3.387148,-2.356322 -5.92041,-5.522362 L 7.431269,64.542786 7.2071206,63.413965 C 7.0241454,62.492499 6.9009208,62.138288 6.5362911,61.485669 6.1043636,60.712597 5.861921,60.809598 4.8743505,60.163529 3.8591963,59.499417 4.0462358,59.346792 3.9182717,58.829431 3.8474667,58.543159 3.6802952,57.986065 3.5467815,57.591444 3.2034448,56.576652 3.2612489,56.076778 3.8548059,54.927752 4.3174627,54.032126 4.3205619,54.028794 5.0655399,53.626417 5.4763293,53.404541 6.2652668,53.065384 6.8187359,52.872734 7.3722051,52.680085 8.034804,52.416169 8.29118,52.286253 8.701026,52.078568 8.865606,52.053191 9.65402,52.076109 l 0.896702,0.02606 1.551691,-0.76297 c 1.427256,-0.701785 1.664459,-0.78603 2.957911,-1.050525 1.375544,-0.28128 1.289308,-0.333706 2.569988,-0.228872 2.074391,0.169802 3.040112,0.401539 4.655071,1.055951 0.800091,0.324213 1.487598,0.635147 1.527794,0.690967 0.118542,0.164613 1.077664,1.279511 1.287925,3.130722 0.123427,1.086694 0.870738,2.922938 0.870738,2.922938 0.628436,1.578743 2.670747,4.327429 4.057778,5.474397 1.283718,1.061537 3.127618,2.798574 3.898449,3.869955 0.753703,1.047573 1.481088,2.109625 2.311728,4.082556 0.57122,1.35676 1.447824,2.310934 1.12777,4.866088 l -0.182213,1.45471 -0.693104,0.266697 c -0.349021,0.134299 -0.528487,0.166217 -0.564356,0.16194 -0.03587,-0.0043 -0.613156,-0.127389 -0.986531,-0.332846 z"
         id="UBERON_0000004"
         inkscape:connector-curvature="0"
         sodipodi:nodetypes="ssssssscsssssssssscssssssssssscscs"
         inkscape:label="UBERON_0000004">
         <title id="nose">nose</title>
         </path>
         
         <path
         style="color:#000000;display:inline;overflow:visible;visibility:visible;fill:none;fill-opacity:1;fill-rule:evenodd;stroke:none;stroke-width:0.1;stroke-linecap:butt;stroke-linejoin:miter;stroke-miterlimit:4;stroke-dasharray:none;stroke-dashoffset:0;stroke-opacity:1;marker:none;enable-background:accumulate"
         d="m 85.744368,76.183066 c 2.539062,-4.6875 7.617187,-3.71093 7.617187,-3.71093 6.25,2.14843 5.859375,4.6875 5.859375,4.6875 -0.78125,3.32031 -4.296875,1.36718 -4.296875,1.36718 -3.710937,-0.78125 -5.46875,-0.58593 -5.46875,-0.58593 -0.651042,0.0651 -1.302083,0.13021 -1.953125,0.19531 -1.660156,0 -1.757812,-1.95313 -1.757812,-1.95313 z"
         id="UBERON_0002259"
         inkscape:connector-curvature="0"
         sodipodi:nodetypes="ccccccc"
         inkscape:label="corpora_quadrigemina">
         <title id="corpora_quadrigemina">corpora quadrigemina</title>
         </path>
         
         </g><!-- LAYER_EFO --></g>
    <!-- group_all -->
<a id="ccLogo" xlink:href="https://www.ebi.ac.uk/gxa/licence.html"> <image  xlink:href="https://licensebuttons.net/i/l/by/ffffff/33/99/33/80x15.png" x="55" y="0" height="15" width="80" /></a></svg>
