<?xml version="1.0" encoding="UTF-8" standalone="no"?>
<svg
   xmlns:dc="http://purl.org/dc/elements/1.1/"
   xmlns:cc="http://creativecommons.org/ns#"
   xmlns:rdf="http://www.w3.org/1999/02/22-rdf-syntax-ns#"
   xmlns:svg="http://www.w3.org/2000/svg"
   xmlns="http://www.w3.org/2000/svg"
   version="1.1"
   id="svg2"
   height="27.061121"
   width="33.433189"
   viewBox="0 0 33.433189 27.061121"
   preserveAspectRatio="none">
  <defs
     id="defs4" />
  <metadata
     id="metadata">
    <rdf:RDF>
      <cc:Work
         rdf:about="">
        <dc:format>image/svg+xml</dc:format>
        <dc:type
           rdf:resource="http://purl.org/dc/dcmitype/StillImage" />
        <dc:title></dc:title>
      </cc:Work>
    </rdf:RDF>
  </metadata>
  <g
     id="LAYER_OUTLINE"
     transform="matrix(0.29153969,0,0,0.29153969,0,-4.0082696)">
    <path
       style="fill:#a0a1a2;fill-opacity:1"
       d="M 89.85235,106.18723 C 87.5438,105.85808 86.35398,105.4706 86.67975,104.9435 86.76585,104.80418 88.14825,104.24619 89.39421,103.7035 93.20474,102.04381 94.52442,100.78324 94.33953,98.973004 94.33808,97.450824 93.32044,95.962094 91.18921,93.997594 88.65371,91.660444 86.90154,88.222034 82.69601,80.864474 80.16106,76.429594 79.69877,74.940554 80.15036,72.66483 80.31919,71.814014 80.42864,71.088256 80.39358,71.052032 80.35853,71.015809 79.2668,72.03363 77.96752,73.313854 75.41829,75.825714 75.6105,75.437244 74.01204,81.308134 73.61363,82.771424 72.76914,85.182374 72.13539,86.665804 70.39702,90.734854 70.34008,92.266514 70.34008,96.706444 70.44321,98.011404 70.71001,100.4079 69.0196,101.8969 67.38288,103.8943 62.92337,105.50781 60.42246,105.04926 59.80189,104.93547 59.87517,104.3093 55.60391,104.75887 51.8657,105.15233 51.50554,104.68208 51.3864,104.09147 51.26195,103.47457 52.31783,102.42372 55.92715,101.11097 57.59961,100.50267 60.12596,99.540804 61.22841,98.839404 62.33086,98.137994 63.64834,97.496694 64.15616,97.414284 L 64.6772,96.935344 64.42782,95.196114 C 63.9413,91.803044 62.98666,88.279794 63.69128,81.543624 64.67613,72.128553 65.4624,70.329705 67.96018,67.05641 70.43452,63.813819 72.82371,61.091686 72.92601,61.398579 72.98574,61.577765 72.45884,62.404378 71.75512,63.235492 69.40444,66.011731 67.23426,69.076967 66.6448,70.453488 65.62518,72.834524 64.28796,83.351274 64.29035,88.970414 64.47464,91.493414 64.92253,93.607864 65.07043,94.689354 65.23825,95.916424 65.80661,97.403004 64.82988,97.757104 64.31704,97.943034 62.80861,98.507834 61.80994,99.191644 60.81127,99.875444 58.71314,100.92527 57.14744,101.52458 53.92018,102.7599 52.33771,103.62327 52.58056,104.0162 52.67845,104.1746 54.21844,104.20594 56.33739,104.09266 59.06816,103.94667 60.0357,103.9898 60.37659,104.27271 61.46394,105.17513 66.67943,103.60749 68.20397,101.92001 69.54667,100.43381 69.82424,99.190344 69.61714,95.589404 69.4086,91.963604 69.79775,89.984134 71.50715,85.975584 72.63474,83.331364 74.73868,76.367354 75.14282,73.941534 75.37526,72.546341 75.79229,72.316011 75.92934,73.507124 76.01906,74.286834 76.06955,74.258824 78.33781,72.17096 79.95842,70.679237 80.80761,69.650712 81.16368,68.748307 81.78639,67.170167 81.91228,63.464322 81.56771,56.854911 81.41331,53.893377 81.42468,52.14885 81.59839,52.14885 81.91868,52.14885 82.40076,59.800574 82.37384,64.457008 82.36151,66.588654 82.08347,68.073892 81.86504,69.222365 81.57663,70.563807 81.18925,71.341572 80.95268,72.799164 80.60727,74.946834 80.91218,75.984994 83.0005,79.771654 87.71324,88.317044 89.84049,91.641914 91.97791,93.803294 94.36954,96.221744 94.99002,97.315894 94.99002,99.114834 94.99002,100.10079 94.7932,100.61948 94.09989,101.46058 93.18817,102.56665 91.16039,103.9221 90.11671,104.1231 89.79516,104.18502 89.17127,104.42473 88.73027,104.6558 L 87.92846,105.07591 88.7804,105.23816 C 89.24897,105.3274 90.93557,105.55413 92.52839,105.742 96.0523,106.15764 97.69177,105.8427 98.35855,104.62203 98.59257,104.19362 99.41783,102.72085 100.19247,101.34919 101.60957,98.839944 101.74539,98.439224 101.68425,96.947934 101.71349,95.941564 100.40242,95.068614 99.68991,94.293264 97.81963,92.274034 96.42404,90.067144 95.37499,87.469964 94.36989,84.981604 93.04113,78.704644 92.63356,74.519734 L 92.28795,70.971071 91.68416,71.835894 C 91.35208,72.311548 90.89727,72.70297 90.67348,72.705722 90.33938,72.709834 90.34643,72.620057 90.71287,72.203919 90.95832,71.925176 91.4998,71.017257 91.91617,70.18632 92.58095,68.859607 92.67319,68.323421 92.67319,65.785638 92.67319,61.405741 93.2143,55.853777 93.99747,52.198094 94.38409,50.393429 94.70042,48.363075 94.70042,47.686202 94.70042,46.272081 93.02853,39.959024 92.08583,37.813478 91.09409,35.556327 91.20545,32.028183 92.37377,28.69096 94.57948,22.390515 97.9698,17.880018 101.43046,16.641895 104.97673,15.373147 110.53226,18.270299 112.40459,23.043687 114.0921,27.3459 113.98096,25.649463 113.11727,22.884647 112.24311,20.086286 109.816,16.809866 107.95168,15.613533 103.5567,13.222409 98.40937,15.467804 95.62862,18.406393 91.53655,22.788138 88.68846,28.180821 88.04127,31.946767 87.4591,35.334412 86.87462,35.824529 85.10262,36.350756 83.21633,36.910925 80.97784,36.915813 76.88979,36.368682 68.96166,35.307629 61.85037,36.05496 52.12867,38.970844 46.00515,40.807505 42.47528,41.233344 39.87104,40.449581 38.45164,40.022404 34.45225,37.467068 32.69841,35.866759 32.12618,35.34462 31.18386,34.513956 30.60438,34.020842 30.02489,33.527725 28.659399,32.289669 27.569941,31.269606 22.81221,26.814918 21.506511,25.796359 18.925638,24.52631 15.340182,22.761903 11.260314,22.407833 7.077434,23.498067 4.588099,24.146892 3.983986,24.482322 4.821711,24.750551 5.608999,25.002627 7.240093,27.550853 7.240093,28.528745 7.240093,29.19128 6.812829,29.774799 5.212867,31.297368 4.097893,32.358406 3.185641,33.313754 3.185641,33.420363 3.185641,33.526972 3.446285,33.614198 3.764849,33.614198 4.083413,33.614198 4.344056,33.744519 4.344056,33.903801 4.344056,34.063083 4.156558,34.193405 3.927395,34.193405 3.655772,34.193405 3.442899,34.64576 3.315862,35.492912 3.052386,37.249886 3.307868,38.072334 4.26471,38.547496 L 5.068065,38.946436 4.271655,39.050786 C 3.561767,39.143804 3.475245,39.274027 3.475245,40.249433 3.475245,41.927973 4.284314,42.461765 8.36931,43.478344 10.882824,44.10385 11.937089,43.845419 13.058275,42.328935 13.686979,41.478569 14.190583,41.176976 14.190583,41.650828 14.190583,41.770362 13.684349,42.421971 13.065623,43.098847 12.291005,43.946268 11.704772,44.329535 11.183199,44.329535 10.208963,44.329535 10.228766,44.464572 11.366946,45.582488 11.884613,46.09094 13.770286,48.09834 15.557333,50.043382 L 18.806504,53.57982 19.121268,52.357521 C 20.113083,48.506067 20.653738,48.481865 19.859066,52.324492 19.608477,53.536211 19.40345,55.548641 19.40345,56.796558 19.40345,59.885298 20.404427,68.222789 21.286279,72.479304 21.684261,74.400274 22.009883,76.150444 22.009883,76.368564 22.009883,76.990204 21.491148,76.832704 21.27281,76.144784 21.096482,75.589224 20.984217,75.671734 20.198273,76.934464 19.278329,78.412484 15.638601,86.087804 15.638601,86.549724 13.043155,93.138874 12.92756,94.031294 9.631629,97.518304 8.552806,98.637674 7.435784,99.372004 5.181636,100.44372 2.136827,101.89137 0.156702,103.41213 1.325137,103.40556 1.631645,103.40382 2.522165,103.20835 3.304069,102.97115 5.405161,102.33376 7.648837,102.39717 8.145982,103.10797 8.519192,103.64159 8.650394,103.65314 10.307391,103.29826 12.370571,102.8564 12.423209,102.82882 14.406691,101.15052 16.776431,99.145394 18.066123,96.949414 19.432016,92.593844 20.274667,89.906794 21.122433,87.930064 22.308111,85.887674 23.232798,84.294844 24.248615,82.405184 24.565485,81.688414 29.379716,70.798415 32.16944,64.102612 32.34619,63.013461 32.43706,62.453507 32.62467,61.995362 32.76311,61.995362 33.16254,61.995362 33.06606,62.607984 32.26663,65.147881 31.39253,67.924998 31.40489,67.954952 33.88509,69.067998 39.73669,71.287161 44.62574,71.421561 49.95664,69.564019 56.83812,66.677461 64.26102,62.889829 70.44158,61.007 73.4079,60.111493 74.90292,59.847997 80.29263,59.270753 80.88994,59.206782 81.37865,59.262992 81.37865,59.395648 81.37865,59.528312 80.6293,59.714704 79.71342,59.809856 73.27427,60.478823 67.87136,62.355351 60.49208,65.931943 54.1801,68.991232 50.65506,70.536039 47.85523,71.305482 43.81061,72.417016 36.98936,71.310347 32.91745,69.230124 31.98784,68.755208 31.17333,68.366644 31.10743,68.366644 30.80382,68.366644 31.04784,69.616533 31.68026,71.300602 33.05985,74.974364 33.98381,77.465134 34.01076,84.183674 34.02547,87.849984 33.55939,89.671504 33.01242,91.225844 32.652,92.250064 32.4561,94.437334 32.21706,96.040874 31.79028,98.903644 31.26806,102.14991 30.04478,103.04669 29.83999,103.19681 29.407798,103.40869 28.979454,103.40869 28.55111,103.40869 27.166109,103.682 25.901676,104.01604 22.003955,105.04575 17.072574,104.41377 17.354833,102.8836 17.414599,102.55962 18.550955,102.15123 20.008707,101.67107 22.809737,100.74846 24.420431,99.681954 24.889349,98.439404 25.090181,97.907234 25.5556,96.755044 25.923617,95.878994 27.262912,92.690834 27.538404,90.694294 26.834704,89.276134 25.348354,85.923904 25.656107,84.651324 25.101122,81.953634 L 24.183376,83.631044 C 22.363376,86.516604 21.143478,89.696094 20.24591,92.829724 19.126742,96.739084 18.11707,98.484644 15.941023,100.81861 13.989589,102.91166 11.890877,103.88931 9.514186,104.16237 8.040396,104.33169 7.84604,104.28939 7.54917,103.73468 7.130936,102.9532 6.517341,102.95441 3.457599,103.74273 0.845924,104.4156 0,104.35 0,103.47459 0,102.54068 1.796346,101.16101 4.923264,99.693314 7.446569,98.508954 8.006759,97.847624 9.475455,96.311904 10.448914,95.294014 11.528117,93.850364 11.936889,92.977384 14.489897,87.574374 16.288234,81.969054 19.733386,76.731044 21.0685,74.483714 21.011095,74.011904 20.219874,70.683474 19.400979,67.238626 18.859406,64.196785 18.685093,59.823334 18.449625,53.915581 18.45721,54.781 15.493799,51.2544 14.605153,50.196869 12.799538,48.022055 11.630315,46.730205 L 9.504453,44.381389 6.996655,43.758127 C 3.049119,42.777048 2.651867,42.267815 2.582793,38.100035 2.492423,32.647367 2.492243,32.647993 4.720596,30.618502 5.917517,29.528393 6.36368,28.714126 6.357266,28.359958 6.246115,26.030713 3.748465,25.388589 3.187109,24.600281 3.394468,23.942785 7.948649,22.592175 10.534197,22.411879 16.523737,21.994212 20.779554,23.577575 27.543396,29.79696 32.80777,34.637579 36.26228,37.776098 38.72612,39.014314 40.78788,40.050464 40.85524,40.063067 43.50458,39.908387 46.0349,39.760654 48.17271,38.921394 55.45911,36.877597 61.67692,35.133534 70.44692,34.684295 76.60018,35.575811 81.71038,36.3162 85.68777,36.235879 86.28128,35.083659 87.3734,34.736143 86.55147,29.071294 92.07772,21.399126 95.46411,16.419748 98.49594,14.483207 102.32472,13.887121 108.08038,12.99105 112.07398,16.452616 113.98758,23.996243 114.80038,27.200427 114.90437,28.701276 114.25255,28.701276 113.77385,28.701276 113.42973,28.107473 112.89861,25.976605 112.11624,22.837695 109.75043,20.209666 107.05261,18.478916 104.87915,17.084561 103.5161,16.948499 101.82334,17.525279 99.15247,18.435336 96.47272,21.391635 94.60762,25.370834 92.87837,29.060211 92.26775,30.29107 92.2526,33.469396 92.23974,36.168914 92.60053,36.697073 94.01778,41.252722 95.75116,46.824564 95.6103,48.187045 94.70061,52.148836 93.63381,57.377608 93.66246,62.198273 93.44834,67.694349 92.96157,75.756574 94.74336,88.337864 100.69652,94.319064 102.43902,95.882054 102.24859,96.238574 102.17974,97.964964 102.08308,99.439114 101.8546,100.12168 100.98768,101.52627 100.39781,102.48196 99.73004,103.6575 99.50374,104.13858 98.39001,106.50621 95.85846,107.04356 89.85235,106.18722 Z M 26.134581,103.4087 C 27.284158,103.09014 28.517218,102.8295 28.874713,102.8295 30.02225,102.8295 30.76554,100.7508 31.41183,95.734214 31.63755,93.982104 32.11434,91.701474 32.47135,90.666144 33.72841,87.020714 33.1875,77.807444 31.37894,72.059106 30.99056,70.82467 30.63101,69.814677 30.57994,69.814677 30.52887,69.814677 30.2557,70.433705 29.97291,71.190295 29.69011,71.946885 28.750893,73.989604 27.885751,75.729664 25.320433,80.889304 25.335675,80.805944 26.22819,84.796234 26.647475,86.670784 27.173097,88.643974 27.396243,89.181094 27.619385,89.718214 27.800961,90.695624 27.799745,91.353124 27.797428,92.647334 26.998185,95.497314 26.246406,96.892624 25.988948,97.370474 25.777497,97.979504 25.776515,98.246024 25.771534,99.600854 23.15477,101.49892 20.053204,102.39743 19.056672,102.68612 18.316674,102.99918 18.408768,103.09311 19.361376,104.06478 23.201067,104.22162 26.134581,103.4087 Z M 9.415924,38.446441 C 8.865697,37.129564 8.864536,35.654305 9.41213,33.614212 10.165288,30.80823 10.027364,30.01787 8.499513,28.384476 6.983357,26.763577 6.953383,26.335888 8.424839,27.318913 10.400281,28.638632 10.869306,30.88876 9.931627,34.547654 9.506706,36.205728 9.486234,36.695072 9.7937,37.844656 10.237941,39.505618 10.010118,39.868532 9.415932,38.446441 Z M 17.738228,36.897658 C 17.161204,36.664822 17.319696,36.260087 17.925825,36.418593 19.189235,36.748984 20.200508,35.483103 21.640299,31.768933 22.812187,28.745858 22.452751,28.111741 19.56729,28.111741 18.560897,28.111741 17.955431,27.988651 17.955431,27.784051 17.955431,27.31924 22.141253,27.619895 22.754379,28.128744 23.466396,28.719666 23.091092,30.671465 21.721273,33.501507 20.269898,36.500044 19.140133,37.463338 17.738228,36.897658 Z M 18.601024,34.234448 C 18.350256,34.079463 18.329136,33.751548 18.525765,33.065943 18.676098,32.54176 18.723706,31.735918 18.63156,31.275184 18.506926,30.652018 18.589295,30.389417 18.953203,30.249773 19.22225,30.146529 19.590009,30.209683 19.770441,30.390115 20.014783,30.634459 20.00917,30.718175 19.748431,30.718175 19.496233,30.718175 19.448657,31.145978 19.578243,32.248534 19.765532,33.842072 19.345911,34.694819 18.601013,34.234448 Z M 5.792075,32.021392 C 6.332412,31.463905 6.904828,31.007779 7.06411,31.007779 7.223392,31.007779 6.911619,31.463905 6.371282,32.021392 5.830945,32.578879 5.258529,33.035005 5.099247,33.035005 4.939965,33.035005 5.251738,32.578879 5.792075,32.021392 Z M 7.658904,30.113734 C 7.386401,29.672816 7.978166,29.158019 8.51896,29.36554 8.779143,29.465381 8.896082,29.725118 8.797046,29.983201 8.599395,30.498279 7.943086,30.57355 7.658904,30.113734 Z"
       id="outline" />
  </g>
  <g
     transform="matrix(0.29153969,0,0,0.29153969,0,-4.0082696)"
     id="LAYER_EFO">
    <path
       style="fill:none;stroke:none"
       d="M 22.059878,35.389852 C 23.118404,35.184981 23.946273,31.585352 23.44813,31.084601 23.774728,30.645736 22.030143,27.714985 21.327536,27.59997 21.158797,27.57235 21.154744,27.52518 21.144532,27.367667 21.083902,26.432651 15.418166,24.766417 15.169733,24.929314 9.8559112,23.708804 8.8215597,25.590967 8.8215597,25.590967 7.5453338,27.218316 9.9311473,28.703552 9.9311473,28.703552 10.509383,28.917684 10.728897,29.285551 10.966048,29.601966 11.078561,29.752083 10.852427,29.771878 10.831854,29.935199 10.785634,30.302096 10.675448,31.588022 10.622367,31.920203 10.197868,32.900988 10.754353,33.150252 10.754353,33.150252 11.284771,33.532774 12.393977,33.324896 13.236042,33.689538 14.131553,34.077333 14.315979,34.525707 14.979205,34.60021 15.900044,34.713513 17.446246,35.559669 17.446246,35.559669 18.870569,36.381357 21.451271,36.665324 22.059878,35.389852 Z"
       id="UBERON_0000955">
      <title
         id="brain">brain</title>
    </path>
    <path
       style="fill:none;stroke:none"
       d="M 12.031252,24.531213 C 9.4166409,24.357515 8.6761392,25.765384 8.6761392,25.765384 7.8167915,27.081832 9.4623507,28.361711 9.4623507,28.361711 9.9011662,28.745676 10.029154,28.76396 10.029154,28.76396 L 10.394834,28.910231 C 10.870218,29.166208 10.979922,29.093071 10.979922,29.093071 12.224169,27.923829 12.263752,24.891701 12.031252,24.531213 Z"
       id="UBERON_0000451">
      <title
         id="prefrontal cortex">prefrontal cortex</title>
    </path>
    <path
       style="fill:none;stroke:none"
       d="M 22.083204,35.391448 21.922894,35.620459 C 21.922894,35.620459 21.740055,36.040989 20.80757,36.22383 20.80757,36.22383 19.326566,36.552942 17.223907,35.474187 17.059351,35.327913 17.443315,35.053655 17.443315,35.053655 18.613492,34.578271 20.112779,34.889097 20.112779,34.889097 20.771002,35.181642 21.721771,35.181642 21.721771,35.181642 22.050882,35.181642 22.083204,35.391448 22.083204,35.391448 Z"
       id="UBERON_0002037">
      <title
         id="cerebellum">cerebellum</title>
    </path>
    <path
       style="fill:none;stroke:none"
       d="M 27.662751,59.073585 C 27.280828,60.055855 27.192093,60.961915 27.787167,61.917545 28.946238,63.654695 32.61977,65.849185 33.691479,65.446135 34.154464,65.232825 34.481326,63.666795 34.166017,63.079865 32.935971,61.459285 33.094443,60.070915 32.040538,59.014015 30.507939,57.687375 29.914265,57.683815 29.914265,57.683815 28.424478,57.528795 27.662751,59.073585 27.662751,59.073585 Z"
       id="UBERON_0000948">
      <title
         id="heart">heart</title>
    </path>
    <path
       style="fill:none;stroke:none"
       d="M 53.552994,47.947421 C 52.321101,47.372805 52.834391,45.972176 52.834391,45.972176 54.217793,43.46242 57.383414,43.167066 59.917777,42.919524 61.902494,42.919524 62.347344,43.3864 62.347344,43.3864 63.036212,43.781449 62.891378,44.858854 62.655318,45.146162 60.762482,47.296573 54.841534,48.671438 53.552994,47.947421 Z"
       id="UBERON_0002113">
      <title
         id="kidney">kidney</title>
    </path>
    <path
       style="fill:none;stroke:none"
       d="M 49.770839,67.193575 C 50.967061,68.084385 56.682956,64.895995 56.682956,64.895995 58.290174,63.501225 59.514871,63.758525 59.321347,62.873185 59.224477,61.766415 57.563686,60.317595 56.854485,60.093005 54.232995,58.924795 51.416343,57.492085 51.100542,57.008765 50.282878,56.134745 49.969573,54.252355 49.969573,54.252355 48.564344,51.360539 47.738466,54.160035 47.738466,54.160035 46.37793,58.924345 48.97323,66.800535 49.770839,67.193575 Z"
       id="UBERON_0002107">
      <title
         id="liver">liver</title>
    </path>
    <ellipse
       style="fill:none;stroke:none"
       id="UBERON_0000473"
       transform="matrix(0.97836337,0.20689399,-0.20689406,0.97836335,0,0)"
       cx="101.18762"
       cy="33.569199"
       rx="1.4480187"
       ry="1.9651681">
      <title
         id="testis">testis</title>
    </ellipse>
  </g>
</svg>
